<?plantuml 1.2026.1?><svg xmlns="http://www.w3.org/2000/svg" xmlns:xlink="http://www.w3.org/1999/xlink" contentStyleType="text/css" data-diagram-type="MINDMAP" height="2243px" preserveAspectRatio="none" style="width:649px;height:2243px;background:#FEFEFE;" version="1.1" viewBox="0 0 649 2243" width="649px" zoomAndPan="magnify"><title>&#48120;&#54607; - &#44592;&#45824;&#54952;&#44284; 5 &#50689;&#50669;</title><defs/><g><rect fill="#FEFEFE" height="2243" style="stroke:none;stroke-width:1;" width="649" x="0" y="0"/><g class="title" data-source-line="1"><text fill="#000000" font-family="sans-serif" font-size="14" font-weight="bold" lengthAdjust="spacing" textLength="133.5138" x="256.4832" y="33.5352">&#48120;&#54607; - &#44592;&#45824;&#54952;&#44284; 5 &#50689;&#50669;</text></g><rect fill="#F1F1F1" height="32.9551" rx="12.5" ry="12.5" style="stroke:#181818;stroke-width:1.5;" width="90.3349" x="10" y="1116.5898"/><text fill="#000000" font-family="sans-serif" font-size="11" lengthAdjust="spacing" textLength="70.3349" x="20" y="1137.2246">MeFit &#44592;&#45824;&#54952;&#44284;</text><rect fill="#F1F1F1" height="32.9551" rx="12.5" ry="12.5" style="stroke:#181818;stroke-width:1.5;" width="84.972" x="150.3349" y="242.8311"/><text fill="#000000" font-family="sans-serif" font-size="11" lengthAdjust="spacing" textLength="64.972" x="160.3349" y="263.4658">1. &#49324;&#50857;&#51088; &#54952;&#44284;</text><rect fill="#F1F1F1" height="32.9551" rx="12.5" ry="12.5" style="stroke:#181818;stroke-width:1.5;" width="39.03" x="285.3069" y="136.9209"/><text fill="#000000" font-family="sans-serif" font-size="11" lengthAdjust="spacing" textLength="19.03" x="295.3069" y="157.5557">&#51221;&#47049;</text><rect fill="#F1F1F1" height="32.9551" rx="12.5" ry="12.5" style="stroke:#181818;stroke-width:1.5;" width="155.8197" x="374.3369" y="57.4883"/><text fill="#000000" font-family="sans-serif" font-size="11" lengthAdjust="spacing" textLength="135.8197" x="384.3369" y="78.123">&#47784;&#51032;&#47732;&#51217; 1~2&#54924; &#8594; 10&#54924; &#51060;&#49345;</text><path d="M324.3369,153.3984 L334.3369,153.3984 C349.3369,153.3984 349.3369,73.9658 364.3369,73.9658 L374.3369,73.9658" fill="none" style="stroke:#181818;stroke-width:1;"/><rect fill="#F1F1F1" height="32.9551" rx="12.5" ry="12.5" style="stroke:#181818;stroke-width:1.5;" width="135.8687" x="374.3369" y="110.4434"/><text fill="#000000" font-family="sans-serif" font-size="11" lengthAdjust="spacing" textLength="115.8687" x="384.3369" y="131.0781">&#52968;&#49444;&#54021; 5~15&#47564;&#50896; &#8594; &#54000;&#53011;</text><path d="M324.3369,153.3984 L334.3369,153.3984 C349.3369,153.3984 349.3369,126.9209 364.3369,126.9209 L374.3369,126.9209" fill="none" style="stroke:#181818;stroke-width:1;"/><rect fill="#F1F1F1" height="32.9551" rx="12.5" ry="12.5" style="stroke:#181818;stroke-width:1.5;" width="95.972" x="374.3369" y="163.3984"/><text fill="#000000" font-family="sans-serif" font-size="11" lengthAdjust="spacing" textLength="75.972" x="384.3369" y="184.0332">&#45824;&#44592; 1&#51452; &#8594; &#51593;&#49884;</text><path d="M324.3369,153.3984 L334.3369,153.3984 C349.3369,153.3984 349.3369,179.876 364.3369,179.876 L374.3369,179.876" fill="none" style="stroke:#181818;stroke-width:1;"/><rect fill="#F1F1F1" height="32.9551" rx="12.5" ry="12.5" style="stroke:#181818;stroke-width:1.5;" width="136.0274" x="374.3369" y="216.3535"/><text fill="#000000" font-family="sans-serif" font-size="11" lengthAdjust="spacing" textLength="116.0274" x="384.3369" y="236.9883">5 &#52852;&#53580;&#44256;&#47532; &#51216;&#49688; &#51088;&#46041; &#49328;&#52636;</text><path d="M324.3369,153.3984 L334.3369,153.3984 C349.3369,153.3984 349.3369,232.8311 364.3369,232.8311 L374.3369,232.8311" fill="none" style="stroke:#181818;stroke-width:1;"/><path d="M235.3069,259.3086 L245.3069,259.3086 C260.3069,259.3086 260.3069,153.3984 275.3069,153.3984 L285.3069,153.3984" fill="none" style="stroke:#181818;stroke-width:1;"/><rect fill="#F1F1F1" height="32.9551" rx="12.5" ry="12.5" style="stroke:#181818;stroke-width:1.5;" width="39.03" x="285.3069" y="348.7412"/><text fill="#000000" font-family="sans-serif" font-size="11" lengthAdjust="spacing" textLength="19.03" x="295.3069" y="369.376">&#51221;&#49457;</text><rect fill="#F1F1F1" height="32.9551" rx="12.5" ry="12.5" style="stroke:#181818;stroke-width:1.5;" width="84.0509" x="374.3369" y="269.3086"/><text fill="#000000" font-family="sans-serif" font-size="11" lengthAdjust="spacing" textLength="64.0509" x="384.3369" y="289.9434">&#47732;&#51217; &#48520;&#50504; &#44048;&#49548;</text><path d="M324.3369,365.2188 L334.3369,365.2188 C349.3369,365.2188 349.3369,285.7861 364.3369,285.7861 L374.3369,285.7861" fill="none" style="stroke:#181818;stroke-width:1;"/><rect fill="#F1F1F1" height="32.9551" rx="12.5" ry="12.5" style="stroke:#181818;stroke-width:1.5;" width="71.0555" x="374.3369" y="322.2637"/><text fill="#000000" font-family="sans-serif" font-size="11" lengthAdjust="spacing" textLength="51.0555" x="384.3369" y="342.8984">&#51088;&#44592; &#44061;&#44288;&#54868;</text><path d="M324.3369,365.2188 L334.3369,365.2188 C349.3369,365.2188 349.3369,338.7412 364.3369,338.7412 L374.3369,338.7412" fill="none" style="stroke:#181818;stroke-width:1;"/><rect fill="#F1F1F1" height="32.9551" rx="12.5" ry="12.5" style="stroke:#181818;stroke-width:1.5;" width="93.5659" x="374.3369" y="375.2188"/><text fill="#000000" font-family="sans-serif" font-size="11" lengthAdjust="spacing" textLength="73.5659" x="384.3369" y="395.8535">&#44060;&#49440; &#49324;&#51060;&#53364; &#54805;&#49457;</text><path d="M324.3369,365.2188 L334.3369,365.2188 C349.3369,365.2188 349.3369,391.6963 364.3369,391.6963 L374.3369,391.6963" fill="none" style="stroke:#181818;stroke-width:1;"/><rect fill="#F1F1F1" height="32.9551" rx="12.5" ry="12.5" style="stroke:#181818;stroke-width:1.5;" width="84.0509" x="374.3369" y="428.1738"/><text fill="#000000" font-family="sans-serif" font-size="11" lengthAdjust="spacing" textLength="64.0509" x="384.3369" y="448.8086">&#50672;&#49549; &#54617;&#49845; &#46041;&#44592;</text><path d="M324.3369,365.2188 L334.3369,365.2188 C349.3369,365.2188 349.3369,444.6514 364.3369,444.6514 L374.3369,444.6514" fill="none" style="stroke:#181818;stroke-width:1;"/><path d="M235.3069,259.3086 L245.3069,259.3086 C260.3069,259.3086 260.3069,365.2188 275.3069,365.2188 L285.3069,365.2188" fill="none" style="stroke:#181818;stroke-width:1;"/><path d="M100.3349,1133.0674 L110.3349,1133.0674 C125.3349,1133.0674 125.3349,259.3086 140.3349,259.3086 L150.3349,259.3086" fill="none" style="stroke:#181818;stroke-width:1;"/><rect fill="#F1F1F1" height="32.9551" rx="12.5" ry="12.5" style="stroke:#181818;stroke-width:1.5;" width="84.972" x="150.3349" y="587.0391"/><text fill="#000000" font-family="sans-serif" font-size="11" lengthAdjust="spacing" textLength="64.972" x="160.3349" y="607.6738">2. &#49324;&#54924;&#51201; &#54952;&#44284;</text><rect fill="#F1F1F1" height="32.9551" rx="12.5" ry="12.5" style="stroke:#181818;stroke-width:1.5;" width="93.5659" x="285.3069" y="507.6064"/><text fill="#000000" font-family="sans-serif" font-size="11" lengthAdjust="spacing" textLength="73.5659" x="295.3069" y="528.2412">&#51221;&#48372; &#48708;&#45824;&#52845; &#54644;&#49548;</text><path d="M235.3069,603.5166 L245.3069,603.5166 C260.3069,603.5166 260.3069,524.084 275.3069,524.084 L285.3069,524.084" fill="none" style="stroke:#181818;stroke-width:1;"/><rect fill="#F1F1F1" height="32.9551" rx="12.5" ry="12.5" style="stroke:#181818;stroke-width:1.5;" width="93.5659" x="285.3069" y="560.5615"/><text fill="#000000" font-family="sans-serif" font-size="11" lengthAdjust="spacing" textLength="73.5659" x="295.3069" y="581.1963">&#54217;&#46321;&#54620; &#47732;&#51217; &#44592;&#54924;</text><rect fill="#F1F1F1" height="32.9551" rx="12.5" ry="12.5" style="stroke:#181818;stroke-width:1.5;" width="84.0509" x="428.8728" y="481.1289"/><text fill="#000000" font-family="sans-serif" font-size="11" lengthAdjust="spacing" textLength="64.0509" x="438.8728" y="501.7637">&#51648;&#50669; &#44201;&#52264; &#54644;&#49548;</text><path d="M378.8728,577.0391 L388.8728,577.0391 C403.8728,577.0391 403.8728,497.6064 418.8728,497.6064 L428.8728,497.6064" fill="none" style="stroke:#181818;stroke-width:1;"/><rect fill="#F1F1F1" height="32.9551" rx="12.5" ry="12.5" style="stroke:#181818;stroke-width:1.5;" width="106.5614" x="428.8728" y="534.084"/><text fill="#000000" font-family="sans-serif" font-size="11" lengthAdjust="spacing" textLength="86.5614" x="438.8728" y="554.7188">&#54617;&#44368; &#51088;&#50896; &#44201;&#52264; &#54644;&#49548;</text><path d="M378.8728,577.0391 L388.8728,577.0391 C403.8728,577.0391 403.8728,550.5615 418.8728,550.5615 L428.8728,550.5615" fill="none" style="stroke:#181818;stroke-width:1;"/><rect fill="#F1F1F1" height="32.9551" rx="12.5" ry="12.5" style="stroke:#181818;stroke-width:1.5;" width="93.5659" x="428.8728" y="587.0391"/><text fill="#000000" font-family="sans-serif" font-size="11" lengthAdjust="spacing" textLength="73.5659" x="438.8728" y="607.6738">&#49884;&#44036;&#45824; &#44201;&#52264; &#54644;&#49548;</text><path d="M378.8728,577.0391 L388.8728,577.0391 C403.8728,577.0391 403.8728,603.5166 418.8728,603.5166 L428.8728,603.5166" fill="none" style="stroke:#181818;stroke-width:1;"/><rect fill="#F1F1F1" height="32.9551" rx="12.5" ry="12.5" style="stroke:#181818;stroke-width:1.5;" width="84.0509" x="428.8728" y="639.9941"/><text fill="#000000" font-family="sans-serif" font-size="11" lengthAdjust="spacing" textLength="64.0509" x="438.8728" y="660.6289">&#48708;&#50857; &#44201;&#52264; &#54644;&#49548;</text><path d="M378.8728,577.0391 L388.8728,577.0391 C403.8728,577.0391 403.8728,656.4717 418.8728,656.4717 L428.8728,656.4717" fill="none" style="stroke:#181818;stroke-width:1;"/><path d="M235.3069,603.5166 L245.3069,603.5166 C260.3069,603.5166 260.3069,577.0391 275.3069,577.0391 L285.3069,577.0391" fill="none" style="stroke:#181818;stroke-width:1;"/><rect fill="#F1F1F1" height="32.9551" rx="12.5" ry="12.5" style="stroke:#181818;stroke-width:1.5;" width="112.5959" x="285.3069" y="692.9492"/><text fill="#000000" font-family="sans-serif" font-size="11" lengthAdjust="spacing" textLength="92.5959" x="295.3069" y="713.584">&#45936;&#51060;&#53552; &#51088;&#49328;&#54868; &#44032;&#45733;&#49457;</text><path d="M235.3069,603.5166 L245.3069,603.5166 C260.3069,603.5166 260.3069,709.4268 275.3069,709.4268 L285.3069,709.4268" fill="none" style="stroke:#181818;stroke-width:1;"/><path d="M100.3349,1133.0674 L110.3349,1133.0674 C125.3349,1133.0674 125.3349,603.5166 140.3349,603.5166 L150.3349,603.5166" fill="none" style="stroke:#181818;stroke-width:1;"/><rect fill="#F1F1F1" height="32.9551" rx="12.5" ry="12.5" style="stroke:#181818;stroke-width:1.5;" width="94.487" x="150.3349" y="878.292"/><text fill="#000000" font-family="sans-serif" font-size="11" lengthAdjust="spacing" textLength="74.487" x="160.3349" y="898.9268">3. &#48708;&#51592;&#45768;&#49828; &#54952;&#44284;</text><rect fill="#F1F1F1" height="32.9551" rx="12.5" ry="12.5" style="stroke:#181818;stroke-width:1.5;" width="128.1257" x="294.8219" y="745.9043"/><text fill="#000000" font-family="sans-serif" font-size="11" lengthAdjust="spacing" textLength="108.1257" x="304.8219" y="766.5391">Free + Premium &#44396;&#46021;</text><path d="M244.8219,894.7695 L254.8219,894.7695 C269.8219,894.7695 269.8219,762.3818 284.8219,762.3818 L294.8219,762.3818" fill="none" style="stroke:#181818;stroke-width:1;"/><rect fill="#F1F1F1" height="32.9551" rx="12.5" ry="12.5" style="stroke:#181818;stroke-width:1.5;" width="61.5405" x="294.8219" y="798.8594"/><text fill="#000000" font-family="sans-serif" font-size="11" lengthAdjust="spacing" textLength="41.5405" x="304.8219" y="819.4941">&#54000;&#53011; &#52649;&#51204;</text><path d="M244.8219,894.7695 L254.8219,894.7695 C269.8219,894.7695 269.8219,815.3369 284.8219,815.3369 L294.8219,815.3369" fill="none" style="stroke:#181818;stroke-width:1;"/><rect fill="#F1F1F1" height="32.9551" rx="12.5" ry="12.5" style="stroke:#181818;stroke-width:1.5;" width="161.6046" x="294.8219" y="851.8145"/><text fill="#000000" font-family="sans-serif" font-size="11" lengthAdjust="spacing" textLength="141.6046" x="304.8219" y="872.4492">B2B &#46972;&#51060;&#49440;&#49828; (&#48512;&#53944;&#52896;&#54532; / &#54617;&#44368;)</text><path d="M244.8219,894.7695 L254.8219,894.7695 C269.8219,894.7695 269.8219,868.292 284.8219,868.292 L294.8219,868.292" fill="none" style="stroke:#181818;stroke-width:1;"/><rect fill="#F1F1F1" height="32.9551" rx="12.5" ry="12.5" style="stroke:#181818;stroke-width:1.5;" width="122.7254" x="294.8219" y="904.7695"/><text fill="#000000" font-family="sans-serif" font-size="11" lengthAdjust="spacing" textLength="102.7254" x="304.8219" y="925.4043">&#48516;&#49437; &#47532;&#54252;&#53944; PDF (Pro)</text><path d="M244.8219,894.7695 L254.8219,894.7695 C269.8219,894.7695 269.8219,921.2471 284.8219,921.2471 L294.8219,921.2471" fill="none" style="stroke:#181818;stroke-width:1;"/><rect fill="#F1F1F1" height="32.9551" rx="12.5" ry="12.5" style="stroke:#181818;stroke-width:1.5;" width="161.5429" x="294.8219" y="957.7246"/><text fill="#000000" font-family="sans-serif" font-size="11" lengthAdjust="spacing" textLength="141.5429" x="304.8219" y="978.3594">&#45936;&#51060;&#53552; &#51064;&#49324;&#51060;&#53944; BM (&#47704;&#53664; &#54645;&#49900;)</text><rect fill="#F1F1F1" height="32.9551" rx="12.5" ry="12.5" style="stroke:#181818;stroke-width:1.5;" width="131.1155" x="506.3648" y="904.7695"/><text fill="#000000" font-family="sans-serif" font-size="11" lengthAdjust="spacing" textLength="111.1155" x="516.3648" y="925.4043">HR &#49884;&#51109;&#50857; &#53944;&#47116;&#46300; &#47532;&#54252;&#53944;</text><path d="M456.3648,974.2021 L466.3648,974.2021 C481.3648,974.2021 481.3648,921.2471 496.3648,921.2471 L506.3648,921.2471" fill="none" style="stroke:#181818;stroke-width:1;"/><rect fill="#F1F1F1" height="32.9551" rx="12.5" ry="12.5" style="stroke:#181818;stroke-width:1.5;" width="112.5959" x="506.3648" y="957.7246"/><text fill="#000000" font-family="sans-serif" font-size="11" lengthAdjust="spacing" textLength="92.5959" x="516.3648" y="978.3594">&#51064;&#49324;&#54016; &#52292;&#50857; &#51064;&#49324;&#51060;&#53944;</text><path d="M456.3648,974.2021 L466.3648,974.2021 C481.3648,974.2021 481.3648,974.2021 496.3648,974.2021 L506.3648,974.2021" fill="none" style="stroke:#181818;stroke-width:1;"/><rect fill="#F1F1F1" height="32.9551" rx="12.5" ry="12.5" style="stroke:#181818;stroke-width:1.5;" width="112.5959" x="506.3648" y="1010.6797"/><text fill="#000000" font-family="sans-serif" font-size="11" lengthAdjust="spacing" textLength="92.5959" x="516.3648" y="1031.3145">&#47784;&#48276; &#45813;&#48320; &#46972;&#51060;&#48652;&#47084;&#47532;</text><path d="M456.3648,974.2021 L466.3648,974.2021 C481.3648,974.2021 481.3648,1027.1572 496.3648,1027.1572 L506.3648,1027.1572" fill="none" style="stroke:#181818;stroke-width:1;"/><path d="M244.8219,894.7695 L254.8219,894.7695 C269.8219,894.7695 269.8219,974.2021 284.8219,974.2021 L294.8219,974.2021" fill="none" style="stroke:#181818;stroke-width:1;"/><path d="M100.3349,1133.0674 L110.3349,1133.0674 C125.3349,1133.0674 125.3349,894.7695 140.3349,894.7695 L150.3349,894.7695" fill="none" style="stroke:#181818;stroke-width:1;"/><rect fill="#F1F1F1" height="32.9551" rx="12.5" ry="12.5" style="stroke:#181818;stroke-width:1.5;" width="84.972" x="150.3349" y="1301.9326"/><text fill="#000000" font-family="sans-serif" font-size="11" lengthAdjust="spacing" textLength="64.972" x="160.3349" y="1322.5674">4. &#44592;&#49696;&#51201; &#54952;&#44284;</text><rect fill="#F1F1F1" height="32.9551" rx="12.5" ry="12.5" style="stroke:#181818;stroke-width:1.5;" width="144.6214" x="285.3069" y="1063.6348"/><text fill="#000000" font-family="sans-serif" font-size="11" lengthAdjust="spacing" textLength="124.6214" x="295.3069" y="1084.2695">&#54617;&#49373; &#52897;&#49828;&#53668;&#51060; &#50868;&#50689;&#44553; &#49884;&#49828;&#53596;</text><path d="M235.3069,1318.4102 L245.3069,1318.4102 C260.3069,1318.4102 260.3069,1080.1123 275.3069,1080.1123 L285.3069,1080.1123" fill="none" style="stroke:#181818;stroke-width:1;"/><rect fill="#F1F1F1" height="32.9551" rx="12.5" ry="12.5" style="stroke:#181818;stroke-width:1.5;" width="126.5071" x="285.3069" y="1116.5898"/><text fill="#000000" font-family="sans-serif" font-size="11" lengthAdjust="spacing" textLength="106.5071" x="295.3069" y="1137.2246">12 &#47560;&#51060;&#53356;&#47196;&#49436;&#48708;&#49828; &#48516;&#54624;</text><path d="M235.3069,1318.4102 L245.3069,1318.4102 C260.3069,1318.4102 260.3069,1133.0674 275.3069,1133.0674 L285.3069,1133.0674" fill="none" style="stroke:#181818;stroke-width:1;"/><rect fill="#F1F1F1" height="32.9551" rx="12.5" ry="12.5" style="stroke:#181818;stroke-width:1.5;" width="144.6214" x="285.3069" y="1169.5449"/><text fill="#000000" font-family="sans-serif" font-size="11" lengthAdjust="spacing" textLength="124.6214" x="295.3069" y="1190.1797">&#51060;&#48292;&#53944; &#44592;&#48152; &#50689;&#49345; &#54028;&#51060;&#54532;&#46972;&#51064;</text><path d="M235.3069,1318.4102 L245.3069,1318.4102 C260.3069,1318.4102 260.3069,1186.0225 275.3069,1186.0225 L285.3069,1186.0225" fill="none" style="stroke:#181818;stroke-width:1;"/><rect fill="#F1F1F1" height="32.9551" rx="12.5" ry="12.5" style="stroke:#181818;stroke-width:1.5;" width="145.9253" x="285.3069" y="1222.5"/><text fill="#000000" font-family="sans-serif" font-size="11" lengthAdjust="spacing" textLength="125.9253" x="295.3069" y="1243.1348">Property-based Testing</text><path d="M235.3069,1318.4102 L245.3069,1318.4102 C260.3069,1318.4102 260.3069,1238.9775 275.3069,1238.9775 L285.3069,1238.9775" fill="none" style="stroke:#181818;stroke-width:1;"/><rect fill="#F1F1F1" height="32.9551" rx="12.5" ry="12.5" style="stroke:#181818;stroke-width:1.5;" width="125.7416" x="285.3069" y="1381.3652"/><text fill="#000000" font-family="sans-serif" font-size="11" lengthAdjust="spacing" textLength="105.7416" x="295.3069" y="1402">9+ &#51060;&#49885; &#44032;&#45733; &#44592;&#49696; &#51088;&#49328;</text><rect fill="#F1F1F1" height="32.9551" rx="12.5" ry="12.5" style="stroke:#181818;stroke-width:1.5;" width="103.8376" x="461.0484" y="1275.4551"/><text fill="#000000" font-family="sans-serif" font-size="11" lengthAdjust="spacing" textLength="83.8376" x="471.0484" y="1296.0898">BaseService &#54056;&#53556;</text><path d="M411.0484,1397.8428 L421.0484,1397.8428 C436.0484,1397.8428 436.0484,1291.9326 451.0484,1291.9326 L461.0484,1291.9326" fill="none" style="stroke:#181818;stroke-width:1;"/><rect fill="#F1F1F1" height="32.9551" rx="12.5" ry="12.5" style="stroke:#181818;stroke-width:1.5;" width="130.4941" x="461.0484" y="1328.4102"/><text fill="#000000" font-family="sans-serif" font-size="11" lengthAdjust="spacing" textLength="110.4941" x="471.0484" y="1349.0449">TokenUsageCallback</text><path d="M411.0484,1397.8428 L421.0484,1397.8428 C436.0484,1397.8428 436.0484,1344.8877 451.0484,1344.8877 L461.0484,1344.8877" fill="none" style="stroke:#181818;stroke-width:1;"/><rect fill="#F1F1F1" height="32.9551" rx="12.5" ry="12.5" style="stroke:#181818;stroke-width:1.5;" width="101.7373" x="461.0484" y="1381.3652"/><text fill="#000000" font-family="sans-serif" font-size="11" lengthAdjust="spacing" textLength="81.7373" x="471.0484" y="1402">PromptRegistry</text><path d="M411.0484,1397.8428 L421.0484,1397.8428 C436.0484,1397.8428 436.0484,1397.8428 451.0484,1397.8428 L461.0484,1397.8428" fill="none" style="stroke:#181818;stroke-width:1;"/><rect fill="#F1F1F1" height="32.9551" rx="12.5" ry="12.5" style="stroke:#181818;stroke-width:1.5;" width="109.969" x="461.0484" y="1434.3203"/><text fill="#000000" font-family="sans-serif" font-size="11" lengthAdjust="spacing" textLength="89.969" x="471.0484" y="1454.9551">WS/SSE &#45936;&#53076;&#47112;&#51060;&#53552;</text><path d="M411.0484,1397.8428 L421.0484,1397.8428 C436.0484,1397.8428 436.0484,1450.7979 451.0484,1450.7979 L461.0484,1450.7979" fill="none" style="stroke:#181818;stroke-width:1;"/><rect fill="#F1F1F1" height="32.9551" rx="12.5" ry="12.5" style="stroke:#181818;stroke-width:1.5;" width="124.8654" x="461.0484" y="1487.2754"/><text fill="#000000" font-family="sans-serif" font-size="11" lengthAdjust="spacing" textLength="104.8654" x="471.0484" y="1507.9102">Scraping Plugin &#44396;&#51312;</text><path d="M411.0484,1397.8428 L421.0484,1397.8428 C436.0484,1397.8428 436.0484,1503.7529 451.0484,1503.7529 L461.0484,1503.7529" fill="none" style="stroke:#181818;stroke-width:1;"/><path d="M235.3069,1318.4102 L245.3069,1318.4102 C260.3069,1318.4102 260.3069,1397.8428 275.3069,1397.8428 L285.3069,1397.8428" fill="none" style="stroke:#181818;stroke-width:1;"/><rect fill="#F1F1F1" height="32.9551" rx="12.5" ry="12.5" style="stroke:#181818;stroke-width:1.5;" width="162.6083" x="285.3069" y="1540.2305"/><text fill="#000000" font-family="sans-serif" font-size="11" lengthAdjust="spacing" textLength="142.6083" x="295.3069" y="1560.8652">LangGraph &#48120;&#46308;&#50920;&#50612; (To-Be)</text><path d="M235.3069,1318.4102 L245.3069,1318.4102 C260.3069,1318.4102 260.3069,1556.708 275.3069,1556.708 L285.3069,1556.708" fill="none" style="stroke:#181818;stroke-width:1;"/><path d="M100.3349,1133.0674 L110.3349,1133.0674 C125.3349,1133.0674 125.3349,1318.4102 140.3349,1318.4102 L150.3349,1318.4102" fill="none" style="stroke:#181818;stroke-width:1;"/><rect fill="#F1F1F1" height="32.9551" rx="12.5" ry="12.5" style="stroke:#181818;stroke-width:1.5;" width="84.972" x="150.3349" y="1884.4385"/><text fill="#000000" font-family="sans-serif" font-size="11" lengthAdjust="spacing" textLength="64.972" x="160.3349" y="1905.0732">5. &#44368;&#50977;&#51201; &#54952;&#44284;</text><rect fill="#F1F1F1" height="32.9551" rx="12.5" ry="12.5" style="stroke:#181818;stroke-width:1.5;" width="106.5614" x="285.3069" y="1778.5283"/><text fill="#000000" font-family="sans-serif" font-size="11" lengthAdjust="spacing" textLength="86.5614" x="295.3069" y="1799.1631">&#52897;&#49828;&#53668; &#54016; &#54617;&#49845; &#49457;&#44284;</text><rect fill="#F1F1F1" height="32.9551" rx="12.5" ry="12.5" style="stroke:#181818;stroke-width:1.5;" width="80.5705" x="441.8683" y="1593.1855"/><text fill="#000000" font-family="sans-serif" font-size="11" lengthAdjust="spacing" textLength="60.5705" x="451.8683" y="1613.8203">&#46020;&#47700;&#51064; &#47784;&#45944;&#47553;</text><path d="M391.8683,1795.0059 L401.8683,1795.0059 C416.8683,1795.0059 416.8683,1609.6631 431.8683,1609.6631 L441.8683,1609.6631" fill="none" style="stroke:#181818;stroke-width:1;"/><rect fill="#F1F1F1" height="32.9551" rx="12.5" ry="12.5" style="stroke:#181818;stroke-width:1.5;" width="63.7155" x="441.8683" y="1646.1406"/><text fill="#000000" font-family="sans-serif" font-size="11" lengthAdjust="spacing" textLength="43.7155" x="451.8683" y="1666.7754">LLM &#51025;&#50857;</text><path d="M391.8683,1795.0059 L401.8683,1795.0059 C416.8683,1795.0059 416.8683,1662.6182 431.8683,1662.6182 L441.8683,1662.6182" fill="none" style="stroke:#181818;stroke-width:1;"/><rect fill="#F1F1F1" height="32.9551" rx="12.5" ry="12.5" style="stroke:#181818;stroke-width:1.5;" width="71.0555" x="441.8683" y="1699.0957"/><text fill="#000000" font-family="sans-serif" font-size="11" lengthAdjust="spacing" textLength="51.0555" x="451.8683" y="1719.7305">&#48516;&#49328; &#49884;&#49828;&#53596;</text><path d="M391.8683,1795.0059 L401.8683,1795.0059 C416.8683,1795.0059 416.8683,1715.5732 431.8683,1715.5732 L441.8683,1715.5732" fill="none" style="stroke:#181818;stroke-width:1;"/><rect fill="#F1F1F1" height="32.9551" rx="12.5" ry="12.5" style="stroke:#181818;stroke-width:1.5;" width="80.5705" x="441.8683" y="1752.0508"/><text fill="#000000" font-family="sans-serif" font-size="11" lengthAdjust="spacing" textLength="60.5705" x="451.8683" y="1772.6855">&#53364;&#46972;&#50864;&#46300; &#50868;&#50689;</text><path d="M391.8683,1795.0059 L401.8683,1795.0059 C416.8683,1795.0059 416.8683,1768.5283 431.8683,1768.5283 L441.8683,1768.5283" fill="none" style="stroke:#181818;stroke-width:1;"/><rect fill="#F1F1F1" height="32.9551" rx="12.5" ry="12.5" style="stroke:#181818;stroke-width:1.5;" width="80.3657" x="441.8683" y="1805.0059"/><text fill="#000000" font-family="sans-serif" font-size="11" lengthAdjust="spacing" textLength="60.3657" x="451.8683" y="1825.6406">Kubernetes</text><path d="M391.8683,1795.0059 L401.8683,1795.0059 C416.8683,1795.0059 416.8683,1821.4834 431.8683,1821.4834 L441.8683,1821.4834" fill="none" style="stroke:#181818;stroke-width:1;"/><rect fill="#F1F1F1" height="32.9551" rx="12.5" ry="12.5" style="stroke:#181818;stroke-width:1.5;" width="39.03" x="441.8683" y="1857.9609"/><text fill="#000000" font-family="sans-serif" font-size="11" lengthAdjust="spacing" textLength="19.03" x="451.8683" y="1878.5957">&#48372;&#50504;</text><path d="M391.8683,1795.0059 L401.8683,1795.0059 C416.8683,1795.0059 416.8683,1874.4385 431.8683,1874.4385 L441.8683,1874.4385" fill="none" style="stroke:#181818;stroke-width:1;"/><rect fill="#F1F1F1" height="32.9551" rx="12.5" ry="12.5" style="stroke:#181818;stroke-width:1.5;" width="48.545" x="441.8683" y="1910.916"/><text fill="#000000" font-family="sans-serif" font-size="11" lengthAdjust="spacing" textLength="28.545" x="451.8683" y="1931.5508">&#53580;&#49828;&#53944;</text><path d="M391.8683,1795.0059 L401.8683,1795.0059 C416.8683,1795.0059 416.8683,1927.3936 431.8683,1927.3936 L441.8683,1927.3936" fill="none" style="stroke:#181818;stroke-width:1;"/><rect fill="#F1F1F1" height="32.9551" rx="12.5" ry="12.5" style="stroke:#181818;stroke-width:1.5;" width="39.03" x="441.8683" y="1963.8711"/><text fill="#000000" font-family="sans-serif" font-size="11" lengthAdjust="spacing" textLength="19.03" x="451.8683" y="1984.5059">&#54801;&#50629;</text><path d="M391.8683,1795.0059 L401.8683,1795.0059 C416.8683,1795.0059 416.8683,1980.3486 431.8683,1980.3486 L441.8683,1980.3486" fill="none" style="stroke:#181818;stroke-width:1;"/><path d="M235.3069,1900.916 L245.3069,1900.916 C260.3069,1900.916 260.3069,1795.0059 275.3069,1795.0059 L285.3069,1795.0059" fill="none" style="stroke:#181818;stroke-width:1;"/><rect fill="#F1F1F1" height="32.9551" rx="12.5" ry="12.5" style="stroke:#181818;stroke-width:1.5;" width="93.5659" x="285.3069" y="2096.2588"/><text fill="#000000" font-family="sans-serif" font-size="11" lengthAdjust="spacing" textLength="73.5659" x="295.3069" y="2116.8936">&#54980;&#49549; &#54617;&#49845;&#51088; &#44032;&#52824;</text><rect fill="#F1F1F1" height="32.9551" rx="12.5" ry="12.5" style="stroke:#181818;stroke-width:1.5;" width="109.1155" x="428.8728" y="2016.8262"/><text fill="#000000" font-family="sans-serif" font-size="11" lengthAdjust="spacing" textLength="89.1155" x="438.8728" y="2037.4609">&#47560;&#51060;&#53356;&#47196;&#49436;&#48708;&#49828; &#49324;&#47168;</text><path d="M378.8728,2112.7363 L388.8728,2112.7363 C403.8728,2112.7363 403.8728,2033.3037 418.8728,2033.3037 L428.8728,2033.3037" fill="none" style="stroke:#181818;stroke-width:1;"/><rect fill="#F1F1F1" height="32.9551" rx="12.5" ry="12.5" style="stroke:#181818;stroke-width:1.5;" width="108.7365" x="428.8728" y="2069.7813"/><text fill="#000000" font-family="sans-serif" font-size="11" lengthAdjust="spacing" textLength="88.7365" x="438.8728" y="2090.416">LLM &#48708;&#50857; &#52628;&#51201; &#49324;&#47168;</text><path d="M378.8728,2112.7363 L388.8728,2112.7363 C403.8728,2112.7363 403.8728,2086.2588 418.8728,2086.2588 L428.8728,2086.2588" fill="none" style="stroke:#181818;stroke-width:1;"/><rect fill="#F1F1F1" height="32.9551" rx="12.5" ry="12.5" style="stroke:#181818;stroke-width:1.5;" width="148.5152" x="428.8728" y="2122.7363"/><text fill="#000000" font-family="sans-serif" font-size="11" lengthAdjust="spacing" textLength="128.5152" x="438.8728" y="2143.3711">AWS &#51060;&#48292;&#53944; &#54028;&#51060;&#54532;&#46972;&#51064; &#49324;&#47168;</text><path d="M378.8728,2112.7363 L388.8728,2112.7363 C403.8728,2112.7363 403.8728,2139.2139 418.8728,2139.2139 L428.8728,2139.2139" fill="none" style="stroke:#181818;stroke-width:1;"/><rect fill="#F1F1F1" height="32.9551" rx="12.5" ry="12.5" style="stroke:#181818;stroke-width:1.5;" width="125.0859" x="428.8728" y="2175.6914"/><text fill="#000000" font-family="sans-serif" font-size="11" lengthAdjust="spacing" textLength="105.0859" x="438.8728" y="2196.3262">k3s on EC2 &#50868;&#50689; &#49324;&#47168;</text><path d="M378.8728,2112.7363 L388.8728,2112.7363 C403.8728,2112.7363 403.8728,2192.1689 418.8728,2192.1689 L428.8728,2192.1689" fill="none" style="stroke:#181818;stroke-width:1;"/><path d="M235.3069,1900.916 L245.3069,1900.916 C260.3069,1900.916 260.3069,2112.7363 275.3069,2112.7363 L285.3069,2112.7363" fill="none" style="stroke:#181818;stroke-width:1;"/><path d="M100.3349,1133.0674 L110.3349,1133.0674 C125.3349,1133.0674 125.3349,1900.916 140.3349,1900.916 L150.3349,1900.916" fill="none" style="stroke:#181818;stroke-width:1;"/><g class="footer" data-source-line="63"><text fill="#888888" font-family="sans-serif" font-size="10" lengthAdjust="spacing" textLength="245.9369" x="200.2717" y="2228.3145">MeFit - &#44592;&#45824;&#54952;&#44284; 5 &#50689;&#50669; (&#49324;&#50857;&#51088;/&#49324;&#54924;/&#48708;&#51592;&#45768;&#49828;/&#44592;&#49696;/&#44368;&#50977;)</text></g><?plantuml-src TLLHJnj747xthnYfB-0873kbKjvIABHIGK8nLPuFsBWMjW-TZqhfGsJWG0OViWbsCM2JGoLWLuvwmDaoAVqpVRoT-m-TlLt0K2g_M3kpCzzytxTph_AcPfZPT6ungor7pBIPOS3_x0UrCeo0ttUvNGWEM_xL3Om1rbTn_tCaabzAvvOrGyl2lBQmb3BqbTpYX9xH3VXgQbBy1Z8MsLjj9MDEwJapcVwLGJmUYKHXXasbpGVb8z4en4S1rpfusCRZ2jmTHm6T6l-u9Vv6WV_HmcQTjprqTY7-FX4Ssl3FvWU8FnV_iEdX-ghCnBzQQ9q6zWQClO-FyNCRZofXQb1oyMPFbRCBX0BY-FjD6CEpBImrP8m6llQ23Tk_SlXPXr1Ki5W7miRB1mJKnLxZ5XvQ5wgU1CPxHQmLmNShk6ahECSLqSbtcxvN20wgyjHt6sWvuTXDBrZr8AZV5yDz5pTt8AWTu7ONg2iL43mbGfveNdHM7_DqvG6_jcWilFvCDptL7uBo5j-x26gDMuXKYogeHkS54XRyopQwhO5RKT7RxrO4UC7U4md4bk-AVay52Gcf-Ty8y1rNp6kvOUKrb_WWAWfy-vCS7bwCXfVFYhnKnEtJmIcd3CRW6SmQB9jUoOBVxV3oXfmn51QmrqR72a_64-F0cpV25fOZwWpnNY7OxkCN9wXQ45Fp3KjGFGkj9f3MGRb3IJ3xtHGCpHhwy6FCpRuIZ9B6PwXeknviEbIiYwNEi9pzXzU26pp-91YWHExOVAznNrtH5vOAY3wy2BaQh7tdU7vP1Lxgygk2ceRtRVwnGxK4Lr-F2Z6nw3ooW_3DUXFmombD7coUqZt0GuzUiT_V2i7HyORqS3m1_BmOUh33JyYJ3K4_4KQa13L7selwNfwAcSN3TUlXFbYdbhOjBbQj45k8cjJHbvbXlXkPr_9i4UPOtapdKc7evRFmcPQQId45NZb1pZnEjvBC-2MzmAXyAx0yUJwdBx7SJtajnIQqJ4Pi7tbExRBBvckMIkTDuvqyUvEC9PEJeMn_LxbJbEB9M7B1q9O94CncLbBfd30HdeGncDPogUyf-hDOWtpl58zQ-9i7GtFwo3WJsi8OyTsjOEFayVEx9Hg4dkhLafzLd9GiMxnT9Of2JNVw_5ojgkdf6U9ab_HNYUJ4DVUXHAJdgYSOFdI5ZwIGCl3ZoZmpSinaUNNzogFjeovjsAB6hPc2-YxkgzToPDrl5x5nIGwyhgiIJvg1dCbF2lUOrVl6NbLGCHZzzarom2-F7F8WS-b57lGSJ4uar4otqSXRNJUPeRuL__CnWg6xBqPCxiJOuDw8IM_5f5x3aLUCldFgMnU9ZoQU9xuPZVyB?></g></svg>