<?plantuml 1.2026.1?><svg xmlns="http://www.w3.org/2000/svg" xmlns:xlink="http://www.w3.org/1999/xlink" contentStyleType="text/css" data-diagram-type="MINDMAP" height="1290px" preserveAspectRatio="none" style="width:485px;height:1290px;background:#FEFEFE;" version="1.1" viewBox="0 0 485 1290" width="485px" zoomAndPan="magnify"><title>&#48120;&#54607; - &#52897;&#49828;&#53668; &#47785;&#54364; &#53944;&#47532; (Goal Tree)</title><defs/><g><rect fill="#FEFEFE" height="1290" style="stroke:none;stroke-width:1;" width="485" x="0" y="0"/><g class="title" data-source-line="1"><text fill="#000000" font-family="sans-serif" font-size="14" font-weight="bold" lengthAdjust="spacing" textLength="220.5867" x="130.7127" y="33.5352">&#48120;&#54607; - &#52897;&#49828;&#53668; &#47785;&#54364; &#53944;&#47532; (Goal Tree)</text></g><rect fill="#F1F1F1" height="32.9551" rx="12.5" ry="12.5" style="stroke:#181818;stroke-width:1.5;" width="93.8154" x="10" y="639.9941"/><text fill="#000000" font-family="sans-serif" font-size="11" lengthAdjust="spacing" textLength="73.8154" x="20" y="660.6289">MeFit &#54645;&#49900; &#47785;&#54364;</text><rect fill="#F1F1F1" height="32.9551" rx="12.5" ry="12.5" style="stroke:#181818;stroke-width:1.5;" width="88.6458" x="153.8154" y="163.3984"/><text fill="#000000" font-family="sans-serif" font-size="11" lengthAdjust="spacing" textLength="68.6458" x="163.8154" y="184.0332">&#49324;&#50857;&#51088; &#52769;&#47732; (5)</text><rect fill="#F1F1F1" height="32.9551" rx="12.5" ry="12.5" style="stroke:#181818;stroke-width:1.5;" width="159.3754" x="292.4612" y="57.4883"/><text fill="#000000" font-family="sans-serif" font-size="11" lengthAdjust="spacing" textLength="139.3754" x="302.4612" y="78.123">U-1. &#44032;&#51077;&#8594;&#52395; &#47732;&#51217; 10&#48516; &#51060;&#45236;</text><path d="M242.4612,179.876 L252.4612,179.876 C267.4612,179.876 267.4612,73.9658 282.4612,73.9658 L292.4612,73.9658" fill="none" style="stroke:#181818;stroke-width:1;"/><rect fill="#F1F1F1" height="32.9551" rx="12.5" ry="12.5" style="stroke:#181818;stroke-width:1.5;" width="137.2166" x="292.4612" y="110.4434"/><text fill="#000000" font-family="sans-serif" font-size="11" lengthAdjust="spacing" textLength="117.2166" x="302.4612" y="131.0781">U-2. &#47732;&#51217; &#49464;&#49496; 15~20&#48516;</text><path d="M242.4612,179.876 L252.4612,179.876 C267.4612,179.876 267.4612,126.9209 282.4612,126.9209 L292.4612,126.9209" fill="none" style="stroke:#181818;stroke-width:1;"/><rect fill="#F1F1F1" height="32.9551" rx="12.5" ry="12.5" style="stroke:#181818;stroke-width:1.5;" width="141.4198" x="292.4612" y="163.3984"/><text fill="#000000" font-family="sans-serif" font-size="11" lengthAdjust="spacing" textLength="121.4198" x="302.4612" y="184.0332">U-3. &#48516;&#49437; &#47532;&#54252;&#53944; 2&#48516; &#51060;&#45236;</text><path d="M242.4612,179.876 L252.4612,179.876 C267.4612,179.876 267.4612,179.876 282.4612,179.876 L292.4612,179.876" fill="none" style="stroke:#181818;stroke-width:1;"/><rect fill="#F1F1F1" height="32.9551" rx="12.5" ry="12.5" style="stroke:#181818;stroke-width:1.5;" width="180.551" x="292.4612" y="216.3535"/><text fill="#000000" font-family="sans-serif" font-size="11" lengthAdjust="spacing" textLength="160.551" x="302.4612" y="236.9883">U-4. Free &#49324;&#50857;&#51088; &#51452; 1&#54924; &#47732;&#51217; &#48372;&#51109;</text><path d="M242.4612,179.876 L252.4612,179.876 C267.4612,179.876 267.4612,232.8311 282.4612,232.8311 L292.4612,232.8311" fill="none" style="stroke:#181818;stroke-width:1;"/><rect fill="#F1F1F1" height="32.9551" rx="12.5" ry="12.5" style="stroke:#181818;stroke-width:1.5;" width="142.682" x="292.4612" y="269.3086"/><text fill="#000000" font-family="sans-serif" font-size="11" lengthAdjust="spacing" textLength="122.682" x="302.4612" y="289.9434">U-5. &#51216;&#49688;&#51032; "&#50780;" &#51593;&#49884; &#51060;&#54644;</text><path d="M242.4612,179.876 L252.4612,179.876 C267.4612,179.876 267.4612,285.7861 282.4612,285.7861 L292.4612,285.7861" fill="none" style="stroke:#181818;stroke-width:1;"/><path d="M103.8154,656.4717 L113.8154,656.4717 C128.8154,656.4717 128.8154,179.876 143.8154,179.876 L153.8154,179.876" fill="none" style="stroke:#181818;stroke-width:1;"/><rect fill="#F1F1F1" height="32.9551" rx="12.5" ry="12.5" style="stroke:#181818;stroke-width:1.5;" width="88.6458" x="153.8154" y="454.6514"/><text fill="#000000" font-family="sans-serif" font-size="11" lengthAdjust="spacing" textLength="68.6458" x="163.8154" y="475.2861">&#49884;&#49828;&#53596; &#52769;&#47732; (6)</text><rect fill="#F1F1F1" height="32.9551" rx="12.5" ry="12.5" style="stroke:#181818;stroke-width:1.5;" width="104.8663" x="292.4612" y="322.2637"/><text fill="#000000" font-family="sans-serif" font-size="11" lengthAdjust="spacing" textLength="84.8663" x="302.4612" y="342.8984">S-1. 24/7 &#47924;&#51473;&#45800;</text><path d="M242.4612,471.1289 L252.4612,471.1289 C267.4612,471.1289 267.4612,338.7412 282.4612,338.7412 L292.4612,338.7412" fill="none" style="stroke:#181818;stroke-width:1;"/><rect fill="#F1F1F1" height="32.9551" rx="12.5" ry="12.5" style="stroke:#181818;stroke-width:1.5;" width="87.746" x="292.4612" y="375.2188"/><text fill="#000000" font-family="sans-serif" font-size="11" lengthAdjust="spacing" textLength="67.746" x="302.4612" y="395.8535">S-2. &#49688;&#54217; &#54869;&#51109;</text><path d="M242.4612,471.1289 L252.4612,471.1289 C267.4612,471.1289 267.4612,391.6963 282.4612,391.6963 L292.4612,391.6963" fill="none" style="stroke:#181818;stroke-width:1;"/><rect fill="#F1F1F1" height="32.9551" rx="12.5" ry="12.5" style="stroke:#181818;stroke-width:1.5;" width="121.0307" x="292.4612" y="428.1738"/><text fill="#000000" font-family="sans-serif" font-size="11" lengthAdjust="spacing" textLength="101.0307" x="302.4612" y="448.8086">S-3. &#51109;&#50528; &#44201;&#47532; (DLQ)</text><path d="M242.4612,471.1289 L252.4612,471.1289 C267.4612,471.1289 267.4612,444.6514 282.4612,444.6514 L292.4612,444.6514" fill="none" style="stroke:#181818;stroke-width:1;"/><rect fill="#F1F1F1" height="32.9551" rx="12.5" ry="12.5" style="stroke:#181818;stroke-width:1.5;" width="142.282" x="292.4612" y="481.1289"/><text fill="#000000" font-family="sans-serif" font-size="11" lengthAdjust="spacing" textLength="122.282" x="302.4612" y="501.7637">S-4. &#51060;&#48292;&#53944; &#44592;&#48152; &#50689;&#49345; &#52376;&#47532;</text><path d="M242.4612,471.1289 L252.4612,471.1289 C267.4612,471.1289 267.4612,497.6064 282.4612,497.6064 L292.4612,497.6064" fill="none" style="stroke:#181818;stroke-width:1;"/><rect fill="#F1F1F1" height="32.9551" rx="12.5" ry="12.5" style="stroke:#181818;stroke-width:1.5;" width="156.7459" x="292.4612" y="534.084"/><text fill="#000000" font-family="sans-serif" font-size="11" lengthAdjust="spacing" textLength="136.7459" x="302.4612" y="554.7188">S-5. &#49892;&#49884;&#44036; &#53685;&#49888; (WS + SSE)</text><path d="M242.4612,471.1289 L252.4612,471.1289 C267.4612,471.1289 267.4612,550.5615 282.4612,550.5615 L292.4612,550.5615" fill="none" style="stroke:#181818;stroke-width:1;"/><rect fill="#F1F1F1" height="32.9551" rx="12.5" ry="12.5" style="stroke:#181818;stroke-width:1.5;" width="112.4316" x="292.4612" y="587.0391"/><text fill="#000000" font-family="sans-serif" font-size="11" lengthAdjust="spacing" textLength="92.4316" x="302.4612" y="607.6738">S-6. LLM &#48708;&#50857; &#52628;&#51201;</text><path d="M242.4612,471.1289 L252.4612,471.1289 C267.4612,471.1289 267.4612,603.5166 282.4612,603.5166 L292.4612,603.5166" fill="none" style="stroke:#181818;stroke-width:1;"/><path d="M103.8154,656.4717 L113.8154,656.4717 C128.8154,656.4717 128.8154,471.1289 143.8154,471.1289 L153.8154,471.1289" fill="none" style="stroke:#181818;stroke-width:1;"/><rect fill="#F1F1F1" height="32.9551" rx="12.5" ry="12.5" style="stroke:#181818;stroke-width:1.5;" width="79.1308" x="153.8154" y="798.8594"/><text fill="#000000" font-family="sans-serif" font-size="11" lengthAdjust="spacing" textLength="59.1308" x="163.8154" y="819.4941">&#44592;&#49696; &#52769;&#47732; (7)</text><rect fill="#F1F1F1" height="32.9551" rx="12.5" ry="12.5" style="stroke:#181818;stroke-width:1.5;" width="153.7439" x="282.9462" y="639.9941"/><text fill="#000000" font-family="sans-serif" font-size="11" lengthAdjust="spacing" textLength="133.7439" x="292.9462" y="660.6289">T-1. 12 &#47560;&#51060;&#53356;&#47196;&#49436;&#48708;&#49828; &#48516;&#54624;</text><path d="M232.9462,815.3369 L242.9462,815.3369 C257.9462,815.3369 257.9462,656.4717 272.9462,656.4717 L282.9462,656.4717" fill="none" style="stroke:#181818;stroke-width:1;"/><rect fill="#F1F1F1" height="32.9551" rx="12.5" ry="12.5" style="stroke:#181818;stroke-width:1.5;" width="188.3947" x="282.9462" y="692.9492"/><text fill="#000000" font-family="sans-serif" font-size="11" lengthAdjust="spacing" textLength="168.3947" x="292.9462" y="713.584">T-2. LLM &#51025;&#50857; + PromptRegistry</text><path d="M232.9462,815.3369 L242.9462,815.3369 C257.9462,815.3369 257.9462,709.4268 272.9462,709.4268 L282.9462,709.4268" fill="none" style="stroke:#181818;stroke-width:1;"/><rect fill="#F1F1F1" height="32.9551" rx="12.5" ry="12.5" style="stroke:#181818;stroke-width:1.5;" width="173.1621" x="282.9462" y="745.9043"/><text fill="#000000" font-family="sans-serif" font-size="11" lengthAdjust="spacing" textLength="153.1621" x="292.9462" y="766.5391">T-3. Property-based Testing</text><path d="M232.9462,815.3369 L242.9462,815.3369 C257.9462,815.3369 257.9462,762.3818 272.9462,762.3818 L282.9462,762.3818" fill="none" style="stroke:#181818;stroke-width:1;"/><rect fill="#F1F1F1" height="32.9551" rx="12.5" ry="12.5" style="stroke:#181818;stroke-width:1.5;" width="153.2416" x="282.9462" y="798.8594"/><text fill="#000000" font-family="sans-serif" font-size="11" lengthAdjust="spacing" textLength="133.2416" x="292.9462" y="819.4941">T-4. AWS &#51060;&#48292;&#53944; &#54028;&#51060;&#54532;&#46972;&#51064;</text><path d="M232.9462,815.3369 L242.9462,815.3369 C257.9462,815.3369 257.9462,815.3369 272.9462,815.3369 L282.9462,815.3369" fill="none" style="stroke:#181818;stroke-width:1;"/><rect fill="#F1F1F1" height="32.9551" rx="12.5" ry="12.5" style="stroke:#181818;stroke-width:1.5;" width="129.8122" x="282.9462" y="851.8145"/><text fill="#000000" font-family="sans-serif" font-size="11" lengthAdjust="spacing" textLength="109.8122" x="292.9462" y="872.4492">T-5. k3s on EC2 &#50868;&#50689;</text><path d="M232.9462,815.3369 L242.9462,815.3369 C257.9462,815.3369 257.9462,868.292 272.9462,868.292 L282.9462,868.292" fill="none" style="stroke:#181818;stroke-width:1;"/><rect fill="#F1F1F1" height="32.9551" rx="12.5" ry="12.5" style="stroke:#181818;stroke-width:1.5;" width="111.6607" x="282.9462" y="904.7695"/><text fill="#000000" font-family="sans-serif" font-size="11" lengthAdjust="spacing" textLength="91.6607" x="292.9462" y="925.4043">T-6. CI/CD &#51088;&#46041;&#54868;</text><path d="M232.9462,815.3369 L242.9462,815.3369 C257.9462,815.3369 257.9462,921.2471 272.9462,921.2471 L282.9462,921.2471" fill="none" style="stroke:#181818;stroke-width:1;"/><rect fill="#F1F1F1" height="32.9551" rx="12.5" ry="12.5" style="stroke:#181818;stroke-width:1.5;" width="178.9414" x="282.9462" y="957.7246"/><text fill="#000000" font-family="sans-serif" font-size="11" lengthAdjust="spacing" textLength="158.9414" x="292.9462" y="978.3594">T-7. LiteLLM Gateway (To-Be)</text><path d="M232.9462,815.3369 L242.9462,815.3369 C257.9462,815.3369 257.9462,974.2021 272.9462,974.2021 L282.9462,974.2021" fill="none" style="stroke:#181818;stroke-width:1;"/><path d="M103.8154,656.4717 L113.8154,656.4717 C128.8154,656.4717 128.8154,815.3369 143.8154,815.3369 L153.8154,815.3369" fill="none" style="stroke:#181818;stroke-width:1;"/><rect fill="#F1F1F1" height="32.9551" rx="12.5" ry="12.5" style="stroke:#181818;stroke-width:1.5;" width="79.1308" x="153.8154" y="1116.5898"/><text fill="#000000" font-family="sans-serif" font-size="11" lengthAdjust="spacing" textLength="59.1308" x="163.8154" y="1137.2246">&#50868;&#50689; &#52769;&#47732; (5)</text><rect fill="#F1F1F1" height="32.9551" rx="12.5" ry="12.5" style="stroke:#181818;stroke-width:1.5;" width="125.8731" x="282.9462" y="1010.6797"/><text fill="#000000" font-family="sans-serif" font-size="11" lengthAdjust="spacing" textLength="105.8731" x="292.9462" y="1031.3145">O-1. &#54620; &#47749;&#51060; &#50868;&#50689; &#44032;&#45733;</text><path d="M232.9462,1133.0674 L242.9462,1133.0674 C257.9462,1133.0674 257.9462,1027.1572 272.9462,1027.1572 L282.9462,1027.1572" fill="none" style="stroke:#181818;stroke-width:1;"/><rect fill="#F1F1F1" height="32.9551" rx="12.5" ry="12.5" style="stroke:#181818;stroke-width:1.5;" width="122.3926" x="282.9462" y="1063.6348"/><text fill="#000000" font-family="sans-serif" font-size="11" lengthAdjust="spacing" textLength="102.3926" x="292.9462" y="1084.2695">O-2. &#49884;&#53356;&#47551; &#50504;&#51204; &#44288;&#47532;</text><path d="M232.9462,1133.0674 L242.9462,1133.0674 C257.9462,1133.0674 257.9462,1080.1123 272.9462,1080.1123 L282.9462,1080.1123" fill="none" style="stroke:#181818;stroke-width:1;"/><rect fill="#F1F1F1" height="32.9551" rx="12.5" ry="12.5" style="stroke:#181818;stroke-width:1.5;" width="112.8776" x="282.9462" y="1116.5898"/><text fill="#000000" font-family="sans-serif" font-size="11" lengthAdjust="spacing" textLength="92.8776" x="292.9462" y="1137.2246">O-3. &#47204;&#48177; &#51593;&#49884; &#49892;&#54665;</text><path d="M232.9462,1133.0674 L242.9462,1133.0674 C257.9462,1133.0674 257.9462,1133.0674 272.9462,1133.0674 L282.9462,1133.0674" fill="none" style="stroke:#181818;stroke-width:1;"/><rect fill="#F1F1F1" height="32.9551" rx="12.5" ry="12.5" style="stroke:#181818;stroke-width:1.5;" width="123.3136" x="282.9462" y="1169.5449"/><text fill="#000000" font-family="sans-serif" font-size="11" lengthAdjust="spacing" textLength="103.3136" x="292.9462" y="1190.1797">O-4. &#47196;&#52972; 1 &#47749;&#47161; &#48512;&#54021;</text><path d="M232.9462,1133.0674 L242.9462,1133.0674 C257.9462,1133.0674 257.9462,1186.0225 272.9462,1186.0225 L282.9462,1186.0225" fill="none" style="stroke:#181818;stroke-width:1;"/><rect fill="#F1F1F1" height="32.9551" rx="12.5" ry="12.5" style="stroke:#181818;stroke-width:1.5;" width="141.4226" x="282.9462" y="1222.5"/><text fill="#000000" font-family="sans-serif" font-size="11" lengthAdjust="spacing" textLength="121.4226" x="292.9462" y="1243.1348">O-5. &#44277;&#50976; &#45348;&#53944;&#50892;&#53356; &#51068;&#44288;&#49457;</text><path d="M232.9462,1133.0674 L242.9462,1133.0674 C257.9462,1133.0674 257.9462,1238.9775 272.9462,1238.9775 L282.9462,1238.9775" fill="none" style="stroke:#181818;stroke-width:1;"/><path d="M103.8154,656.4717 L113.8154,656.4717 C128.8154,656.4717 128.8154,1133.0674 143.8154,1133.0674 L153.8154,1133.0674" fill="none" style="stroke:#181818;stroke-width:1;"/><g class="footer" data-source-line="35"><text fill="#888888" font-family="sans-serif" font-size="10" lengthAdjust="spacing" textLength="171.2801" x="155.3661" y="1275.123">MeFit - 23 &#49464;&#48512; &#47785;&#54364; &#53944;&#47532; (97.8% &#45804;&#49457;)</text></g><?plantuml-src PPHTJnfH48RlzrTCsZH13EYk7xHtjdwbYSQsqFHwBQiX0ckMDOszQDGk1e44QQG1kvWbHLjQaYAYmTQa_wMNd3d_eNFmO8tDNksPTz-PPsREJgLitR8JiMGqeQyhTioE6y1-T7cf0070dpNCrlbk7TYt1Y-wmBDTTj84txofno5Y6SQGegJMOibrtT8JiAo_Nbkrp8raTDgCcnRSdviLpor5r5ZHD-Bsd9cqmx6t1gYgelXXqPYBsS1BvvXhoaoAtm-uqyJ31Xxj0tPhhD41tyGGdVlXPK0DGg-rXKVfFxiViFqTA8fU4THHTk40LZjifoELMd0GHAUBwJAe4-yq8PFnCOfVEEXKWS1ueKc4eFtdCXw4EQAzNTBdAr3vONxWpiuwU7GivHD1G6yVCsMibk4ULjnxW2Txc7E5Aozr-dGvL_GsxTxGJLxJXGMTDZuI0jRiOBt8Sb_bER6G9o_i0Q-K1jd20e5UiEH1hzteZsTcuVd0YoeN9Esw0EjrMwnL1Ynlu_jjm7QPr58dIixLgQXUom6-IwFmmFSg3CCG3iyEp2Q3iB2m2EpIeIu0NXoWjorOo1SptWr8w5eV4I2g1knBHc1lDrdDHSSLNsVhekkyv4cXTcsCrQ8m7ePdbfbOjryOgx6KRMrA4N7I-RfXsPk1PJrbH25YfEnOSbN62VKnLVmFb-Vp8l61mwfNMErA6P6kZQN0JCBij0PusA5so13nJJyTcPwXVkwpGeLN3cGWHFN5R4FKEA_RnXjz4tmHC_346EgFikznTqkN13ulkRJHQIfZeAAzPTbZgH0JpRcYDIU_0KiPz1peTRO6OrdghsUjpbgdDmkKg_EFUp8wBg8k_cg2Ah8mxvBQkiNpQHadrDxPEReUC4Tq13_bAHTrw8gIe7EgA2kcQHkMl841qCR4DI6FknV-KIZuy06mN9E-6bAc3FfTo5-6eWQrKMqogFu5?></g></svg>