<?plantuml 1.2026.1?><svg xmlns="http://www.w3.org/2000/svg" xmlns:xlink="http://www.w3.org/1999/xlink" contentStyleType="text/css" data-diagram-type="MINDMAP" height="2190px" preserveAspectRatio="none" style="width:514px;height:2190px;background:#FEFEFE;" version="1.1" viewBox="0 0 514 2190" width="514px" zoomAndPan="magnify"><title>&#48120;&#54607; - &#54645;&#49900; &#44592;&#45733; 7&#44032;&#51648;</title><defs/><g><rect fill="#FEFEFE" height="2190" style="stroke:none;stroke-width:1;" width="514" x="0" y="0"/><g class="title" data-source-line="1"><text fill="#000000" font-family="sans-serif" font-size="14" font-weight="bold" lengthAdjust="spacing" textLength="133.5138" x="189.0804" y="33.5352">&#48120;&#54607; - &#54645;&#49900; &#44592;&#45733; 7&#44032;&#51648;</text></g><rect fill="#F1F1F1" height="32.9551" rx="12.5" ry="12.5" style="stroke:#181818;stroke-width:1.5;" width="48.7944" x="10" y="1090.1123"/><text fill="#000000" font-family="sans-serif" font-size="11" lengthAdjust="spacing" textLength="28.7944" x="20" y="1110.7471">MeFit</text><rect fill="#F1F1F1" height="32.9551" rx="12.5" ry="12.5" style="stroke:#181818;stroke-width:1.5;" width="93.3" x="108.7944" y="163.3984"/><text fill="#000000" font-family="sans-serif" font-size="11" lengthAdjust="spacing" textLength="73.3" x="118.7944" y="184.0332">&#9312; &#51064;&#51613; / &#50728;&#48372;&#46377;</text><rect fill="#F1F1F1" height="32.9551" rx="12.5" ry="12.5" style="stroke:#181818;stroke-width:1.5;" width="90.0855" x="252.0944" y="57.4883"/><text fill="#000000" font-family="sans-serif" font-size="11" lengthAdjust="spacing" textLength="70.0855" x="262.0944" y="78.123">&#51060;&#47700;&#51068; &#54924;&#50896;&#44032;&#51077;</text><path d="M202.0944,179.876 L212.0944,179.876 C227.0944,179.876 227.0944,73.9658 242.0944,73.9658 L252.0944,73.9658" fill="none" style="stroke:#181818;stroke-width:1;"/><rect fill="#F1F1F1" height="32.9551" rx="12.5" ry="12.5" style="stroke:#181818;stroke-width:1.5;" width="91.0065" x="252.0944" y="110.4434"/><text fill="#000000" font-family="sans-serif" font-size="11" lengthAdjust="spacing" textLength="71.0065" x="262.0944" y="131.0781">6&#51088;&#47532; &#51064;&#51613; &#53076;&#46300;</text><path d="M202.0944,179.876 L212.0944,179.876 C227.0944,179.876 227.0944,126.9209 242.0944,126.9209 L252.0944,126.9209" fill="none" style="stroke:#181818;stroke-width:1;"/><rect fill="#F1F1F1" height="32.9551" rx="12.5" ry="12.5" style="stroke:#181818;stroke-width:1.5;" width="138.5508" x="252.0944" y="163.3984"/><text fill="#000000" font-family="sans-serif" font-size="11" lengthAdjust="spacing" textLength="118.5508" x="262.0944" y="184.0332">JWT (access + refresh)</text><path d="M202.0944,179.876 L212.0944,179.876 C227.0944,179.876 227.0944,179.876 242.0944,179.876 L252.0944,179.876" fill="none" style="stroke:#181818;stroke-width:1;"/><rect fill="#F1F1F1" height="32.9551" rx="12.5" ry="12.5" style="stroke:#181818;stroke-width:1.5;" width="96.2755" x="252.0944" y="216.3535"/><text fill="#000000" font-family="sans-serif" font-size="11" lengthAdjust="spacing" textLength="76.2755" x="262.0944" y="236.9883">&#51649;&#47924; + &#44221;&#47141; &#51077;&#47141;</text><path d="M202.0944,179.876 L212.0944,179.876 C227.0944,179.876 227.0944,232.8311 242.0944,232.8311 L252.0944,232.8311" fill="none" style="stroke:#181818;stroke-width:1;"/><rect fill="#F1F1F1" height="32.9551" rx="12.5" ry="12.5" style="stroke:#181818;stroke-width:1.5;" width="80.5705" x="252.0944" y="269.3086"/><text fill="#000000" font-family="sans-serif" font-size="11" lengthAdjust="spacing" textLength="60.5705" x="262.0944" y="289.9434">&#54400;&#49828;&#53356;&#47536; &#44032;&#46300;</text><path d="M202.0944,179.876 L212.0944,179.876 C227.0944,179.876 227.0944,285.7861 242.0944,285.7861 L252.0944,285.7861" fill="none" style="stroke:#181818;stroke-width:1;"/><path d="M58.7944,1106.5898 L68.7944,1106.5898 C83.7944,1106.5898 83.7944,179.876 98.7944,179.876 L108.7944,179.876" fill="none" style="stroke:#181818;stroke-width:1;"/><rect fill="#F1F1F1" height="32.9551" rx="12.5" ry="12.5" style="stroke:#181818;stroke-width:1.5;" width="61.5405" x="108.7944" y="428.1738"/><text fill="#000000" font-family="sans-serif" font-size="11" lengthAdjust="spacing" textLength="41.5405" x="118.7944" y="448.8086">&#9313; &#51060;&#47141;&#49436;</text><rect fill="#F1F1F1" height="32.9551" rx="12.5" ry="12.5" style="stroke:#181818;stroke-width:1.5;" width="116.253" x="220.3349" y="322.2637"/><text fill="#000000" font-family="sans-serif" font-size="11" lengthAdjust="spacing" textLength="96.253" x="230.3349" y="342.8984">PDF / DOCX &#50629;&#47196;&#46300;</text><path d="M170.3349,444.6514 L180.3349,444.6514 C195.3349,444.6514 195.3349,338.7412 210.3349,338.7412 L220.3349,338.7412" fill="none" style="stroke:#181818;stroke-width:1;"/><rect fill="#F1F1F1" height="32.9551" rx="12.5" ry="12.5" style="stroke:#181818;stroke-width:1.5;" width="105.7906" x="220.3349" y="375.2188"/><text fill="#000000" font-family="sans-serif" font-size="11" lengthAdjust="spacing" textLength="85.7906" x="230.3349" y="395.8535">&#51649;&#51217; &#51077;&#47141; + &#53596;&#54540;&#47551;</text><path d="M170.3349,444.6514 L180.3349,444.6514 C195.3349,444.6514 195.3349,391.6963 210.3349,391.6963 L220.3349,391.6963" fill="none" style="stroke:#181818;stroke-width:1;"/><rect fill="#F1F1F1" height="32.9551" rx="12.5" ry="12.5" style="stroke:#181818;stroke-width:1.5;" width="103.0809" x="220.3349" y="428.1738"/><text fill="#000000" font-family="sans-serif" font-size="11" lengthAdjust="spacing" textLength="83.0809" x="230.3349" y="448.8086">&#49465;&#49496;&#48324; &#51064;&#46972;&#51064; &#54200;&#51665;</text><path d="M170.3349,444.6514 L180.3349,444.6514 C195.3349,444.6514 195.3349,444.6514 210.3349,444.6514 L220.3349,444.6514" fill="none" style="stroke:#181818;stroke-width:1;"/><rect fill="#F1F1F1" height="32.9551" rx="12.5" ry="12.5" style="stroke:#181818;stroke-width:1.5;" width="107.9656" x="220.3349" y="481.1289"/><text fill="#000000" font-family="sans-serif" font-size="11" lengthAdjust="spacing" textLength="87.9656" x="230.3349" y="501.7637">LLM &#48516;&#49437; + &#51076;&#48288;&#46377;</text><path d="M170.3349,444.6514 L180.3349,444.6514 C195.3349,444.6514 195.3349,497.6064 210.3349,497.6064 L220.3349,497.6064" fill="none" style="stroke:#181818;stroke-width:1;"/><rect fill="#F1F1F1" height="32.9551" rx="12.5" ry="12.5" style="stroke:#181818;stroke-width:1.5;" width="92.3465" x="220.3349" y="534.084"/><text fill="#000000" font-family="sans-serif" font-size="11" lengthAdjust="spacing" textLength="72.3465" x="230.3349" y="554.7188">SSE &#49892;&#49884;&#44036; &#49345;&#53468;</text><path d="M170.3349,444.6514 L180.3349,444.6514 C195.3349,444.6514 195.3349,550.5615 210.3349,550.5615 L220.3349,550.5615" fill="none" style="stroke:#181818;stroke-width:1;"/><path d="M58.7944,1106.5898 L68.7944,1106.5898 C83.7944,1106.5898 83.7944,444.6514 98.7944,444.6514 L108.7944,444.6514" fill="none" style="stroke:#181818;stroke-width:1;"/><rect fill="#F1F1F1" height="32.9551" rx="12.5" ry="12.5" style="stroke:#181818;stroke-width:1.5;" width="71.0555" x="108.7944" y="692.9492"/><text fill="#000000" font-family="sans-serif" font-size="11" lengthAdjust="spacing" textLength="51.0555" x="118.7944" y="713.584">&#9314; &#52292;&#50857;&#44277;&#44256;</text><rect fill="#F1F1F1" height="32.9551" rx="12.5" ry="12.5" style="stroke:#181818;stroke-width:1.5;" width="104.4933" x="229.8499" y="639.9941"/><text fill="#000000" font-family="sans-serif" font-size="11" lengthAdjust="spacing" textLength="84.4933" x="239.8499" y="660.6289">URL &#51088;&#46041; &#49828;&#53356;&#47000;&#54609;</text><rect fill="#F1F1F1" height="32.9551" rx="12.5" ry="12.5" style="stroke:#181818;stroke-width:1.5;" width="67.0255" x="384.3432" y="587.0391"/><text fill="#000000" font-family="sans-serif" font-size="11" lengthAdjust="spacing" textLength="47.0255" x="394.3432" y="607.6738">&#49324;&#46988;&#51064; &#9989;</text><path d="M334.3432,656.4717 L344.3432,656.4717 C359.3432,656.4717 359.3432,603.5166 374.3432,603.5166 L384.3432,603.5166" fill="none" style="stroke:#181818;stroke-width:1;"/><rect fill="#F1F1F1" height="32.9551" rx="12.5" ry="12.5" style="stroke:#181818;stroke-width:1.5;" width="76.5405" x="384.3432" y="639.9941"/><text fill="#000000" font-family="sans-serif" font-size="11" lengthAdjust="spacing" textLength="56.5405" x="394.3432" y="660.6289">&#51105;&#53076;&#47532;&#50500; &#9989;</text><path d="M334.3432,656.4717 L344.3432,656.4717 C359.3432,656.4717 359.3432,656.4717 374.3432,656.4717 L384.3432,656.4717" fill="none" style="stroke:#181818;stroke-width:1;"/><rect fill="#F1F1F1" height="32.9551" rx="12.5" ry="12.5" style="stroke:#181818;stroke-width:1.5;" width="76.5405" x="384.3432" y="692.9492"/><text fill="#000000" font-family="sans-serif" font-size="11" lengthAdjust="spacing" textLength="56.5405" x="394.3432" y="713.584">&#51105;&#54540;&#47000;&#45787; &#9989;</text><path d="M334.3432,656.4717 L344.3432,656.4717 C359.3432,656.4717 359.3432,709.4268 374.3432,709.4268 L384.3432,709.4268" fill="none" style="stroke:#181818;stroke-width:1;"/><path d="M179.8499,709.4268 L189.8499,709.4268 C204.8499,709.4268 204.8499,656.4717 219.8499,656.4717 L229.8499,656.4717" fill="none" style="stroke:#181818;stroke-width:1;"/><rect fill="#F1F1F1" height="32.9551" rx="12.5" ry="12.5" style="stroke:#181818;stroke-width:1.5;" width="61.5405" x="229.8499" y="692.9492"/><text fill="#000000" font-family="sans-serif" font-size="11" lengthAdjust="spacing" textLength="41.5405" x="239.8499" y="713.584">&#51649;&#51217; &#51077;&#47141;</text><path d="M179.8499,709.4268 L189.8499,709.4268 C204.8499,709.4268 204.8499,709.4268 219.8499,709.4268 L229.8499,709.4268" fill="none" style="stroke:#181818;stroke-width:1;"/><rect fill="#F1F1F1" height="32.9551" rx="12.5" ry="12.5" style="stroke:#181818;stroke-width:1.5;" width="75.4621" x="229.8499" y="745.9043"/><text fill="#000000" font-family="sans-serif" font-size="11" lengthAdjust="spacing" textLength="55.4621" x="239.8499" y="766.5391">Plugin &#44396;&#51312;</text><path d="M179.8499,709.4268 L189.8499,709.4268 C204.8499,709.4268 204.8499,762.3818 219.8499,762.3818 L229.8499,762.3818" fill="none" style="stroke:#181818;stroke-width:1;"/><rect fill="#F1F1F1" height="32.9551" rx="12.5" ry="12.5" style="stroke:#181818;stroke-width:1.5;" width="97.046" x="229.8499" y="798.8594"/><text fill="#000000" font-family="sans-serif" font-size="11" lengthAdjust="spacing" textLength="77.046" x="239.8499" y="819.4941">&#48391; &#52264;&#45800; fallback</text><path d="M179.8499,709.4268 L189.8499,709.4268 C204.8499,709.4268 204.8499,815.3369 219.8499,815.3369 L229.8499,815.3369" fill="none" style="stroke:#181818;stroke-width:1;"/><path d="M58.7944,1106.5898 L68.7944,1106.5898 C83.7944,1106.5898 83.7944,709.4268 98.7944,709.4268 L108.7944,709.4268" fill="none" style="stroke:#181818;stroke-width:1;"/><rect fill="#F1F1F1" height="32.9551" rx="12.5" ry="12.5" style="stroke:#181818;stroke-width:1.5;" width="74.5359" x="108.7944" y="1010.6797"/><text fill="#000000" font-family="sans-serif" font-size="11" lengthAdjust="spacing" textLength="54.5359" x="118.7944" y="1031.3145">&#9315; &#44032;&#49345; &#47732;&#51217;</text><rect fill="#F1F1F1" height="32.9551" rx="12.5" ry="12.5" style="stroke:#181818;stroke-width:1.5;" width="117.9314" x="233.3304" y="851.8145"/><text fill="#000000" font-family="sans-serif" font-size="11" lengthAdjust="spacing" textLength="97.9314" x="243.3304" y="872.4492">FOLLOWUP (5 &#54000;&#53011;)</text><rect fill="#F1F1F1" height="32.9551" rx="12.5" ry="12.5" style="stroke:#181818;stroke-width:1.5;" width="86.226" x="401.2617" y="851.8145"/><text fill="#000000" font-family="sans-serif" font-size="11" lengthAdjust="spacing" textLength="66.226" x="411.2617" y="872.4492">&#54980;&#49549; &#51656;&#47928; LLM</text><path d="M351.2617,868.292 L361.2617,868.292 C376.2617,868.292 376.2617,868.292 391.2617,868.292 L401.2617,868.292" fill="none" style="stroke:#181818;stroke-width:1;"/><path d="M183.3304,1027.1572 L193.3304,1027.1572 C208.3304,1027.1572 208.3304,868.292 223.3304,868.292 L233.3304,868.292" fill="none" style="stroke:#181818;stroke-width:1;"/><rect fill="#F1F1F1" height="32.9551" rx="12.5" ry="12.5" style="stroke:#181818;stroke-width:1.5;" width="144.8083" x="233.3304" y="904.7695"/><text fill="#000000" font-family="sans-serif" font-size="11" lengthAdjust="spacing" textLength="124.8083" x="243.3304" y="925.4043">FULL_PROCESS (10 &#54000;&#53011;)</text><rect fill="#F1F1F1" height="32.9551" rx="12.5" ry="12.5" style="stroke:#181818;stroke-width:1.5;" width="74.5359" x="428.1387" y="904.7695"/><text fill="#000000" font-family="sans-serif" font-size="11" lengthAdjust="spacing" textLength="54.5359" x="438.1387" y="925.4043">&#49324;&#51204; &#54400; &#51656;&#47928;</text><path d="M378.1387,921.2471 L388.1387,921.2471 C403.1387,921.2471 403.1387,921.2471 418.1387,921.2471 L428.1387,921.2471" fill="none" style="stroke:#181818;stroke-width:1;"/><path d="M183.3304,1027.1572 L193.3304,1027.1572 C208.3304,1027.1572 208.3304,921.2471 223.3304,921.2471 L233.3304,921.2471" fill="none" style="stroke:#181818;stroke-width:1;"/><rect fill="#F1F1F1" height="32.9551" rx="12.5" ry="12.5" style="stroke:#181818;stroke-width:1.5;" width="164.7003" x="233.3304" y="957.7246"/><text fill="#000000" font-family="sans-serif" font-size="11" lengthAdjust="spacing" textLength="144.7003" x="243.3304" y="978.3594">&#45212;&#51060;&#46020; EASY/MEDIUM/HARD</text><path d="M183.3304,1027.1572 L193.3304,1027.1572 C208.3304,1027.1572 208.3304,974.2021 223.3304,974.2021 L233.3304,974.2021" fill="none" style="stroke:#181818;stroke-width:1;"/><rect fill="#F1F1F1" height="32.9551" rx="12.5" ry="12.5" style="stroke:#181818;stroke-width:1.5;" width="126.5842" x="233.3304" y="1010.6797"/><text fill="#000000" font-family="sans-serif" font-size="11" lengthAdjust="spacing" textLength="106.5842" x="243.3304" y="1031.3145">&#47784;&#46300; PRACTICE/REAL</text><path d="M183.3304,1027.1572 L193.3304,1027.1572 C208.3304,1027.1572 208.3304,1027.1572 223.3304,1027.1572 L233.3304,1027.1572" fill="none" style="stroke:#181818;stroke-width:1;"/><rect fill="#F1F1F1" height="32.9551" rx="12.5" ry="12.5" style="stroke:#181818;stroke-width:1.5;" width="100.3088" x="233.3304" y="1063.6348"/><text fill="#000000" font-family="sans-serif" font-size="11" lengthAdjust="spacing" textLength="80.3088" x="243.3304" y="1084.2695">Precheck 3 &#45800;&#44228;</text><path d="M183.3304,1027.1572 L193.3304,1027.1572 C208.3304,1027.1572 208.3304,1080.1123 223.3304,1080.1123 L233.3304,1080.1123" fill="none" style="stroke:#181818;stroke-width:1;"/><rect fill="#F1F1F1" height="32.9551" rx="12.5" ry="12.5" style="stroke:#181818;stroke-width:1.5;" width="104.7344" x="233.3304" y="1116.5898"/><text fill="#000000" font-family="sans-serif" font-size="11" lengthAdjust="spacing" textLength="84.7344" x="243.3304" y="1137.2246">WebSocket Q&amp;A</text><path d="M183.3304,1027.1572 L193.3304,1027.1572 C208.3304,1027.1572 208.3304,1133.0674 223.3304,1133.0674 L233.3304,1133.0674" fill="none" style="stroke:#181818;stroke-width:1;"/><rect fill="#F1F1F1" height="32.9551" rx="12.5" ry="12.5" style="stroke:#181818;stroke-width:1.5;" width="118.3645" x="233.3304" y="1169.5449"/><text fill="#000000" font-family="sans-serif" font-size="11" lengthAdjust="spacing" textLength="98.3645" x="243.3304" y="1190.1797">&#50689;&#49345;/&#51020;&#49457; &#52397;&#53356; &#50629;&#47196;&#46300;</text><path d="M183.3304,1027.1572 L193.3304,1027.1572 C208.3304,1027.1572 208.3304,1186.0225 223.3304,1186.0225 L233.3304,1186.0225" fill="none" style="stroke:#181818;stroke-width:1;"/><path d="M58.7944,1106.5898 L68.7944,1106.5898 C83.7944,1106.5898 83.7944,1027.1572 98.7944,1027.1572 L108.7944,1027.1572" fill="none" style="stroke:#181818;stroke-width:1;"/><rect fill="#F1F1F1" height="32.9551" rx="12.5" ry="12.5" style="stroke:#181818;stroke-width:1.5;" width="84.0509" x="108.7944" y="1460.7979"/><text fill="#000000" font-family="sans-serif" font-size="11" lengthAdjust="spacing" textLength="64.0509" x="118.7944" y="1481.4326">&#9316; &#48516;&#49437; &#47532;&#54252;&#53944;</text><rect fill="#F1F1F1" height="32.9551" rx="12.5" ry="12.5" style="stroke:#181818;stroke-width:1.5;" width="91.0065" x="242.8454" y="1328.4102"/><text fill="#000000" font-family="sans-serif" font-size="11" lengthAdjust="spacing" textLength="71.0065" x="252.8454" y="1349.0449">5 &#52852;&#53580;&#44256;&#47532; &#51216;&#49688;</text><rect fill="#F1F1F1" height="32.9551" rx="12.5" ry="12.5" style="stroke:#181818;stroke-width:1.5;" width="48.545" x="383.8519" y="1222.5"/><text fill="#000000" font-family="sans-serif" font-size="11" lengthAdjust="spacing" textLength="28.545" x="393.8519" y="1243.1348">&#44396;&#52404;&#49457;</text><path d="M333.8519,1344.8877 L343.8519,1344.8877 C358.8519,1344.8877 358.8519,1238.9775 373.8519,1238.9775 L383.8519,1238.9775" fill="none" style="stroke:#181818;stroke-width:1;"/><rect fill="#F1F1F1" height="32.9551" rx="12.5" ry="12.5" style="stroke:#181818;stroke-width:1.5;" width="71.0555" x="383.8519" y="1275.4551"/><text fill="#000000" font-family="sans-serif" font-size="11" lengthAdjust="spacing" textLength="51.0555" x="393.8519" y="1296.0898">&#51649;&#47924; &#51201;&#54633;&#49457;</text><path d="M333.8519,1344.8877 L343.8519,1344.8877 C358.8519,1344.8877 358.8519,1291.9326 373.8519,1291.9326 L383.8519,1291.9326" fill="none" style="stroke:#181818;stroke-width:1;"/><rect fill="#F1F1F1" height="32.9551" rx="12.5" ry="12.5" style="stroke:#181818;stroke-width:1.5;" width="48.545" x="383.8519" y="1328.4102"/><text fill="#000000" font-family="sans-serif" font-size="11" lengthAdjust="spacing" textLength="28.545" x="393.8519" y="1349.0449">&#45436;&#47532;&#49457;</text><path d="M333.8519,1344.8877 L343.8519,1344.8877 C358.8519,1344.8877 358.8519,1344.8877 373.8519,1344.8877 L383.8519,1344.8877" fill="none" style="stroke:#181818;stroke-width:1;"/><rect fill="#F1F1F1" height="32.9551" rx="12.5" ry="12.5" style="stroke:#181818;stroke-width:1.5;" width="48.545" x="383.8519" y="1381.3652"/><text fill="#000000" font-family="sans-serif" font-size="11" lengthAdjust="spacing" textLength="28.545" x="393.8519" y="1402">&#49888;&#47280;&#46020;</text><path d="M333.8519,1344.8877 L343.8519,1344.8877 C358.8519,1344.8877 358.8519,1397.8428 373.8519,1397.8428 L383.8519,1397.8428" fill="none" style="stroke:#181818;stroke-width:1;"/><rect fill="#F1F1F1" height="32.9551" rx="12.5" ry="12.5" style="stroke:#181818;stroke-width:1.5;" width="58.06" x="383.8519" y="1434.3203"/><text fill="#000000" font-family="sans-serif" font-size="11" lengthAdjust="spacing" textLength="38.06" x="393.8519" y="1454.9551">&#47732;&#51217;&#53468;&#46020;</text><path d="M333.8519,1344.8877 L343.8519,1344.8877 C358.8519,1344.8877 358.8519,1450.7979 373.8519,1450.7979 L383.8519,1450.7979" fill="none" style="stroke:#181818;stroke-width:1;"/><path d="M192.8454,1477.2754 L202.8454,1477.2754 C217.8454,1477.2754 217.8454,1344.8877 232.8454,1344.8877 L242.8454,1344.8877" fill="none" style="stroke:#181818;stroke-width:1;"/><rect fill="#F1F1F1" height="32.9551" rx="12.5" ry="12.5" style="stroke:#181818;stroke-width:1.5;" width="94.487" x="242.8454" y="1381.3652"/><text fill="#000000" font-family="sans-serif" font-size="11" lengthAdjust="spacing" textLength="74.487" x="252.8454" y="1402">&#51333;&#54633; &#46321;&#44553; 5 &#45800;&#44228;</text><path d="M192.8454,1477.2754 L202.8454,1477.2754 C217.8454,1477.2754 217.8454,1397.8428 232.8454,1397.8428 L242.8454,1397.8428" fill="none" style="stroke:#181818;stroke-width:1;"/><rect fill="#F1F1F1" height="32.9551" rx="12.5" ry="12.5" style="stroke:#181818;stroke-width:1.5;" width="80.5705" x="242.8454" y="1540.2305"/><text fill="#000000" font-family="sans-serif" font-size="11" lengthAdjust="spacing" textLength="60.5705" x="252.8454" y="1560.8652">&#51656;&#47928;&#48324; &#54588;&#46300;&#48177;</text><rect fill="#F1F1F1" height="32.9551" rx="12.5" ry="12.5" style="stroke:#181818;stroke-width:1.5;" width="70.585" x="373.4158" y="1487.2754"/><text fill="#000000" font-family="sans-serif" font-size="11" lengthAdjust="spacing" textLength="50.585" x="383.4158" y="1507.9102">strengths</text><path d="M323.4158,1556.708 L333.4158,1556.708 C348.4158,1556.708 348.4158,1503.7529 363.4158,1503.7529 L373.4158,1503.7529" fill="none" style="stroke:#181818;stroke-width:1;"/><rect fill="#F1F1F1" height="32.9551" rx="12.5" ry="12.5" style="stroke:#181818;stroke-width:1.5;" width="96.3984" x="373.4158" y="1540.2305"/><text fill="#000000" font-family="sans-serif" font-size="11" lengthAdjust="spacing" textLength="76.3984" x="383.4158" y="1560.8652">improvements</text><path d="M323.4158,1556.708 L333.4158,1556.708 C348.4158,1556.708 348.4158,1556.708 363.4158,1556.708 L373.4158,1556.708" fill="none" style="stroke:#181818;stroke-width:1;"/><rect fill="#F1F1F1" height="32.9551" rx="12.5" ry="12.5" style="stroke:#181818;stroke-width:1.5;" width="96.3716" x="373.4158" y="1593.1855"/><text fill="#000000" font-family="sans-serif" font-size="11" lengthAdjust="spacing" textLength="76.3716" x="383.4158" y="1613.8203">model_answer</text><path d="M323.4158,1556.708 L333.4158,1556.708 C348.4158,1556.708 348.4158,1609.6631 363.4158,1609.6631 L373.4158,1609.6631" fill="none" style="stroke:#181818;stroke-width:1;"/><path d="M192.8454,1477.2754 L202.8454,1477.2754 C217.8454,1477.2754 217.8454,1556.708 232.8454,1556.708 L242.8454,1556.708" fill="none" style="stroke:#181818;stroke-width:1;"/><rect fill="#F1F1F1" height="32.9551" rx="12.5" ry="12.5" style="stroke:#181818;stroke-width:1.5;" width="96.2755" x="242.8454" y="1646.1406"/><text fill="#000000" font-family="sans-serif" font-size="11" lengthAdjust="spacing" textLength="76.2755" x="252.8454" y="1666.7754">&#51020;&#49457; + &#54364;&#51221; &#48516;&#49437;</text><path d="M192.8454,1477.2754 L202.8454,1477.2754 C217.8454,1477.2754 217.8454,1662.6182 232.8454,1662.6182 L242.8454,1662.6182" fill="none" style="stroke:#181818;stroke-width:1;"/><rect fill="#F1F1F1" height="32.9551" rx="12.5" ry="12.5" style="stroke:#181818;stroke-width:1.5;" width="82.8315" x="242.8454" y="1699.0957"/><text fill="#000000" font-family="sans-serif" font-size="11" lengthAdjust="spacing" textLength="62.8315" x="252.8454" y="1719.7305">SSE &#51652;&#54665; &#49345;&#53468;</text><path d="M192.8454,1477.2754 L202.8454,1477.2754 C217.8454,1477.2754 217.8454,1715.5732 232.8454,1715.5732 L242.8454,1715.5732" fill="none" style="stroke:#181818;stroke-width:1;"/><path d="M58.7944,1106.5898 L68.7944,1106.5898 C83.7944,1106.5898 83.7944,1477.2754 98.7944,1477.2754 L108.7944,1477.2754" fill="none" style="stroke:#181818;stroke-width:1;"/><rect fill="#F1F1F1" height="32.9551" rx="12.5" ry="12.5" style="stroke:#181818;stroke-width:1.5;" width="93.3" x="108.7944" y="1831.4834"/><text fill="#000000" font-family="sans-serif" font-size="11" lengthAdjust="spacing" textLength="73.3" x="118.7944" y="1852.1182">&#9317; &#49828;&#53944;&#47533; / &#50629;&#51201;</text><rect fill="#F1F1F1" height="32.9551" rx="12.5" ry="12.5" style="stroke:#181818;stroke-width:1.5;" width="106.5614" x="252.0944" y="1752.0508"/><text fill="#000000" font-family="sans-serif" font-size="11" lengthAdjust="spacing" textLength="86.5614" x="262.0944" y="1772.6855">&#51068;&#51068; &#52280;&#50668; &#51088;&#46041; &#44592;&#47197;</text><path d="M202.0944,1847.9609 L212.0944,1847.9609 C227.0944,1847.9609 227.0944,1768.5283 242.0944,1768.5283 L252.0944,1768.5283" fill="none" style="stroke:#181818;stroke-width:1;"/><rect fill="#F1F1F1" height="32.9551" rx="12.5" ry="12.5" style="stroke:#181818;stroke-width:1.5;" width="80.5705" x="252.0944" y="1805.0059"/><text fill="#000000" font-family="sans-serif" font-size="11" lengthAdjust="spacing" textLength="60.5705" x="262.0944" y="1825.6406">&#52888;&#47536;&#45908; &#44536;&#47532;&#46300;</text><path d="M202.0944,1847.9609 L212.0944,1847.9609 C227.0944,1847.9609 227.0944,1821.4834 242.0944,1821.4834 L252.0944,1821.4834" fill="none" style="stroke:#181818;stroke-width:1;"/><rect fill="#F1F1F1" height="32.9551" rx="12.5" ry="12.5" style="stroke:#181818;stroke-width:1.5;" width="91.2052" x="252.0944" y="1857.9609"/><text fill="#000000" font-family="sans-serif" font-size="11" lengthAdjust="spacing" textLength="71.2052" x="262.0944" y="1878.5957">&#48372;&#49345; &#48156;&#44553; (&#54000;&#53011;)</text><path d="M202.0944,1847.9609 L212.0944,1847.9609 C227.0944,1847.9609 227.0944,1874.4385 242.0944,1874.4385 L252.0944,1874.4385" fill="none" style="stroke:#181818;stroke-width:1;"/><rect fill="#F1F1F1" height="32.9551" rx="12.5" ry="12.5" style="stroke:#181818;stroke-width:1.5;" width="91.0065" x="252.0944" y="1910.916"/><text fill="#000000" font-family="sans-serif" font-size="11" lengthAdjust="spacing" textLength="71.0065" x="262.0944" y="1931.5508">4 &#52852;&#53580;&#44256;&#47532; &#50629;&#51201;</text><path d="M202.0944,1847.9609 L212.0944,1847.9609 C227.0944,1847.9609 227.0944,1927.3936 242.0944,1927.3936 L252.0944,1927.3936" fill="none" style="stroke:#181818;stroke-width:1;"/><path d="M58.7944,1106.5898 L68.7944,1106.5898 C83.7944,1106.5898 83.7944,1847.9609 98.7944,1847.9609 L108.7944,1847.9609" fill="none" style="stroke:#181818;stroke-width:1;"/><rect fill="#F1F1F1" height="32.9551" rx="12.5" ry="12.5" style="stroke:#181818;stroke-width:1.5;" width="83.785" x="108.7944" y="2043.3037"/><text fill="#000000" font-family="sans-serif" font-size="11" lengthAdjust="spacing" textLength="63.785" x="118.7944" y="2063.9385">&#9318; &#44396;&#46021; / &#54000;&#53011;</text><rect fill="#F1F1F1" height="32.9551" rx="12.5" ry="12.5" style="stroke:#181818;stroke-width:1.5;" width="95.2331" x="242.5794" y="1963.8711"/><text fill="#000000" font-family="sans-serif" font-size="11" lengthAdjust="spacing" textLength="75.2331" x="252.5794" y="1984.5059">Free / Pro &#54540;&#47004;</text><path d="M192.5794,2059.7813 L202.5794,2059.7813 C217.5794,2059.7813 217.5794,1980.3486 232.5794,1980.3486 L242.5794,1980.3486" fill="none" style="stroke:#181818;stroke-width:1;"/><rect fill="#F1F1F1" height="32.9551" rx="12.5" ry="12.5" style="stroke:#181818;stroke-width:1.5;" width="178.1572" x="242.5794" y="2016.8262"/><text fill="#000000" font-family="sans-serif" font-size="11" lengthAdjust="spacing" textLength="158.1572" x="252.5794" y="2037.4609">Grant / Use / Refund / Expire</text><path d="M192.5794,2059.7813 L202.5794,2059.7813 C217.5794,2059.7813 217.5794,2033.3037 232.5794,2033.3037 L242.5794,2033.3037" fill="none" style="stroke:#181818;stroke-width:1;"/><rect fill="#F1F1F1" height="32.9551" rx="12.5" ry="12.5" style="stroke:#181818;stroke-width:1.5;" width="94.4328" x="242.5794" y="2069.7813"/><text fill="#000000" font-family="sans-serif" font-size="11" lengthAdjust="spacing" textLength="74.4328" x="252.5794" y="2090.416">TicketLog &#51060;&#47141;</text><path d="M192.5794,2059.7813 L202.5794,2059.7813 C217.5794,2059.7813 217.5794,2086.2588 232.5794,2086.2588 L242.5794,2086.2588" fill="none" style="stroke:#181818;stroke-width:1;"/><rect fill="#F1F1F1" height="32.9551" rx="12.5" ry="12.5" style="stroke:#181818;stroke-width:1.5;" width="71.0555" x="242.5794" y="2122.7363"/><text fill="#000000" font-family="sans-serif" font-size="11" lengthAdjust="spacing" textLength="51.0555" x="252.5794" y="2143.3711">&#46041;&#49884;&#49457; &#51228;&#50612;</text><path d="M192.5794,2059.7813 L202.5794,2059.7813 C217.5794,2059.7813 217.5794,2139.2139 232.5794,2139.2139 L242.5794,2139.2139" fill="none" style="stroke:#181818;stroke-width:1;"/><path d="M58.7944,1106.5898 L68.7944,1106.5898 C83.7944,1106.5898 83.7944,2059.7813 98.7944,2059.7813 L108.7944,2059.7813" fill="none" style="stroke:#181818;stroke-width:1;"/><g class="footer" data-source-line="62"><text fill="#888888" font-family="sans-serif" font-size="10" lengthAdjust="spacing" textLength="102.8424" x="204.4161" y="2175.3594">MeFit - &#54645;&#49900; &#44592;&#45733; 7&#44032;&#51648;</text></g><?plantuml-src TLJHRXfN47tdAqQgL3ck6aBQfAz16DfKMAPWvFOfsk2BZGoijQpRgaycsMqJGufTGqnYG8jhOxlQg6k3Mr8HzL_ok7Vs7pftxvAQI16ICJDtPiuvzzovLz4LJIyLogibPJEa5_GY0_xds6iru5FmMbTOiy4TEtpd1BvmdMqytGw5AXk5ygQYAILugEGsrZHrgxmQKukg1Xybuk9pxSGgoojRHJsXblLCuIS6aKWeD0-BB57GG_Fpy7RF0koEST25C63xZ0z7l7bEcNaAZ_Xv4xiJy5xMyN1NJE-PVkekzdRvm9vMufict-_ucQzNbc5EoULOfGAVWCRo6gkitv3zJglS7b7KlNp3hHEWPlJbfxpVjd7dsAlQVE00pP7T25pVHs6Te27RfnOIX7DXAVOju879-vtfN6gErbxGasPuPiThrldWNvarNgFPvaD38ERT2Vq5xzSndkxvwMHo4VXV1XfTgiIUmI-jgGYPJ1omTeorZkjGzUEgzpY0TWHuOU3BStTuvGuj_t0sdGIXJEC517HwRQ_bpo0CZ-XdNKn-sp63KAylf1lOs39ceW9whyrhXzFeB3yfHN5hhL06zyh6lkD7-EWNGEUCryuWhnIBmXiIwkz2Ky8E_7n4NVp3YQLaScabcuAvE-3L79pitv3ZlKC3Vtv60vzmUooaaSUpoUI3L7ef5izaO2voQxQ6kA5bY6iCwYIUHnrnUmq3uj7CT-75-CBzx6BugsXwGQR_EAFRWrGw6bk-7uk7q_5eKZBJM6wTvJRWCo0kxj3meoliOKRDRJ0TllauAZLfLubK6BjrD2u0Br-HuZEs8Eh7quibbRs6xUr8Q7S0Nuyyiqutv_lOsiKdRSb527eveeu1DUbQjAfUw_nTb9iJSMtl3jKiVkGGqo3hoqnE2IA0HoPL0z-_SCTFQVWrMb8lOKslEI7Ot0bwLdIDbTVqzOhyMIXjQkhthCJAUX0fgQki-40fLtvWMl1WVI78_7iTj5e1y_zjV6fupv_EUFZ4z-dEc0zUYUT_O1BDeDL4F7nqndXWJpqjrb1VziD_slHK-RCck7zJjJrzXhG-V9yv7K5qxff9uFFt99yE8nW38Jflc8H1LaZBQOnH9AMfuBy7EU5BJIdh5CvMH3BDyhJxw9_uZvi5ZVadbWl29KbrBTWT4bZZ1RrXtoTM1v-FGg6ygkfCavlmWwls7gEz7EpcKEJcxLktxzwC_0S0?></g></svg>