<?plantuml 1.2026.1?><svg xmlns="http://www.w3.org/2000/svg" xmlns:xlink="http://www.w3.org/1999/xlink" contentStyleType="text/css" data-diagram-type="MINDMAP" height="1766px" preserveAspectRatio="none" style="width:645px;height:1766px;background:#FEFEFE;" version="1.1" viewBox="0 0 645 1766" width="645px" zoomAndPan="magnify"><title>&#48120;&#54607; - &#45936;&#51060;&#53552; &#51088;&#49328;&#54868; BM (&#47704;&#53664;&#47553; &#54645;&#49900; &#51064;&#49324;&#51060;&#53944;)</title><defs/><g><rect fill="#FEFEFE" height="1766" style="stroke:none;stroke-width:1;" width="645" x="0" y="0"/><g class="title" data-source-line="1"><text fill="#000000" font-family="sans-serif" font-size="14" font-weight="bold" lengthAdjust="spacing" textLength="279.0145" x="181.6678" y="33.5352">&#48120;&#54607; - &#45936;&#51060;&#53552; &#51088;&#49328;&#54868; BM (&#47704;&#53664;&#47553; &#54645;&#49900; &#51064;&#49324;&#51060;&#53944;)</text></g><rect fill="#F1F1F1" height="45.9102" rx="12.5" ry="12.5" style="stroke:#181818;stroke-width:1.5;" width="118.453" x="10" y="871.8145"/><text fill="#000000" font-family="sans-serif" font-size="11" lengthAdjust="spacing" textLength="79.8527" x="20" y="892.4492">&#45936;&#51060;&#53552; &#51088;&#49328;&#54868; BM</text><text fill="#000000" font-family="sans-serif" font-size="11" lengthAdjust="spacing" textLength="98.453" x="20" y="905.4043">("&#51060;&#53448; &#54980;&#50640;&#46020; &#49688;&#51061;&#54868;")</text><rect fill="#F1F1F1" height="32.9551" rx="12.5" ry="12.5" style="stroke:#181818;stroke-width:1.5;" width="71.0555" x="178.453" y="163.3984"/><text fill="#000000" font-family="sans-serif" font-size="11" lengthAdjust="spacing" textLength="51.0555" x="188.453" y="184.0332">&#48376;&#51656;&#51201; &#47928;&#51228;</text><rect fill="#F1F1F1" height="32.9551" rx="12.5" ry="12.5" style="stroke:#181818;stroke-width:1.5;" width="94.5486" x="299.5085" y="83.9658"/><text fill="#000000" font-family="sans-serif" font-size="11" lengthAdjust="spacing" textLength="74.5486" x="309.5085" y="104.6006">&#49324;&#50857;&#51088; LTV &#54620;&#44228;</text><rect fill="#F1F1F1" height="32.9551" rx="12.5" ry="12.5" style="stroke:#181818;stroke-width:1.5;" width="114.0083" x="444.0571" y="57.4883"/><text fill="#000000" font-family="sans-serif" font-size="11" lengthAdjust="spacing" textLength="94.0083" x="454.0571" y="78.123">"&#52712;&#50629; = &#49436;&#48708;&#49828; &#51060;&#53448;"</text><path d="M394.0571,100.4434 L404.0571,100.4434 C419.0571,100.4434 419.0571,73.9658 434.0571,73.9658 L444.0571,73.9658" fill="none" style="stroke:#181818;stroke-width:1;"/><rect fill="#F1F1F1" height="32.9551" rx="12.5" ry="12.5" style="stroke:#181818;stroke-width:1.5;" width="166.0654" x="444.0571" y="110.4434"/><text fill="#000000" font-family="sans-serif" font-size="11" lengthAdjust="spacing" textLength="146.0654" x="454.0571" y="131.0781">&#51068;&#48152; SaaS &#47588;&#52636; &#54028;&#51060;&#54532; &#46972;&#51064; &#54620;&#44228;</text><path d="M394.0571,100.4434 L404.0571,100.4434 C419.0571,100.4434 419.0571,126.9209 434.0571,126.9209 L444.0571,126.9209" fill="none" style="stroke:#181818;stroke-width:1;"/><path d="M249.5085,179.876 L259.5085,179.876 C274.5085,179.876 274.5085,100.4434 289.5085,100.4434 L299.5085,100.4434" fill="none" style="stroke:#181818;stroke-width:1;"/><rect fill="#F1F1F1" height="32.9551" rx="12.5" ry="12.5" style="stroke:#181818;stroke-width:1.5;" width="61.5405" x="299.5085" y="163.3984"/><text fill="#000000" font-family="sans-serif" font-size="11" lengthAdjust="spacing" textLength="41.5405" x="309.5085" y="184.0332">&#47704;&#53664; &#51652;&#45800;</text><rect fill="#F1F1F1" height="32.9551" rx="12.5" ry="12.5" style="stroke:#181818;stroke-width:1.5;" width="98.5555" x="411.0489" y="163.3984"/><text fill="#000000" font-family="sans-serif" font-size="11" lengthAdjust="spacing" textLength="78.5555" x="421.0489" y="184.0332">"BM &#47561;&#55176;&#45716; &#45712;&#45196;"</text><path d="M361.0489,179.876 L371.0489,179.876 C386.0489,179.876 386.0489,179.876 401.0489,179.876 L411.0489,179.876" fill="none" style="stroke:#181818;stroke-width:1;"/><path d="M249.5085,179.876 L259.5085,179.876 C274.5085,179.876 274.5085,179.876 289.5085,179.876 L299.5085,179.876" fill="none" style="stroke:#181818;stroke-width:1;"/><rect fill="#F1F1F1" height="32.9551" rx="12.5" ry="12.5" style="stroke:#181818;stroke-width:1.5;" width="61.5405" x="299.5085" y="242.8311"/><text fill="#000000" font-family="sans-serif" font-size="11" lengthAdjust="spacing" textLength="41.5405" x="309.5085" y="263.4658">&#54644;&#44208; &#48169;&#54693;</text><rect fill="#F1F1F1" height="32.9551" rx="12.5" ry="12.5" style="stroke:#181818;stroke-width:1.5;" width="90.0855" x="411.0489" y="216.3535"/><text fill="#000000" font-family="sans-serif" font-size="11" lengthAdjust="spacing" textLength="70.0855" x="421.0489" y="236.9883">&#51064;&#53552;&#47001;&#49496; &#51088;&#49328;&#54868;</text><path d="M361.0489,259.3086 L371.0489,259.3086 C386.0489,259.3086 386.0489,232.8311 401.0489,232.8311 L411.0489,232.8311" fill="none" style="stroke:#181818;stroke-width:1;"/><rect fill="#F1F1F1" height="32.9551" rx="12.5" ry="12.5" style="stroke:#181818;stroke-width:1.5;" width="125.5914" x="411.0489" y="269.3086"/><text fill="#000000" font-family="sans-serif" font-size="11" lengthAdjust="spacing" textLength="105.5914" x="421.0489" y="289.9434">&#51064;&#49324; &#49884;&#51109; &#51064;&#49324;&#51060;&#53944; &#54032;&#47588;</text><path d="M361.0489,259.3086 L371.0489,259.3086 C386.0489,259.3086 386.0489,285.7861 401.0489,285.7861 L411.0489,285.7861" fill="none" style="stroke:#181818;stroke-width:1;"/><path d="M249.5085,179.876 L259.5085,179.876 C274.5085,179.876 274.5085,259.3086 289.5085,259.3086 L299.5085,259.3086" fill="none" style="stroke:#181818;stroke-width:1;"/><path d="M128.453,894.7695 L138.453,894.7695 C153.453,894.7695 153.453,179.876 168.453,179.876 L178.453,179.876" fill="none" style="stroke:#181818;stroke-width:1;"/><rect fill="#F1F1F1" height="32.9551" rx="12.5" ry="12.5" style="stroke:#181818;stroke-width:1.5;" width="123.2307" x="178.453" y="454.6514"/><text fill="#000000" font-family="sans-serif" font-size="11" lengthAdjust="spacing" textLength="103.2307" x="188.453" y="475.2861">&#51077;&#47141; &#45936;&#51060;&#53552; (&#51060;&#48120; &#45572;&#51201;)</text><rect fill="#F1F1F1" height="32.9551" rx="12.5" ry="12.5" style="stroke:#181818;stroke-width:1.5;" width="125.3005" x="351.6837" y="322.2637"/><text fill="#000000" font-family="sans-serif" font-size="11" lengthAdjust="spacing" textLength="105.3005" x="361.6837" y="342.8984">&#50689;&#49345; (.webm / .mp4)</text><path d="M301.6837,471.1289 L311.6837,471.1289 C326.6837,471.1289 326.6837,338.7412 341.6837,338.7412 L351.6837,338.7412" fill="none" style="stroke:#181818;stroke-width:1;"/><rect fill="#F1F1F1" height="32.9551" rx="12.5" ry="12.5" style="stroke:#181818;stroke-width:1.5;" width="73.3889" x="351.6837" y="375.2188"/><text fill="#000000" font-family="sans-serif" font-size="11" lengthAdjust="spacing" textLength="53.3889" x="361.6837" y="395.8535">&#51020;&#49457; (.wav)</text><path d="M301.6837,471.1289 L311.6837,471.1289 C326.6837,471.1289 326.6837,391.6963 341.6837,391.6963 L351.6837,391.6963" fill="none" style="stroke:#181818;stroke-width:1;"/><rect fill="#F1F1F1" height="32.9551" rx="12.5" ry="12.5" style="stroke:#181818;stroke-width:1.5;" width="113.4976" x="351.6837" y="428.1738"/><text fill="#000000" font-family="sans-serif" font-size="11" lengthAdjust="spacing" textLength="93.4976" x="361.6837" y="448.8086">Transcript (&#53581;&#49828;&#53944;)</text><path d="M301.6837,471.1289 L311.6837,471.1289 C326.6837,471.1289 326.6837,444.6514 341.6837,444.6514 L351.6837,444.6514" fill="none" style="stroke:#181818;stroke-width:1;"/><rect fill="#F1F1F1" height="32.9551" rx="12.5" ry="12.5" style="stroke:#181818;stroke-width:1.5;" width="91.0065" x="351.6837" y="481.1289"/><text fill="#000000" font-family="sans-serif" font-size="11" lengthAdjust="spacing" textLength="71.0065" x="361.6837" y="501.7637">5 &#52852;&#53580;&#44256;&#47532; &#51216;&#49688;</text><path d="M301.6837,471.1289 L311.6837,471.1289 C326.6837,471.1289 326.6837,497.6064 341.6837,497.6064 L351.6837,497.6064" fill="none" style="stroke:#181818;stroke-width:1;"/><rect fill="#F1F1F1" height="32.9551" rx="12.5" ry="12.5" style="stroke:#181818;stroke-width:1.5;" width="132.4797" x="351.6837" y="534.084"/><text fill="#000000" font-family="sans-serif" font-size="11" lengthAdjust="spacing" textLength="112.4797" x="361.6837" y="554.7188">&#49324;&#50857;&#51088; &#47700;&#53440; (&#51649;&#47924; / &#44221;&#47141;)</text><path d="M301.6837,471.1289 L311.6837,471.1289 C326.6837,471.1289 326.6837,550.5615 341.6837,550.5615 L351.6837,550.5615" fill="none" style="stroke:#181818;stroke-width:1;"/><rect fill="#F1F1F1" height="32.9551" rx="12.5" ry="12.5" style="stroke:#181818;stroke-width:1.5;" width="80.5705" x="351.6837" y="587.0391"/><text fill="#000000" font-family="sans-serif" font-size="11" lengthAdjust="spacing" textLength="60.5705" x="361.6837" y="607.6738">&#52292;&#50857;&#44277;&#44256; &#47588;&#54609;</text><path d="M301.6837,471.1289 L311.6837,471.1289 C326.6837,471.1289 326.6837,603.5166 341.6837,603.5166 L351.6837,603.5166" fill="none" style="stroke:#181818;stroke-width:1;"/><path d="M128.453,894.7695 L138.453,894.7695 C153.453,894.7695 153.453,471.1289 168.453,471.1289 L178.453,471.1289" fill="none" style="stroke:#181818;stroke-width:1;"/><rect fill="#F1F1F1" height="32.9551" rx="12.5" ry="12.5" style="stroke:#181818;stroke-width:1.5;" width="104.7079" x="178.453" y="745.9043"/><text fill="#000000" font-family="sans-serif" font-size="11" lengthAdjust="spacing" textLength="84.7079" x="188.453" y="766.5391">&#52628;&#44032; &#51201;&#51116; (To-Be)</text><rect fill="#F1F1F1" height="32.9551" rx="12.5" ry="12.5" style="stroke:#181818;stroke-width:1.5;" width="71.0555" x="333.1609" y="666.4717"/><text fill="#000000" font-family="sans-serif" font-size="11" lengthAdjust="spacing" textLength="51.0555" x="343.1609" y="687.1064">&#51064;&#53552;&#48624; &#46972;&#48296;</text><rect fill="#F1F1F1" height="32.9551" rx="12.5" ry="12.5" style="stroke:#181818;stroke-width:1.5;" width="71.0555" x="454.2164" y="639.9941"/><text fill="#000000" font-family="sans-serif" font-size="11" lengthAdjust="spacing" textLength="51.0555" x="464.2164" y="660.6289">&#51339;&#51008; &#52992;&#51060;&#49828;</text><path d="M404.2164,682.9492 L414.2164,682.9492 C429.2164,682.9492 429.2164,656.4717 444.2164,656.4717 L454.2164,656.4717" fill="none" style="stroke:#181818;stroke-width:1;"/><rect fill="#F1F1F1" height="32.9551" rx="12.5" ry="12.5" style="stroke:#181818;stroke-width:1.5;" width="84.0509" x="454.2164" y="692.9492"/><text fill="#000000" font-family="sans-serif" font-size="11" lengthAdjust="spacing" textLength="64.0509" x="464.2164" y="713.584">&#50504; &#51339;&#51008; &#52992;&#51060;&#49828;</text><path d="M404.2164,682.9492 L414.2164,682.9492 C429.2164,682.9492 429.2164,709.4268 444.2164,709.4268 L454.2164,709.4268" fill="none" style="stroke:#181818;stroke-width:1;"/><path d="M283.1609,762.3818 L293.1609,762.3818 C308.1609,762.3818 308.1609,682.9492 323.1609,682.9492 L333.1609,682.9492" fill="none" style="stroke:#181818;stroke-width:1;"/><rect fill="#F1F1F1" height="32.9551" rx="12.5" ry="12.5" style="stroke:#181818;stroke-width:1.5;" width="122.1109" x="333.1609" y="745.9043"/><text fill="#000000" font-family="sans-serif" font-size="11" lengthAdjust="spacing" textLength="102.1109" x="343.1609" y="766.5391">&#45936;&#47784;&#44536;&#47000;&#54589; &#47588;&#52845; &#51064;&#45937;&#49828;</text><path d="M283.1609,762.3818 L293.1609,762.3818 C308.1609,762.3818 308.1609,762.3818 323.1609,762.3818 L333.1609,762.3818" fill="none" style="stroke:#181818;stroke-width:1;"/><rect fill="#F1F1F1" height="32.9551" rx="12.5" ry="12.5" style="stroke:#181818;stroke-width:1.5;" width="106.5614" x="333.1609" y="798.8594"/><text fill="#000000" font-family="sans-serif" font-size="11" lengthAdjust="spacing" textLength="86.5614" x="343.1609" y="819.4941">&#49884;&#44036; &#55120;&#47492; &#51216;&#49688; &#52628;&#51060;</text><path d="M283.1609,762.3818 L293.1609,762.3818 C308.1609,762.3818 308.1609,815.3369 323.1609,815.3369 L333.1609,815.3369" fill="none" style="stroke:#181818;stroke-width:1;"/><rect fill="#F1F1F1" height="32.9551" rx="12.5" ry="12.5" style="stroke:#181818;stroke-width:1.5;" width="117.5614" x="333.1609" y="851.8145"/><text fill="#000000" font-family="sans-serif" font-size="11" lengthAdjust="spacing" textLength="97.5614" x="343.1609" y="872.4492">&#52292;&#50857;&#44277;&#44256; &#8594; &#51656;&#47928; &#47588;&#54609;</text><path d="M283.1609,762.3818 L293.1609,762.3818 C308.1609,762.3818 308.1609,868.292 323.1609,868.292 L333.1609,868.292" fill="none" style="stroke:#181818;stroke-width:1;"/><path d="M128.453,894.7695 L138.453,894.7695 C153.453,894.7695 153.453,762.3818 168.453,762.3818 L178.453,762.3818" fill="none" style="stroke:#181818;stroke-width:1;"/><rect fill="#F1F1F1" height="32.9551" rx="12.5" ry="12.5" style="stroke:#181818;stroke-width:1.5;" width="61.5405" x="178.453" y="1143.0674"/><text fill="#000000" font-family="sans-serif" font-size="11" lengthAdjust="spacing" textLength="41.5405" x="188.453" y="1163.7021">&#54876;&#50857; &#50689;&#50669;</text><rect fill="#F1F1F1" height="32.9551" rx="12.5" ry="12.5" style="stroke:#181818;stroke-width:1.5;" width="95.1208" x="289.9935" y="931.2471"/><text fill="#000000" font-family="sans-serif" font-size="11" lengthAdjust="spacing" textLength="75.1208" x="299.9935" y="951.8818">A. &#51088;&#44592;&#51452;&#46020; &#53076;&#52845;</text><rect fill="#F1F1F1" height="32.9551" rx="12.5" ry="12.5" style="stroke:#181818;stroke-width:1.5;" width="135.1064" x="435.1142" y="904.7695"/><text fill="#000000" font-family="sans-serif" font-size="11" lengthAdjust="spacing" textLength="115.1064" x="445.1142" y="925.4043">&#48708;&#49847;&#54620; &#49324;&#50857;&#51088;&#51032; &#51096;&#46108; &#45813;&#48320;</text><path d="M385.1142,947.7246 L395.1142,947.7246 C410.1142,947.7246 410.1142,921.2471 425.1142,921.2471 L435.1142,921.2471" fill="none" style="stroke:#181818;stroke-width:1;"/><rect fill="#F1F1F1" height="32.9551" rx="12.5" ry="12.5" style="stroke:#181818;stroke-width:1.5;" width="112.5959" x="435.1142" y="957.7246"/><text fill="#000000" font-family="sans-serif" font-size="11" lengthAdjust="spacing" textLength="92.5959" x="445.1142" y="978.3594">&#48708;&#49847;&#54620; &#49324;&#50857;&#51088;&#51032; &#50557;&#51216;</text><path d="M385.1142,947.7246 L395.1142,947.7246 C410.1142,947.7246 410.1142,974.2021 425.1142,974.2021 L435.1142,974.2021" fill="none" style="stroke:#181818;stroke-width:1;"/><path d="M239.9935,1159.5449 L249.9935,1159.5449 C264.9935,1159.5449 264.9935,947.7246 279.9935,947.7246 L289.9935,947.7246" fill="none" style="stroke:#181818;stroke-width:1;"/><rect fill="#F1F1F1" height="32.9551" rx="12.5" ry="12.5" style="stroke:#181818;stroke-width:1.5;" width="90.1198" x="289.9935" y="1063.6348"/><text fill="#000000" font-family="sans-serif" font-size="11" lengthAdjust="spacing" textLength="70.1198" x="299.9935" y="1084.2695">B. HR &#49884;&#51109; BM</text><rect fill="#F1F1F1" height="32.9551" rx="12.5" ry="12.5" style="stroke:#181818;stroke-width:1.5;" width="112.5959" x="430.1133" y="1010.6797"/><text fill="#000000" font-family="sans-serif" font-size="11" lengthAdjust="spacing" textLength="92.5959" x="440.1133" y="1031.3145">&#51649;&#47924;&#48324; &#53944;&#47116;&#46300; &#47532;&#54252;&#53944;</text><path d="M380.1133,1080.1123 L390.1133,1080.1123 C405.1133,1080.1123 405.1133,1027.1572 420.1133,1027.1572 L430.1133,1027.1572" fill="none" style="stroke:#181818;stroke-width:1;"/><rect fill="#F1F1F1" height="32.9551" rx="12.5" ry="12.5" style="stroke:#181818;stroke-width:1.5;" width="144.6214" x="430.1133" y="1063.6348"/><text fill="#000000" font-family="sans-serif" font-size="11" lengthAdjust="spacing" textLength="124.6214" x="440.1133" y="1084.2695">&#51064;&#49324;&#54016;&#50857; &#45813;&#48320; &#54056;&#53556; &#51064;&#49324;&#51060;&#53944;</text><path d="M380.1133,1080.1123 L390.1133,1080.1123 C405.1133,1080.1123 405.1133,1080.1123 420.1133,1080.1123 L430.1133,1080.1123" fill="none" style="stroke:#181818;stroke-width:1;"/><rect fill="#F1F1F1" height="32.9551" rx="12.5" ry="12.5" style="stroke:#181818;stroke-width:1.5;" width="106.5614" x="430.1133" y="1116.5898"/><text fill="#000000" font-family="sans-serif" font-size="11" lengthAdjust="spacing" textLength="86.5614" x="440.1133" y="1137.2246">&#52292;&#50857; &#49884;&#51109; &#48320;&#54868; &#48516;&#49437;</text><path d="M380.1133,1080.1123 L390.1133,1080.1123 C405.1133,1080.1123 405.1133,1133.0674 420.1133,1133.0674 L430.1133,1133.0674" fill="none" style="stroke:#181818;stroke-width:1;"/><path d="M239.9935,1159.5449 L249.9935,1159.5449 C264.9935,1159.5449 264.9935,1080.1123 279.9935,1080.1123 L289.9935,1080.1123" fill="none" style="stroke:#181818;stroke-width:1;"/><rect fill="#F1F1F1" height="32.9551" rx="12.5" ry="12.5" style="stroke:#181818;stroke-width:1.5;" width="127.1677" x="289.9935" y="1222.5"/><text fill="#000000" font-family="sans-serif" font-size="11" lengthAdjust="spacing" textLength="107.1677" x="299.9935" y="1243.1348">C. &#47784;&#48276; &#45813;&#48320; &#46972;&#51060;&#48652;&#47084;&#47532;</text><rect fill="#F1F1F1" height="32.9551" rx="12.5" ry="12.5" style="stroke:#181818;stroke-width:1.5;" width="145.0904" x="467.1612" y="1169.5449"/><text fill="#000000" font-family="sans-serif" font-size="11" lengthAdjust="spacing" textLength="125.0904" x="477.1612" y="1190.1797">&#46321;&#44553;&#48324; (Excellent ~ Poor)</text><path d="M417.1612,1238.9775 L427.1612,1238.9775 C442.1612,1238.9775 442.1612,1186.0225 457.1612,1186.0225 L467.1612,1186.0225" fill="none" style="stroke:#181818;stroke-width:1;"/><rect fill="#F1F1F1" height="32.9551" rx="12.5" ry="12.5" style="stroke:#181818;stroke-width:1.5;" width="133.8466" x="467.1612" y="1222.5"/><text fill="#000000" font-family="sans-serif" font-size="11" lengthAdjust="spacing" textLength="113.8466" x="477.1612" y="1243.1348">&#51649;&#47924;&#48324; (&#44060;&#48156;/&#47560;&#52992;&#54021;/PM)</text><path d="M417.1612,1238.9775 L427.1612,1238.9775 C442.1612,1238.9775 442.1612,1238.9775 457.1612,1238.9775 L467.1612,1238.9775" fill="none" style="stroke:#181818;stroke-width:1;"/><rect fill="#F1F1F1" height="32.9551" rx="12.5" ry="12.5" style="stroke:#181818;stroke-width:1.5;" width="115.3055" x="467.1612" y="1275.4551"/><text fill="#000000" font-family="sans-serif" font-size="11" lengthAdjust="spacing" textLength="95.3055" x="477.1612" y="1296.0898">&#49324;&#50857;&#51088; &#46041;&#51032; + &#51061;&#47749;&#54868;</text><path d="M417.1612,1238.9775 L427.1612,1238.9775 C442.1612,1238.9775 442.1612,1291.9326 457.1612,1291.9326 L467.1612,1291.9326" fill="none" style="stroke:#181818;stroke-width:1;"/><path d="M239.9935,1159.5449 L249.9935,1159.5449 C264.9935,1159.5449 264.9935,1238.9775 279.9935,1238.9775 L289.9935,1238.9775" fill="none" style="stroke:#181818;stroke-width:1;"/><rect fill="#F1F1F1" height="32.9551" rx="12.5" ry="12.5" style="stroke:#181818;stroke-width:1.5;" width="152.2157" x="289.9935" y="1354.8877"/><text fill="#000000" font-family="sans-serif" font-size="11" lengthAdjust="spacing" textLength="132.2157" x="299.9935" y="1375.5225">D. LLM &#54617;&#49845; / &#54532;&#47212;&#54532;&#53944; &#44060;&#49440;</text><rect fill="#F1F1F1" height="32.9551" rx="12.5" ry="12.5" style="stroke:#181818;stroke-width:1.5;" width="141.1409" x="492.2092" y="1328.4102"/><text fill="#000000" font-family="sans-serif" font-size="11" lengthAdjust="spacing" textLength="121.1409" x="502.2092" y="1349.0449">&#54532;&#47212;&#54532;&#53944; &#50644;&#51648;&#45768;&#50612;&#47553; &#45936;&#51060;&#53552;</text><path d="M442.2092,1371.3652 L452.2092,1371.3652 C467.2092,1371.3652 467.2092,1344.8877 482.2092,1344.8877 L492.2092,1344.8877" fill="none" style="stroke:#181818;stroke-width:1;"/><rect fill="#F1F1F1" height="32.9551" rx="12.5" ry="12.5" style="stroke:#181818;stroke-width:1.5;" width="106.5614" x="492.2092" y="1381.3652"/><text fill="#000000" font-family="sans-serif" font-size="11" lengthAdjust="spacing" textLength="86.5614" x="502.2092" y="1402">&#54980;&#49549; &#51656;&#47928; &#47784;&#45944; &#44060;&#49440;</text><path d="M442.2092,1371.3652 L452.2092,1371.3652 C467.2092,1371.3652 467.2092,1397.8428 482.2092,1397.8428 L492.2092,1397.8428" fill="none" style="stroke:#181818;stroke-width:1;"/><path d="M239.9935,1159.5449 L249.9935,1159.5449 C264.9935,1159.5449 264.9935,1371.3652 279.9935,1371.3652 L289.9935,1371.3652" fill="none" style="stroke:#181818;stroke-width:1;"/><path d="M128.453,894.7695 L138.453,894.7695 C153.453,894.7695 153.453,1159.5449 168.453,1159.5449 L178.453,1159.5449" fill="none" style="stroke:#181818;stroke-width:1;"/><rect fill="#F1F1F1" height="32.9551" rx="12.5" ry="12.5" style="stroke:#181818;stroke-width:1.5;" width="108.8495" x="178.453" y="1566.708"/><text fill="#000000" font-family="sans-serif" font-size="11" lengthAdjust="spacing" textLength="88.8495" x="188.453" y="1587.3428">&#50980;&#47532; / &#52980;&#54540;&#46972;&#51060;&#50616;&#49828;</text><rect fill="#F1F1F1" height="32.9551" rx="12.5" ry="12.5" style="stroke:#181818;stroke-width:1.5;" width="93.5659" x="337.3025" y="1460.7979"/><text fill="#000000" font-family="sans-serif" font-size="11" lengthAdjust="spacing" textLength="73.5659" x="347.3025" y="1481.4326">&#49324;&#50857;&#51088; &#46041;&#51032; &#51208;&#52264;</text><rect fill="#F1F1F1" height="32.9551" rx="12.5" ry="12.5" style="stroke:#181818;stroke-width:1.5;" width="113.6055" x="480.8684" y="1434.3203"/><text fill="#000000" font-family="sans-serif" font-size="11" lengthAdjust="spacing" textLength="93.6055" x="490.8684" y="1454.9551">&#50741;&#53944;&#51064; / &#50741;&#53944;&#50500;&#50883; UI</text><path d="M430.8684,1477.2754 L440.8684,1477.2754 C455.8684,1477.2754 455.8684,1450.7979 470.8684,1450.7979 L480.8684,1450.7979" fill="none" style="stroke:#181818;stroke-width:1;"/><rect fill="#F1F1F1" height="32.9551" rx="12.5" ry="12.5" style="stroke:#181818;stroke-width:1.5;" width="84.0509" x="480.8684" y="1487.2754"/><text fill="#000000" font-family="sans-serif" font-size="11" lengthAdjust="spacing" textLength="64.0509" x="490.8684" y="1507.9102">&#50557;&#44288; &#48260;&#51204; &#44288;&#47532;</text><path d="M430.8684,1477.2754 L440.8684,1477.2754 C455.8684,1477.2754 455.8684,1503.7529 470.8684,1503.7529 L480.8684,1503.7529" fill="none" style="stroke:#181818;stroke-width:1;"/><path d="M287.3025,1583.1855 L297.3025,1583.1855 C312.3025,1583.1855 312.3025,1477.2754 327.3025,1477.2754 L337.3025,1477.2754" fill="none" style="stroke:#181818;stroke-width:1;"/><rect fill="#F1F1F1" height="32.9551" rx="12.5" ry="12.5" style="stroke:#181818;stroke-width:1.5;" width="48.545" x="337.3025" y="1566.708"/><text fill="#000000" font-family="sans-serif" font-size="11" lengthAdjust="spacing" textLength="28.545" x="347.3025" y="1587.3428">&#51061;&#47749;&#54868;</text><rect fill="#F1F1F1" height="32.9551" rx="12.5" ry="12.5" style="stroke:#181818;stroke-width:1.5;" width="90.0855" x="435.8475" y="1540.2305"/><text fill="#000000" font-family="sans-serif" font-size="11" lengthAdjust="spacing" textLength="70.0855" x="445.8475" y="1560.8652">&#44060;&#51064;&#51221;&#48372; &#47560;&#49828;&#53433;</text><path d="M385.8475,1583.1855 L395.8475,1583.1855 C410.8475,1583.1855 410.8475,1556.708 425.8475,1556.708 L435.8475,1556.708" fill="none" style="stroke:#181818;stroke-width:1;"/><rect fill="#F1F1F1" height="32.9551" rx="12.5" ry="12.5" style="stroke:#181818;stroke-width:1.5;" width="112.33" x="435.8475" y="1593.1855"/><text fill="#000000" font-family="sans-serif" font-size="11" lengthAdjust="spacing" textLength="92.33" x="445.8475" y="1613.8203">&#54924;&#49324;&#47749; / &#54617;&#44368;&#47749; &#52376;&#47532;</text><path d="M385.8475,1583.1855 L395.8475,1583.1855 C410.8475,1583.1855 410.8475,1609.6631 425.8475,1609.6631 L435.8475,1609.6631" fill="none" style="stroke:#181818;stroke-width:1;"/><path d="M287.3025,1583.1855 L297.3025,1583.1855 C312.3025,1583.1855 312.3025,1583.1855 327.3025,1583.1855 L337.3025,1583.1855" fill="none" style="stroke:#181818;stroke-width:1;"/><rect fill="#F1F1F1" height="32.9551" rx="12.5" ry="12.5" style="stroke:#181818;stroke-width:1.5;" width="109.1155" x="337.3025" y="1672.6182"/><text fill="#000000" font-family="sans-serif" font-size="11" lengthAdjust="spacing" textLength="89.1155" x="347.3025" y="1693.2529">&#45936;&#51060;&#53552; &#46972;&#51060;&#54532;&#49324;&#51060;&#53364;</text><rect fill="#F1F1F1" height="32.9551" rx="12.5" ry="12.5" style="stroke:#181818;stroke-width:1.5;" width="77.9008" x="496.418" y="1646.1406"/><text fill="#000000" font-family="sans-serif" font-size="11" lengthAdjust="spacing" textLength="57.9008" x="506.418" y="1666.7754">S3 &#51088;&#46041; &#47564;&#47308;</text><path d="M446.418,1689.0957 L456.418,1689.0957 C471.418,1689.0957 471.418,1662.6182 486.418,1662.6182 L496.418,1662.6182" fill="none" style="stroke:#181818;stroke-width:1;"/><rect fill="#F1F1F1" height="32.9551" rx="12.5" ry="12.5" style="stroke:#181818;stroke-width:1.5;" width="116.0764" x="496.418" y="1699.0957"/><text fill="#000000" font-family="sans-serif" font-size="11" lengthAdjust="spacing" textLength="96.0764" x="506.418" y="1719.7305">&#49324;&#50857;&#51088; &#49325;&#51228; &#50836;&#52397; &#52376;&#47532;</text><path d="M446.418,1689.0957 L456.418,1689.0957 C471.418,1689.0957 471.418,1715.5732 486.418,1715.5732 L496.418,1715.5732" fill="none" style="stroke:#181818;stroke-width:1;"/><path d="M287.3025,1583.1855 L297.3025,1583.1855 C312.3025,1583.1855 312.3025,1689.0957 327.3025,1689.0957 L337.3025,1689.0957" fill="none" style="stroke:#181818;stroke-width:1;"/><path d="M128.453,894.7695 L138.453,894.7695 C153.453,894.7695 153.453,1583.1855 168.453,1583.1855 L178.453,1583.1855" fill="none" style="stroke:#181818;stroke-width:1;"/><g class="footer" data-source-line="56"><text fill="#888888" font-family="sans-serif" font-size="10" lengthAdjust="spacing" textLength="307.0507" x="167.6497" y="1751.7188">MeFit - &#47704;&#53664; &#44428;&#51109; BM (&#49324;&#50857;&#51088; &#51060;&#53448; &#54980;&#50640;&#46020; &#51064;&#49324; &#49884;&#51109; &#51064;&#49324;&#51060;&#53944;&#47196; &#47588;&#52636; &#48156;&#49373;)</text></g><?plantuml-src VLLRRnfd47tdLupS5w0ArEdbhLBgD5Oh6IcgtJxrXTYaGk5YuKrRzQ7YibW45fasYmtEBjqqjh4ZhAwvs6iL_amVTsR_G-VRYy5EKo71ij_icJDdpim-s96I1IcRpcrbaziXAIrbKe1_MKvx3-u1DatInuvi0lLQL3QThWeh2GZZMSVPDR1V0gSzeSO0IBUeF12nTIiI2kqyI-UsauLa5fuaDv_zKCW_psqzp6Vo1VXWzP7uB4HifPucdsUarNnEMa__aeBbvL0e-fxCt-V2I-9sfGREAvaEMhWd0zKwf4yuO2aIYlAJ8ulwDJ9AW0EB38tlHK6GEpnZA5ZR-8v9Q_P85WTHMAAhKpgemkT0ieRNCjMFm4knv0MGFaMp0-l9v3fW_uWkDN0KHOIeCg0-vT8N0C6J1gWlO-FKJy6IOV-5qwjXNGMijx2ikE3ytDWUce3ccRD_7AIpk6hiTQdQcTT-SyQ503KqwXtVqfmfjPYSg9zwLJIE5mGCyozt5B0cioeHJuzEYIeb2CT-IZt9GXnYsUrF_1DT8Vb2d2H_zEvi59AvdSr2Ubk2i5Djia1kayNHfq3NOwUgs2C3JvYOqU9ct14SprIdKcGM_H8EnfpB7iwOe9_jGkOmUpHX1A6kq_xDhU5IjSqYuvMeDu3mHlxUIYgWvyfpPGhfSUWhJ7ysIEVuQP5hPOB-tNRjFq-4DlZsrBwoiDTnr9dRrkjpWOtDYo28LRPD6HozXIUoNveWnZZlKlzdztTkUOqTjr25qzKumjNwuDnzvekOQAbjcVHcwbftfd9YZwthlIjsqbmxqeK5EjZI01iJ71N_Fx8zOvPkdfKOVFLDu9ELX2-7sm0SSKrr2mq5NpBioS3P6_3_HOCvIb7mzbAoiquTUNpBRNwmAq2GXKF5ZEAbJBBkadWO0rOPXsg0v0xB62q5_nXmOh-ObnUszKAm2Z_wUJELoQHo4lmAZ_FvGkGkxx1jQcXgSUJvdXOTfHf_d0Y2vdxRwmerFcJ64tnRzOS7lep1sbg29wvBzGcxaASNNm_uMqmFuv9iU4Yt3kX0fNuH6pNQ7ujrTpDLVYmleTtcJUUvskO2691s9COY3lGtRml5gv_shHkBtILDHetCmDET2JCGsoKUNBTbUbM1RxyEx3spnwpgaCTQ1hxqDRrTUDJbmyqpsZWQWv2E1xXyxHTmg309ZXQAjBlsf2MkQTW9iEPhn6FFklWsA8qzYFMFXQUv0CPMy8rojnzKFkSj37Ieql0yW0uzpUUbL04IgTMq95uqtjQqBnNFiRmkvW3lBFptha5yhGKxcdr25JqIUf3YDvl_TWijn-v_TF-psFA_?></g></svg>