<?plantuml 1.2026.1?><svg xmlns="http://www.w3.org/2000/svg" xmlns:xlink="http://www.w3.org/1999/xlink" contentStyleType="text/css" data-diagram-type="DESCRIPTION" height="985px" preserveAspectRatio="none" style="width:1053px;height:985px;background:#FEFEFE;" version="1.1" viewBox="0 0 1053 985" width="1053px" zoomAndPan="magnify"><title>&#48120;&#54607; - &#44228;&#54925; vs &#52572;&#51333; &#50500;&#53412;&#53581;&#52376; &#48708;&#44368;</title><defs/><g><rect fill="#FEFEFE" height="985" style="stroke:none;stroke-width:1;" width="1053" x="0" y="0"/><g class="title" data-source-line="1"><text fill="#000000" font-family="sans-serif" font-size="14" font-weight="bold" lengthAdjust="spacing" textLength="198.1686" x="420.4157" y="23.5352">&#48120;&#54607; - &#44228;&#54925; vs &#52572;&#51333; &#50500;&#53412;&#53581;&#52376; &#48708;&#44368;</text></g><!--cluster ?? ?? (??) ? ?? ????--><g class="cluster" data-qualified-name=".. .. .... . .. ...." data-source-line="20" id="ent0002"><rect fill="none" height="626.08" rx="2.5" ry="2.5" style="stroke:#181818;stroke-width:1;" width="241" x="806" y="44.4883"/><text fill="#000000" font-family="sans-serif" font-size="11" font-style="italic" lengthAdjust="spacing" textLength="34.5308" x="909.2346" y="57.123">&#171;plan&#187;</text><text fill="#000000" font-family="sans-serif" font-size="11" font-weight="bold" lengthAdjust="spacing" textLength="151.4608" x="850.7696" y="70.0781">&#49688;&#54665; &#44228;&#54925; (&#52488;&#44592;) &#8212; &#45800;&#49692; &#47784;&#45440;&#47532;&#49885;</text></g><!--cluster ?? ? 12 ???????--><g class="cluster" data-qualified-name=".. . 12 ......." data-source-line="35" id="ent0014"><rect fill="none" height="754.42" rx="2.5" ry="2.5" style="stroke:#181818;stroke-width:1;" width="775" x="7" y="44.4883"/><text fill="#000000" font-family="sans-serif" font-size="11" font-style="italic" lengthAdjust="spacing" textLength="44.4995" x="372.2502" y="57.123">&#171;added&#187;</text><text fill="#000000" font-family="sans-serif" font-size="11" font-weight="bold" lengthAdjust="spacing" textLength="122.0242" x="333.4879" y="70.0781">&#52572;&#51333; &#8212; 12 &#47560;&#51060;&#53356;&#47196;&#49436;&#48708;&#49828;</text></g><!--cluster ???? Worker--><g class="cluster" data-qualified-name=".. . 12 ............ Worker" data-source-line="42" id="ent0020"><rect fill="none" height="105.91" rx="2.5" ry="2.5" style="stroke:#181818;stroke-width:1;" width="549" x="31" y="564.6583"/><text fill="#000000" font-family="sans-serif" font-size="11" font-style="italic" lengthAdjust="spacing" textLength="44.4995" x="283.2502" y="577.293">&#171;added&#187;</text><text fill="#000000" font-family="sans-serif" font-size="11" font-weight="bold" lengthAdjust="spacing" textLength="82.06" x="264.47" y="590.2481">&#46020;&#47700;&#51064;&#48324; Worker</text></g><!--cluster AWS Event Pipeline--><g class="cluster" data-qualified-name=".. . 12 ........AWS Event Pipeline" data-source-line="51" id="ent0026"><rect fill="none" height="268.77" rx="2.5" ry="2.5" style="stroke:#181818;stroke-width:1;" width="154" x="604" y="408.2683"/><text fill="#000000" font-family="sans-serif" font-size="11" font-style="italic" lengthAdjust="spacing" textLength="44.4995" x="658.7502" y="420.903">&#171;added&#187;</text><text fill="#000000" font-family="sans-serif" font-size="11" font-weight="bold" lengthAdjust="spacing" textLength="107.7173" x="627.1414" y="433.8581">AWS Event Pipeline</text></g><!--entity U_P--><g class="entity" data-qualified-name=".. .. .... . .. .....U_P" data-source-line="21" id="ent0003"><rect fill="#E8F4FD" height="32.9551" rx="2.5" ry="2.5" style="stroke:#2196F3;stroke-width:0.5;" width="48.545" x="842.73" y="88.4883"/><text fill="#000000" font-family="sans-serif" font-size="11" lengthAdjust="spacing" textLength="28.545" x="852.73" y="109.123">&#49324;&#50857;&#51088;</text></g><!--entity FE_P--><g class="entity" data-qualified-name=".. .. .... . .. .....FE_P" data-source-line="22" id="ent0004"><rect fill="#FFCDD2" height="45.9102" rx="2.5" ry="2.5" style="stroke:#C62828;stroke-width:0.5;" width="80.1563" x="826.92" y="182.4483"/><text fill="#000000" font-family="sans-serif" font-size="11" font-style="italic" lengthAdjust="spacing" textLength="34.5308" x="849.7327" y="203.083">&#171;plan&#187;</text><text fill="#000000" font-family="sans-serif" font-size="11" lengthAdjust="spacing" textLength="60.1563" x="836.92" y="216.0381">React (Vite)</text></g><!--entity BE_P--><g class="entity" data-qualified-name=".. .. .... . .. .....BE_P" data-source-line="23" id="ent0005"><rect fill="#FFCDD2" height="45.9102" rx="2.5" ry="2.5" style="stroke:#C62828;stroke-width:0.5;" width="87.3804" x="823.31" y="302.3583"/><text fill="#000000" font-family="sans-serif" font-size="11" font-style="italic" lengthAdjust="spacing" textLength="34.5308" x="849.7348" y="322.993">&#171;plan&#187;</text><text fill="#000000" font-family="sans-serif" font-size="11" lengthAdjust="spacing" textLength="67.3804" x="833.31" y="335.9481">Django REST</text></g><!--entity DB_P--><g class="entity" data-qualified-name=".. .. .... . .. .....DB_P" data-source-line="24" id="ent0006"><rect fill="#FFCDD2" height="45.9102" rx="2.5" ry="2.5" style="stroke:#C62828;stroke-width:0.5;" width="80.3818" x="821.81" y="452.2683"/><text fill="#000000" font-family="sans-serif" font-size="11" font-style="italic" lengthAdjust="spacing" textLength="34.5308" x="844.7355" y="472.903">&#171;plan&#187;</text><text fill="#000000" font-family="sans-serif" font-size="11" lengthAdjust="spacing" textLength="60.3818" x="831.81" y="485.8581">PostgreSQL</text></g><!--entity W_P--><g class="entity" data-qualified-name=".. .. .... . .. .....W_P" data-source-line="25" id="ent0007"><rect fill="#FFCDD2" height="58.8652" rx="2.5" ry="2.5" style="stroke:#C62828;stroke-width:0.5;" width="94.5024" x="936.75" y="445.7883"/><text fill="#000000" font-family="sans-serif" font-size="11" font-style="italic" lengthAdjust="spacing" textLength="34.5308" x="966.7358" y="466.423">&#171;plan&#187;</text><text fill="#000000" font-family="sans-serif" font-size="11" lengthAdjust="spacing" textLength="74.5024" x="946.75" y="479.3781">Celery Worker</text><text fill="#000000" font-family="sans-serif" font-size="11" lengthAdjust="spacing" textLength="39.1798" x="946.75" y="492.3332">(&#45800;&#51068; &#53328;)</text></g><!--entity OAI_P--><g class="entity" data-qualified-name=".. .. .... . .. .....OAI_P" data-source-line="26" id="ent0008"><rect fill="#FFCDD2" height="45.9102" rx="2.5" ry="2.5" style="stroke:#C62828;stroke-width:0.5;" width="79.501" x="944.25" y="608.6583"/><text fill="#000000" font-family="sans-serif" font-size="11" font-style="italic" lengthAdjust="spacing" textLength="34.5308" x="966.7351" y="629.293">&#171;plan&#187;</text><text fill="#000000" font-family="sans-serif" font-size="11" lengthAdjust="spacing" textLength="59.501" x="954.25" y="642.2481">OpenAI API</text></g><!--entity U_F--><g class="entity" data-qualified-name=".. . 12 ........U_F" data-source-line="36" id="ent0015"><rect fill="#E8F4FD" height="32.9551" rx="2.5" ry="2.5" style="stroke:#2196F3;stroke-width:0.5;" width="48.545" x="470.73" y="88.4883"/><text fill="#000000" font-family="sans-serif" font-size="11" lengthAdjust="spacing" textLength="28.545" x="480.73" y="109.123">&#49324;&#50857;&#51088;</text></g><!--entity FE_F--><g class="entity" data-qualified-name=".. . 12 ........FE_F" data-source-line="37" id="ent0016"><rect fill="#E8F4FD" height="45.9102" rx="2.5" ry="2.5" style="stroke:#2196F3;stroke-width:0.5;" width="102.0649" x="443.97" y="182.4483"/><text fill="#000000" font-family="sans-serif" font-size="11" lengthAdjust="spacing" textLength="47.9746" x="453.97" y="203.083">Frontend</text><text fill="#000000" font-family="sans-serif" font-size="11" lengthAdjust="spacing" textLength="82.0649" x="453.97" y="216.0381">React 19 + FSD</text></g><!--entity BE_F--><g class="entity" data-qualified-name=".. . 12 ........BE_F" data-source-line="38" id="ent0017"><rect fill="#E8F4FD" height="45.9102" rx="2.5" ry="2.5" style="stroke:#2196F3;stroke-width:0.5;" width="133.3247" x="428.34" y="302.3583"/><text fill="#000000" font-family="sans-serif" font-size="11" lengthAdjust="spacing" textLength="44.3438" x="438.34" y="322.993">Backend</text><text fill="#000000" font-family="sans-serif" font-size="11" lengthAdjust="spacing" textLength="113.3247" x="438.34" y="335.9481">Django 6 + Channels</text></g><!--entity R_F--><g class="entity" data-qualified-name=".. . 12 ........R_F" data-source-line="39" id="ent0018"><path d="M315.6,464.2483 C315.6,454.2483 339.9972,454.2483 339.9972,454.2483 C339.9972,454.2483 364.3944,454.2483 364.3944,464.2483 L364.3944,486.2034 C364.3944,496.2034 339.9972,496.2034 339.9972,496.2034 C339.9972,496.2034 315.6,496.2034 315.6,486.2034 L315.6,464.2483" fill="#F1F1F1" style="stroke:#181818;stroke-width:0.5;"/><path d="M315.6,464.2483 C315.6,474.2483 339.9972,474.2483 339.9972,474.2483 C339.9972,474.2483 364.3944,474.2483 364.3944,464.2483" fill="none" style="stroke:#181818;stroke-width:0.5;"/><text fill="#000000" font-family="sans-serif" font-size="11" lengthAdjust="spacing" textLength="28.7944" x="325.6" y="488.883">Redis</text></g><!--entity DB_F--><g class="entity" data-qualified-name=".. . 12 ........DB_F" data-source-line="40" id="ent0019"><path d="M399.81,464.2483 C399.81,454.2483 440.0009,454.2483 440.0009,454.2483 C440.0009,454.2483 480.1918,454.2483 480.1918,464.2483 L480.1918,486.2034 C480.1918,496.2034 440.0009,496.2034 440.0009,496.2034 C440.0009,496.2034 399.81,496.2034 399.81,486.2034 L399.81,464.2483" fill="#F1F1F1" style="stroke:#181818;stroke-width:0.5;"/><path d="M399.81,464.2483 C399.81,474.2483 440.0009,474.2483 440.0009,474.2483 C440.0009,474.2483 480.1918,474.2483 480.1918,464.2483" fill="none" style="stroke:#181818;stroke-width:0.5;"/><text fill="#000000" font-family="sans-serif" font-size="11" lengthAdjust="spacing" textLength="60.3818" x="409.81" y="488.883">PostgreSQL</text></g><!--entity VA_F--><g class="entity" data-qualified-name=".. . 12 ........VA_F" data-source-line="49" id="ent0025"><rect fill="#C8E6C9" height="58.8652" rx="2.5" ry="2.5" style="stroke:#2E7D32;stroke-width:0.5;" width="69.9351" x="515.03" y="445.7883"/><text fill="#000000" font-family="sans-serif" font-size="11" font-style="italic" lengthAdjust="spacing" textLength="44.4995" x="527.7478" y="466.423">&#171;added&#187;</text><text fill="#000000" font-family="sans-serif" font-size="11" lengthAdjust="spacing" textLength="49.9351" x="525.03" y="479.3781">voice-api</text><text fill="#000000" font-family="sans-serif" font-size="11" lengthAdjust="spacing" textLength="45.6865" x="525.03" y="492.3332">(FastAPI)</text></g><!--entity LLM_F--><g class="entity" data-qualified-name=".. . 12 ........LLM_F" data-source-line="56" id="ent0029"><rect fill="#C8E6C9" height="58.8652" rx="2.5" ry="2.5" style="stroke:#2E7D32;stroke-width:0.5;" width="108.5371" x="130.73" y="724.0383"/><text fill="#000000" font-family="sans-serif" font-size="11" font-style="italic" lengthAdjust="spacing" textLength="44.4995" x="162.7488" y="744.673">&#171;added&#187;</text><text fill="#000000" font-family="sans-serif" font-size="11" lengthAdjust="spacing" textLength="88.5371" x="140.73" y="757.6281">LiteLLM Gateway</text><text fill="#000000" font-family="sans-serif" font-size="11" lengthAdjust="spacing" textLength="85.8677" x="140.73" y="770.5832">(To-Be Bedrock)</text></g><!--entity AR_F--><g class="entity" data-qualified-name=".. . 12 ............ Worker.AR_F" data-source-line="43" id="ent0021"><rect fill="#C8E6C9" height="45.9102" rx="2.5" ry="2.5" style="stroke:#2E7D32;stroke-width:0.5;" width="108.1235" x="46.94" y="608.6583"/><text fill="#000000" font-family="sans-serif" font-size="11" font-style="italic" lengthAdjust="spacing" textLength="44.4995" x="78.752" y="629.293">&#171;added&#187;</text><text fill="#000000" font-family="sans-serif" font-size="11" lengthAdjust="spacing" textLength="88.1235" x="56.94" y="642.2481">analysis-resume</text></g><!--entity IAR_F--><g class="entity" data-qualified-name=".. . 12 ............ Worker.IAR_F" data-source-line="44" id="ent0022"><rect fill="#C8E6C9" height="45.9102" rx="2.5" ry="2.5" style="stroke:#2E7D32;stroke-width:0.5;" width="156.1787" x="189.91" y="608.6583"/><text fill="#000000" font-family="sans-serif" font-size="11" font-style="italic" lengthAdjust="spacing" textLength="44.4995" x="245.7496" y="629.293">&#171;added&#187;</text><text fill="#000000" font-family="sans-serif" font-size="11" lengthAdjust="spacing" textLength="136.1787" x="199.91" y="642.2481">interview-analysis-report</text></g><!--entity SCR_F--><g class="entity" data-qualified-name=".. . 12 ............ Worker.SCR_F" data-source-line="45" id="ent0023"><rect fill="#C8E6C9" height="45.9102" rx="2.5" ry="2.5" style="stroke:#2E7D32;stroke-width:0.5;" width="66.4995" x="380.75" y="608.6583"/><text fill="#000000" font-family="sans-serif" font-size="11" font-style="italic" lengthAdjust="spacing" textLength="44.4995" x="391.75" y="629.293">&#171;added&#187;</text><text fill="#000000" font-family="sans-serif" font-size="11" lengthAdjust="spacing" textLength="45.606" x="391.1968" y="642.2481">scraping</text></g><!--entity STT_F--><g class="entity" data-qualified-name=".. . 12 ............ Worker.STT_F" data-source-line="46" id="ent0024"><rect fill="#C8E6C9" height="45.9102" rx="2.5" ry="2.5" style="stroke:#2E7D32;stroke-width:0.5;" width="82.498" x="481.75" y="608.6583"/><text fill="#000000" font-family="sans-serif" font-size="11" font-style="italic" lengthAdjust="spacing" textLength="44.4995" x="500.7493" y="629.293">&#171;added&#187;</text><text fill="#000000" font-family="sans-serif" font-size="11" lengthAdjust="spacing" textLength="62.498" x="491.75" y="642.2481">analysis-stt</text></g><!--entity MQ_F--><g class="entity" data-qualified-name=".. . 12 ........AWS Event Pipeline.MQ_F" data-source-line="52" id="ent0027"><rect fill="#C8E6C9" height="45.9102" rx="2.5" ry="2.5" style="stroke:#2E7D32;stroke-width:0.5;" width="104.6592" x="619.67" y="452.2683"/><text fill="#000000" font-family="sans-serif" font-size="11" font-style="italic" lengthAdjust="spacing" textLength="44.4995" x="649.7498" y="472.903">&#171;added&#187;</text><text fill="#000000" font-family="sans-serif" font-size="11" lengthAdjust="spacing" textLength="84.6592" x="629.67" y="485.8581">S3 + SNS + SQS</text></g><!--entity L_F--><g class="entity" data-qualified-name=".. . 12 ........AWS Event Pipeline.L_F" data-source-line="53" id="ent0028"><rect fill="#C8E6C9" height="58.8652" rx="2.5" ry="2.5" style="stroke:#2E7D32;stroke-width:0.5;" width="105.3091" x="620.35" y="602.1783"/><text fill="#000000" font-family="sans-serif" font-size="11" font-style="italic" lengthAdjust="spacing" textLength="44.4995" x="650.7548" y="622.813">&#171;added&#187;</text><text fill="#000000" font-family="sans-serif" font-size="11" lengthAdjust="spacing" textLength="62.0819" x="630.35" y="635.7681">Lambda 4&#51333;</text><text fill="#000000" font-family="sans-serif" font-size="11" lengthAdjust="spacing" textLength="85.3091" x="630.35" y="648.7232">+ face-analyzer</text></g><g class="entity" data-qualified-name="GMN44" data-source-line="75" id="ent0045"><path d="M60.94,845.9083 L60.94,959.5489 A0,0 0 0 0 60.94,959.5489 L309.0681,959.5489 A0,0 0 0 0 309.0681,959.5489 L309.0681,855.9083 L299.0681,845.9083 L189,845.9083 L185,783.2183 L181,845.9083 L60.94,845.9083 A0,0 0 0 0 60.94,845.9083" fill="#FEFFDD" style="stroke:#181818;stroke-width:0.5;"/><path d="M299.0681,845.9083 L299.0681,855.9083 L309.0681,855.9083 L299.0681,845.9083" fill="#FEFFDD" style="stroke:#181818;stroke-width:0.5;"/><text fill="#000000" font-family="sans-serif" font-size="11" lengthAdjust="spacing" textLength="55.457" x="66.94" y="861.543">&#48320;&#44221; 7 &#44032;&#51648;:</text><text fill="#000000" font-family="sans-serif" font-size="11" lengthAdjust="spacing" textLength="171.3815" x="66.94" y="874.4981">1. &#45800;&#51068; Worker &#8594; &#46020;&#47700;&#51064;&#48324; Worker</text><text fill="#000000" font-family="sans-serif" font-size="11" lengthAdjust="spacing" textLength="216.0235" x="66.94" y="887.4532">2. &#45800;&#51068; &#48177;&#50644;&#46300; &#8594; backend + voice-api &#48516;&#47532;</text><text fill="#000000" font-family="sans-serif" font-size="11" lengthAdjust="spacing" textLength="190.1369" x="66.94" y="900.4083">3. voice-api STT &#8594; analysis-stt &#48516;&#47532;</text><text fill="#000000" font-family="sans-serif" font-size="11" lengthAdjust="spacing" textLength="156.4988" x="66.94" y="913.3634">4. &#46041;&#44592; &#50689;&#49345; &#8594; &#51060;&#48292;&#53944; &#44592;&#48152; &#48708;&#46041;&#44592;</text><text fill="#000000" font-family="sans-serif" font-size="11" lengthAdjust="spacing" textLength="201.7789" x="66.94" y="926.3184">5. &#45800;&#51068; Lambda &#8594; 4&#51333; + face-analyzer</text><text fill="#000000" font-family="sans-serif" font-size="11" lengthAdjust="spacing" textLength="135.4489" x="66.94" y="939.2735">6. &#45800;&#51068; EC2 &#8594; k3s &#53364;&#47084;&#49828;&#53552;</text><text fill="#000000" font-family="sans-serif" font-size="11" lengthAdjust="spacing" textLength="227.1281" x="66.94" y="952.2286">7. &#51649;&#51217; OpenAI &#8594; LiteLLM Gateway &#49324;&#51204; &#46020;&#51077;</text></g><!--link U_P to FE_P--><g class="link" data-entity-1="ent0003" data-entity-2="ent0004" data-link-type="dependency" data-source-line="28" id="lnk9"><path d="M867,121.7883 C867,138.0883 867,157.6483 867,176.0283" fill="none" id="U_P-to-FE_P" style="stroke:#181818;stroke-width:1;"/><polygon fill="#181818" points="867,182.0283,871,173.0283,867,177.0283,863,173.0283,867,182.0283" style="stroke:#181818;stroke-width:1;"/></g><!--link FE_P to BE_P--><g class="link" data-entity-1="ent0004" data-entity-2="ent0005" data-link-type="dependency" data-source-line="29" id="lnk10"><path d="M867,228.5783 C867,249.6583 867,275.1883 867,296.2383" fill="none" id="FE_P-to-BE_P" style="stroke:#181818;stroke-width:1;"/><polygon fill="#181818" points="867,302.2383,871,293.2383,867,297.2383,863,293.2383,867,302.2383" style="stroke:#181818;stroke-width:1;"/></g><!--link BE_P to DB_P--><g class="link" data-entity-1="ent0005" data-entity-2="ent0006" data-link-type="dependency" data-source-line="30" id="lnk11"><path d="M866.25,348.4583 C865.31,376.3383 863.9037,417.9717 862.9537,445.9317" fill="none" id="BE_P-to-DB_P" style="stroke:#181818;stroke-width:1;"/><polygon fill="#181818" points="862.75,451.9283,867.0533,443.0693,862.9198,446.9312,859.0579,442.7976,862.75,451.9283" style="stroke:#181818;stroke-width:1;"/></g><!--link BE_P to W_P--><g class="link" data-entity-1="ent0005" data-entity-2="ent0007" data-link-type="dependency" data-source-line="31" id="lnk12"><path d="M884.52,348.4583 C904.92,374.2483 934.9576,412.2226 957.4076,440.6026" fill="none" id="BE_P-to-W_P" style="stroke:#181818;stroke-width:1;"/><polygon fill="#181818" points="961.13,445.3083,958.6835,435.7681,958.028,441.3869,952.4092,440.7314,961.13,445.3083" style="stroke:#181818;stroke-width:1;"/></g><!--link W_P to OAI_P--><g class="link" data-entity-1="ent0007" data-entity-2="ent0008" data-link-type="dependency" data-source-line="32" id="lnk13"><path d="M984,504.8983 C984,534.8983 984,575.3283 984,602.5783" fill="none" id="W_P-to-OAI_P" style="stroke:#181818;stroke-width:1;"/><polygon fill="#181818" points="984,608.5783,988,599.5783,984,603.5783,980,599.5783,984,608.5783" style="stroke:#181818;stroke-width:1;"/></g><!--link U_F to FE_F--><g class="link" data-entity-1="ent0015" data-entity-2="ent0016" data-link-type="dependency" data-source-line="58" id="lnk30"><path d="M495,121.7883 C495,138.0883 495,157.6483 495,176.0283" fill="none" id="U_F-to-FE_F" style="stroke:#181818;stroke-width:1;"/><polygon fill="#181818" points="495,182.0283,499,173.0283,495,177.0283,491,173.0283,495,182.0283" style="stroke:#181818;stroke-width:1;"/></g><!--link FE_F to BE_F--><g class="link" data-entity-1="ent0016" data-entity-2="ent0017" data-link-type="dependency" data-source-line="59" id="lnk31"><path d="M495,228.5783 C495,249.6583 495,275.1883 495,296.2383" fill="none" id="FE_F-to-BE_F" style="stroke:#181818;stroke-width:1;"/><polygon fill="#181818" points="495,302.2383,499,293.2383,495,297.2383,491,293.2383,495,302.2383" style="stroke:#181818;stroke-width:1;"/><text fill="#000000" font-family="sans-serif" font-size="11" lengthAdjust="spacing" textLength="90.3525" x="496" y="269.993">REST + WS + SSE</text></g><!--link BE_F to DB_F--><g class="link" data-entity-1="ent0017" data-entity-2="ent0019" data-link-type="dependency" data-source-line="60" id="lnk32"><path d="M486.77,348.4583 C476.16,376.9883 459.9509,420.5644 449.6709,448.2144" fill="none" id="BE_F-to-DB_F" style="stroke:#181818;stroke-width:1;"/><polygon fill="#181818" points="447.58,453.8383,454.4656,446.7964,449.3224,449.1517,446.9671,444.0085,447.58,453.8383" style="stroke:#181818;stroke-width:1;"/></g><!--link BE_F to R_F--><g class="link" data-entity-1="ent0017" data-entity-2="ent0018" data-link-type="dependency" data-source-line="61" id="lnk33"><path d="M450.62,348.7483 C428.16,361.6383 401.58,379.4183 382,400.2683 C367.14,416.0883 357.9807,432.6651 350.7607,448.5651" fill="none" id="BE_F-to-R_F" style="stroke:#181818;stroke-width:1;"/><polygon fill="#181818" points="348.28,454.0283,355.6432,447.4874,350.3473,449.4757,348.359,444.1797,348.28,454.0283" style="stroke:#181818;stroke-width:1;"/></g><!--link R_F to AR_F--><g class="link" data-entity-1="ent0018" data-entity-2="ent0021" data-link-type="dependency" data-source-line="62" id="lnk34"><path d="M315.13,484.8883 C280.94,497.4983 218.38,523.1083 172,556.6583 C151.52,571.4683 135.788,588.0115 122.388,603.9015" fill="none" id="R_F-to-AR_F" style="stroke:#181818;stroke-width:1;"/><polygon fill="#181818" points="118.52,608.4883,127.3799,604.1868,121.7433,604.666,121.2642,599.0294,118.52,608.4883" style="stroke:#181818;stroke-width:1;"/></g><!--link R_F to IAR_F--><g class="link" data-entity-1="ent0018" data-entity-2="ent0022" data-link-type="dependency" data-source-line="63" id="lnk35"><path d="M330.59,496.4083 C317.13,525.2583 295.0153,572.6803 281.0053,602.7303" fill="none" id="R_F-to-IAR_F" style="stroke:#181818;stroke-width:1;"/><polygon fill="#181818" points="278.47,608.1683,285.8983,601.7015,280.5828,603.6366,278.6476,598.321,278.47,608.1683" style="stroke:#181818;stroke-width:1;"/></g><!--link R_F to SCR_F--><g class="link" data-entity-1="ent0018" data-entity-2="ent0023" data-link-type="dependency" data-source-line="64" id="lnk36"><path d="M349.67,496.4083 C363.5,525.2583 386.2471,572.7075 400.6471,602.7575" fill="none" id="R_F-to-SCR_F" style="stroke:#181818;stroke-width:1;"/><polygon fill="#181818" points="403.24,608.1683,402.9579,598.3235,401.0793,603.6593,395.7435,601.7806,403.24,608.1683" style="stroke:#181818;stroke-width:1;"/></g><!--link R_F to STT_F--><g class="link" data-entity-1="ent0018" data-entity-2="ent0024" data-link-type="dependency" data-source-line="65" id="lnk37"><path d="M364.78,493.2083 C370.41,497.0083 376.39,500.9983 382,504.6583 C418.47,528.4183 432.64,527.5383 465,556.6583 C481.98,571.9383 494.3284,587.6826 505.1184,603.2926" fill="none" id="R_F-to-STT_F" style="stroke:#181818;stroke-width:1;"/><polygon fill="#181818" points="508.53,608.2283,506.703,598.5504,505.687,604.1152,500.1221,603.0992,508.53,608.2283" style="stroke:#181818;stroke-width:1;"/></g><!--link BE_F to VA_F--><g class="link" data-entity-1="ent0017" data-entity-2="ent0025" data-link-type="dependency" data-source-line="66" id="lnk38"><path d="M503.23,348.4583 C512.82,374.2483 526.5976,411.305 537.1576,439.685" fill="none" id="BE_F-to-VA_F" style="stroke:#181818;stroke-width:1;"/><polygon fill="#181818" points="539.25,445.3083,539.8603,435.4783,537.5063,440.6222,532.3625,438.2682,539.25,445.3083" style="stroke:#181818;stroke-width:1;"/></g><!--link BE_F to MQ_F--><g class="link" data-entity-1="ent0017" data-entity-2="ent0027" data-link-type="dependency" data-source-line="67" id="lnk39"><path d="M540.28,348.6783 C564.27,361.7883 593.37,379.7783 616,400.2683 C632.84,415.5083 644.8121,431.3759 655.1421,447.0759" fill="none" id="BE_F-to-MQ_F" style="stroke:#181818;stroke-width:1;stroke-dasharray:7,7;"/><polygon fill="#181818" points="658.44,452.0883,656.8347,442.3711,655.6917,447.9113,650.1515,446.7684,658.44,452.0883" style="stroke:#181818;stroke-width:1;"/><text fill="#000000" font-family="sans-serif" font-size="11" lengthAdjust="spacing" textLength="28.545" x="605.31" y="389.903">&#51060;&#48292;&#53944;</text></g><!--link MQ_F to L_F--><g class="link" data-entity-1="ent0027" data-entity-2="ent0028" data-link-type="dependency" data-source-line="68" id="lnk40"><path d="M645.32,498.6183 C632.59,512.1183 621.09,530.2283 626,548.6583 C631.07,567.6783 638.4142,581.8545 648.2942,596.8845" fill="none" id="MQ_F-to-L_F" style="stroke:#181818;stroke-width:1;"/><polygon fill="#181818" points="651.59,601.8983,649.9888,592.1805,648.8435,597.7202,643.3038,596.5749,651.59,601.8983" style="stroke:#181818;stroke-width:1;"/></g><!--link L_F to MQ_F--><g class="link" data-entity-1="ent0028" data-entity-2="ent0027" data-link-type="dependency" data-source-line="69" id="lnk41"><path d="M672.81,601.8183 C672.62,571.9683 672.3574,531.9382 672.1874,504.6682" fill="none" id="L_F-to-MQ_F" style="stroke:#181818;stroke-width:1;"/><polygon fill="#181818" points="672.15,498.6683,668.2062,507.693,672.1812,503.6682,676.206,507.6432,672.15,498.6683" style="stroke:#181818;stroke-width:1;"/><text fill="#000000" font-family="sans-serif" font-size="11" lengthAdjust="spacing" textLength="78.2729" x="673.44" y="546.293">step-complete</text></g><!--link IAR_F to LLM_F--><g class="link" data-entity-1="ent0022" data-entity-2="ent0029" data-link-type="dependency" data-source-line="70" id="lnk42"><path d="M252.58,654.8783 C239.08,674.3683 222.8054,697.8852 208.1554,719.0452" fill="none" id="IAR_F-to-LLM_F" style="stroke:#181818;stroke-width:1;stroke-dasharray:7,7;"/><polygon fill="#181818" points="204.74,723.9783,213.1518,718.8556,207.5862,719.8674,206.5744,714.3018,204.74,723.9783" style="stroke:#181818;stroke-width:1;"/></g><!--link AR_F to LLM_F--><g class="link" data-entity-1="ent0021" data-entity-2="ent0029" data-link-type="dependency" data-source-line="71" id="lnk43"><path d="M116.6,654.8783 C130.27,674.3683 146.7564,697.9049 161.5864,719.0649" fill="none" id="AR_F-to-LLM_F" style="stroke:#181818;stroke-width:1;stroke-dasharray:7,7;"/><polygon fill="#181818" points="165.03,723.9783,163.1403,714.3124,162.1604,719.8838,156.589,718.9039,165.03,723.9783" style="stroke:#181818;stroke-width:1;"/></g><g class="footer" data-source-line="85"><text fill="#888888" font-family="sans-serif" font-size="10" lengthAdjust="spacing" textLength="206.5078" x="416.2461" y="975.2169">MeFit - &#45800;&#49692; &#47784;&#45440;&#47532;&#49885; &#8594; 12 &#47560;&#51060;&#53356;&#47196;&#49436;&#48708;&#49828; &#51652;&#54868;</text></g><?plantuml-src XLPjQnj74FwkNp6uNno2199Sln4CUhiYa1lPvqPV366bMwjNdUx4tTh1AG4fFGSt8TXjdTO9SfeMKoV5KDTsYWljdyb7tUe_T7Rl99ykbef0OdQUUMvddfavCPqP5Bm_hlelzY0ElGkt_-evR3d0ttVvhpl0NxZznyVzdUVy_12ylztU-_rOp6dePelOf0bLKclKRMlJr7AMOTdmYL8Gdn12enjaqs2APJ9LVqWXcGmvQrQpPPaKNMmRhs7J6YDctQ0XI0kVGEfqF6380L_70BBH2nNcbHabBpoMhL4xE4qb5sQLTEpHJJntxhGCOYujtSodABbyFXNboyscvbFpu_Y8fb5j765klZ2RM_ZeWeMvV3g5XB6W0335Tm_xFtuxa6YQN-xshivkmOVs0NZFtlBTBdY_l_MUjBtVJlcpeoaOoUEwIbFyyIb_zOw_tfy2ui0NzykZxbLAQWocx-cCtf88fN2_F2GRnUQ_GZKiM2seQnAQ7GyjMmwhsrHTAKbaFZiMcQC6jRUXOjaDQg-RqoAvet-WtzdtxrCP6tctHSrC4JBbeWJUpHJ3KCHYiX2FBycKq9IP2Jlhszc1BMuNjYlIh0IMv1sLnXyM8KKo1Tx9BZ-wx7TElL-wtEtYrF2dnqAFS1zC44GPTIispWurjNNJboQv0BT1KVC3SI9mqM0I7OWpY-ZSbyGqgU4CH18X6c6aIXmg5DTqtxKQyNmicYBAECpRstEzTmVywCgxS0F1edcEt8sOnDXsT2TkKsUpIILf1Xzw7HEDq35rUqkd3-AXs9PbCnbRd1pir6pIqiswnAgvYTWXlSDyRdLjBO9_51kjz9QbrsWSdu1DgX27OT_v7NelCn8PhbYcea9XIuINzHOrT9DEB9YQHlNKprNnlQ9AykMLIMcKIBEg4PZ1TbmtRyC64JSKgJqKqc1uwN-IAk7SbqhBy1bXz07PnjJMh7YMGfPgjbLh-0aY89eXjkrWj1H_j9J1Q2cmA5S49b6HcQW5VxYKmR0fOTjlmjN0oeoQnOWjLGtRGhKmcz1YO2SIItxv5W47r3i_xZ-zGfyy4jYIX9O2Aq0wZBRYea06PHJTViy9Aba5F8aSO4LDYr6eMenPJVHx5-tU-Rym1xspDZzfB-9HCW71MlEd1Zuy-Hvkc2Q4fePGx-nF_jE1zqDNegl-d6CzXtq8tbykRdyCIYT2frWJ6H5kyMle3FBllSHN2V333l-c8w73yW0wl3FvwlTH6F7fy4P1jua8qN4GQJZ4pWwnXLnA0Xjf1tVvfVVpAMx5lYi8vnB0JphypNSGR721YpGYY2tvnXL5ugztOY9pKULORCF27nkMgQ8p_0TpmwjGqetRo_Xaj__ou3y0?></g></svg>