<?plantuml 1.2026.1?><svg xmlns="http://www.w3.org/2000/svg" xmlns:xlink="http://www.w3.org/1999/xlink" contentStyleType="text/css" data-diagram-type="DESCRIPTION" height="1225px" preserveAspectRatio="none" style="width:1105px;height:1225px;background:#FEFEFE;" version="1.1" viewBox="0 0 1105 1225" width="1105px" zoomAndPan="magnify"><title>&#48120;&#54607; - AWS &#50689;&#49345; &#52376;&#47532; &#51060;&#48292;&#53944; &#54028;&#51060;&#54532;&#46972;&#51064; (PlantUML &#48260;&#51204;)</title><defs/><g><rect fill="#FEFEFE" height="1225" style="stroke:none;stroke-width:1;" width="1105" x="0" y="0"/><g class="title" data-source-line="1"><text fill="#000000" font-family="sans-serif" font-size="14" font-weight="bold" lengthAdjust="spacing" textLength="348.3479" x="371.3605" y="23.5352">&#48120;&#54607; - AWS &#50689;&#49345; &#52376;&#47532; &#51060;&#48292;&#53944; &#54028;&#51060;&#54532;&#46972;&#51064; (PlantUML &#48260;&#51204;)</text></g><!--entity U--><g class="entity" data-qualified-name="U" data-source-line="23" id="ent0002"><ellipse cx="399.4725" cy="51.4883" fill="#F1F1F1" rx="8" ry="8" style="stroke:#181818;stroke-width:0.5;"/><path d="M399.4725,59.4883 L399.4725,86.4883 M386.4725,67.4883 L412.4725,67.4883 M399.4725,86.4883 L386.4725,101.4883 M399.4725,86.4883 L412.4725,101.4883" fill="none" style="stroke:#181818;stroke-width:0.5;"/><text fill="#000000" font-family="sans-serif" font-size="11" lengthAdjust="spacing" textLength="28.545" x="385.2" y="113.623">&#49324;&#50857;&#51088;</text></g><!--entity FE--><g class="entity" data-qualified-name="FE" data-source-line="25" id="ent0003"><rect fill="#FFF3E0" height="45.9102" rx="2.5" ry="2.5" style="stroke:#FB8C00;stroke-width:0.5;" width="99.3096" x="349.82" y="176.9383"/><text fill="#000000" font-family="sans-serif" font-size="11" lengthAdjust="spacing" textLength="47.9746" x="359.82" y="197.573">Frontend</text><text fill="#000000" font-family="sans-serif" font-size="11" lengthAdjust="spacing" textLength="79.3096" x="359.82" y="210.5281">MediaRecorder</text></g><!--entity S3IN--><g class="entity" data-qualified-name="S3IN" data-source-line="27" id="ent0004"><path d="M360.88,306.8483 C360.88,296.8483 399.473,296.8483 399.473,296.8483 C399.473,296.8483 438.066,296.8483 438.066,306.8483 L438.066,367.6686 C438.066,377.6686 399.473,377.6686 399.473,377.6686 C399.473,377.6686 360.88,377.6686 360.88,367.6686 L360.88,306.8483" fill="#F1F1F1" style="stroke:#181818;stroke-width:0.5;"/><path d="M360.88,306.8483 C360.88,316.8483 399.473,316.8483 399.473,316.8483 C399.473,316.8483 438.066,316.8483 438.066,306.8483" fill="none" style="stroke:#181818;stroke-width:0.5;"/><text fill="#000000" font-family="sans-serif" font-size="11" font-style="italic" lengthAdjust="spacing" textLength="51.5679" x="373.6891" y="331.483">&#171;storage&#187;</text><text fill="#000000" font-family="sans-serif" font-size="11" lengthAdjust="spacing" textLength="12.8799" x="370.88" y="344.4381">S3</text><text fill="#000000" font-family="sans-serif" font-size="11" lengthAdjust="spacing" textLength="57.186" x="370.88" y="357.3932">video-files</text><text fill="#000000" font-family="sans-serif" font-size="11" lengthAdjust="spacing" textLength="42.4316" x="370.88" y="370.3483">(.webm)</text></g><!--entity SNS--><g class="entity" data-qualified-name="SNS" data-source-line="29" id="ent0005"><rect fill="#FFF3E0" height="45.9102" rx="2.5" ry="2.5" style="stroke:#FB8C00;stroke-width:0.5;" width="104.7827" x="347.09" y="451.6683"/><text fill="#000000" font-family="sans-serif" font-size="11" lengthAdjust="spacing" textLength="19.9751" x="357.09" y="472.303">SNS</text><text fill="#000000" font-family="sans-serif" font-size="11" lengthAdjust="spacing" textLength="84.7827" x="357.09" y="485.2581">video-uploaded</text></g><!--entity SQS1--><g class="entity" data-qualified-name="SQS1" data-source-line="31" id="ent0006"><rect fill="#FFF3E0" height="45.9102" rx="2.5" ry="2.5" style="stroke:#FB8C00;stroke-width:0.5;" width="105.3306" x="127.81" y="571.5783"/><text fill="#000000" font-family="sans-serif" font-size="11" lengthAdjust="spacing" textLength="20.394" x="137.81" y="592.213">SQS</text><text fill="#000000" font-family="sans-serif" font-size="11" lengthAdjust="spacing" textLength="85.3306" x="137.81" y="605.1681">video-converter</text></g><!--entity SQS2--><g class="entity" data-qualified-name="SQS2" data-source-line="32" id="ent0007"><rect fill="#FFF3E0" height="45.9102" rx="2.5" ry="2.5" style="stroke:#FB8C00;stroke-width:0.5;" width="105.9536" x="346.5" y="571.5783"/><text fill="#000000" font-family="sans-serif" font-size="11" lengthAdjust="spacing" textLength="20.394" x="356.5" y="592.213">SQS</text><text fill="#000000" font-family="sans-serif" font-size="11" lengthAdjust="spacing" textLength="85.9536" x="356.5" y="605.1681">frame-extractor</text></g><!--entity SQS3--><g class="entity" data-qualified-name="SQS3" data-source-line="33" id="ent0008"><rect fill="#FFF3E0" height="45.9102" rx="2.5" ry="2.5" style="stroke:#FB8C00;stroke-width:0.5;" width="104.6968" x="631.13" y="571.5783"/><text fill="#000000" font-family="sans-serif" font-size="11" lengthAdjust="spacing" textLength="20.394" x="641.13" y="592.213">SQS</text><text fill="#000000" font-family="sans-serif" font-size="11" lengthAdjust="spacing" textLength="84.6968" x="641.13" y="605.1681">audio-extractor</text></g><!--entity DLQ1--><g class="entity" data-qualified-name="DLQ1" data-source-line="35" id="ent0009"><rect fill="#FFCDD2" height="45.9102" rx="2.5" ry="2.5" style="stroke:#C62828;stroke-width:0.5;" width="50.5527" x="42.2" y="704.4483"/><text fill="#000000" font-family="sans-serif" font-size="11" font-style="italic" lengthAdjust="spacing" textLength="28.5527" x="53.2" y="725.083">&#171;dlq&#187;</text><text fill="#000000" font-family="sans-serif" font-size="11" lengthAdjust="spacing" textLength="22.6499" x="56.1514" y="738.0381">DLQ</text></g><!--entity DLQ2--><g class="entity" data-qualified-name="DLQ2" data-source-line="36" id="ent0010"><rect fill="#FFCDD2" height="45.9102" rx="2.5" ry="2.5" style="stroke:#C62828;stroke-width:0.5;" width="50.5527" x="325.2" y="704.4483"/><text fill="#000000" font-family="sans-serif" font-size="11" font-style="italic" lengthAdjust="spacing" textLength="28.5527" x="336.2" y="725.083">&#171;dlq&#187;</text><text fill="#000000" font-family="sans-serif" font-size="11" lengthAdjust="spacing" textLength="22.6499" x="339.1514" y="738.0381">DLQ</text></g><!--entity DLQ3--><g class="entity" data-qualified-name="DLQ3" data-source-line="37" id="ent0011"><rect fill="#FFCDD2" height="45.9102" rx="2.5" ry="2.5" style="stroke:#C62828;stroke-width:0.5;" width="50.5527" x="658.2" y="704.4483"/><text fill="#000000" font-family="sans-serif" font-size="11" font-style="italic" lengthAdjust="spacing" textLength="28.5527" x="669.2" y="725.083">&#171;dlq&#187;</text><text fill="#000000" font-family="sans-serif" font-size="11" lengthAdjust="spacing" textLength="22.6499" x="672.1514" y="738.0381">DLQ</text></g><!--entity L1--><g class="entity" data-qualified-name="L1" data-source-line="39" id="ent0012"><rect fill="#FFE0B2" height="71.8203" rx="2.5" ry="2.5" style="stroke:#EF6C00;stroke-width:0.5;" width="105.3306" x="127.81" y="691.4883"/><text fill="#000000" font-family="sans-serif" font-size="11" font-style="italic" lengthAdjust="spacing" textLength="50.9717" x="154.9894" y="712.123">&#171;lambda&#187;</text><text fill="#000000" font-family="sans-serif" font-size="11" lengthAdjust="spacing" textLength="42.1309" x="137.81" y="725.0781">Lambda</text><text fill="#000000" font-family="sans-serif" font-size="11" lengthAdjust="spacing" textLength="85.3306" x="137.81" y="738.0332">video-converter</text><text fill="#000000" font-family="sans-serif" font-size="11" lengthAdjust="spacing" textLength="66.0537" x="137.81" y="750.9883">(.mp4 720p)</text></g><!--entity L2--><g class="entity" data-qualified-name="L2" data-source-line="40" id="ent0013"><rect fill="#FFE0B2" height="71.8203" rx="2.5" ry="2.5" style="stroke:#EF6C00;stroke-width:0.5;" width="105.9536" x="410.5" y="691.4883"/><text fill="#000000" font-family="sans-serif" font-size="11" font-style="italic" lengthAdjust="spacing" textLength="50.9717" x="437.991" y="712.123">&#171;lambda&#187;</text><text fill="#000000" font-family="sans-serif" font-size="11" lengthAdjust="spacing" textLength="42.1309" x="420.5" y="725.0781">Lambda</text><text fill="#000000" font-family="sans-serif" font-size="11" lengthAdjust="spacing" textLength="85.9536" x="420.5" y="738.0332">frame-extractor</text><text fill="#000000" font-family="sans-serif" font-size="11" lengthAdjust="spacing" textLength="56.1011" x="420.5" y="750.9883">(.jpg 1FPS)</text></g><!--entity L3--><g class="entity" data-qualified-name="L3" data-source-line="41" id="ent0014"><rect fill="#FFE0B2" height="71.8203" rx="2.5" ry="2.5" style="stroke:#EF6C00;stroke-width:0.5;" width="104.6968" x="779.13" y="691.4883"/><text fill="#000000" font-family="sans-serif" font-size="11" font-style="italic" lengthAdjust="spacing" textLength="50.9717" x="805.9925" y="712.123">&#171;lambda&#187;</text><text fill="#000000" font-family="sans-serif" font-size="11" lengthAdjust="spacing" textLength="42.1309" x="789.13" y="725.0781">Lambda</text><text fill="#000000" font-family="sans-serif" font-size="11" lengthAdjust="spacing" textLength="84.6968" x="789.13" y="738.0332">audio-extractor</text><text fill="#000000" font-family="sans-serif" font-size="11" lengthAdjust="spacing" textLength="81.313" x="789.13" y="750.9883">(.wav + 16kHz)</text></g><!--entity S3V--><g class="entity" data-qualified-name="S3V" data-source-line="43" id="ent0015"><path d="M6,868.7683 C6,858.7683 58.4773,858.7683 58.4773,858.7683 C58.4773,858.7683 110.9546,858.7683 110.9546,868.7683 L110.9546,903.6784 C110.9546,913.6784 58.4773,913.6784 58.4773,913.6784 C58.4773,913.6784 6,913.6784 6,903.6784 L6,868.7683" fill="#F1F1F1" style="stroke:#181818;stroke-width:0.5;"/><path d="M6,868.7683 C6,878.7683 58.4773,878.7683 58.4773,878.7683 C58.4773,878.7683 110.9546,878.7683 110.9546,868.7683" fill="none" style="stroke:#181818;stroke-width:0.5;"/><text fill="#000000" font-family="sans-serif" font-size="11" font-style="italic" lengthAdjust="spacing" textLength="51.5679" x="32.6934" y="893.403">&#171;storage&#187;</text><text fill="#000000" font-family="sans-serif" font-size="11" lengthAdjust="spacing" textLength="84.9546" x="16" y="906.3581">S3 scaled-video</text></g><!--entity S3F--><g class="entity" data-qualified-name="S3F" data-source-line="44" id="ent0016"><path d="M423.69,868.7683 C423.69,858.7683 460.4739,858.7683 460.4739,858.7683 C460.4739,858.7683 497.2579,858.7683 497.2579,868.7683 L497.2579,903.6784 C497.2579,913.6784 460.4739,913.6784 460.4739,913.6784 C460.4739,913.6784 423.69,913.6784 423.69,903.6784 L423.69,868.7683" fill="#F1F1F1" style="stroke:#181818;stroke-width:0.5;"/><path d="M423.69,868.7683 C423.69,878.7683 460.4739,878.7683 460.4739,878.7683 C460.4739,878.7683 497.2579,878.7683 497.2579,868.7683" fill="none" style="stroke:#181818;stroke-width:0.5;"/><text fill="#000000" font-family="sans-serif" font-size="11" font-style="italic" lengthAdjust="spacing" textLength="51.5679" x="434.69" y="893.403">&#171;storage&#187;</text><text fill="#000000" font-family="sans-serif" font-size="11" lengthAdjust="spacing" textLength="52.9858" x="433.981" y="906.3581">S3 frames</text></g><!--entity S3A--><g class="entity" data-qualified-name="S3A" data-source-line="45" id="ent0017"><path d="M832.69,868.7683 C832.69,858.7683 869.4739,858.7683 869.4739,858.7683 C869.4739,858.7683 906.2579,858.7683 906.2579,868.7683 L906.2579,903.6784 C906.2579,913.6784 869.4739,913.6784 869.4739,913.6784 C869.4739,913.6784 832.69,913.6784 832.69,903.6784 L832.69,868.7683" fill="#F1F1F1" style="stroke:#181818;stroke-width:0.5;"/><path d="M832.69,868.7683 C832.69,878.7683 869.4739,878.7683 869.4739,878.7683 C869.4739,878.7683 906.2579,878.7683 906.2579,868.7683" fill="none" style="stroke:#181818;stroke-width:0.5;"/><text fill="#000000" font-family="sans-serif" font-size="11" font-style="italic" lengthAdjust="spacing" textLength="51.5679" x="843.69" y="893.403">&#171;storage&#187;</text><text fill="#000000" font-family="sans-serif" font-size="11" lengthAdjust="spacing" textLength="46.1216" x="846.4131" y="906.3581">S3 audio</text></g><!--entity S3SA--><g class="entity" data-qualified-name="S3SA" data-source-line="46" id="ent0018"><path d="M941.46,868.7683 C941.46,858.7683 994.4771,858.7683 994.4771,858.7683 C994.4771,858.7683 1047.4942,858.7683 1047.4942,868.7683 L1047.4942,903.6784 C1047.4942,913.6784 994.4771,913.6784 994.4771,913.6784 C994.4771,913.6784 941.46,913.6784 941.46,903.6784 L941.46,868.7683" fill="#F1F1F1" style="stroke:#181818;stroke-width:0.5;"/><path d="M941.46,868.7683 C941.46,878.7683 994.4771,878.7683 994.4771,878.7683 C994.4771,878.7683 1047.4942,878.7683 1047.4942,868.7683" fill="none" style="stroke:#181818;stroke-width:0.5;"/><text fill="#000000" font-family="sans-serif" font-size="11" font-style="italic" lengthAdjust="spacing" textLength="51.5679" x="968.6932" y="893.403">&#171;storage&#187;</text><text fill="#000000" font-family="sans-serif" font-size="11" lengthAdjust="spacing" textLength="86.0342" x="951.46" y="906.3581">S3 scaled-audio</text></g><!--entity FA--><g class="entity" data-qualified-name="FA" data-source-line="48" id="ent0019"><rect fill="#FFE0B2" height="71.8203" rx="2.5" ry="2.5" style="stroke:#EF6C00;stroke-width:0.5;" width="93.0845" x="295.94" y="850.3083"/><text fill="#000000" font-family="sans-serif" font-size="11" font-style="italic" lengthAdjust="spacing" textLength="50.9717" x="316.9964" y="870.943">&#171;lambda&#187;</text><text fill="#000000" font-family="sans-serif" font-size="11" lengthAdjust="spacing" textLength="42.1309" x="305.94" y="883.8981">Lambda</text><text fill="#000000" font-family="sans-serif" font-size="11" lengthAdjust="spacing" textLength="73.0845" x="305.94" y="896.8532">face-analyzer</text><text fill="#000000" font-family="sans-serif" font-size="11" lengthAdjust="spacing" textLength="61.2466" x="305.94" y="909.8083">(MediaPipe)</text></g><!--entity VA--><g class="entity" data-qualified-name="VA" data-source-line="49" id="ent0020"><rect fill="#FFE0B2" height="71.8203" rx="2.5" ry="2.5" style="stroke:#EF6C00;stroke-width:0.5;" width="98.5952" x="945.18" y="996.1283"/><text fill="#000000" font-family="sans-serif" font-size="11" font-style="italic" lengthAdjust="spacing" textLength="50.9717" x="968.9918" y="1016.763">&#171;lambda&#187;</text><text fill="#000000" font-family="sans-serif" font-size="11" lengthAdjust="spacing" textLength="42.1309" x="955.18" y="1029.7181">Lambda</text><text fill="#000000" font-family="sans-serif" font-size="11" lengthAdjust="spacing" textLength="78.5952" x="955.18" y="1042.6732">voice-analyzer</text><text fill="#000000" font-family="sans-serif" font-size="11" lengthAdjust="spacing" textLength="40.498" x="955.18" y="1055.6283">(pydub)</text></g><!--entity SQSC--><g class="entity" data-qualified-name="SQSC" data-source-line="51" id="ent0021"><rect fill="#FFF3E0" height="45.9102" rx="2.5" ry="2.5" style="stroke:#FB8C00;stroke-width:0.5;" width="133.3193" x="500.82" y="1009.0883"/><text fill="#000000" font-family="sans-serif" font-size="11" lengthAdjust="spacing" textLength="20.394" x="510.82" y="1029.723">SQS</text><text fill="#000000" font-family="sans-serif" font-size="11" lengthAdjust="spacing" textLength="113.3193" x="510.82" y="1042.6781">video-step-complete</text></g><!--entity BE--><g class="entity" data-qualified-name="BE" data-source-line="53" id="ent0022"><rect fill="#FFF3E0" height="58.8652" rx="2.5" ry="2.5" style="stroke:#FB8C00;stroke-width:0.5;" width="118.9785" x="641.99" y="1141.9483"/><text fill="#000000" font-family="sans-serif" font-size="11" lengthAdjust="spacing" textLength="44.3438" x="651.99" y="1162.583">Backend</text><text fill="#000000" font-family="sans-serif" font-size="11" lengthAdjust="spacing" textLength="98.9785" x="651.99" y="1175.5381">sqs-celery-worker</text><text fill="#000000" font-family="sans-serif" font-size="11" lengthAdjust="spacing" textLength="84.7451" x="651.99" y="1188.4932">(kombu polling)</text></g><!--entity STT--><g class="entity" data-qualified-name="STT" data-source-line="55" id="ent0023"><rect fill="#FFF3E0" height="58.8652" rx="2.5" ry="2.5" style="stroke:#FB8C00;stroke-width:0.5;" width="105.6313" x="742.66" y="1002.6083"/><text fill="#000000" font-family="sans-serif" font-size="11" lengthAdjust="spacing" textLength="62.498" x="752.66" y="1023.243">analysis-stt</text><text fill="#000000" font-family="sans-serif" font-size="11" lengthAdjust="spacing" textLength="37.7266" x="752.66" y="1036.1981">Worker</text><text fill="#000000" font-family="sans-serif" font-size="11" lengthAdjust="spacing" textLength="85.6313" x="752.66" y="1049.1532">(faster-whisper)</text></g><!--entity IAR--><g class="entity" data-qualified-name="IAR" data-source-line="57" id="ent0024"><rect fill="#FFF3E0" height="45.9102" rx="2.5" ry="2.5" style="stroke:#FB8C00;stroke-width:0.5;" width="156.1787" x="916.39" y="1148.4283"/><text fill="#000000" font-family="sans-serif" font-size="11" lengthAdjust="spacing" textLength="136.1787" x="926.39" y="1169.063">interview-analysis-report</text><text fill="#000000" font-family="sans-serif" font-size="11" lengthAdjust="spacing" textLength="69.5664" x="926.39" y="1182.0181">Worker (LLM)</text></g><!--link U to FE--><g class="link" data-entity-1="ent0002" data-entity-2="ent0003" data-link-type="dependency" data-source-line="59" id="lnk25"><path d="M399.48,116.3183 C399.48,135.9283 399.48,153.6083 399.48,170.5683" fill="none" id="U-to-FE" style="stroke:#181818;stroke-width:1;"/><polygon fill="#181818" points="399.48,176.5683,403.48,167.5683,399.48,171.5683,395.48,167.5683,399.48,176.5683" style="stroke:#181818;stroke-width:1;"/></g><!--link FE to S3IN--><g class="link" data-entity-1="ent0003" data-entity-2="ent0004" data-link-type="dependency" data-source-line="60" id="lnk26"><path d="M399.48,223.2483 C399.48,243.0783 399.48,266.4983 399.48,290.3583" fill="none" id="FE-to-S3IN" style="stroke:#181818;stroke-width:1;"/><polygon fill="#181818" points="399.48,296.3583,403.48,287.3583,399.48,291.3583,395.48,287.3583,399.48,296.3583" style="stroke:#181818;stroke-width:1;"/><text fill="#000000" font-family="sans-serif" font-size="11" lengthAdjust="spacing" textLength="125.0663" x="400.48" y="264.483">Presigned PUT (&#47680;&#54000;&#54028;&#53944;)</text></g><!--link S3IN to SNS--><g class="link" data-entity-1="ent0004" data-entity-2="ent0005" data-link-type="dependency" data-source-line="62" id="lnk27"><path d="M399.48,378.1483 C399.48,402.0083 399.48,425.4483 399.48,445.2883" fill="none" id="S3IN-to-SNS" style="stroke:#181818;stroke-width:1;"/><polygon fill="#181818" points="399.48,451.2883,403.48,442.2883,399.48,446.2883,395.48,442.2883,399.48,451.2883" style="stroke:#181818;stroke-width:1;"/><text fill="#000000" font-family="sans-serif" font-size="11" lengthAdjust="spacing" textLength="108.5444" x="400.48" y="419.303">ObjectCreated event</text></g><!--link SNS to SQS1--><g class="link" data-entity-1="ent0005" data-entity-2="ent0006" data-link-type="dependency" data-source-line="63" id="lnk28"><path d="M358.03,497.9483 C319.09,518.9083 266.4128,547.2637 227.4128,568.2637" fill="none" id="SNS-to-SQS1" style="stroke:#181818;stroke-width:1;"/><polygon fill="#181818" points="222.13,571.1083,231.9506,570.3633,226.5324,568.7378,228.1578,563.3195,222.13,571.1083" style="stroke:#181818;stroke-width:1;"/><text fill="#000000" font-family="sans-serif" font-size="11" lengthAdjust="spacing" textLength="66.0806" x="297.54" y="539.213">subscription</text></g><!--link SNS to SQS2--><g class="link" data-entity-1="ent0005" data-entity-2="ent0007" data-link-type="dependency" data-source-line="64" id="lnk29"><path d="M399.48,497.8083 C399.48,518.8883 399.48,544.4083 399.48,565.4583" fill="none" id="SNS-to-SQS2" style="stroke:#181818;stroke-width:1;"/><polygon fill="#181818" points="399.48,571.4583,403.48,562.4583,399.48,566.4583,395.48,562.4583,399.48,571.4583" style="stroke:#181818;stroke-width:1;"/><text fill="#000000" font-family="sans-serif" font-size="11" lengthAdjust="spacing" textLength="66.0806" x="400.48" y="539.213">subscription</text></g><!--link SNS to SQS3--><g class="link" data-entity-1="ent0005" data-entity-2="ent0008" data-link-type="dependency" data-source-line="65" id="lnk30"><path d="M452.23,497.5283 C503.24,518.7083 574.5482,548.3186 625.4682,569.4486" fill="none" id="SNS-to-SQS3" style="stroke:#181818;stroke-width:1;"/><polygon fill="#181818" points="631.01,571.7483,624.2304,564.6043,626.3918,569.8319,621.1642,571.9933,631.01,571.7483" style="stroke:#181818;stroke-width:1;"/><text fill="#000000" font-family="sans-serif" font-size="11" lengthAdjust="spacing" textLength="66.0806" x="550.99" y="539.213">subscription</text></g><!--link SQS1 to DLQ1--><g class="link" data-entity-1="ent0006" data-entity-2="ent0009" data-link-type="dependency" data-source-line="67" id="lnk31"><path d="M157.58,617.7783 C148.59,626.7883 138.32,637.4283 129.48,647.4883 C113.26,665.9483 99.7143,683.219 87.5643,699.319" fill="none" id="SQS1-to-DLQ1" style="stroke:#181818;stroke-width:1;"/><polygon fill="#181818" points="83.95,704.1083,92.5642,699.3339,86.9619,700.1172,86.1785,694.5149,83.95,704.1083" style="stroke:#181818;stroke-width:1;"/><text fill="#000000" font-family="sans-serif" font-size="11" lengthAdjust="spacing" textLength="41.5405" x="130.48" y="659.123">&#49892;&#54056; &#44201;&#47532;</text></g><!--link SQS2 to DLQ2--><g class="link" data-entity-1="ent0007" data-entity-2="ent0010" data-link-type="dependency" data-source-line="68" id="lnk32"><path d="M380.02,617.9583 C373.45,626.6483 366.72,637.0283 362.48,647.4883 C355.09,665.7283 352.6194,682.0323 351.5094,698.2623" fill="none" id="SQS2-to-DLQ2" style="stroke:#181818;stroke-width:1;"/><polygon fill="#181818" points="351.1,704.2483,355.7048,695.5422,351.4412,699.2599,347.7234,694.9963,351.1,704.2483" style="stroke:#181818;stroke-width:1;"/><text fill="#000000" font-family="sans-serif" font-size="11" lengthAdjust="spacing" textLength="41.5405" x="363.48" y="659.123">&#49892;&#54056; &#44201;&#47532;</text></g><!--link SQS3 to DLQ3--><g class="link" data-entity-1="ent0008" data-entity-2="ent0011" data-link-type="dependency" data-source-line="69" id="lnk33"><path d="M683.48,617.7383 C683.48,641.7983 683.48,673.9883 683.48,698.0983" fill="none" id="SQS3-to-DLQ3" style="stroke:#181818;stroke-width:1;"/><polygon fill="#181818" points="683.48,704.0983,687.48,695.0983,683.48,699.0983,679.48,695.0983,683.48,704.0983" style="stroke:#181818;stroke-width:1;"/><text fill="#000000" font-family="sans-serif" font-size="11" lengthAdjust="spacing" textLength="41.5405" x="684.48" y="659.123">&#49892;&#54056; &#44201;&#47532;</text></g><!--link SQS1 to L1--><g class="link" data-entity-1="ent0006" data-entity-2="ent0012" data-link-type="dependency" data-source-line="71" id="lnk34"><path d="M180.48,617.7383 C180.48,637.7883 180.48,661.6483 180.48,684.9983" fill="none" id="SQS1-to-L1" style="stroke:#181818;stroke-width:1;"/><polygon fill="#181818" points="180.48,690.9983,184.48,681.9983,180.48,685.9983,176.48,681.9983,180.48,690.9983" style="stroke:#181818;stroke-width:1;"/><text fill="#000000" font-family="sans-serif" font-size="11" lengthAdjust="spacing" textLength="118.3628" x="181.48" y="659.123">event source mapping</text></g><!--link SQS2 to L2--><g class="link" data-entity-1="ent0007" data-entity-2="ent0013" data-link-type="dependency" data-source-line="72" id="lnk35"><path d="M410.33,617.7383 C420.14,637.7883 432.1039,662.2584 443.5239,685.6084" fill="none" id="SQS2-to-L2" style="stroke:#181818;stroke-width:1;"/><polygon fill="#181818" points="446.16,690.9983,445.7991,681.156,443.9633,686.5067,438.6126,684.6708,446.16,690.9983" style="stroke:#181818;stroke-width:1;"/><text fill="#000000" font-family="sans-serif" font-size="11" lengthAdjust="spacing" textLength="118.3628" x="432.48" y="659.123">event source mapping</text></g><!--link SQS3 to L3--><g class="link" data-entity-1="ent0008" data-entity-2="ent0014" data-link-type="dependency" data-source-line="73" id="lnk36"><path d="M708.58,617.7383 C731.26,637.7883 760.5349,663.6741 786.9449,687.0241" fill="none" id="SQS3-to-L3" style="stroke:#181818;stroke-width:1;"/><polygon fill="#181818" points="791.44,690.9983,787.3469,682.0402,787.6941,687.6864,782.0479,688.0336,791.44,690.9983" style="stroke:#181818;stroke-width:1;"/><text fill="#000000" font-family="sans-serif" font-size="11" lengthAdjust="spacing" textLength="118.3628" x="758.48" y="659.123">event source mapping</text></g><!--link L1 to S3V--><g class="link" data-entity-1="ent0012" data-entity-2="ent0015" data-link-type="dependency" data-source-line="75" id="lnk37"><path d="M153.1,763.5983 C130.76,792.3083 103.3551,827.5433 82.9951,853.7033" fill="none" id="L1-to-S3V" style="stroke:#181818;stroke-width:1;"/><polygon fill="#181818" points="79.31,858.4383,87.9943,853.7926,82.381,854.4925,81.6811,848.8791,79.31,858.4383" style="stroke:#181818;stroke-width:1;"/></g><!--link L2 to S3F--><g class="link" data-entity-1="ent0013" data-entity-2="ent0016" data-link-type="dependency" data-source-line="76" id="lnk38"><path d="M462.8,763.5983 C462.25,792.3083 461.6047,826.2794 461.1047,852.4394" fill="none" id="L2-to-S3F" style="stroke:#181818;stroke-width:1;"/><polygon fill="#181818" points="460.99,858.4383,465.1613,849.5164,461.0855,853.4392,457.1627,849.3635,460.99,858.4383" style="stroke:#181818;stroke-width:1;"/></g><!--link L3 to S3A--><g class="link" data-entity-1="ent0014" data-entity-2="ent0017" data-link-type="dependency" data-source-line="77" id="lnk39"><path d="M840.01,763.5983 C846.96,792.3083 855.2368,826.4471 861.5768,852.6071" fill="none" id="L3-to-S3A" style="stroke:#181818;stroke-width:1;"/><polygon fill="#181818" points="862.99,858.4383,864.7576,848.7493,861.8123,853.579,856.9827,850.6336,862.99,858.4383" style="stroke:#181818;stroke-width:1;"/></g><!--link L3 to S3SA--><g class="link" data-entity-1="ent0014" data-entity-2="ent0018" data-link-type="dependency" data-source-line="78" id="lnk40"><path d="M868.06,763.5983 C897.91,792.3083 935.1155,828.1191 962.3155,854.2791" fill="none" id="L3-to-S3SA" style="stroke:#181818;stroke-width:1;"/><polygon fill="#181818" points="966.64,858.4383,962.926,849.3165,963.0362,854.9723,957.3805,855.0825,966.64,858.4383" style="stroke:#181818;stroke-width:1;"/></g><!--link L2 to FA--><g class="link" data-entity-1="ent0013" data-entity-2="ent0019" data-link-type="dependency" data-source-line="80" id="lnk41"><path d="M410.08,756.4983 C383.15,771.1583 355.35,787.2883 351.48,793.3083 C340.81,809.8983 338.2146,825.769 338.5046,844.009" fill="none" id="L2-to-FA" style="stroke:#181818;stroke-width:1;stroke-dasharray:7,7;"/><polygon fill="#181818" points="338.6,850.0083,342.4564,840.9458,338.5205,845.0089,334.4574,841.073,338.6,850.0083" style="stroke:#181818;stroke-width:1;"/><text fill="#000000" font-family="sans-serif" font-size="11" lengthAdjust="spacing" textLength="70.0015" x="367.8655" y="804.943">boto3.invoke</text><text fill="#000000" font-family="sans-serif" font-size="11" lengthAdjust="spacing" textLength="100.7725" x="352.48" y="817.8981">(RequestResponse)</text></g><!--link S3SA to STT--><g class="link" data-entity-1="ent0018" data-entity-2="ent0023" data-link-type="dependency" data-source-line="81" id="lnk42"><path d="M941.26,914.0583 C910.64,929.6783 876.97,947.2283 870.48,952.1283 C851.32,966.5883 836.642,981.5962 822.752,997.6062" fill="none" id="S3SA-to-STT" style="stroke:#181818;stroke-width:1;stroke-dasharray:7,7;"/><polygon fill="#181818" points="818.82,1002.1383,827.7393,997.9615,822.0966,998.3615,821.6965,992.7189,818.82,1002.1383" style="stroke:#181818;stroke-width:1;"/><text fill="#000000" font-family="sans-serif" font-size="11" lengthAdjust="spacing" textLength="114.458" x="871.48" y="963.763">transcribe_audio task</text></g><!--link S3SA to VA--><g class="link" data-entity-1="ent0018" data-entity-2="ent0020" data-link-type="dependency" data-source-line="82" id="lnk43"><path d="M994.48,913.9383 C994.48,937.0083 994.48,964.5183 994.48,989.7783" fill="none" id="S3SA-to-VA" style="stroke:#181818;stroke-width:1;stroke-dasharray:7,7;"/><polygon fill="#181818" points="994.48,995.7783,998.48,986.7783,994.48,990.7783,990.48,986.7783,994.48,995.7783" style="stroke:#181818;stroke-width:1;"/><text fill="#000000" font-family="sans-serif" font-size="11" lengthAdjust="spacing" textLength="101.5889" x="995.48" y="963.763">on-demand invoke</text></g><!--link L1 to SQSC--><g class="link" data-entity-1="ent0012" data-entity-2="ent0021" data-link-type="dependency" data-source-line="84" id="lnk44"><path d="M172.98,763.5383 C166.08,806.0683 161.79,877.5183 198.48,922.1283 C236.82,968.7583 399.0585,1002.8118 494.5985,1019.4018" fill="none" id="L1-to-SQSC" style="stroke:#181818;stroke-width:1;"/><polygon fill="#181818" points="500.51,1020.4283,492.327,1014.9475,495.5837,1019.5729,490.9584,1022.8295,500.51,1020.4283" style="stroke:#181818;stroke-width:1;"/><text fill="#000000" font-family="sans-serif" font-size="11" lengthAdjust="spacing" textLength="78.2729" x="199.48" y="890.853">step-complete</text></g><!--link L2 to SQSC--><g class="link" data-entity-1="ent0013" data-entity-2="ent0021" data-link-type="dependency" data-source-line="85" id="lnk45"><path d="M479.38,763.7683 C489.96,787.9083 503.82,820.7383 514.48,850.3083 C530.51,894.8183 532.24,906.7183 545.48,952.1283 C551.05,971.2483 555.5245,987.2716 559.8645,1003.1116" fill="none" id="L2-to-SQSC" style="stroke:#181818;stroke-width:1;"/><polygon fill="#181818" points="561.45,1008.8983,562.9296,999.1612,560.1287,1004.076,555.2139,1001.2752,561.45,1008.8983" style="stroke:#181818;stroke-width:1;"/><text fill="#000000" font-family="sans-serif" font-size="11" lengthAdjust="spacing" textLength="78.2729" x="537.85" y="890.853">step-complete</text></g><!--link L3 to SQSC--><g class="link" data-entity-1="ent0014" data-entity-2="ent0021" data-link-type="dependency" data-source-line="86" id="lnk46"><path d="M800.68,763.7083 C745.73,826.7083 636.244,952.2067 590.834,1004.2667" fill="none" id="L3-to-SQSC" style="stroke:#181818;stroke-width:1;"/><polygon fill="#181818" points="586.89,1008.7883,595.8204,1004.6352,590.1767,1005.0203,589.7916,999.3766,586.89,1008.7883" style="stroke:#181818;stroke-width:1;"/><text fill="#000000" font-family="sans-serif" font-size="11" lengthAdjust="spacing" textLength="78.2729" x="722.39" y="890.853">step-complete</text></g><!--link FA to SQSC--><g class="link" data-entity-1="ent0019" data-entity-2="ent0021" data-link-type="dependency" data-source-line="87" id="lnk47"><path d="M389.42,918.9083 C411.21,933.4783 437.54,950.8783 461.48,966.1283 C484.22,980.6283 504.8984,993.3392 525.3484,1005.7292" fill="none" id="FA-to-SQSC" style="stroke:#181818;stroke-width:1;"/><polygon fill="#181818" points="530.48,1008.8383,524.8553,1000.7536,526.2036,1006.2474,520.7098,1007.5957,530.48,1008.8383" style="stroke:#181818;stroke-width:1;"/><text fill="#000000" font-family="sans-serif" font-size="11" lengthAdjust="spacing" textLength="78.2729" x="462.48" y="963.763">step-complete</text></g><!--link SQSC to BE--><g class="link" data-entity-1="ent0021" data-entity-2="ent0022" data-link-type="dependency" data-source-line="89" id="lnk48"><path d="M582.49,1055.2783 C594.12,1071.7483 611.12,1094.2983 628.48,1111.9483 C638.72,1122.3683 646.0782,1128.9609 657.4182,1137.9509" fill="none" id="SQSC-to-BE" style="stroke:#181818;stroke-width:1;"/><polygon fill="#181818" points="662.12,1141.6783,657.5523,1132.9527,658.2019,1138.5721,652.5824,1139.2217,662.12,1141.6783" style="stroke:#181818;stroke-width:1;"/><text fill="#000000" font-family="sans-serif" font-size="11" lengthAdjust="spacing" textLength="104.6934" x="629.48" y="1109.583">kombu long polling</text></g><!--link VA to IAR--><g class="link" data-entity-1="ent0020" data-entity-2="ent0024" data-link-type="dependency" data-source-line="91" id="lnk49"><path d="M994.48,1068.4083 C994.48,1093.5283 994.48,1120.4883 994.48,1142.0383" fill="none" id="VA-to-IAR" style="stroke:#181818;stroke-width:1;stroke-dasharray:7,7;"/><polygon fill="#181818" points="994.48,1148.0383,998.48,1139.0383,994.48,1143.0383,990.48,1139.0383,994.48,1148.0383" style="stroke:#181818;stroke-width:1;"/><text fill="#000000" font-family="sans-serif" font-size="11" lengthAdjust="spacing" textLength="71.2052" x="995.48" y="1109.583">&#44208;&#44284; (&#51020;&#49457; &#51648;&#54364;)</text></g><!--link STT to BE--><g class="link" data-entity-1="ent0023" data-entity-2="ent0022" data-link-type="dependency" data-source-line="92" id="lnk50"><path d="M775.77,1061.8383 C759.73,1085.2783 740.578,1113.2463 724.548,1136.6763" fill="none" id="STT-to-BE" style="stroke:#181818;stroke-width:1;stroke-dasharray:7,7;"/><polygon fill="#181818" points="721.16,1141.6283,729.5432,1136.459,723.9833,1137.5017,722.9406,1131.9417,721.16,1141.6283" style="stroke:#181818;stroke-width:1;"/><text fill="#000000" font-family="sans-serif" font-size="11" lengthAdjust="spacing" textLength="158.528" x="749.48" y="1109.583">SaveTranscriptResultTask &#53084;&#48177;</text></g><g class="footer" data-source-line="94"><text fill="#888888" font-family="sans-serif" font-size="10" lengthAdjust="spacing" textLength="400.6088" x="345.23" y="1215.4815">MeFit - &#51060;&#48292;&#53944; &#44592;&#48152; &#50689;&#49345; &#52376;&#47532; (S3 &#8594; SNS &#8594; SQS Fan-out &#8594; Lambda &#8594; step-complete)</text></g><?plantuml-src XLPRQ-D657wVNt58NnoAWYsLR0XBm7Oikg2aJfHaNm9bB9suMiiQHJDscfJ2Na8Vke5UQ26KJUd3qZQmq6pQXpni_qmVO_a_T3IIBxAZ13zufEyxtxdCEQCHdl0H1d_T37_-3ZIeFhKXFdyHlte1yVNvuFTt45_yCxX-E_ps1ePdP_9X-DFfuE93V743fQPF0x6xOS7W-ZJ-xNIH4DxnWf16j0ijwdJQ4Ui5RftvB8AFp4RocsAuU41xlZ1P86pl1A5IcG8TrWrPW18InpA-21r1WxQFTr7WAm9Gc_DdcaQZd20iSZ4QlQsjrCjbylLTEeyV-xJRSkdQMf5YerpJPnKRvl8zYbomYBQnIB9HRvXcPLPokVneVQLM9EdwXyKHrjVNvoAiB-ih-egK8zIHuS12_F9T_Cjb_Elt2q0vx18oAUM26SdzmC3T3pRGzUWsEafACUNs4PSAsg8SOS4szeE-voBJ3ZmV-NvGMZh2LdTHKMtZoIPCfP_pOM_Q8zDUw3FgefiQRTfvtjQOvx2WZv780f50POvu8Ek46duf8fNcYAZF4MdFzTWyqSZvNhUs523_Av0LlG3N7y2DCJvDi5IlpUMNbB4RVWAFz7AObj9A_8ywyow5cSGJXMTX6ofcqyuKz0SKPYgYjfBsuMEeB7S-FSb4Z6cHN1y0TwYFhgPIoRP_BxVxERQAbsSyivYdeiferM9QvdoQRLSBUszSDEgWHWFg7v-eegjkRteXfjcQrGTArcTUNY0yTdkjr7WlPrpGqLnWg2MGZm97FLZFiPFvLgF83xdce8_HiNR4eexors7TLWz2vljUq4xzrXevSnKSzxXq9VQ3foF30ofTHzhH5nuFCSh6TMSdP-h9Co3gUtYaZKKY35aqre6IPMsaja-gsuJiWgQj9GU4sL0hDV-hq8oGU-q0NMZkxa1fSFby-FfAVaVavqH-BHH9iJTjIVwizKmUy_K8gP06s9UHa0HH33dnai9xBUv4NYWy5anZ-ZsOCOiH9PQWQhXN8NxzTdZs9znUNyeF7b5o6QhVXHeZr9X39z9M8gno0CvwaOFGfM4ejsgYR-dtK58dbb548LObA_GUiVHiQHBBo9RLoTAkaeIojBIMjFKgj9XWnf8dMxY3iX-syR27N6mZbxlFSP6e-KdOiYiaNHuAGLAy5dwkPWm4vPq9QI-HP87cOfS6BgIoa_1aJoVrdsxsSRntOaOn9gCln8Xwcy2rXWJJwV1Pq1wD225xQS2oNoNXzlhgzkyFK8elpkBJzn3_yNpumnkPkqmv8IaHc_Pn9yi-J0eahoixCdc8_tqpk7fFo05ZSavW0qrFoClJvAfqUtCrk3gVkKcLvAR-zysFgjlL_vOD9WqqrXFgEJrQr3ANs-B_?></g></svg>