<?plantuml 1.2026.1?><svg xmlns="http://www.w3.org/2000/svg" xmlns:xlink="http://www.w3.org/1999/xlink" contentStyleType="text/css" data-diagram-type="DESCRIPTION" height="849px" preserveAspectRatio="none" style="width:1441px;height:849px;background:#FEFEFE;" version="1.1" viewBox="0 0 1441 849" width="1441px" zoomAndPan="magnify"><title>&#48120;&#54607; - 9 &#54645;&#49900; &#46020;&#47700;&#51064; &#51032;&#51316; &#44288;&#44228;</title><defs/><g><rect fill="#FEFEFE" height="849" style="stroke:none;stroke-width:1;" width="1441" x="0" y="0"/><g class="title" data-source-line="1"><text fill="#000000" font-family="sans-serif" font-size="14" font-weight="bold" lengthAdjust="spacing" textLength="179.0723" x="624.2538" y="23.5352">&#48120;&#54607; - 9 &#54645;&#49900; &#46020;&#47700;&#51064; &#51032;&#51316; &#44288;&#44228;</text></g><!--cluster 1. ?? / ???--><g class="cluster" data-qualified-name="1. .. . ..." data-source-line="24" id="ent0002"><rect fill="none" height="259.82" rx="2.5" ry="2.5" style="stroke:#181818;stroke-width:1;" width="110" x="7" y="44.4883"/><text fill="#000000" font-family="sans-serif" font-size="11" font-weight="bold" lengthAdjust="spacing" textLength="74.6453" x="24.6773" y="57.123">1. &#51064;&#51613; / &#54532;&#47196;&#54596;</text></g><!--cluster 2. ?? ??--><g class="cluster" data-qualified-name="2. .. .." data-source-line="29" id="ent0005"><rect fill="none" height="107.91" rx="2.5" ry="2.5" style="stroke:#181818;stroke-width:1;" width="240" x="884" y="196.3983"/><text fill="#000000" font-family="sans-serif" font-size="11" font-weight="bold" lengthAdjust="spacing" textLength="55.2851" x="976.3575" y="209.033">2. &#51088;&#47308; &#46321;&#47197;</text></g><!--cluster 3. ?? ??--><g class="cluster" data-qualified-name="3. .. .." data-source-line="34" id="ent0008"><rect fill="none" height="146.87" rx="2.5" ry="2.5" style="stroke:#181818;stroke-width:1;" width="230" x="948" y="350.3083"/><text fill="#000000" font-family="sans-serif" font-size="11" font-style="italic" lengthAdjust="spacing" textLength="34.5469" x="1045.7266" y="362.943">&#171;core&#187;</text><text fill="#000000" font-family="sans-serif" font-size="11" font-weight="bold" lengthAdjust="spacing" textLength="55.2851" x="1035.3575" y="375.8981">3. &#47732;&#51217; &#54645;&#49900;</text></g><!--cluster 4. ?? ??--><g class="cluster" data-qualified-name="4. .. .." data-source-line="38" id="ent0010"><rect fill="none" height="146.86" rx="2.5" ry="2.5" style="stroke:#181818;stroke-width:1;" width="229" x="516" y="543.1783"/><text fill="#000000" font-family="sans-serif" font-size="11" font-style="italic" lengthAdjust="spacing" textLength="48.1304" x="606.4348" y="555.813">&#171;reward&#187;</text><text fill="#000000" font-family="sans-serif" font-size="11" font-weight="bold" lengthAdjust="spacing" textLength="55.2851" x="602.8575" y="568.7681">4. &#54617;&#49845; &#48372;&#49345;</text></g><!--cluster 5. ?? / ??--><g class="cluster" data-qualified-name="5. .. . .." data-source-line="43" id="ent0013"><rect fill="none" height="281.73" rx="2.5" ry="2.5" style="stroke:#181818;stroke-width:1;" width="162" x="62" y="543.1783"/><text fill="#000000" font-family="sans-serif" font-size="11" font-style="italic" lengthAdjust="spacing" textLength="44.854" x="120.573" y="555.813">&#171;billing&#187;</text><text fill="#000000" font-family="sans-serif" font-size="11" font-weight="bold" lengthAdjust="spacing" textLength="65.1303" x="110.4348" y="568.7681">5. &#44208;&#51228; / &#44428;&#54620;</text></g><!--cluster 6. ??--><g class="cluster" data-qualified-name="6. .." data-source-line="48" id="ent0016"><rect fill="none" height="107.91" rx="2.5" ry="2.5" style="stroke:#181818;stroke-width:1;" width="508" x="334" y="382.7883"/><text fill="#000000" font-family="sans-serif" font-size="11" font-weight="bold" lengthAdjust="spacing" textLength="32.6296" x="571.6852" y="395.423">6. &#48512;&#44032;</text></g><!--entity USERS--><g class="entity" data-qualified-name="1. .. . ....USERS" data-source-line="25" id="ent0003"><rect fill="#E8F4FD" height="45.9102" rx="2.5" ry="2.5" style="stroke:#2196F3;stroke-width:0.5;" width="77.9438" x="23.03" y="90.4883"/><text fill="#000000" font-family="sans-serif" font-size="11" lengthAdjust="spacing" textLength="28.6709" x="33.03" y="111.123">users</text><text fill="#000000" font-family="sans-serif" font-size="11" lengthAdjust="spacing" textLength="57.9438" x="33.03" y="124.0781">(&#51064;&#51613; / &#44032;&#51077;)</text></g><!--entity PROF--><g class="entity" data-qualified-name="1. .. . ....PROF" data-source-line="26" id="ent0004"><rect fill="#E8F4FD" height="45.9102" rx="2.5" ry="2.5" style="stroke:#2196F3;stroke-width:0.5;" width="77.9438" x="23.03" y="242.3983"/><text fill="#000000" font-family="sans-serif" font-size="11" lengthAdjust="spacing" textLength="40.3208" x="33.03" y="263.033">profiles</text><text fill="#000000" font-family="sans-serif" font-size="11" lengthAdjust="spacing" textLength="57.9438" x="33.03" y="275.9881">(&#51649;&#47924; / &#44221;&#47141;)</text></g><!--entity RES--><g class="entity" data-qualified-name="2. .. ...RES" data-source-line="30" id="ent0006"><rect fill="#E8F4FD" height="45.9102" rx="2.5" ry="2.5" style="stroke:#2196F3;stroke-width:0.5;" width="65.0688" x="900.47" y="242.3983"/><text fill="#000000" font-family="sans-serif" font-size="11" lengthAdjust="spacing" textLength="45.0688" x="910.47" y="263.033">resumes</text><text fill="#000000" font-family="sans-serif" font-size="11" lengthAdjust="spacing" textLength="35.6993" x="910.47" y="275.9881">(&#51060;&#47141;&#49436;)</text></g><!--entity JD--><g class="entity" data-qualified-name="2. .. ...JD" data-source-line="31" id="ent0007"><rect fill="#E8F4FD" height="45.9102" rx="2.5" ry="2.5" style="stroke:#2196F3;stroke-width:0.5;" width="107.9087" x="1000.05" y="242.3983"/><text fill="#000000" font-family="sans-serif" font-size="11" lengthAdjust="spacing" textLength="87.9087" x="1010.05" y="263.033">job_descriptions</text><text fill="#000000" font-family="sans-serif" font-size="11" lengthAdjust="spacing" textLength="45.2143" x="1010.05" y="275.9881">(&#52292;&#50857;&#44277;&#44256;)</text></g><!--entity INT--><g class="entity" data-qualified-name="3. .. ...INT" data-source-line="35" id="ent0009"><rect fill="#FFF9C4" height="58.8652" rx="2.5" ry="2.5" style="stroke:#FBC02D;stroke-width:0.5;" width="198.6267" x="963.69" y="422.3083"/><text fill="#000000" font-family="sans-serif" font-size="11" font-style="italic" lengthAdjust="spacing" textLength="34.5469" x="1045.7299" y="442.943">&#171;core&#187;</text><text fill="#000000" font-family="sans-serif" font-size="11" lengthAdjust="spacing" textLength="53.8345" x="973.69" y="455.8981">interviews</text><text fill="#000000" font-family="sans-serif" font-size="11" lengthAdjust="spacing" textLength="178.6267" x="973.69" y="468.8532">(&#49464;&#49496; / Turn / Recording / Report)</text></g><!--entity STR--><g class="entity" data-qualified-name="4. .. ...STR" data-source-line="39" id="ent0011"><rect fill="#C8E6C9" height="58.8652" rx="2.5" ry="2.5" style="stroke:#388E3C;stroke-width:0.5;" width="70.1304" x="531.93" y="615.1783"/><text fill="#000000" font-family="sans-serif" font-size="11" font-style="italic" lengthAdjust="spacing" textLength="48.1304" x="542.93" y="635.813">&#171;reward&#187;</text><text fill="#000000" font-family="sans-serif" font-size="11" lengthAdjust="spacing" textLength="38.4624" x="542.6478" y="648.7681">streaks</text><text fill="#000000" font-family="sans-serif" font-size="11" lengthAdjust="spacing" textLength="48.6948" x="542.6478" y="661.7232">(&#51068;&#51068; &#52280;&#50668;)</text></g><!--entity ACH--><g class="entity" data-qualified-name="4. .. ...ACH" data-source-line="40" id="ent0012"><rect fill="#C8E6C9" height="58.8652" rx="2.5" ry="2.5" style="stroke:#388E3C;stroke-width:0.5;" width="92.6118" x="636.69" y="615.1783"/><text fill="#000000" font-family="sans-serif" font-size="11" font-style="italic" lengthAdjust="spacing" textLength="48.1304" x="658.9307" y="635.813">&#171;reward&#187;</text><text fill="#000000" font-family="sans-serif" font-size="11" lengthAdjust="spacing" textLength="72.6118" x="646.69" y="648.7681">achievements</text><text fill="#000000" font-family="sans-serif" font-size="11" lengthAdjust="spacing" textLength="26.1843" x="646.69" y="661.7232">(&#50629;&#51201;)</text></g><!--entity SUB--><g class="entity" data-qualified-name="5. .. . ...SUB" data-source-line="44" id="ent0014"><rect fill="#F8BBD0" height="58.8652" rx="2.5" ry="2.5" style="stroke:#C2185B;stroke-width:0.5;" width="91.688" x="82.16" y="615.1783"/><text fill="#000000" font-family="sans-serif" font-size="11" font-style="italic" lengthAdjust="spacing" textLength="44.854" x="105.577" y="635.813">&#171;billing&#187;</text><text fill="#000000" font-family="sans-serif" font-size="11" lengthAdjust="spacing" textLength="71.688" x="92.16" y="648.7681">subscriptions</text><text fill="#000000" font-family="sans-serif" font-size="11" lengthAdjust="spacing" textLength="59.877" x="92.16" y="661.7232">(Free / Pro)</text></g><!--entity TIC--><g class="entity" data-qualified-name="5. .. . ...TIC" data-source-line="45" id="ent0015"><rect fill="#F8BBD0" height="58.8652" rx="2.5" ry="2.5" style="stroke:#C2185B;stroke-width:0.5;" width="77.9438" x="130.03" y="750.0383"/><text fill="#000000" font-family="sans-serif" font-size="11" font-style="italic" lengthAdjust="spacing" textLength="44.854" x="146.5749" y="770.673">&#171;billing&#187;</text><text fill="#000000" font-family="sans-serif" font-size="11" lengthAdjust="spacing" textLength="35.2075" x="140.03" y="783.6281">tickets</text><text fill="#000000" font-family="sans-serif" font-size="11" lengthAdjust="spacing" textLength="57.9438" x="140.03" y="796.5832">(&#51092;&#47049; / &#51060;&#47141;)</text></g><!--entity NOTI--><g class="entity" data-qualified-name="6. ...NOTI" data-source-line="49" id="ent0017"><rect fill="#E8F4FD" height="32.9551" rx="2.5" ry="2.5" style="stroke:#2196F3;stroke-width:0.5;" width="86.2954" x="500.85" y="435.2683"/><text fill="#000000" font-family="sans-serif" font-size="11" lengthAdjust="spacing" textLength="66.2954" x="510.85" y="455.903">notifications</text></g><!--entity TRM--><g class="entity" data-qualified-name="6. ...TRM" data-source-line="50" id="ent0018"><rect fill="#E8F4FD" height="32.9551" rx="2.5" ry="2.5" style="stroke:#2196F3;stroke-width:0.5;" width="115.208" x="350.4" y="435.2683"/><text fill="#000000" font-family="sans-serif" font-size="11" lengthAdjust="spacing" textLength="95.208" x="360.4" y="455.903">terms_documents</text></g><!--entity DASH--><g class="entity" data-qualified-name="6. ...DASH" data-source-line="51" id="ent0019"><rect fill="#E8F4FD" height="32.9551" rx="2.5" ry="2.5" style="stroke:#2196F3;stroke-width:0.5;" width="76.6113" x="621.69" y="435.2683"/><text fill="#000000" font-family="sans-serif" font-size="11" lengthAdjust="spacing" textLength="56.6113" x="631.69" y="455.903">dashboard</text></g><!--entity LLM--><g class="entity" data-qualified-name="6. ...LLM" data-source-line="52" id="ent0020"><rect fill="#E8F4FD" height="45.9102" rx="2.5" ry="2.5" style="stroke:#2196F3;stroke-width:0.5;" width="92.542" x="733.73" y="428.7883"/><text fill="#000000" font-family="sans-serif" font-size="11" lengthAdjust="spacing" textLength="65.1191" x="743.73" y="449.423">llm_trackers</text><text fill="#000000" font-family="sans-serif" font-size="11" lengthAdjust="spacing" textLength="72.542" x="743.73" y="462.3781">(TokenUsage)</text></g><!--link USERS to PROF--><g class="link" data-entity-1="ent0003" data-entity-2="ent0004" data-link-type="dependency" data-source-line="55" id="lnk21"><path d="M62,136.8883 C62,165.3183 62,207.9883 62,236.2483" fill="none" id="USERS-to-PROF" style="stroke:#181818;stroke-width:1;"/><polygon fill="#181818" points="62,242.2483,66,233.2483,62,237.2483,58,233.2483,62,242.2483" style="stroke:#181818;stroke-width:1;"/><text fill="#000000" font-family="sans-serif" font-size="11" lengthAdjust="spacing" textLength="17.3916" x="63" y="178.033">1:1</text></g><!--link USERS to RES--><g class="link" data-entity-1="ent0003" data-entity-2="ent0006" data-link-type="dependency" data-source-line="56" id="lnk22"><path d="M101.42,116.6483 C185.13,121.7483 386.62,136.3183 553,166.3983 C683.23,189.9483 828.8709,232.4083 894.3309,252.3683" fill="none" id="USERS-to-RES" style="stroke:#181818;stroke-width:1;"/><polygon fill="#181818" points="900.07,254.1183,892.628,247.6672,895.2874,252.66,890.2947,255.3194,900.07,254.1183" style="stroke:#181818;stroke-width:1;"/><text fill="#000000" font-family="sans-serif" font-size="11" lengthAdjust="spacing" textLength="18.5625" x="616.95" y="178.033">1:N</text></g><!--link USERS to JD--><g class="link" data-entity-1="ent0003" data-entity-2="ent0007" data-link-type="dependency" data-source-line="57" id="lnk23"><path d="M101.29,113.8783 C256.19,112.2183 823.81,111.5783 983,188.3983 C1007.39,200.1683 1024.1292,219.3129 1036.6592,237.2129" fill="none" id="USERS-to-JD" style="stroke:#181818;stroke-width:1;"/><polygon fill="#181818" points="1040.1,242.1283,1038.2158,232.4613,1037.2327,238.0321,1031.6619,237.049,1040.1,242.1283" style="stroke:#181818;stroke-width:1;"/><text fill="#000000" font-family="sans-serif" font-size="11" lengthAdjust="spacing" textLength="18.5625" x="959.25" y="178.033">1:N</text></g><!--link USERS to SUB--><g class="link" data-entity-1="ent0003" data-entity-2="ent0014" data-link-type="dependency" data-source-line="58" id="lnk24"><path d="M84.92,136.8283 C97.22,150.4483 111.22,168.9383 118,188.3983 C171.28,341.4383 146.632,535.3609 134.302,608.9109" fill="none" id="USERS-to-SUB" style="stroke:#181818;stroke-width:1;"/><polygon fill="#181818" points="133.31,614.8283,138.743,606.6135,134.1367,609.8971,130.8531,605.2908,133.31,614.8283" style="stroke:#181818;stroke-width:1;"/><text fill="#000000" font-family="sans-serif" font-size="11" lengthAdjust="spacing" textLength="18.5625" x="148.04" y="331.943">1:N</text></g><!--link USERS to TIC--><g class="link" data-entity-1="ent0003" data-entity-2="ent0015" data-link-type="dependency" data-source-line="59" id="lnk25"><path d="M101.01,133.2383 C121.93,145.6683 145.68,164.1583 157,188.3983 C182.76,243.5783 196.96,432.2483 209,706.0383 C209.27,712.2583 210.84,714.0983 209,720.0383 C205.77,730.4983 203.3656,735.8123 197.1556,744.7423" fill="none" id="USERS-to-TIC" style="stroke:#181818;stroke-width:1;"/><polygon fill="#181818" points="193.73,749.6683,202.1524,744.563,196.5846,745.5633,195.5844,739.9956,193.73,749.6683" style="stroke:#181818;stroke-width:1;"/><text fill="#000000" font-family="sans-serif" font-size="11" lengthAdjust="spacing" textLength="17.3916" x="199.56" y="456.383">1:1</text></g><!--link USERS to STR--><g class="link" data-entity-1="ent0003" data-entity-2="ent0011" data-link-type="dependency" data-source-line="60" id="lnk26"><path d="M101.44,114.1983 C144.25,116.1383 211.74,126.0283 251,166.3983 C359.07,277.5383 241.74,380.6083 334,505.1783 C384.69,573.6183 474.5173,612.4949 526.1073,630.5649" fill="none" id="USERS-to-STR" style="stroke:#181818;stroke-width:1;"/><polygon fill="#181818" points="531.77,632.5483,524.5982,625.798,527.0511,630.8954,521.9537,633.3483,531.77,632.5483" style="stroke:#181818;stroke-width:1;"/><text fill="#000000" font-family="sans-serif" font-size="11" lengthAdjust="spacing" textLength="17.3916" x="300.18" y="331.943">1:1</text></g><!--link USERS to ACH--><g class="link" data-entity-1="ent0003" data-entity-2="ent0012" data-link-type="dependency" data-source-line="61" id="lnk27"><path d="M101.21,115.2983 C282.24,119.4683 1032.28,139.5783 1124,188.3983 C1194.76,226.0683 1217.62,245.7283 1247,320.3083 C1273.66,387.9983 1434.58,305.9783 1178,505.1783 C1119.91,550.2783 1087.3,521.2183 1014,527.1783 C998.66,528.4283 749.97,526.8883 737,535.1783 C709.36,552.8483 696.8656,583.4429 690.1456,609.1829" fill="none" id="USERS-to-ACH" style="stroke:#181818;stroke-width:1;"/><polygon fill="#181818" points="688.63,614.9883,694.7737,607.2906,689.893,610.1504,687.0332,605.2697,688.63,614.9883" style="stroke:#181818;stroke-width:1;"/><text fill="#000000" font-family="sans-serif" font-size="11" lengthAdjust="spacing" textLength="18.5625" x="1256.28" y="331.943">1:N</text></g><!--link USERS to NOTI--><g class="link" data-entity-1="ent0003" data-entity-2="ent0017" data-link-type="dependency" data-source-line="62" id="lnk28"><path d="M101.24,116.9783 C188.71,123.4083 395.96,143.1183 447,188.3983 C523.28,256.0783 539.2406,383.2751 542.6706,428.9451" fill="none" id="USERS-to-NOTI" style="stroke:#181818;stroke-width:1;"/><polygon fill="#181818" points="543.12,434.9283,546.4347,425.654,542.7455,429.9423,538.4572,426.2531,543.12,434.9283" style="stroke:#181818;stroke-width:1;"/><text fill="#000000" font-family="sans-serif" font-size="11" lengthAdjust="spacing" textLength="18.5625" x="519.87" y="269.993">1:N</text></g><!--link RES to INT--><g class="link" data-entity-1="ent0006" data-entity-2="ent0009" data-link-type="dependency" data-source-line="64" id="lnk29"><path d="M948.68,288.5983 C972.25,322.0283 1013.3427,380.3145 1039.3227,417.1645" fill="none" id="RES-to-INT" style="stroke:#181818;stroke-width:1;"/><polygon fill="#181818" points="1042.78,422.0683,1040.8633,412.4077,1039.8989,417.9818,1034.3249,417.0174,1042.78,422.0683" style="stroke:#181818;stroke-width:1;"/><text fill="#000000" font-family="sans-serif" font-size="11" lengthAdjust="spacing" textLength="51.0555" x="979.76" y="331.943">&#47732;&#51217;&#50640; &#49324;&#50857;</text></g><!--link JD to INT--><g class="link" data-entity-1="ent0007" data-entity-2="ent0009" data-link-type="dependency" data-source-line="65" id="lnk30"><path d="M1108.29,275.3083 C1134.65,282.6883 1164.01,296.0783 1180,320.3083 C1205.21,358.5283 1165.4644,393.7672 1124.2044,418.8972" fill="none" id="JD-to-INT" style="stroke:#181818;stroke-width:1;"/><polygon fill="#181818" points="1119.08,422.0183,1128.8472,420.7529,1123.3503,419.4174,1124.6858,413.9205,1119.08,422.0183" style="stroke:#181818;stroke-width:1;"/><text fill="#000000" font-family="sans-serif" font-size="11" lengthAdjust="spacing" textLength="51.0555" x="1186.61" y="331.943">&#47732;&#51217;&#50640; &#49324;&#50857;</text></g><!--link SUB to TIC--><g class="link" data-entity-1="ent0014" data-entity-2="ent0015" data-link-type="dependency" data-source-line="67" id="lnk31"><path d="M112.82,674.1983 C107.37,688.3283 103.91,705.4383 110,720.0383 C114.61,731.0883 118.1999,736.8532 126.6599,745.3632" fill="none" id="SUB-to-TIC" style="stroke:#181818;stroke-width:1;"/><polygon fill="#181818" points="130.89,749.6183,127.3816,740.4155,127.3649,746.0723,121.7081,746.0557,130.89,749.6183" style="stroke:#181818;stroke-width:1;"/><text fill="#000000" font-family="sans-serif" font-size="11" lengthAdjust="spacing" textLength="93.7157" x="111" y="717.673">&#51221;&#52293; &#51221;&#51032; (&#54000;&#53011; &#48708;&#50857;)</text></g><!--link TIC to INT--><g class="link" data-entity-1="ent0015" data-entity-2="ent0009" data-link-type="dependency" data-source-line="68" id="lnk32"><path d="M208.22,775.5983 C321.45,766.8783 647.01,738.8383 745,698.0383 C875.76,643.6083 913.04,626.5083 1014,527.1783 C1027.57,513.8283 1036.3835,501.309 1045.0235,486.519" fill="none" id="TIC-to-INT" style="stroke:#181818;stroke-width:1;"/><polygon fill="#181818" points="1048.05,481.3383,1040.0564,487.0918,1045.5279,485.6556,1046.9641,491.1271,1048.05,481.3383" style="stroke:#181818;stroke-width:1;"/><text fill="#000000" font-family="sans-serif" font-size="11" lengthAdjust="spacing" textLength="77.0464" x="1005.11" y="649.243">&#47732;&#51217; &#49884;&#51089; &#49884; &#52264;&#44048;</text></g><!--link INT to STR--><g class="link" data-entity-1="ent0009" data-entity-2="ent0011" data-link-type="dependency" data-source-line="69" id="lnk33"><path d="M963.23,479.0983 C895.2,495.8983 802.79,516.4583 720,527.1783 C697.67,530.0683 637.57,522.4383 619,535.1783 C592.32,553.4883 580.3535,583.562 573.9035,609.022" fill="none" id="INT-to-STR" style="stroke:#181818;stroke-width:1;"/><polygon fill="#181818" points="572.43,614.8383,578.5177,607.0962,573.6579,609.9914,570.7627,605.1316,572.43,614.8383" style="stroke:#181818;stroke-width:1;"/><text fill="#000000" font-family="sans-serif" font-size="11" lengthAdjust="spacing" textLength="77.0464" x="806.51" y="524.813">&#51333;&#47308; &#49884; &#52280;&#50668; &#44592;&#47197;</text></g><!--link INT to ACH--><g class="link" data-entity-1="ent0009" data-entity-2="ent0012" data-link-type="dependency" data-source-line="70" id="lnk34"><path d="M1005.7,481.5283 C930.33,519.3783 804.6916,582.4852 735.0316,617.4752" fill="none" id="INT-to-ACH" style="stroke:#181818;stroke-width:1;"/><polygon fill="#181818" points="729.67,620.1683,739.5079,619.703,734.138,617.924,735.917,612.5542,729.67,620.1683" style="stroke:#181818;stroke-width:1;"/><text fill="#000000" font-family="sans-serif" font-size="11" lengthAdjust="spacing" textLength="64.0509" x="941.09" y="524.813">&#54943;&#49688; &#45572;&#51201; &#54217;&#44032;</text></g><!--link STR to TIC--><g class="link" data-entity-1="ent0011" data-entity-2="ent0015" data-link-type="dependency" data-source-line="71" id="lnk35"><path d="M531.68,657.3983 C457.48,682.1683 291.5813,737.5585 214.0213,763.4485" fill="none" id="STR-to-TIC" style="stroke:#181818;stroke-width:1;"/><polygon fill="#181818" points="208.33,765.3483,218.1335,766.2928,213.0727,763.7651,215.6004,758.7044,208.33,765.3483" style="stroke:#181818;stroke-width:1;"/><text fill="#000000" font-family="sans-serif" font-size="11" lengthAdjust="spacing" textLength="41.5405" x="380.93" y="717.673">&#48372;&#49345; &#48156;&#44553;</text></g><!--link ACH to TIC--><g class="link" data-entity-1="ent0012" data-entity-2="ent0015" data-link-type="dependency" data-source-line="72" id="lnk36"><path d="M654.76,674.4283 C644.59,683.2883 632.52,692.2183 620,698.0383 C478.65,763.7783 295.3679,775.8512 214.4179,777.9712" fill="none" id="ACH-to-TIC" style="stroke:#181818;stroke-width:1;"/><polygon fill="#181818" points="208.42,778.1283,217.5216,781.8913,213.4183,777.9974,217.3122,773.894,208.42,778.1283" style="stroke:#181818;stroke-width:1;"/><text fill="#000000" font-family="sans-serif" font-size="11" lengthAdjust="spacing" textLength="41.5405" x="598.48" y="717.673">&#48372;&#49345; &#48156;&#44553;</text></g><!--link INT to LLM--><g class="link" data-entity-1="ent0009" data-entity-2="ent0020" data-link-type="dependency" data-source-line="74" id="lnk37"><path d="M963.35,451.7483 C916.87,451.7483 869.78,451.7483 832.73,451.7483" fill="none" id="INT-to-LLM" style="stroke:#181818;stroke-width:1;"/><polygon fill="#181818" points="826.73,451.7483,835.73,455.7483,831.73,451.7483,835.73,447.7483,826.73,451.7483" style="stroke:#181818;stroke-width:1;"/><text fill="#000000" font-family="sans-serif" font-size="11" lengthAdjust="spacing" textLength="101.7319" x="844.48" y="446.383">LLM &#54840;&#52636; &#49884; &#53664;&#53360; &#44592;&#47197;</text></g><!--link RES to LLM--><g class="link" data-entity-1="ent0006" data-entity-2="ent0020" data-link-type="dependency" data-source-line="75" id="lnk38"><path d="M912.17,288.6483 C903.34,298.2583 893.02,309.7183 884,320.3083 C852.27,357.5783 820.7752,397.7379 800.5452,423.9579" fill="none" id="RES-to-LLM" style="stroke:#181818;stroke-width:1;"/><polygon fill="#181818" points="796.88,428.7083,805.5447,424.0261,799.9343,424.7496,799.2108,419.1392,796.88,428.7083" style="stroke:#181818;stroke-width:1;"/><text fill="#000000" font-family="sans-serif" font-size="11" lengthAdjust="spacing" textLength="77.0464" x="885" y="331.943">&#48516;&#49437; &#49884; &#53664;&#53360; &#44592;&#47197;</text></g><!--link JD to LLM--><g class="link" data-entity-1="ent0007" data-entity-2="ent0020" data-link-type="dependency" data-source-line="76" id="lnk39"><path d="M1055.74,288.6683 C1055.6,303.8283 1052.6,323.0983 1040,334.3083 C1024.67,347.9583 967.41,335.6683 948,342.3083 C892.33,361.3783 841.3573,398.9088 810.1373,424.6788" fill="none" id="JD-to-LLM" style="stroke:#181818;stroke-width:1;"/><polygon fill="#181818" points="805.51,428.4983,814.9972,425.8539,809.366,425.3154,809.9046,419.6842,805.51,428.4983" style="stroke:#181818;stroke-width:1;"/><text fill="#000000" font-family="sans-serif" font-size="11" lengthAdjust="spacing" textLength="77.0464" x="1050.56" y="331.943">&#52628;&#52636; &#49884; &#53664;&#53360; &#44592;&#47197;</text></g><!--link INT to NOTI--><g class="link" data-entity-1="ent0009" data-entity-2="ent0017" data-link-type="dependency" data-source-line="77" id="lnk40"><path d="M1014.25,421.9283 C970.84,397.2383 904.68,364.0783 842,350.3883 C738.66,327.8183 695.89,297.9983 604,350.3883 C572.02,368.6183 557.0641,405.5683 549.9841,429.3183" fill="none" id="INT-to-NOTI" style="stroke:#181818;stroke-width:1;"/><polygon fill="#181818" points="548.27,435.0683,554.6744,427.5861,549.6984,430.2767,547.0078,425.3006,548.27,435.0683" style="stroke:#181818;stroke-width:1;"/><text fill="#000000" font-family="sans-serif" font-size="11" lengthAdjust="spacing" textLength="64.0509" x="783" y="331.943">&#48516;&#49437; &#50756;&#47308; &#50508;&#47548;</text></g><!--link DASH to INT--><g class="link" data-entity-1="ent0019" data-entity-2="ent0009" data-link-type="dependency" data-source-line="79" id="lnk41"><path d="M663.64,435.1083 C669.81,411.4183 684.83,368.7683 716,350.3883 C764.23,321.9283 787.29,338.4383 842,350.3883 C904.68,364.0783 965.6246,394.2719 1009.0346,418.9619" fill="none" id="DASH-to-INT" style="stroke:#181818;stroke-width:1;stroke-dasharray:7,7;"/><polygon fill="#181818" points="1014.25,421.9283,1008.4044,414.0018,1009.9038,419.4563,1004.4493,420.9557,1014.25,421.9283" style="stroke:#181818;stroke-width:1;"/><text fill="#000000" font-family="sans-serif" font-size="11" lengthAdjust="spacing" textLength="41.5405" x="734.5" y="331.943">&#53685;&#44228; &#51665;&#44228;</text></g><!--link DASH to STR--><g class="link" data-entity-1="ent0019" data-entity-2="ent0011" data-link-type="dependency" data-source-line="80" id="lnk42"><path d="M646.6,468.6183 C637.15,480.3683 624.68,497.0683 616,513.1783 C598.04,546.4983 585.5109,582.0987 577.0909,609.1887" fill="none" id="DASH-to-STR" style="stroke:#181818;stroke-width:1;stroke-dasharray:7,7;"/><polygon fill="#181818" points="575.31,614.9183,581.801,607.5111,576.794,610.1436,574.1615,605.1366,575.31,614.9183" style="stroke:#181818;stroke-width:1;"/><text fill="#000000" font-family="sans-serif" font-size="11" lengthAdjust="spacing" textLength="41.5405" x="617" y="524.813">&#53685;&#44228; &#51665;&#44228;</text></g><!--link DASH to ACH--><g class="link" data-entity-1="ent0019" data-entity-2="ent0012" data-link-type="dependency" data-source-line="81" id="lnk43"><path d="M661.92,468.6883 C665.8,500.8583 673.8815,567.9515 678.8015,608.7415" fill="none" id="DASH-to-ACH" style="stroke:#181818;stroke-width:1;stroke-dasharray:7,7;"/><polygon fill="#181818" points="679.52,614.6983,682.4135,605.284,678.9213,609.7343,674.471,606.242,679.52,614.6983" style="stroke:#181818;stroke-width:1;"/><text fill="#000000" font-family="sans-serif" font-size="11" lengthAdjust="spacing" textLength="41.5405" x="669.76" y="524.813">&#53685;&#44228; &#51665;&#44228;</text></g><!--link USERS to TRM--><g class="link" data-entity-1="ent0003" data-entity-2="ent0018" data-link-type="dependency" data-source-line="83" id="lnk44"><path d="M101.44,117.3783 C166.18,122.9683 291.01,137.2883 323,166.3983 C403.78,239.9283 409.1308,380.6787 408.5608,428.9487" fill="none" id="USERS-to-TRM" style="stroke:#181818;stroke-width:1;stroke-dasharray:7,7;"/><polygon fill="#181818" points="408.49,434.9483,412.596,425.9961,408.549,429.9486,404.5965,425.9017,408.49,434.9483" style="stroke:#181818;stroke-width:1;"/><text fill="#000000" font-family="sans-serif" font-size="11" lengthAdjust="spacing" textLength="41.5405" x="397.01" y="269.993">&#50557;&#44288; &#46041;&#51032;</text></g><g class="footer" data-source-line="85"><text fill="#888888" font-family="sans-serif" font-size="10" lengthAdjust="spacing" textLength="244.1443" x="591.7178" y="839.5763">MeFit - 13 &#46020;&#47700;&#51064; &#50545; &#51032;&#51316; &#44288;&#44228; (interviews &#44032; &#51473;&#49900; &#54728;&#48652;)</text></g><?plantuml-src VLPjJzjM5FxkNt6KVO4FP0sXAA0AgNcnIbLebOHlav2JNAYNn3UwTbgrrIJOd0e64g0I4Qg4XdPhXuIqC4AKIVGFnTV_OVVwEebjo4I4atFEyvp7vyM-XcgK45X_z-tw0Sp00jZr6xft2TQ1QLqSqrOVQAj1pximw6uDhar9qekgLb68KeQSaYzk4bpL2WbSmWH-a5FypnDHG1jAjMJ8M3Cowbi4aOZ7cSVb2jOGSnblc0I2yeQYRPQG9wJ2CYYRQ7B0Y0FUIG3neA1KJ9wJazo3IG4HrpeRMPYNez8lz_4yUfJ712qjtSydo_92OYx89ySJ3sQJa_W8UgsGmYJ6H2mrdrW8CaPZiLGqCOanfvPAghOvKMGi7ay-258cPYEnXt56ARb5XL0ap7hRfrzRy2FOnwPrthJhPiWX7TSrLDKHqN_IfaQXWyuMFQjDXq3HOIsJIcVyyHM2DzGISY3VjgtBBeVyyzrg_oaWBzBFPP-CMIRZxD3wiW_MXolhl7L70K5wjIm8Mrt6Gysce4gd0hb_nhdr0jBpHAqOAjOSo9L9FruChcy6rss1UfhqfO-6mRheqlQHE_aXyCs0XrtL34HUgUYrmslsQQt1xYrR9Hgxf1435LXRdEyLJ0oHRNarEoBqvPqBiuIdzFSRiAwxzBTjdjStAvxCka6GKXGLk6KVe9q-FRaK6JBPj0Vg1ohvbofwXShiXuC-gT7sje0zJZpnmhpI7ePPnpgqtUIjw-tRzIONvnyxhxfgpbTocI34a2y8TWMknRrmFzXGyqKan9qTMvzs6L1qMM2pomaVrYjpddMkjyN6ySx4QDXGDzIyuYXoU5QVPvS3YH4fw-i5dAywrH7PqYl-e8AYlynXLY77dNoSUUBtbqhbTOCmGM97ihY8j3MTgHFgdprRuOgTBO6PcILd-64H8eiHZv6DiMDRzTYU9k-OU1c3DbwU81sVXw2DDpk8vILnZHANm6ryMXVTVQ0dXq1_lMJR8p4r_-ELkBAn6jgkqwkQSsarOChUwz3R3s3zo_TmMk8nGIwWUqrwvbpOPFyrw1nAt3s-6VgvnfyFmiyd7mRz3djKZCB4_TaVFz6T1bWx9fjoi0zssMn8d64iJkmQM9tceByhSTWatuYRDP4v-N-xqQUzfYF3Vj-sjpj36SFoYL2hPrApTK-OMqOHHNl7zvCDyxhz6RATcau9wllMrrj9ugC8uV2mZlPxzdmpWNuxuk_eaLDKRuBJhPdFwOu7TxDTu2hhtzcBdvq6Jbap9Ma3OxOti89arM2dXKZKUqweN_dF2Z0rVcBojmRGFuxuqS8-sR7w-zF_0G00?></g></svg>