<?plantuml 1.2026.1?><svg xmlns="http://www.w3.org/2000/svg" xmlns:xlink="http://www.w3.org/1999/xlink" contentStyleType="text/css" data-diagram-type="DESCRIPTION" height="728px" preserveAspectRatio="none" style="width:2168px;height:728px;background:#FEFEFE;" version="1.1" viewBox="0 0 2168 728" width="2168px" zoomAndPan="magnify"><title>&#48120;&#54607; - 12 &#47560;&#51060;&#53356;&#47196;&#49436;&#48708;&#49828; &#47784;&#46280; &#53685;&#49888; &#44396;&#51312;</title><defs/><g><rect fill="#FEFEFE" height="728" style="stroke:none;stroke-width:1;" width="2168" x="0" y="0"/><g class="title" data-source-line="1"><text fill="#000000" font-family="sans-serif" font-size="14" font-weight="bold" lengthAdjust="spacing" textLength="236.7477" x="958.8512" y="23.5352">&#48120;&#54607; - 12 &#47560;&#51060;&#53356;&#47196;&#49436;&#48708;&#49828; &#47784;&#46280; &#53685;&#49888; &#44396;&#51312;</text></g><!--cluster ??? ??--><g class="cluster" data-qualified-name="... .." data-source-line="26" id="ent0003"><rect fill="none" height="120.87" rx="2.5" ry="2.5" style="stroke:#181818;stroke-width:1;" width="164" x="1851" y="216.3983"/><text fill="#000000" font-family="sans-serif" font-size="11" font-weight="bold" lengthAdjust="spacing" textLength="51.2005" x="1907.3998" y="229.033">&#49324;&#50857;&#51088; &#51217;&#51216;</text></g><!--cluster API / ????--><g class="cluster" data-qualified-name="API . ...." data-source-line="30" id="ent0005"><rect fill="none" height="107.91" rx="2.5" ry="2.5" style="stroke:#181818;stroke-width:1;" width="196" x="1348" y="383.2683"/><text fill="#000000" font-family="sans-serif" font-size="11" font-weight="bold" lengthAdjust="spacing" textLength="70.0234" x="1410.9883" y="395.903">API / &#48708;&#51592;&#45768;&#49828;</text></g><!--cluster ??? / ??? / ????--><g class="cluster" data-qualified-name="... . ... . ...." data-source-line="34" id="ent0007"><rect fill="none" height="142.82" rx="2.5" ry="2.5" style="stroke:#181818;stroke-width:1;" width="515" x="803" y="561.0883"/><text fill="#000000" font-family="sans-serif" font-size="11" font-weight="bold" lengthAdjust="spacing" textLength="122.0914" x="999.4543" y="573.723">&#45936;&#51060;&#53552; / &#48652;&#47196;&#52964; / &#49828;&#53664;&#47532;&#51648;</text></g><!--cluster ???? Celery Worker (k3s Pod)--><g class="cluster" data-qualified-name=".... Celery Worker .k3s Pod." data-source-line="40" id="ent0011"><rect fill="none" height="107.91" rx="2.5" ry="2.5" style="stroke:#181818;stroke-width:1;" width="733" x="295" y="383.2683"/><text fill="#000000" font-family="sans-serif" font-size="11" font-weight="bold" lengthAdjust="spacing" textLength="178.3046" x="572.3477" y="395.903">&#46020;&#47700;&#51064;&#48324; Celery Worker (k3s Pod)</text></g><!--cluster ?? / TTS--><g class="cluster" data-qualified-name=".. . TTS" data-source-line="47" id="ent0016"><rect fill="none" height="107.91" rx="2.5" ry="2.5" style="stroke:#181818;stroke-width:1;" width="150" x="1767" y="578.5383"/><text fill="#000000" font-family="sans-serif" font-size="11" font-weight="bold" lengthAdjust="spacing" textLength="53.9636" x="1815.0182" y="591.173">&#51020;&#49457; / TTS</text></g><!--cluster AWS Event Pipeline--><g class="cluster" data-qualified-name="AWS Event Pipeline" data-source-line="51" id="ent0018"><rect fill="none" height="654.92" rx="2.5" ry="2.5" style="stroke:#181818;stroke-width:1;" width="256" x="7" y="44.4883"/><text fill="#000000" font-family="sans-serif" font-size="11" font-weight="bold" lengthAdjust="spacing" textLength="107.7173" x="81.1414" y="57.123">AWS Event Pipeline</text></g><!--cluster ?? ??--><g class="cluster" data-qualified-name=".. .." data-source-line="58" id="ent0023"><rect fill="none" height="107.91" rx="2.5" ry="2.5" style="stroke:#181818;stroke-width:1;" width="418" x="1112" y="222.8783"/><text fill="#000000" font-family="sans-serif" font-size="11" font-weight="bold" lengthAdjust="spacing" textLength="41.6855" x="1300.1573" y="235.513">&#50868;&#50689; &#46020;&#44396;</text></g><!--entity FE--><g class="entity" data-qualified-name="... ...FE" data-source-line="27" id="ent0004"><rect fill="#F3E5F5" height="58.8652" rx="2.5" ry="2.5" style="stroke:#8E24AA;stroke-width:0.5;" width="132.4331" x="1866.78" y="262.3983"/><text fill="#000000" font-family="sans-serif" font-size="11" font-style="italic" lengthAdjust="spacing" textLength="57.6479" x="1904.1726" y="283.033">&#171;frontend&#187;</text><text fill="#000000" font-family="sans-serif" font-size="11" lengthAdjust="spacing" textLength="46.1216" x="1876.78" y="295.9881">frontend</text><text fill="#000000" font-family="sans-serif" font-size="11" lengthAdjust="spacing" textLength="112.4331" x="1876.78" y="308.9432">React 19 / Vite / FSD</text></g><!--entity BE--><g class="entity" data-qualified-name="API . .....BE" data-source-line="31" id="ent0006"><rect fill="#E8F4FD" height="45.9102" rx="2.5" ry="2.5" style="stroke:#2196F3;stroke-width:0.5;" width="164.1709" x="1363.91" y="429.2683"/><text fill="#000000" font-family="sans-serif" font-size="11" lengthAdjust="spacing" textLength="44.9399" x="1373.91" y="449.903">backend</text><text fill="#000000" font-family="sans-serif" font-size="11" lengthAdjust="spacing" textLength="144.1709" x="1373.91" y="462.8581">Django 6 / DRF / Channels</text></g><!--entity DB--><g class="entity" data-qualified-name="... . ... . .....DB" data-source-line="35" id="ent0008"><path d="M1006.81,623.5683 C1006.81,613.5683 1047.0009,613.5683 1047.0009,613.5683 C1047.0009,613.5683 1087.1918,613.5683 1087.1918,623.5683 L1087.1918,671.4335 C1087.1918,681.4335 1047.0009,681.4335 1047.0009,681.4335 C1047.0009,681.4335 1006.81,681.4335 1006.81,671.4335 L1006.81,623.5683" fill="#F1F1F1" style="stroke:#181818;stroke-width:0.5;"/><path d="M1006.81,623.5683 C1006.81,633.5683 1047.0009,633.5683 1047.0009,633.5683 C1047.0009,633.5683 1087.1918,633.5683 1087.1918,623.5683" fill="none" style="stroke:#181818;stroke-width:0.5;"/><text fill="#000000" font-family="sans-serif" font-size="11" font-style="italic" lengthAdjust="spacing" textLength="51.5679" x="1021.217" y="648.203">&#171;storage&#187;</text><text fill="#000000" font-family="sans-serif" font-size="11" lengthAdjust="spacing" textLength="60.3818" x="1016.81" y="661.1581">PostgreSQL</text><text fill="#000000" font-family="sans-serif" font-size="11" lengthAdjust="spacing" textLength="28.2734" x="1016.81" y="674.1132">(RDS)</text></g><!--entity Redis--><g class="entity" data-qualified-name="... . ... . .....Redis" data-source-line="36" id="ent0009"><path d="M823.61,623.0683 L966.3834,623.0683 C971.3834,623.0683 971.3834,647.5009 971.3834,647.5009 C971.3834,647.5009 971.3834,671.9335 966.3834,671.9335 L823.61,671.9335 C818.61,671.9335 818.61,647.5009 818.61,647.5009 C818.61,647.5009 818.61,623.0683 823.61,623.0683" fill="#F1F1F1" style="stroke:#181818;stroke-width:0.5;"/><path d="M966.3834,623.0683 C961.3834,623.0683 961.3834,647.5009 961.3834,647.5009 C961.3834,671.9335 966.3834,671.9335 966.3834,671.9335" fill="none" style="stroke:#181818;stroke-width:0.5;"/><text fill="#000000" font-family="sans-serif" font-size="11" font-style="italic" lengthAdjust="spacing" textLength="51.5679" x="864.2128" y="638.703">&#171;storage&#187;</text><text fill="#000000" font-family="sans-serif" font-size="11" lengthAdjust="spacing" textLength="28.7944" x="823.61" y="651.6581">Redis</text><text fill="#000000" font-family="sans-serif" font-size="11" lengthAdjust="spacing" textLength="132.7734" x="823.61" y="664.6132">(Broker + Channel Layer)</text></g><!--entity S3--><g class="entity" data-qualified-name="... . ... . .....S3" data-source-line="37" id="ent0010"><path d="M1122.32,617.0883 C1122.32,607.0883 1212.0002,607.0883 1212.0002,607.0883 C1212.0002,607.0883 1301.6804,607.0883 1301.6804,617.0883 L1301.6804,677.9086 C1301.6804,687.9086 1212.0002,687.9086 1212.0002,687.9086 C1212.0002,687.9086 1122.32,687.9086 1122.32,677.9086 L1122.32,617.0883" fill="#F1F1F1" style="stroke:#181818;stroke-width:0.5;"/><path d="M1122.32,617.0883 C1122.32,627.0883 1212.0002,627.0883 1212.0002,627.0883 C1212.0002,627.0883 1301.6804,627.0883 1301.6804,617.0883" fill="none" style="stroke:#181818;stroke-width:0.5;"/><text fill="#000000" font-family="sans-serif" font-size="11" font-style="italic" lengthAdjust="spacing" textLength="51.5679" x="1186.2162" y="641.723">&#171;storage&#187;</text><text fill="#000000" font-family="sans-serif" font-size="11" lengthAdjust="spacing" textLength="75.6143" x="1132.32" y="654.6781">S3 (5 buckets)</text><text fill="#000000" font-family="sans-serif" font-size="11" lengthAdjust="spacing" textLength="159.3604" x="1132.32" y="667.6332">video / scaled-video / frames</text><text fill="#000000" font-family="sans-serif" font-size="11" lengthAdjust="spacing" textLength="112.1646" x="1132.32" y="680.5883">audio / scaled-audio</text></g><!--entity ARES--><g class="entity" data-qualified-name=".... Celery Worker .k3s Pod..ARES" data-source-line="41" id="ent0012"><rect fill="#E8F4FD" height="45.9102" rx="2.5" ry="2.5" style="stroke:#2196F3;stroke-width:0.5;" width="124.5054" x="688.75" y="429.2683"/><text fill="#000000" font-family="sans-serif" font-size="11" lengthAdjust="spacing" textLength="88.1235" x="698.75" y="449.903">analysis-resume</text><text fill="#000000" font-family="sans-serif" font-size="11" lengthAdjust="spacing" textLength="104.5054" x="698.75" y="462.8581">Worker (LangChain)</text></g><!--entity IAR--><g class="entity" data-qualified-name=".... Celery Worker .k3s Pod..IAR" data-source-line="42" id="ent0013"><rect fill="#E8F4FD" height="45.9102" rx="2.5" ry="2.5" style="stroke:#2196F3;stroke-width:0.5;" width="164.2461" x="847.88" y="429.2683"/><text fill="#000000" font-family="sans-serif" font-size="11" lengthAdjust="spacing" textLength="136.1787" x="857.88" y="449.903">interview-analysis-report</text><text fill="#000000" font-family="sans-serif" font-size="11" lengthAdjust="spacing" textLength="144.2461" x="857.88" y="462.8581">Worker (LLM + Hypothesis)</text></g><!--entity SCR--><g class="entity" data-qualified-name=".... Celery Worker .k3s Pod..SCR" data-source-line="43" id="ent0014"><rect fill="#E8F4FD" height="45.9102" rx="2.5" ry="2.5" style="stroke:#2196F3;stroke-width:0.5;" width="160.3091" x="310.85" y="429.2683"/><text fill="#000000" font-family="sans-serif" font-size="11" lengthAdjust="spacing" textLength="45.606" x="320.85" y="449.903">scraping</text><text fill="#000000" font-family="sans-serif" font-size="11" lengthAdjust="spacing" textLength="140.3091" x="320.85" y="462.8581">Worker (Playwright + LLM)</text></g><!--entity STT--><g class="entity" data-qualified-name=".... Celery Worker .k3s Pod..STT" data-source-line="44" id="ent0015"><rect fill="#E8F4FD" height="45.9102" rx="2.5" ry="2.5" style="stroke:#2196F3;stroke-width:0.5;" width="146.8384" x="506.58" y="429.2683"/><text fill="#000000" font-family="sans-serif" font-size="11" lengthAdjust="spacing" textLength="62.498" x="516.58" y="449.903">analysis-stt</text><text fill="#000000" font-family="sans-serif" font-size="11" lengthAdjust="spacing" textLength="126.8384" x="516.58" y="462.8581">Worker (faster-whisper)</text></g><!--entity VA--><g class="entity" data-qualified-name=".. . TTS.VA" data-source-line="48" id="ent0017"><rect fill="#E8F4FD" height="45.9102" rx="2.5" ry="2.5" style="stroke:#2196F3;stroke-width:0.5;" width="117.5015" x="1783.25" y="624.5383"/><text fill="#000000" font-family="sans-serif" font-size="11" lengthAdjust="spacing" textLength="49.9351" x="1793.25" y="645.173">voice-api</text><text fill="#000000" font-family="sans-serif" font-size="11" lengthAdjust="spacing" textLength="97.5015" x="1793.25" y="658.1281">FastAPI / edge-tts</text></g><!--entity SNS--><g class="entity" data-qualified-name="AWS Event Pipeline.SNS" data-source-line="52" id="ent0019"><rect fill="#FFF3E0" height="58.8652" rx="2.5" ry="2.5" style="stroke:#FB8C00;stroke-width:0.5;" width="104.7827" x="138.61" y="90.4883"/><text fill="#000000" font-family="sans-serif" font-size="11" font-style="italic" lengthAdjust="spacing" textLength="31.6841" x="175.1593" y="111.123">&#171;aws&#187;</text><text fill="#000000" font-family="sans-serif" font-size="11" lengthAdjust="spacing" textLength="19.9751" x="148.61" y="124.0781">SNS</text><text fill="#000000" font-family="sans-serif" font-size="11" lengthAdjust="spacing" textLength="84.7827" x="148.61" y="137.0332">video-uploaded</text></g><!--entity SQS--><g class="entity" data-qualified-name="AWS Event Pipeline.SQS" data-source-line="53" id="ent0020"><rect fill="#FFF3E0" height="45.9102" rx="2.5" ry="2.5" style="stroke:#FB8C00;stroke-width:0.5;" width="125.0908" x="111.45" y="268.8783"/><text fill="#000000" font-family="sans-serif" font-size="11" font-style="italic" lengthAdjust="spacing" textLength="31.6841" x="158.1534" y="289.513">&#171;aws&#187;</text><text fill="#000000" font-family="sans-serif" font-size="11" lengthAdjust="spacing" textLength="105.0908" x="121.45" y="302.4681">SQS Fan-out + DLQ</text></g><!--entity LAM--><g class="entity" data-qualified-name="AWS Event Pipeline.LAM" data-source-line="54" id="ent0021"><rect fill="#FFF3E0" height="97.7305" rx="2.5" ry="2.5" style="stroke:#FB8C00;stroke-width:0.5;" width="105.9536" x="127.02" y="403.3583"/><text fill="#000000" font-family="sans-serif" font-size="11" font-style="italic" lengthAdjust="spacing" textLength="31.6841" x="164.1548" y="423.993">&#171;aws&#187;</text><text fill="#000000" font-family="sans-serif" font-size="11" lengthAdjust="spacing" textLength="42.1309" x="137.02" y="436.9481">Lambda</text><text fill="#000000" font-family="sans-serif" font-size="11" lengthAdjust="spacing" textLength="85.3306" x="137.02" y="449.9032">video-converter</text><text fill="#000000" font-family="sans-serif" font-size="11" lengthAdjust="spacing" textLength="85.9536" x="137.02" y="462.8583">frame-extractor</text><text fill="#000000" font-family="sans-serif" font-size="11" lengthAdjust="spacing" textLength="84.6968" x="137.02" y="475.8134">audio-extractor</text><text fill="#000000" font-family="sans-serif" font-size="11" lengthAdjust="spacing" textLength="78.5952" x="137.02" y="488.7684">voice-analyzer</text></g><!--entity FA--><g class="entity" data-qualified-name="AWS Event Pipeline.FA" data-source-line="55" id="ent0022"><rect fill="#FFF3E0" height="71.8203" rx="2.5" ry="2.5" style="stroke:#FB8C00;stroke-width:0.5;" width="93.0845" x="50.46" y="611.5883"/><text fill="#000000" font-family="sans-serif" font-size="11" font-style="italic" lengthAdjust="spacing" textLength="31.6841" x="81.1602" y="632.223">&#171;aws&#187;</text><text fill="#000000" font-family="sans-serif" font-size="11" lengthAdjust="spacing" textLength="42.1309" x="60.46" y="645.1781">Lambda</text><text fill="#000000" font-family="sans-serif" font-size="11" lengthAdjust="spacing" textLength="73.0845" x="60.46" y="658.1332">face-analyzer</text><text fill="#000000" font-family="sans-serif" font-size="11" lengthAdjust="spacing" textLength="61.2466" x="60.46" y="671.0883">(MediaPipe)</text></g><!--entity INFRA--><g class="entity" data-qualified-name=".. ...INFRA" data-source-line="59" id="ent0024"><rect fill="#E8F4FD" height="45.9102" rx="2.5" ry="2.5" style="stroke:#2196F3;stroke-width:0.5;" width="92.0103" x="1127.99" y="268.8783"/><text fill="#000000" font-family="sans-serif" font-size="11" lengthAdjust="spacing" textLength="30.395" x="1137.99" y="289.513">infra/</text><text fill="#000000" font-family="sans-serif" font-size="11" lengthAdjust="spacing" textLength="72.0103" x="1137.99" y="302.4681">k3s + Traefik</text></g><!--entity TOOLS--><g class="entity" data-qualified-name=".. ...TOOLS" data-source-line="60" id="ent0025"><rect fill="#E8F4FD" height="45.9102" rx="2.5" ry="2.5" style="stroke:#2196F3;stroke-width:0.5;" width="89.7061" x="1255.15" y="268.8783"/><text fill="#000000" font-family="sans-serif" font-size="11" lengthAdjust="spacing" textLength="60.5161" x="1265.15" y="289.513">mefit-tools</text><text fill="#000000" font-family="sans-serif" font-size="11" lengthAdjust="spacing" textLength="69.7061" x="1265.15" y="302.4681">Streamlit GUI</text></g><!--entity DIAGS--><g class="entity" data-qualified-name=".. ...DIAGS" data-source-line="61" id="ent0026"><rect fill="#E8F4FD" height="45.9102" rx="2.5" ry="2.5" style="stroke:#2196F3;stroke-width:0.5;" width="134.4312" x="1379.78" y="268.8783"/><text fill="#000000" font-family="sans-serif" font-size="11" lengthAdjust="spacing" textLength="83.5903" x="1389.78" y="289.513">mefit-diagrams</text><text fill="#000000" font-family="sans-serif" font-size="11" lengthAdjust="spacing" textLength="114.4312" x="1389.78" y="302.4681">diagrams + PlantUML</text></g><!--entity User--><g class="entity" data-qualified-name="User" data-source-line="24" id="ent0002"><ellipse cx="1933.0025" cy="91.9483" fill="#F1F1F1" rx="8" ry="8" style="stroke:#181818;stroke-width:0.5;"/><path d="M1933.0025,99.9483 L1933.0025,126.9483 M1920.0025,107.9483 L1946.0025,107.9483 M1933.0025,126.9483 L1920.0025,141.9483 M1933.0025,126.9483 L1946.0025,141.9483" fill="none" style="stroke:#181818;stroke-width:0.5;"/><text fill="#000000" font-family="sans-serif" font-size="11" lengthAdjust="spacing" textLength="28.545" x="1918.73" y="154.083">&#49324;&#50857;&#51088;</text></g><!--link User to FE--><g class="link" data-entity-1="ent0002" data-entity-2="ent0004" data-link-type="dependency" data-source-line="64" id="lnk27"><path d="M1933,156.5483 C1933,187.8783 1933,226.9183 1933,256.0283" fill="none" id="User-to-FE" style="stroke:#181818;stroke-width:1;"/><polygon fill="#181818" points="1933,262.0283,1937,253.0283,1933,257.0283,1929,253.0283,1933,262.0283" style="stroke:#181818;stroke-width:1;"/><text fill="#000000" font-family="sans-serif" font-size="11" lengthAdjust="spacing" textLength="33.999" x="1934" y="198.033">HTTPS</text></g><!--link FE to BE--><g class="link" data-entity-1="ent0004" data-entity-2="ent0006" data-link-type="dependency" data-source-line="65" id="lnk28"><path d="M1866.31,314.5283 C1774.09,344.5183 1614.176,396.5331 1520.736,426.9131" fill="none" id="FE-to-BE" style="stroke:#181818;stroke-width:1;"/><polygon fill="#181818" points="1515.03,428.7683,1524.8258,429.7895,1519.785,427.2223,1522.3522,422.1815,1515.03,428.7683" style="stroke:#181818;stroke-width:1;"/><text fill="#000000" font-family="sans-serif" font-size="11" lengthAdjust="spacing" textLength="132.4673" x="1734.12" y="364.903">REST + WebSocket + SSE</text></g><!--link FE to S3--><g class="link" data-entity-1="ent0004" data-entity-2="ent0010" data-link-type="dependency" data-source-line="66" id="lnk29"><path d="M1931.46,321.4083 C1928.12,372.3483 1918.43,475.8483 1894,501.0883 C1852.9,543.5483 1483.6996,604.9118 1307.9796,632.0718" fill="none" id="FE-to-S3" style="stroke:#181818;stroke-width:1;"/><polygon fill="#181818" points="1302.05,632.9883,1311.5554,635.5666,1306.9913,632.2245,1310.3334,627.6605,1302.05,632.9883" style="stroke:#181818;stroke-width:1;"/><text fill="#000000" font-family="sans-serif" font-size="11" lengthAdjust="spacing" textLength="125.0663" x="1927.51" y="456.853">Presigned PUT (&#47680;&#54000;&#54028;&#53944;)</text></g><!--link FE to VA--><g class="link" data-entity-1="ent0004" data-entity-2="ent0017" data-link-type="dependency" data-source-line="67" id="lnk30"><path d="M1999.51,316.6283 C2025.72,329.6583 2053.08,348.6883 2068,375.2683 C2095.36,424.0383 2094.79,451.9983 2068,501.0883 C2032.8,565.5883 1960.9546,603.5747 1906.5746,624.9347" fill="none" id="FE-to-VA" style="stroke:#181818;stroke-width:1;"/><polygon fill="#181818" points="1900.99,627.1283,1910.8293,627.561,1905.6439,625.3003,1907.9046,620.1148,1900.99,627.1283" style="stroke:#181818;stroke-width:1;"/><text fill="#000000" font-family="sans-serif" font-size="11" lengthAdjust="spacing" textLength="71.1401" x="2089.31" y="456.853">HTTPS Bearer</text></g><!--link BE to DB--><g class="link" data-entity-1="ent0006" data-entity-2="ent0008" data-link-type="dependency" data-source-line="69" id="lnk31"><path d="M1445.33,475.5483 C1443.36,497.2083 1436.67,529.0983 1415,545.0883 C1387.27,565.5383 1134.89,535.9583 1105,553.0883 C1082.31,566.0883 1069.6569,586.4106 1060.5969,607.6206" fill="none" id="BE-to-DB" style="stroke:#181818;stroke-width:1;"/><polygon fill="#181818" points="1058.24,613.1383,1065.4538,606.433,1060.2041,608.5402,1058.0969,603.2905,1058.24,613.1383" style="stroke:#181818;stroke-width:1;"/><text fill="#000000" font-family="sans-serif" font-size="11" lengthAdjust="spacing" textLength="24.9756" x="1428.42" y="542.723">ORM</text></g><!--link BE to Redis--><g class="link" data-entity-1="ent0006" data-entity-2="ent0009" data-link-type="dependency" data-source-line="70" id="lnk32"><path d="M1377.87,475.5983 C1302.04,500.1283 1184.11,537.0883 1138,545.0883 C1105.33,550.7583 1019.3,539.6283 989,553.0883 C955.57,567.9383 930.9589,595.5477 914.4189,617.9977" fill="none" id="BE-to-Redis" style="stroke:#181818;stroke-width:1;"/><polygon fill="#181818" points="910.86,622.8283,919.4187,617.9551,913.8258,618.8028,912.978,613.2099,910.86,622.8283" style="stroke:#181818;stroke-width:1;"/><text fill="#000000" font-family="sans-serif" font-size="11" lengthAdjust="spacing" textLength="117.6164" x="1190.9" y="542.723">Celery &#48156;&#54665; / Channels</text></g><!--link BE to S3--><g class="link" data-entity-1="ent0006" data-entity-2="ent0010" data-link-type="dependency" data-source-line="71" id="lnk33"><path d="M1465.65,475.4383 C1480.45,494.9883 1495.85,523.6083 1481,545.0883 C1441.04,602.8583 1369.6111,626.7294 1308.0811,637.4394" fill="none" id="BE-to-S3" style="stroke:#181818;stroke-width:1;"/><polygon fill="#181818" points="1302.17,638.4683,1311.7226,640.8657,1307.0959,637.6109,1310.3508,632.9842,1302.17,638.4683" style="stroke:#181818;stroke-width:1;"/><text fill="#000000" font-family="sans-serif" font-size="11" lengthAdjust="spacing" textLength="123.8735" x="1487.54" y="542.723">boto3 (Instance Profile)</text></g><!--link BE to VA--><g class="link" data-entity-1="ent0006" data-entity-2="ent0017" data-link-type="dependency" data-source-line="72" id="lnk34"><path d="M1498.14,475.5983 C1532.9,490.7583 1579.47,511.5083 1620,531.0883 C1683.75,561.8883 1751.0347,597.4182 1795.3447,621.2282" fill="none" id="BE-to-VA" style="stroke:#181818;stroke-width:1;"/><polygon fill="#181818" points="1800.63,624.0683,1794.5954,616.2847,1796.2256,621.7016,1790.8087,623.3317,1800.63,624.0683" style="stroke:#181818;stroke-width:1;"/><text fill="#000000" font-family="sans-serif" font-size="11" lengthAdjust="spacing" textLength="41.5405" x="1645.37" y="542.723">&#53664;&#53360; &#44160;&#51613;</text></g><!--link Redis to ARES--><g class="link" data-entity-1="ent0009" data-entity-2="ent0012" data-link-type="dependency" data-source-line="74" id="lnk35"><path d="M870.7,622.8083 C851.14,603.0383 823.61,573.5983 803,545.0883 C786.79,522.6583 774.3268,500.078 764.6068,480.938" fill="none" id="Redis-to-ARES" style="stroke:#181818;stroke-width:1;"/><polygon fill="#181818" points="761.89,475.5883,762.3987,485.424,764.154,480.0464,769.5316,481.8016,761.89,475.5883" style="stroke:#181818;stroke-width:1;"/><text fill="#000000" font-family="sans-serif" font-size="11" lengthAdjust="spacing" textLength="101.119" x="804" y="542.723">analysis-resume &#53328;</text></g><!--link ARES to Redis--><g class="link" data-entity-1="ent0012" data-entity-2="ent0009" data-link-type="dependency" data-source-line="79" id="lnk39"><path d="M742.92,475.3783 C737.24,494.8983 732.49,523.4883 744,545.0883 C763.09,580.8983 795.686,603.64 828.776,620.07" fill="none" id="ARES-to-Redis" style="stroke:#181818;stroke-width:1;"/><polygon fill="#181818" points="834.15,622.7383,827.8679,615.1531,829.6717,620.5147,824.3101,622.3185,834.15,622.7383" style="stroke:#181818;stroke-width:1;"/><text fill="#000000" font-family="sans-serif" font-size="11" lengthAdjust="spacing" textLength="41.5405" x="745" y="542.723">&#44208;&#44284; &#53084;&#48177;</text></g><!--link Redis to IAR--><g class="link" data-entity-1="ent0009" data-entity-2="ent0013" data-link-type="dependency" data-source-line="75" id="lnk36"><path d="M899.29,622.7783 C906.12,585.0983 918.2697,517.982 924.9197,481.302" fill="none" id="Redis-to-IAR" style="stroke:#181818;stroke-width:1;"/><polygon fill="#181818" points="925.99,475.3983,920.4487,483.5404,925.0981,480.3181,928.3203,484.9675,925.99,475.3983" style="stroke:#181818;stroke-width:1;"/><text fill="#000000" font-family="sans-serif" font-size="11" lengthAdjust="spacing" textLength="55.2928" x="916.63" y="542.723">analysis &#53328;</text></g><!--link Redis to SCR--><g class="link" data-entity-1="ent0009" data-entity-2="ent0014" data-link-type="dependency" data-source-line="76" id="lnk37"><path d="M818.49,639.4783 C699.48,627.0683 477.64,597.4783 420,545.0883 C400.44,527.3183 394.5714,502.4591 392.4914,481.4591" fill="none" id="Redis-to-SCR" style="stroke:#181818;stroke-width:1;"/><polygon fill="#181818" points="391.9,475.4883,388.8066,484.8387,392.3928,480.4639,396.7676,484.0502,391.9,475.4883" style="stroke:#181818;stroke-width:1;"/><text fill="#000000" font-family="sans-serif" font-size="11" lengthAdjust="spacing" textLength="58.6014" x="421" y="542.723">scraping &#53328;</text></g><!--link SCR to Redis--><g class="link" data-entity-1="ent0014" data-entity-2="ent0009" data-link-type="dependency" data-source-line="82" id="lnk42"><path d="M371.82,475.3983 C356.87,495.4483 341.24,524.8683 358,545.0883 C415.59,614.5783 678.1778,636.4832 812.3278,643.3132" fill="none" id="SCR-to-Redis" style="stroke:#181818;stroke-width:1;"/><polygon fill="#181818" points="818.32,643.6183,809.535,639.1658,813.3265,643.364,809.1283,647.1555,818.32,643.6183" style="stroke:#181818;stroke-width:1;"/><text fill="#000000" font-family="sans-serif" font-size="11" lengthAdjust="spacing" textLength="41.5405" x="359" y="542.723">&#44208;&#44284; &#53084;&#48177;</text></g><!--link Redis to STT--><g class="link" data-entity-1="ent0009" data-entity-2="ent0015" data-link-type="dependency" data-source-line="77" id="lnk38"><path d="M818.27,638.1983 C713.3,625.0883 533.43,595.7283 494,545.0883 C474.4,519.9183 499.9829,496.6617 530.0129,478.6717" fill="none" id="Redis-to-STT" style="stroke:#181818;stroke-width:1;"/><polygon fill="#181818" points="535.16,475.5883,525.3838,476.7821,530.8708,478.1578,529.495,483.6448,535.16,475.5883" style="stroke:#181818;stroke-width:1;"/><text fill="#000000" font-family="sans-serif" font-size="11" lengthAdjust="spacing" textLength="75.4935" x="495" y="542.723">analysis-stt &#53328;</text></g><!--link STT to Redis--><g class="link" data-entity-1="ent0015" data-entity-2="ent0009" data-link-type="dependency" data-source-line="83" id="lnk43"><path d="M602.67,475.4583 C623.65,495.2883 656.3,524.3083 688,545.0883 C735.53,576.2383 788.5184,601.644 831.1884,620.214" fill="none" id="STT-to-Redis" style="stroke:#181818;stroke-width:1;"/><polygon fill="#181818" points="836.69,622.6083,830.0338,615.3491,832.1054,620.613,826.8414,622.6846,836.69,622.6083" style="stroke:#181818;stroke-width:1;"/><text fill="#000000" font-family="sans-serif" font-size="11" lengthAdjust="spacing" textLength="41.5405" x="689" y="542.723">&#44208;&#44284; &#53084;&#48177;</text></g><!--link IAR to DB--><g class="link" data-entity-1="ent0013" data-entity-2="ent0008" data-link-type="dependency" data-source-line="80" id="lnk40"><path d="M945.09,475.4783 C955.44,490.9283 969.35,512.0683 981,531.0883 C997.7,558.3483 1012.7258,584.6491 1025.6858,607.8691" fill="none" id="IAR-to-DB" style="stroke:#181818;stroke-width:1;"/><polygon fill="#181818" points="1028.61,613.1083,1027.7165,603.3,1026.1732,608.7423,1020.7309,607.199,1028.61,613.1083" style="stroke:#181818;stroke-width:1;"/><text fill="#000000" font-family="sans-serif" font-size="11" lengthAdjust="spacing" textLength="140.3957" x="989.47" y="542.723">&#44208;&#44284; &#51649;&#51217; &#51200;&#51109; (SQLAlchemy)</text></g><!--link IAR to LAM--><g class="link" data-entity-1="ent0013" data-entity-2="ent0021" data-link-type="dependency" data-source-line="81" id="lnk41"><path d="M907.58,428.7683 C888.91,410.8483 860.67,387.2583 831,375.2683 C823.33,372.1683 820.76,373.7183 812.5,373.2783 C697.66,367.1083 404.94,341.5383 295,375.2683 C273.18,381.9583 256.6365,390.8491 238.2665,403.6991" fill="none" id="IAR-to-LAM" style="stroke:#181818;stroke-width:1;"/><polygon fill="#181818" points="233.35,407.1383,243.0176,405.2572,237.4471,404.2723,238.432,398.7019,233.35,407.1383" style="stroke:#181818;stroke-width:1;"/><text fill="#000000" font-family="sans-serif" font-size="11" lengthAdjust="spacing" textLength="159.2314" x="652.5" y="364.903">voice-analyzer (boto3.invoke)</text></g><!--link S3 to SNS--><g class="link" data-entity-1="ent0010" data-entity-2="ent0019" data-link-type="dependency" data-source-line="85" id="lnk44"><path d="M1302,636.9383 C1409.95,623.3983 1581.28,594.6083 1620,545.0883 C1667.7,484.0783 1590.12,257.2183 1530,208.3983 C1428.73,126.1683 485.51,120.8693 249.79,120.8293" fill="none" id="S3-to-SNS" style="stroke:#181818;stroke-width:1;"/><polygon fill="#181818" points="243.79,120.8283,252.7893,124.8298,248.79,120.8291,252.7907,116.8298,243.79,120.8283" style="stroke:#181818;stroke-width:1;"/><text fill="#000000" font-family="sans-serif" font-size="11" lengthAdjust="spacing" textLength="76.1729" x="1614.46" y="364.903">ObjectCreated</text></g><!--link SNS to SQS--><g class="link" data-entity-1="ent0019" data-entity-2="ent0020" data-link-type="dependency" data-source-line="86" id="lnk45"><path d="M188.12,149.7483 C184.76,183.2683 179.8966,231.908 176.8466,262.428" fill="none" id="SNS-to-SQS" style="stroke:#181818;stroke-width:1;"/><polygon fill="#181818" points="176.25,268.3983,181.1251,259.8406,176.7472,263.4231,173.1648,259.0451,176.25,268.3983" style="stroke:#181818;stroke-width:1;"/><text fill="#000000" font-family="sans-serif" font-size="11" lengthAdjust="spacing" textLength="42.8613" x="185.02" y="198.033">Fan-out</text></g><!--link SQS to LAM--><g class="link" data-entity-1="ent0020" data-entity-2="ent0021" data-link-type="dependency" data-source-line="87" id="lnk46"><path d="M110.98,306.9083 C74.74,318.4183 39.24,337.6983 55,367.2683 C70.25,395.8783 94.7069,413.7386 121.3869,427.3686" fill="none" id="SQS-to-LAM" style="stroke:#181818;stroke-width:1;"/><polygon fill="#181818" points="126.73,430.0983,120.5351,422.4417,122.2774,427.8236,116.8955,429.5659,126.73,430.0983" style="stroke:#181818;stroke-width:1;"/><text fill="#000000" font-family="sans-serif" font-size="11" lengthAdjust="spacing" textLength="67.8262" x="56" y="364.903">event source</text></g><!--link LAM to SQS--><g class="link" data-entity-1="ent0021" data-entity-2="ent0020" data-link-type="dependency" data-source-line="90" id="lnk49"><path d="M178.17,402.8983 C177.06,373.7083 175.9372,343.874 175.0772,321.184" fill="none" id="LAM-to-SQS" style="stroke:#181818;stroke-width:1;"/><polygon fill="#181818" points="174.85,315.1883,171.1937,324.3333,175.0394,320.1847,179.188,324.0303,174.85,315.1883" style="stroke:#181818;stroke-width:1;"/><text fill="#000000" font-family="sans-serif" font-size="11" lengthAdjust="spacing" textLength="78.2729" x="177.64" y="364.903">step-complete</text></g><!--link LAM to S3--><g class="link" data-entity-1="ent0021" data-entity-2="ent0010" data-link-type="dependency" data-source-line="88" id="lnk47"><path d="M233.38,480.1983 C252.35,488.4883 274.18,496.6083 295,501.0883 C350.53,513.0383 1277.43,490.3383 1317,531.0883 C1340.87,555.6683 1320.4052,580.6688 1288.6452,603.1788" fill="none" id="LAM-to-S3" style="stroke:#181818;stroke-width:1;"/><polygon fill="#181818" points="1283.75,606.6483,1293.4057,604.7075,1287.8293,603.7571,1288.7798,598.1806,1283.75,606.6483" style="stroke:#181818;stroke-width:1;"/><text fill="#000000" font-family="sans-serif" font-size="11" lengthAdjust="spacing" textLength="51.0555" x="1325.9" y="542.723">&#44208;&#44284; &#50629;&#47196;&#46300;</text></g><!--link LAM to FA--><g class="link" data-entity-1="ent0021" data-entity-2="ent0022" data-link-type="dependency" data-source-line="89" id="lnk48"><path d="M138.4,501.3883 C131.8,510.7883 125.63,520.8983 121,531.0883 C109.44,556.5183 104.1715,581.6907 101.0415,605.2107" fill="none" id="LAM-to-FA" style="stroke:#181818;stroke-width:1;"/><polygon fill="#181818" points="100.25,611.1583,105.4023,602.7646,100.9096,606.202,97.4722,601.7093,100.25,611.1583" style="stroke:#181818;stroke-width:1;"/><text fill="#000000" font-family="sans-serif" font-size="11" lengthAdjust="spacing" textLength="148.6452" x="122" y="542.723">boto3.invoke (frame &#8594; &#54364;&#51221;)</text></g><!--link SQS to BE--><g class="link" data-entity-1="ent0020" data-entity-2="ent0006" data-link-type="dependency" data-source-line="91" id="lnk50"><path d="M236.79,306.0583 C286.44,317.0683 357.26,334.0183 418,353.2683 C434.37,358.4483 437.15,363.9883 454,367.2683 C516.61,379.4683 964.51,369.0983 1028,375.2683 C1145.64,386.6983 1273.9309,412.2856 1357.8309,430.7956" fill="none" id="SQS-to-BE" style="stroke:#181818;stroke-width:1;"/><polygon fill="#181818" points="1363.69,432.0883,1355.7631,426.2433,1358.8074,431.0111,1354.0396,434.0554,1363.69,432.0883" style="stroke:#181818;stroke-width:1;"/><text fill="#000000" font-family="sans-serif" font-size="11" lengthAdjust="spacing" textLength="187.2041" x="455" y="364.903">kombu polling (sqs-celery-worker)</text></g><!--link INFRA to BE--><g class="link" data-entity-1="ent0024" data-entity-2="ent0006" data-link-type="dependency" data-source-line="93" id="lnk51"><path d="M1198.58,315.0683 C1210.1,324.9383 1224.29,336.3083 1238,345.2683 C1288.89,378.5183 1346.091,406.6884 1389.261,426.3784" fill="none" id="INFRA-to-BE" style="stroke:#181818;stroke-width:1;stroke-dasharray:7,7;"/><polygon fill="#181818" points="1394.72,428.8683,1388.1914,421.4942,1390.1708,426.7934,1384.8716,428.7728,1394.72,428.8683" style="stroke:#181818;stroke-width:1;"/><text fill="#000000" font-family="sans-serif" font-size="11" lengthAdjust="spacing" textLength="19.03" x="1271.48" y="364.903">&#48176;&#54252;</text></g><!--link INFRA to ARES--><g class="link" data-entity-1="ent0024" data-entity-2="ent0012" data-link-type="dependency" data-source-line="94" id="lnk52"><path d="M1127.53,292.8483 C967.01,293.3783 443,299.2483 393,353.2683 C350.9,398.7483 613.78,351.4683 671,375.2683 C697.7,386.3683 717.0146,406.095 731.4146,424.275" fill="none" id="INFRA-to-ARES" style="stroke:#181818;stroke-width:1;stroke-dasharray:7,7;"/><polygon fill="#181818" points="735.14,428.9783,732.6874,419.4397,732.0355,425.0588,726.4163,424.4069,735.14,428.9783" style="stroke:#181818;stroke-width:1;"/><text fill="#000000" font-family="sans-serif" font-size="11" lengthAdjust="spacing" textLength="19.03" x="394" y="364.903">&#48176;&#54252;</text></g><!--link INFRA to IAR--><g class="link" data-entity-1="ent0024" data-entity-2="ent0013" data-link-type="dependency" data-source-line="95" id="lnk53"><path d="M1139.56,315.1883 C1093.06,345.3783 1015.7125,395.5811 969.3025,425.7111" fill="none" id="INFRA-to-IAR" style="stroke:#181818;stroke-width:1;stroke-dasharray:7,7;"/><polygon fill="#181818" points="964.27,428.9783,973.9968,427.4325,968.4637,426.2557,969.6406,420.7226,964.27,428.9783" style="stroke:#181818;stroke-width:1;"/><text fill="#000000" font-family="sans-serif" font-size="11" lengthAdjust="spacing" textLength="19.03" x="1074.85" y="364.903">&#48176;&#54252;</text></g><!--link INFRA to VA--><g class="link" data-entity-1="ent0024" data-entity-2="ent0017" data-link-type="dependency" data-source-line="96" id="lnk54"><path d="M1193.88,315.1383 C1205.48,326.4683 1221.13,339.1083 1238,345.2683 C1253.19,350.8083 1808.22,342.1883 1820,353.2683 C1896.04,424.7983 1866.2727,563.3975 1850.5627,618.5875" fill="none" id="INFRA-to-VA" style="stroke:#181818;stroke-width:1;stroke-dasharray:7,7;"/><polygon fill="#181818" points="1848.92,624.3583,1855.2312,616.7973,1850.2889,619.5493,1847.5368,614.607,1848.92,624.3583" style="stroke:#181818;stroke-width:1;"/><text fill="#000000" font-family="sans-serif" font-size="11" lengthAdjust="spacing" textLength="19.03" x="1869.87" y="456.853">&#48176;&#54252;</text></g><!--link TOOLS to BE--><g class="link" data-entity-1="ent0025" data-entity-2="ent0006" data-link-type="dependency" data-source-line="97" id="lnk55"><path d="M1320.61,315.1883 C1348.43,345.3783 1393.6529,394.4371 1421.4329,424.5671" fill="none" id="TOOLS-to-BE" style="stroke:#181818;stroke-width:1;stroke-dasharray:7,7;"/><polygon fill="#181818" points="1425.5,428.9783,1422.3401,419.6501,1422.1107,425.3023,1416.4585,425.0729,1425.5,428.9783" style="stroke:#181818;stroke-width:1;"/><text fill="#000000" font-family="sans-serif" font-size="11" lengthAdjust="spacing" textLength="41.5405" x="1365.26" y="364.903">&#47196;&#52972; &#50868;&#50689;</text></g><g class="footer" data-source-line="99"><text fill="#888888" font-family="sans-serif" font-size="10" lengthAdjust="spacing" textLength="234.5053" x="959.9724" y="718.5763">MeFit - 12 &#47784;&#46280; &#47560;&#51060;&#53356;&#47196;&#49436;&#48708;&#49828; (k3s on EC2 + AWS)</text></g><?plantuml-src VLRRRjj647tdLmpI5ma14r-Ir36209H49WPaMnRbv4KlAt4bCwAuofAoenG5xC8DtDY5awPfYy0E721Dci90bHlWektFzD6a_g6pIr6c9Aim89CxC-VCpfwPfM_x3eNWZvFUytrGONe6WhSxuU6dtjPnyEeWt3u8_jmE7x-6uFVVWcSxq7lqETmzWjFFn-6hhg9u3Tjj4KwQK27LHfspjcjbcSCuV67euY_XOT4QQJk-mLpVj1zIc9vE6AkisM8kHPFVmNmuhVh4hJiquT921bAdanq66F2L0f0PJKYVCwuOEM5XtAAylpepVVsQCQjyVHxEZHjamxjvytmump1czQbHE2CpbvsQcWHNuxXvwbeJCMVrgyRLKSmvVUQAfat2z7p6iIoJ8FMiRXZJev3NfhxCpMKGKY5LZ8SBuJV7uOjtuSid5u1uiEfHhYZzWYUC41uz3O_GHr2TbVj2lA-oMwG82DFNuJBSiNsA_mmp9p4D7P854Dm30gsmW9v2QMzsWjqTrDiOXT2NPCZTmtDdS0q3SaK3VxDhn7MfuqcMZ3u477pV5LhUxWhuapsXwBzUupCoz1uT1M-EmxUR4PL5V58X7iOKcEVNEJLNycKtLSoPQGcSoq2YrXXmlqtRw5sabksXOuQp1kLmCKu7ygH3UHGhVKR2p_ZCMKXTXKeRz-TxwRAxRbkKOOvUbJZKKkFN6fuxHIRIjko4MRvA5iH9KWoLONyxUFTZU7WIVDo6B7Kexy1TnaN2gSQi1mLcfSSgJbpYT3pRKpdrsarQTkE8F1u0xj9sezrfHTqSZhJnZFcwJJVK14QBSJ-1aL_4Mjtkj9Y_Hj4XWbhGYiD8NfMJbktMpm8B3kbiSBk-vcCyeaI1PhOu8NdFJx3MY8UPgHjhjjUA3ySibOPg5HxkXTlliS2baZbMatLcLwcAAPLT0x4YtLAhJbNVZmHuHnjMzbqJz7KHMx1RrB5TEePfBfdzGrVRBOSHYrfHOaicz2VGIC2A2GPnLTOMDSZbLoBtbGdkUTAiM2Icg39tdNAiGjcLYbBf0v_B8T2NLdAXlrrHouUKIvgyjlZ_D3MI2C76M4Jn4x7vgDo6DWWVglgBJ-4lMu12nQjbh4IsoFLosHLQlGWbJcZDRaIAMJAAsh1p4us-wZFcOBUOFgUawTW-t5fTa16bvUMyULu4fbd7Yc1G_8HSA3VNNrtCHpDWGRjbYhJ5V0HLlIc6sZpSBfKAfeAFOYKZLh0ZIXXybrPC9jeQdqrJZrsmKUUXW5rbrrrgGM6r1AdWtMPljzlRs-izFad7ZdUq61qob70napEH1QVHF2mN5-FtQCBCnxqTT0zwFtsNc8sndwIkC9_Xp5bmFRn2gnHJOJNReUdOITBYUEnjTU7qmsRuvb1H8W9X5UsEzf7f0Bsj9madREI4puWHcnMDSMkF6akb93gshtHG96rogwSVkgSV_uRmduEW-ruHX8F2nAQtMtXVuPsr6Rxy5L8uq3MdkaQRdVJ0NQXv7ePb3YbPe4isoh-1LH7fJYOM-KwsAbXmkQibKRFboZtyRCcY8drgAM9DsbQ4hT_GYdWxoupAqU6nDgzIHImD3Z7c-VbRlDI2PmS3gw75HzpV0OuzqUZmxwCVeFVq83nwdZw3ajmu55kgw0U7-dIGWLHoWpKhRMWnnn57bVBkUsfLQapTa3CrhIYo1U7IfNv4qEtszeyJgtt1ZAr76XbRbkhhhyfUJK2Bw_iOebcXA3N6S8x18ZMmlQDFr-WZzVmlM7dJCHVqx0ps8mxcz7y0?></g></svg>