<?plantuml 1.2026.1?><svg xmlns="http://www.w3.org/2000/svg" xmlns:xlink="http://www.w3.org/1999/xlink" contentStyleType="text/css" data-diagram-type="SEQUENCE" height="1313px" preserveAspectRatio="none" style="width:1213px;height:1313px;background:#FEFEFE;" version="1.1" viewBox="0 0 1213 1313" width="1213px" zoomAndPan="magnify"><title>&#48120;&#54607; - &#51060;&#47141;&#49436; &#48516;&#49437; &#49884;&#53248;&#49828; (Frontend &#8594; Backend &#8594; analysis-resume Worker)</title><defs/><g><rect fill="#FEFEFE" height="1313" style="stroke:none;stroke-width:1;" width="1213" x="0" y="0"/><text fill="#000000" font-family="sans-serif" font-size="14" font-weight="bold" lengthAdjust="spacing" textLength="512.0199" x="346.7025" y="28.5352">&#48120;&#54607; - &#51060;&#47141;&#49436; &#48516;&#49437; &#49884;&#53248;&#49828; (Frontend &#8594; Backend &#8594; analysis-resume Worker)</text><g><title>Backend</title><rect fill="#E8F4FD" height="187.6855" style="stroke:#181818;stroke-width:1;" width="10" x="397.4741" y="212.3086"/></g><g><title>Backend</title><rect fill="#E8F4FD" height="107.8203" style="stroke:#181818;stroke-width:1;" width="10" x="397.4741" y="946.0957"/></g><g><title>analysis-resume</title><rect fill="#E8F4FD" height="357.3711" style="stroke:#181818;stroke-width:1;" width="10" x="982.3348" y="520.8145"/></g><rect fill="none" height="150.6855" style="stroke:#000000;stroke-width:1.5;" width="270.1519" x="926.2731" y="648.6348"/><g class="participant-lifeline" data-entity-uid="part1" data-qualified-name="U" id="part1-lifeline"><g><title>...</title><rect fill="#000000" fill-opacity="0.00000" height="1105.248" width="8" x="18.2725" y="115.4434"/><line style="stroke:#2196F3;stroke-width:0.5;stroke-dasharray:5,5;" x1="22" x2="22" y1="115.4434" y2="1220.6914"/></g></g><g class="participant-lifeline" data-entity-uid="part2" data-qualified-name="FE" id="part2-lifeline"><g><title>Frontend</title><rect fill="#000000" fill-opacity="0.00000" height="1105.248" width="8" x="181.3018" y="115.4434"/><line style="stroke:#2196F3;stroke-width:0.5;stroke-dasharray:5,5;" x1="184.3145" x2="184.3145" y1="115.4434" y2="1220.6914"/></g></g><g class="participant-lifeline" data-entity-uid="part3" data-qualified-name="BE" id="part3-lifeline"><g><title>Backend</title><rect fill="#000000" fill-opacity="0.00000" height="1105.248" width="8" x="398.4741" y="115.4434"/><line style="stroke:#2196F3;stroke-width:0.5;stroke-dasharray:5,5;" x1="402.3023" x2="402.3023" y1="115.4434" y2="1220.6914"/></g></g><g class="participant-lifeline" data-entity-uid="part4" data-qualified-name="DB" id="part4-lifeline"><g><title>PostgreSQL</title><rect fill="#000000" fill-opacity="0.00000" height="1105.248" width="8" x="629.4599" y="115.4434"/><line style="stroke:#2196F3;stroke-width:0.5;stroke-dasharray:5,5;" x1="633.269" x2="633.269" y1="115.4434" y2="1220.6914"/></g></g><g class="participant-lifeline" data-entity-uid="part5" data-qualified-name="S3" id="part5-lifeline"><g><title>S3 .be-files.</title><rect fill="#000000" fill-opacity="0.00000" height="1105.248" width="8" x="712.1862" y="115.4434"/><line style="stroke:#2196F3;stroke-width:0.5;stroke-dasharray:5,5;" x1="715.6508" x2="715.6508" y1="115.4434" y2="1220.6914"/></g></g><g class="participant-lifeline" data-entity-uid="part6" data-qualified-name="Q" id="part6-lifeline"><g><title>Redis</title><rect fill="#000000" fill-opacity="0.00000" height="1105.248" width="8" x="822.2811" y="115.4434"/><line style="stroke:#2196F3;stroke-width:0.5;stroke-dasharray:5,5;" x1="825.7216" x2="825.7216" y1="115.4434" y2="1220.6914"/></g></g><g class="participant-lifeline" data-entity-uid="part7" data-qualified-name="Worker" id="part7-lifeline"><g><title>analysis-resume</title><rect fill="#000000" fill-opacity="0.00000" height="1105.248" width="8" x="983.3348" y="115.4434"/><line style="stroke:#2196F3;stroke-width:0.5;stroke-dasharray:5,5;" x1="987.2731" x2="987.2731" y1="115.4434" y2="1220.6914"/></g></g><g class="participant-lifeline" data-entity-uid="part8" data-qualified-name="LLM" id="part8-lifeline"><g><title>OpenAI</title><rect fill="#000000" fill-opacity="0.00000" height="1105.248" width="8" x="1155.8339" y="115.4434"/><line style="stroke:#2196F3;stroke-width:0.5;stroke-dasharray:5,5;" x1="1159.2428" x2="1159.2428" y1="115.4434" y2="1220.6914"/></g></g><g class="participant participant-head" data-entity-uid="part1" data-qualified-name="U" id="part1-head"><text fill="#000000" font-family="sans-serif" font-size="11" lengthAdjust="spacing" textLength="28.545" x="5" y="113.123">&#49324;&#50857;&#51088;</text><ellipse cx="22.2725" cy="50.9883" fill="#E2E2F0" rx="8" ry="8" style="stroke:#181818;stroke-width:0.5;"/><path d="M22.2725,58.9883 L22.2725,85.9883 M9.2725,66.9883 L35.2725,66.9883 M22.2725,85.9883 L9.2725,100.9883 M22.2725,85.9883 L35.2725,100.9883" fill="none" style="stroke:#181818;stroke-width:0.5;"/></g><g class="participant participant-tail" data-entity-uid="part1" data-qualified-name="U" id="part1-tail"><text fill="#000000" font-family="sans-serif" font-size="11" lengthAdjust="spacing" textLength="28.545" x="5" y="1230.3262">&#49324;&#50857;&#51088;</text><ellipse cx="22.2725" cy="1241.1465" fill="#E2E2F0" rx="8" ry="8" style="stroke:#181818;stroke-width:0.5;"/><path d="M22.2725,1249.1465 L22.2725,1276.1465 M9.2725,1257.1465 L35.2725,1257.1465 M22.2725,1276.1465 L9.2725,1291.1465 M22.2725,1276.1465 L35.2725,1291.1465" fill="none" style="stroke:#181818;stroke-width:0.5;"/></g><g class="participant participant-head" data-entity-uid="part2" data-qualified-name="FE" id="part2-head"><rect fill="#E8F4FD" height="26.9551" rx="2.5" ry="2.5" style="stroke:#2196F3;stroke-width:0.5;" width="61.9746" x="154.3145" y="87.4883"/><text fill="#000000" font-family="sans-serif" font-size="11" lengthAdjust="spacing" textLength="47.9746" x="161.3145" y="105.123">Frontend</text></g><g class="participant participant-tail" data-entity-uid="part2" data-qualified-name="FE" id="part2-tail"><rect fill="#E8F4FD" height="26.9551" rx="2.5" ry="2.5" style="stroke:#2196F3;stroke-width:0.5;" width="61.9746" x="154.3145" y="1219.6914"/><text fill="#000000" font-family="sans-serif" font-size="11" lengthAdjust="spacing" textLength="47.9746" x="161.3145" y="1237.3262">Frontend</text></g><g class="participant participant-head" data-entity-uid="part3" data-qualified-name="BE" id="part3-head"><rect fill="#E8F4FD" height="26.9551" rx="2.5" ry="2.5" style="stroke:#2196F3;stroke-width:0.5;" width="58.3438" x="373.3023" y="87.4883"/><text fill="#000000" font-family="sans-serif" font-size="11" lengthAdjust="spacing" textLength="44.3438" x="380.3023" y="105.123">Backend</text></g><g class="participant participant-tail" data-entity-uid="part3" data-qualified-name="BE" id="part3-tail"><rect fill="#E8F4FD" height="26.9551" rx="2.5" ry="2.5" style="stroke:#2196F3;stroke-width:0.5;" width="58.3438" x="373.3023" y="1219.6914"/><text fill="#000000" font-family="sans-serif" font-size="11" lengthAdjust="spacing" textLength="44.3438" x="380.3023" y="1237.3262">Backend</text></g><g class="participant participant-head" data-entity-uid="part4" data-qualified-name="DB" id="part4-head"><text fill="#000000" font-family="sans-serif" font-size="11" lengthAdjust="spacing" textLength="60.3818" x="600.269" y="113.123">PostgreSQL</text><path d="M615.4599,66.4883 C615.4599,56.4883 633.4599,56.4883 633.4599,56.4883 C633.4599,56.4883 651.4599,56.4883 651.4599,66.4883 L651.4599,92.4883 C651.4599,102.4883 633.4599,102.4883 633.4599,102.4883 C633.4599,102.4883 615.4599,102.4883 615.4599,92.4883 L615.4599,66.4883" fill="#E2E2F0" style="stroke:#181818;stroke-width:0.5;"/><path d="M615.4599,66.4883 C615.4599,76.4883 633.4599,76.4883 633.4599,76.4883 C633.4599,76.4883 651.4599,76.4883 651.4599,66.4883" fill="none" style="stroke:#181818;stroke-width:0.5;"/></g><g class="participant participant-tail" data-entity-uid="part4" data-qualified-name="DB" id="part4-tail"><text fill="#000000" font-family="sans-serif" font-size="11" lengthAdjust="spacing" textLength="60.3818" x="600.269" y="1230.3262">PostgreSQL</text><path d="M615.4599,1242.6465 C615.4599,1232.6465 633.4599,1232.6465 633.4599,1232.6465 C633.4599,1232.6465 651.4599,1232.6465 651.4599,1242.6465 L651.4599,1268.6465 C651.4599,1278.6465 633.4599,1278.6465 633.4599,1278.6465 C633.4599,1278.6465 615.4599,1278.6465 615.4599,1268.6465 L615.4599,1242.6465" fill="#E2E2F0" style="stroke:#181818;stroke-width:0.5;"/><path d="M615.4599,1242.6465 C615.4599,1252.6465 633.4599,1252.6465 633.4599,1252.6465 C633.4599,1252.6465 651.4599,1252.6465 651.4599,1242.6465" fill="none" style="stroke:#181818;stroke-width:0.5;"/></g><g class="participant participant-head" data-entity-uid="part5" data-qualified-name="S3" id="part5-head"><rect fill="#E8F4FD" height="26.9551" rx="2.5" ry="2.5" style="stroke:#2196F3;stroke-width:0.5;" width="79.0708" x="676.6508" y="87.4883"/><text fill="#000000" font-family="sans-serif" font-size="11" lengthAdjust="spacing" textLength="65.0708" x="683.6508" y="105.123">S3 (be-files)</text></g><g class="participant participant-tail" data-entity-uid="part5" data-qualified-name="S3" id="part5-tail"><rect fill="#E8F4FD" height="26.9551" rx="2.5" ry="2.5" style="stroke:#2196F3;stroke-width:0.5;" width="79.0708" x="676.6508" y="1219.6914"/><text fill="#000000" font-family="sans-serif" font-size="11" lengthAdjust="spacing" textLength="65.0708" x="683.6508" y="1237.3262">S3 (be-files)</text></g><g class="participant participant-head" data-entity-uid="part6" data-qualified-name="Q" id="part6-head"><path d="M770.7216,79.5332 L881.8406,79.5332 C886.8406,79.5332 886.8406,97.4883 886.8406,97.4883 C886.8406,97.4883 886.8406,115.4434 881.8406,115.4434 L770.7216,115.4434 C765.7216,115.4434 765.7216,97.4883 765.7216,97.4883 C765.7216,97.4883 765.7216,79.5332 770.7216,79.5332" fill="#E2E2F0" style="stroke:#181818;stroke-width:0.5;"/><path d="M881.8406,79.5332 C876.8406,79.5332 876.8406,97.4883 876.8406,97.4883 C876.8406,115.4434 881.8406,115.4434 881.8406,115.4434" fill="none" style="stroke:#181818;stroke-width:0.5;"/><text fill="#000000" font-family="sans-serif" font-size="11" lengthAdjust="spacing" textLength="28.7944" x="806.8839" y="95.168">Redis</text><text fill="#000000" font-family="sans-serif" font-size="11" lengthAdjust="spacing" textLength="101.119" x="770.7216" y="108.123">analysis-resume &#53328;</text></g><g class="participant participant-tail" data-entity-uid="part6" data-qualified-name="Q" id="part6-tail"><path d="M770.7216,1219.6914 L881.8406,1219.6914 C886.8406,1219.6914 886.8406,1237.6465 886.8406,1237.6465 C886.8406,1237.6465 886.8406,1255.6016 881.8406,1255.6016 L770.7216,1255.6016 C765.7216,1255.6016 765.7216,1237.6465 765.7216,1237.6465 C765.7216,1237.6465 765.7216,1219.6914 770.7216,1219.6914" fill="#E2E2F0" style="stroke:#181818;stroke-width:0.5;"/><path d="M881.8406,1219.6914 C876.8406,1219.6914 876.8406,1237.6465 876.8406,1237.6465 C876.8406,1255.6016 881.8406,1255.6016 881.8406,1255.6016" fill="none" style="stroke:#181818;stroke-width:0.5;"/><text fill="#000000" font-family="sans-serif" font-size="11" lengthAdjust="spacing" textLength="28.7944" x="806.8839" y="1235.3262">Redis</text><text fill="#000000" font-family="sans-serif" font-size="11" lengthAdjust="spacing" textLength="101.119" x="770.7216" y="1248.2813">analysis-resume &#53328;</text></g><g class="participant participant-head" data-entity-uid="part7" data-qualified-name="Worker" id="part7-head"><rect fill="#E8F4FD" height="39.9102" rx="2.5" ry="2.5" style="stroke:#2196F3;stroke-width:0.5;" width="102.1235" x="936.2731" y="74.5332"/><text fill="#000000" font-family="sans-serif" font-size="11" lengthAdjust="spacing" textLength="88.1235" x="943.2731" y="92.168">analysis-resume</text><text fill="#000000" font-family="sans-serif" font-size="11" lengthAdjust="spacing" textLength="37.7266" x="968.4716" y="105.123">Worker</text></g><g class="participant participant-tail" data-entity-uid="part7" data-qualified-name="Worker" id="part7-tail"><rect fill="#E8F4FD" height="39.9102" rx="2.5" ry="2.5" style="stroke:#2196F3;stroke-width:0.5;" width="102.1235" x="936.2731" y="1219.6914"/><text fill="#000000" font-family="sans-serif" font-size="11" lengthAdjust="spacing" textLength="88.1235" x="943.2731" y="1237.3262">analysis-resume</text><text fill="#000000" font-family="sans-serif" font-size="11" lengthAdjust="spacing" textLength="37.7266" x="968.4716" y="1250.2813">Worker</text></g><g class="participant participant-head" data-entity-uid="part8" data-qualified-name="LLM" id="part8-head"><rect fill="#E8F4FD" height="26.9551" rx="2.5" ry="2.5" style="stroke:#2196F3;stroke-width:0.5;" width="53.1821" x="1133.2428" y="87.4883"/><text fill="#000000" font-family="sans-serif" font-size="11" lengthAdjust="spacing" textLength="39.1821" x="1140.2428" y="105.123">OpenAI</text></g><g class="participant participant-tail" data-entity-uid="part8" data-qualified-name="LLM" id="part8-tail"><rect fill="#E8F4FD" height="26.9551" rx="2.5" ry="2.5" style="stroke:#2196F3;stroke-width:0.5;" width="53.1821" x="1133.2428" y="1219.6914"/><text fill="#000000" font-family="sans-serif" font-size="11" lengthAdjust="spacing" textLength="39.1821" x="1140.2428" y="1237.3262">OpenAI</text></g><g><title>Backend</title><rect fill="#E8F4FD" height="187.6855" style="stroke:#181818;stroke-width:1;" width="10" x="397.4741" y="212.3086"/></g><g><title>Backend</title><rect fill="#E8F4FD" height="107.8203" style="stroke:#181818;stroke-width:1;" width="10" x="397.4741" y="946.0957"/></g><g><title>analysis-resume</title><rect fill="#E8F4FD" height="357.3711" style="stroke:#181818;stroke-width:1;" width="10" x="982.3348" y="520.8145"/></g><rect fill="#EEEEEE" height="3" style="stroke:#EEEEEE;stroke-width:1;" width="1206.4249" x="0" y="144.9209"/><line style="stroke:#000000;stroke-width:1;" x1="0" x2="1206.4249" y1="144.9209" y2="144.9209"/><line style="stroke:#000000;stroke-width:1;" x1="0" x2="1206.4249" y1="147.9209" y2="147.9209"/><rect fill="#EEEEEE" height="20.9551" style="stroke:#000000;stroke-width:2;" width="185.9107" x="510.2571" y="135.4434"/><text fill="#000000" font-family="sans-serif" font-size="11" font-weight="bold" lengthAdjust="spacing" textLength="168.2852" x="516.2571" y="150.0781">A. &#54028;&#51068; &#50629;&#47196;&#46300; &#44221;&#47196; (PDF / DOCX)</text><g class="message" data-entity-1="part1" data-entity-2="part2" id="msg1"><polygon fill="#555555" points="173.3018,181.3535,183.3018,185.3535,173.3018,189.3535,177.3018,185.3535" style="stroke:#555555;stroke-width:1;"/><line style="stroke:#555555;stroke-width:1;" x1="22.2725" x2="179.3018" y1="185.3535" y2="185.3535"/><text fill="#000000" font-family="sans-serif" font-size="11" lengthAdjust="spacing" textLength="85.7906" x="29.2725" y="181.0332">&#54028;&#51068; &#49440;&#53469; + &#50629;&#47196;&#46300;</text></g><g class="message" data-entity-1="part2" data-entity-2="part3" id="msg2"><polygon fill="#555555" points="385.4741,208.3086,395.4741,212.3086,385.4741,216.3086,389.4741,212.3086" style="stroke:#555555;stroke-width:1;"/><line style="stroke:#555555;stroke-width:1;" x1="185.3018" x2="391.4741" y1="212.3086" y2="212.3086"/><text fill="#000000" font-family="sans-serif" font-size="11" lengthAdjust="spacing" textLength="146.416" x="192.3018" y="207.9883">POST /resumes/ (type=file)</text></g><g class="message" data-entity-1="part3" data-entity-2="part5" id="msg3"><polygon fill="#555555" points="704.1862,235.2637,714.1862,239.2637,704.1862,243.2637,708.1862,239.2637" style="stroke:#555555;stroke-width:1;"/><line style="stroke:#555555;stroke-width:1;" x1="407.4741" x2="710.1862" y1="239.2637" y2="239.2637"/><text fill="#000000" font-family="sans-serif" font-size="11" lengthAdjust="spacing" textLength="73.5659" x="414.4741" y="234.9434">&#50896;&#48376; &#54028;&#51068; &#50629;&#47196;&#46300;</text></g><g class="message" data-entity-1="part3" data-entity-2="part4" id="msg4"><polygon fill="#555555" points="621.4599,262.2188,631.4599,266.2188,621.4599,270.2188,625.4599,266.2188" style="stroke:#555555;stroke-width:1;"/><line style="stroke:#555555;stroke-width:1;" x1="407.4741" x2="627.4599" y1="266.2188" y2="266.2188"/><text fill="#000000" font-family="sans-serif" font-size="11" lengthAdjust="spacing" textLength="148.3069" x="414.4741" y="261.8984">Resume(status=DRAFT) &#49373;&#49457;</text></g><g class="message" data-entity-1="part3" data-entity-2="part3" id="msg5"><line style="stroke:#555555;stroke-width:1;" x1="407.4741" x2="449.4741" y1="306.1289" y2="306.1289"/><line style="stroke:#555555;stroke-width:1;" x1="449.4741" x2="449.4741" y1="306.1289" y2="319.1289"/><line style="stroke:#555555;stroke-width:1;" x1="408.4741" x2="449.4741" y1="319.1289" y2="319.1289"/><polygon fill="#555555" points="418.4741,315.1289,408.4741,319.1289,418.4741,323.1289,414.4741,319.1289" style="stroke:#555555;stroke-width:1;"/><text fill="#000000" font-family="sans-serif" font-size="11" lengthAdjust="spacing" textLength="119.8774" x="414.4741" y="288.8535">FinalizeResumeService</text><text fill="#000000" font-family="sans-serif" font-size="11" lengthAdjust="spacing" textLength="48.6948" x="414.4741" y="301.8086">(&#51088;&#46041; &#54840;&#52636;)</text></g><g class="message" data-entity-1="part3" data-entity-2="part4" id="msg6"><polygon fill="#555555" points="621.4599,342.084,631.4599,346.084,621.4599,350.084,625.4599,346.084" style="stroke:#555555;stroke-width:1;"/><line style="stroke:#555555;stroke-width:1;" x1="407.4741" x2="627.4599" y1="346.084" y2="346.084"/><text fill="#000000" font-family="sans-serif" font-size="11" lengthAdjust="spacing" textLength="109.9678" x="414.4741" y="341.7637">status = ANALYZING</text></g><g class="message" data-entity-1="part3" data-entity-2="part6" id="msg7"><polygon fill="#555555" points="814.2811,369.0391,824.2811,373.0391,814.2811,377.0391,818.2811,373.0391" style="stroke:#555555;stroke-width:1;"/><line style="stroke:#555555;stroke-width:1;" x1="407.4741" x2="820.2811" y1="373.0391" y2="373.0391"/><text fill="#000000" font-family="sans-serif" font-size="11" lengthAdjust="spacing" textLength="122.375" x="414.4741" y="368.7188">dispatch analysis tasks</text></g><g class="message" data-entity-1="part3" data-entity-2="part2" id="msg8"><polygon fill="#555555" points="196.3018,395.9941,186.3018,399.9941,196.3018,403.9941,192.3018,399.9941" style="stroke:#555555;stroke-width:1;"/><line style="stroke:#555555;stroke-width:1;stroke-dasharray:2,2;" x1="190.3018" x2="401.4741" y1="399.9941" y2="399.9941"/><text fill="#000000" font-family="sans-serif" font-size="11" lengthAdjust="spacing" textLength="37.8716" x="202.3018" y="395.6738">{ uuid }</text></g><g class="message" data-entity-1="part2" data-entity-2="part2" id="msg9"><line style="stroke:#555555;stroke-width:1;" x1="185.3018" x2="227.3018" y1="439.9043" y2="439.9043"/><line style="stroke:#555555;stroke-width:1;" x1="227.3018" x2="227.3018" y1="439.9043" y2="452.9043"/><line style="stroke:#555555;stroke-width:1;" x1="186.3018" x2="227.3018" y1="452.9043" y2="452.9043"/><polygon fill="#555555" points="196.3018,448.9043,186.3018,452.9043,196.3018,456.9043,192.3018,452.9043" style="stroke:#555555;stroke-width:1;"/><text fill="#000000" font-family="sans-serif" font-size="11" lengthAdjust="spacing" textLength="40.321" x="192.3018" y="422.6289">SSE &#44396;&#46021;</text><text fill="#000000" font-family="sans-serif" font-size="11" lengthAdjust="spacing" textLength="203.1724" x="192.3018" y="435.584">/sse/resumes/{uuid}/analysis-status/</text></g><rect fill="#EEEEEE" height="3" style="stroke:#EEEEEE;stroke-width:1;" width="1206.4249" x="0" y="480.3818"/><line style="stroke:#000000;stroke-width:1;" x1="0" x2="1206.4249" y1="480.3818" y2="480.3818"/><line style="stroke:#000000;stroke-width:1;" x1="0" x2="1206.4249" y1="483.3818" y2="483.3818"/><rect fill="#EEEEEE" height="20.9551" style="stroke:#000000;stroke-width:2;" width="95.2384" x="555.5932" y="470.9043"/><text fill="#000000" font-family="sans-serif" font-size="11" font-weight="bold" lengthAdjust="spacing" textLength="77.6129" x="561.5932" y="485.5391">B. &#48516;&#49437; &#50892;&#52964; &#52376;&#47532;</text><g class="message" data-entity-1="part6" data-entity-2="part7" id="msg10"><polygon fill="#555555" points="970.3348,516.8145,980.3348,520.8145,970.3348,524.8145,974.3348,520.8145" style="stroke:#555555;stroke-width:1;"/><line style="stroke:#555555;stroke-width:1;" x1="826.2811" x2="976.3348" y1="520.8145" y2="520.8145"/><text fill="#000000" font-family="sans-serif" font-size="11" lengthAdjust="spacing" textLength="45.8154" x="833.2811" y="516.4941">pull task</text></g><g class="message" data-entity-1="part7" data-entity-2="part5" id="msg11"><polygon fill="#555555" points="727.1862,543.7695,717.1862,547.7695,727.1862,551.7695,723.1862,547.7695" style="stroke:#555555;stroke-width:1;"/><line style="stroke:#555555;stroke-width:1;" x1="721.1862" x2="981.3348" y1="547.7695" y2="547.7695"/><text fill="#000000" font-family="sans-serif" font-size="11" lengthAdjust="spacing" textLength="60.5705" x="733.1862" y="543.4492">&#50896;&#48376; &#45796;&#50868;&#47196;&#46300;</text></g><g class="message" data-entity-1="part7" data-entity-2="part7" id="msg12"><line style="stroke:#555555;stroke-width:1;" x1="992.3348" x2="1034.3348" y1="587.6797" y2="587.6797"/><line style="stroke:#555555;stroke-width:1;" x1="1034.3348" x2="1034.3348" y1="587.6797" y2="600.6797"/><line style="stroke:#555555;stroke-width:1;" x1="993.3348" x2="1034.3348" y1="600.6797" y2="600.6797"/><polygon fill="#555555" points="1003.3348,596.6797,993.3348,600.6797,1003.3348,604.6797,999.3348,600.6797" style="stroke:#555555;stroke-width:1;"/><text fill="#000000" font-family="sans-serif" font-size="11" lengthAdjust="spacing" textLength="86.1577" x="999.3348" y="570.4043">ExtractTextTask</text><text fill="#000000" font-family="sans-serif" font-size="11" lengthAdjust="spacing" textLength="99.9185" x="999.3348" y="583.3594">(PyPDF / docx2txt)</text></g><path d="M997,613.6797 L997,635.6797 L1065,635.6797 L1065,623.6797 L1055,613.6797 L997,613.6797" fill="#FEFFDD" style="stroke:#181818;stroke-width:0.5;"/><path d="M1055,613.6797 L1055,623.6797 L1065,623.6797 L1055,613.6797" fill="#FEFFDD" style="stroke:#181818;stroke-width:0.5;"/><text fill="#000000" font-family="sans-serif" font-size="11" lengthAdjust="spacing" textLength="47.7224" x="1003" y="629.3145">&#48337;&#47148; fork:</text><path d="M926.2731,648.6348 L990.0289,648.6348 L990.0289,653.5898 L980.0289,663.5898 L926.2731,663.5898 L926.2731,648.6348" fill="#EEEEEE" style="stroke:#000000;stroke-width:1.5;"/><rect fill="none" height="150.6855" style="stroke:#000000;stroke-width:1.5;" width="270.1519" x="926.2731" y="648.6348"/><text fill="#000000" font-family="sans-serif" font-size="11" font-weight="bold" lengthAdjust="spacing" textLength="18.7559" x="941.2731" y="660.2695">par</text><text fill="#000000" font-family="sans-serif" font-size="11" font-weight="bold" lengthAdjust="spacing" textLength="36.6983" x="1005.0289" y="661.2695">[&#51076;&#48288;&#46377;]</text><g class="message" data-entity-1="part7" data-entity-2="part8" id="msg13"><polygon fill="#555555" points="1147.8339,678.5449,1157.8339,682.5449,1147.8339,686.5449,1151.8339,682.5449" style="stroke:#555555;stroke-width:1;"/><line style="stroke:#555555;stroke-width:1;" x1="992.3348" x2="1153.8339" y1="682.5449" y2="682.5449"/><text fill="#000000" font-family="sans-serif" font-size="11" lengthAdjust="spacing" textLength="122.9766" x="999.3348" y="678.2246">OpenAI Embedding API</text></g><g class="message" data-entity-1="part8" data-entity-2="part7" id="msg14"><polygon fill="#555555" points="1003.3348,705.5,993.3348,709.5,1003.3348,713.5,999.3348,709.5" style="stroke:#555555;stroke-width:1;"/><line style="stroke:#555555;stroke-width:1;stroke-dasharray:2,2;" x1="997.3348" x2="1158.8339" y1="709.5" y2="709.5"/><text fill="#000000" font-family="sans-serif" font-size="11" lengthAdjust="spacing" textLength="67.8047" x="1009.3348" y="705.1797">vector[1536]</text></g><line style="stroke:#000000;stroke-width:1;stroke-dasharray:2,2;" x1="926.2731" x2="1196.4249" y1="718.5" y2="718.5"/><text fill="#000000" font-family="sans-serif" font-size="11" font-weight="bold" lengthAdjust="spacing" textLength="53.5876" x="931.2731" y="729.1348">[LLM &#54028;&#49905;]</text><g class="message" data-entity-1="part7" data-entity-2="part8" id="msg15"><polygon fill="#555555" points="1147.8339,760.3652,1157.8339,764.3652,1147.8339,768.3652,1151.8339,764.3652" style="stroke:#555555;stroke-width:1;"/><line style="stroke:#555555;stroke-width:1;" x1="992.3348" x2="1153.8339" y1="764.3652" y2="764.3652"/><text fill="#000000" font-family="sans-serif" font-size="11" lengthAdjust="spacing" textLength="67.7939" x="999.3348" y="747.0898">gpt-4o-mini</text><text fill="#000000" font-family="sans-serif" font-size="11" lengthAdjust="spacing" textLength="111.7033" x="999.3348" y="760.0449">(&#51060;&#47141;&#49436; &#8594; &#44396;&#51312;&#54868; JSON)</text></g><g class="message" data-entity-1="part8" data-entity-2="part7" id="msg16"><polygon fill="#555555" points="1003.3348,787.3203,993.3348,791.3203,1003.3348,795.3203,999.3348,791.3203" style="stroke:#555555;stroke-width:1;"/><line style="stroke:#555555;stroke-width:1;stroke-dasharray:2,2;" x1="997.3348" x2="1158.8339" y1="791.3203" y2="791.3203"/><text fill="#000000" font-family="sans-serif" font-size="11" lengthAdjust="spacing" textLength="123.9863" x="1009.3348" y="787">{ skills, experience, ... }</text></g><g class="message" data-entity-1="part7" data-entity-2="part7" id="msg17"><line style="stroke:#555555;stroke-width:1;" x1="992.3348" x2="1034.3348" y1="825.2754" y2="825.2754"/><line style="stroke:#555555;stroke-width:1;" x1="1034.3348" x2="1034.3348" y1="825.2754" y2="838.2754"/><line style="stroke:#555555;stroke-width:1;" x1="993.3348" x2="1034.3348" y1="838.2754" y2="838.2754"/><polygon fill="#555555" points="1003.3348,834.2754,993.3348,838.2754,1003.3348,842.2754,999.3348,838.2754" style="stroke:#555555;stroke-width:1;"/><text fill="#000000" font-family="sans-serif" font-size="11" lengthAdjust="spacing" textLength="138.499" x="999.3348" y="820.9551">FinalizeResumeTask (join)</text></g><g class="message" data-entity-1="part7" data-entity-2="part6" id="msg18"><polygon fill="#555555" points="837.2811,874.1855,827.2811,878.1855,837.2811,882.1855,833.2811,878.1855" style="stroke:#555555;stroke-width:1;"/><line style="stroke:#555555;stroke-width:1;" x1="831.2811" x2="986.3348" y1="878.1855" y2="878.1855"/><text fill="#000000" font-family="sans-serif" font-size="11" lengthAdjust="spacing" textLength="92.5603" x="843.2811" y="860.9102">Backend &#53084;&#48177; task</text><text fill="#000000" font-family="sans-serif" font-size="11" lengthAdjust="spacing" textLength="132.0537" x="843.2811" y="873.8652">ApplyAnalysisResultTask</text></g><rect fill="#EEEEEE" height="3" style="stroke:#EEEEEE;stroke-width:1;" width="1206.4249" x="0" y="905.6631"/><line style="stroke:#000000;stroke-width:1;" x1="0" x2="1206.4249" y1="905.6631" y2="905.6631"/><line style="stroke:#000000;stroke-width:1;" x1="0" x2="1206.4249" y1="908.6631" y2="908.6631"/><rect fill="#EEEEEE" height="20.9551" style="stroke:#000000;stroke-width:2;" width="101.6296" x="552.3977" y="896.1855"/><text fill="#000000" font-family="sans-serif" font-size="11" font-weight="bold" lengthAdjust="spacing" textLength="84.0041" x="558.3977" y="910.8203">C. Backend &#53084;&#48177;</text><g class="message" data-entity-1="part6" data-entity-2="part3" id="msg19"><polygon fill="#555555" points="418.4741,942.0957,408.4741,946.0957,418.4741,950.0957,414.4741,946.0957" style="stroke:#555555;stroke-width:1;"/><line style="stroke:#555555;stroke-width:1;" x1="412.4741" x2="825.2811" y1="946.0957" y2="946.0957"/><text fill="#000000" font-family="sans-serif" font-size="11" lengthAdjust="spacing" textLength="66.7197" x="424.4741" y="941.7754">pull callback</text></g><g class="message" data-entity-1="part3" data-entity-2="part4" id="msg20"><polygon fill="#555555" points="621.4599,969.0508,631.4599,973.0508,621.4599,977.0508,625.4599,973.0508" style="stroke:#555555;stroke-width:1;"/><line style="stroke:#555555;stroke-width:1;" x1="407.4741" x2="627.4599" y1="973.0508" y2="973.0508"/><text fill="#000000" font-family="sans-serif" font-size="11" lengthAdjust="spacing" textLength="201.9858" x="414.4741" y="968.7305">Resume &#49465;&#49496; &#51200;&#51109; (Experience, Skill, ...)</text></g><g class="message" data-entity-1="part3" data-entity-2="part4" id="msg21"><polygon fill="#555555" points="621.4599,996.0059,631.4599,1000.0059,621.4599,1004.0059,625.4599,1000.0059" style="stroke:#555555;stroke-width:1;"/><line style="stroke:#555555;stroke-width:1;" x1="407.4741" x2="627.4599" y1="1000.0059" y2="1000.0059"/><text fill="#000000" font-family="sans-serif" font-size="11" lengthAdjust="spacing" textLength="124.4216" x="414.4741" y="995.6855">ResumeEmbedding &#51200;&#51109;</text></g><g class="message" data-entity-1="part3" data-entity-2="part4" id="msg22"><polygon fill="#555555" points="621.4599,1022.9609,631.4599,1026.9609,621.4599,1030.9609,625.4599,1026.9609" style="stroke:#555555;stroke-width:1;"/><line style="stroke:#555555;stroke-width:1;" x1="407.4741" x2="627.4599" y1="1026.9609" y2="1026.9609"/><text fill="#000000" font-family="sans-serif" font-size="11" lengthAdjust="spacing" textLength="112.7446" x="414.4741" y="1022.6406">status = COMPLETED</text></g><g class="message" data-entity-1="part3" data-entity-2="part4" id="msg23"><polygon fill="#555555" points="621.4599,1049.916,631.4599,1053.916,621.4599,1057.916,625.4599,1053.916" style="stroke:#555555;stroke-width:1;"/><line style="stroke:#555555;stroke-width:1;" x1="402.4741" x2="627.4599" y1="1053.916" y2="1053.916"/><text fill="#000000" font-family="sans-serif" font-size="11" lengthAdjust="spacing" textLength="92.8179" x="409.4741" y="1049.5957">TokenUsage.log()</text></g><rect fill="#EEEEEE" height="3" style="stroke:#EEEEEE;stroke-width:1;" width="1206.4249" x="0" y="1081.3936"/><line style="stroke:#000000;stroke-width:1;" x1="0" x2="1206.4249" y1="1081.3936" y2="1081.3936"/><line style="stroke:#000000;stroke-width:1;" x1="0" x2="1206.4249" y1="1084.3936" y2="1084.3936"/><rect fill="#EEEEEE" height="20.9551" style="stroke:#000000;stroke-width:2;" width="74.5217" x="565.9516" y="1071.916"/><text fill="#000000" font-family="sans-serif" font-size="11" font-weight="bold" lengthAdjust="spacing" textLength="56.8962" x="571.9516" y="1086.5508">D. SSE &#50508;&#47548;</text><g class="message" data-entity-1="part3" data-entity-2="part2" id="msg24"><polygon fill="#555555" points="196.3018,1117.8262,186.3018,1121.8262,196.3018,1125.8262,192.3018,1121.8262" style="stroke:#555555;stroke-width:1;"/><line style="stroke:#555555;stroke-width:1;" x1="190.3018" x2="401.4741" y1="1121.8262" y2="1121.8262"/><text fill="#000000" font-family="sans-serif" font-size="11" lengthAdjust="spacing" textLength="171.7783" x="202.3018" y="1117.5059">SSE event { status: COMPLETED }</text></g><g class="message" data-entity-1="part2" data-entity-2="part3" id="msg25"><polygon fill="#555555" points="390.4741,1144.7813,400.4741,1148.7813,390.4741,1152.7813,394.4741,1148.7813" style="stroke:#555555;stroke-width:1;"/><line style="stroke:#555555;stroke-width:1;" x1="185.3018" x2="396.4741" y1="1148.7813" y2="1148.7813"/><text fill="#000000" font-family="sans-serif" font-size="11" lengthAdjust="spacing" textLength="117.6323" x="192.3018" y="1144.4609">GET /resumes/{uuid}/</text></g><g class="message" data-entity-1="part3" data-entity-2="part2" id="msg26"><polygon fill="#555555" points="196.3018,1171.7363,186.3018,1175.7363,196.3018,1179.7363,192.3018,1175.7363" style="stroke:#555555;stroke-width:1;"/><line style="stroke:#555555;stroke-width:1;stroke-dasharray:2,2;" x1="190.3018" x2="401.4741" y1="1175.7363" y2="1175.7363"/><text fill="#000000" font-family="sans-serif" font-size="11" lengthAdjust="spacing" textLength="83.0809" x="202.3018" y="1171.416">&#51204;&#52404; &#51060;&#47141;&#49436; &#45936;&#51060;&#53552;</text></g><g class="message" data-entity-1="part2" data-entity-2="part1" id="msg27"><polygon fill="#555555" points="33.2725,1198.6914,23.2725,1202.6914,33.2725,1206.6914,29.2725,1202.6914" style="stroke:#555555;stroke-width:1;"/><line style="stroke:#555555;stroke-width:1;" x1="27.2725" x2="184.3018" y1="1202.6914" y2="1202.6914"/><text fill="#000000" font-family="sans-serif" font-size="11" lengthAdjust="spacing" textLength="139.0293" x="39.2725" y="1198.3711">"&#48516;&#49437; &#50756;&#47308;" &#48176;&#51648; + &#49345;&#49464; &#54168;&#51060;&#51648;</text></g><text fill="#888888" font-family="sans-serif" font-size="10" lengthAdjust="spacing" textLength="203.5994" x="500.9128" y="1303.3145">MeFit - &#51060;&#47141;&#49436; &#48516;&#49437; (analysis-resume &#46020;&#47700;&#51064;)</text><?plantuml-src TLLTJzjc5Bv_VyLHTXDhJI9AMtLecPIGfA8A44ZGljY5YT-a7iRsx3Si527HONOnsEWsga6Re5IZdP2G5YYhcDR-cLtMR_x3pcixZfEboOtZyvolvvppXAbCe-3-UTrxSW09uEqhj_E2EormNplSQGFVQ_Msj_aFfn0lM8REgAx0lz__0bcvkjf_bdLPsx1LEs5Hkx56uLF3MgMMH8YzgkgcRCbhi8BmkcKqT6NQq0mBFYZanJU2K6XDRcYiW3dAwaCA4nCHeqs_QL2zIc6J06Gio_Ws27FR--3BebgZHLMdMSDIg1LORqvyTASm6RMEbf6_MxXLo26Y95jChQgchBFn8QA0zqJP8aIkCdmHuz-TywTd_EHn36GRbeWvS8POdqVFXXmC6GDUFLisJnIPoIkoJI5MCcnMjsXveUZPSjbXl_8an5TeegPgr9OyH7cI86aDT5saYcelwwDZwZtooriOZZG2MzRzSNfG_t4OFszIFJFZcOl5MKBIQSWaeRU_pzjlWF-swpvlkR-suDtbMto2U2bNW1JavgS_ao2T9cG94fyW2p0LkZYTtauRFXpu4ZGZA2j0fVbo1L9-QNOAucp3f6dHjIIuLzTbHWLl8D3eWxHC0N_ss7rr_R-IGb0kYw15BsJSPZ9hsEdSOgPGaO3ljBbp4GAz2Weg4eGRwZkKgRMkLf6bE4xRFJY6tj4rVzsIXeFxKG6PcSiKF_zYPkvUQ5z0Cux7b5drGNX9m6HxrGumVNuseT5G5TWY2ess6h3ZGShbFBpxwzmzs5tMKxPDGw8sXUjMAfojNr3AcrOs6Hxxitt-podmooFtvRatdGKHsfywXZSRckQLDk0ws0WIO4OeT_TE-TEhWEu190oORp8BGrLearKmBB9Osl0NH36gpPkioL15T0FpM6hz0GEZray8uBxwsUsSGmr_Jn4XHG97n6u2Ft7SouvxU8QmGLRSJapfholarrQeegXw7JAb6Q4GQ4n4IrkdufI_dBWzUUShGZKyGG4HExHtCIPitMI9MqPYJTLLiGkXZ0fzn8dmvztUyI7SBy_FIUEoRGAAdQRPDu0sJMgfGknkG3APn75ZRsGSUSEBAFY3-DU6gaiHiDYklbJpjostU-7DRrdFcAQsaGdMGKJGl0b4Twi_MboHwUHeb70vl9lm5gCgQvhG-R676BanlF2_-UuHyCusFta1yNoaux9WmMjS6kSwc9hl_9uhcvwVBHNpbNnks5uni8CbMwxJf6RKuzBe8M6ZkQHtG_p9llloZTTaTlYww3f5qTiCSaqDKk6W8Z9rBnzHgU3uIFIOUSVXbrVH_ziVk_YZvtI597wSy56n_c4UE-xl-p5mkrt-nxRGnfr7t459--a8dV0L8JK3rz-2MLfGsRW_ylYe_Bi7ZdjsoDlNqdy0?></g></svg>