<?plantuml 1.2026.1?><svg xmlns="http://www.w3.org/2000/svg" xmlns:xlink="http://www.w3.org/1999/xlink" contentStyleType="text/css" data-diagram-type="SEQUENCE" height="1742px" preserveAspectRatio="none" style="width:1292px;height:1742px;background:#FEFEFE;" version="1.1" viewBox="0 0 1292 1742" width="1292px" zoomAndPan="magnify"><title>&#48120;&#54607; - &#49892;&#49884;&#44036; &#50508;&#47548; &#49884;&#53248;&#49828; (SSE + Redis Channel Layer + &#45796;&#51473; &#51060;&#48292;&#53944; &#49548;&#49828;)</title><defs/><g><rect fill="#FEFEFE" height="1742" style="stroke:none;stroke-width:1;" width="1292" x="0" y="0"/><text fill="#000000" font-family="sans-serif" font-size="14" font-weight="bold" lengthAdjust="spacing" textLength="469.1013" x="407.6796" y="28.5352">&#48120;&#54607; - &#49892;&#49884;&#44036; &#50508;&#47548; &#49884;&#53248;&#49828; (SSE + Redis Channel Layer + &#45796;&#51473; &#51060;&#48292;&#53944; &#49548;&#49828;)</text><g><title>Backend</title><rect fill="#E8F4FD" height="119.7754" style="stroke:#181818;stroke-width:1;" width="10" x="445.4671" y="225.2637"/></g><g><title>Backend</title><rect fill="#E8F4FD" height="146.7305" style="stroke:#181818;stroke-width:1;" width="10" x="445.4671" y="722.4551"/></g><g><title>Backend</title><rect fill="#E8F4FD" height="26.9551" style="stroke:#181818;stroke-width:1;" width="10" x="445.4671" y="950.0508"/></g><g><title>Backend</title><rect fill="#E8F4FD" height="53.9102" style="stroke:#181818;stroke-width:1;" width="10" x="445.4671" y="1151.7813"/></g><g><title>Backend</title><rect fill="#E8F4FD" height="39.9102" style="stroke:#181818;stroke-width:1;" width="10" x="445.4671" y="1592.0625"/></g><rect fill="none" height="123.7754" style="stroke:#000000;stroke-width:1.5;" width="1265.4605" x="10" y="1374.4219"/><g class="participant-lifeline" data-entity-uid="part1" data-qualified-name="U" id="part1-lifeline"><g><title>...</title><rect fill="#000000" fill-opacity="0.00000" height="1534.5293" width="8" x="33.2725" y="115.4434"/><line style="stroke:#2196F3;stroke-width:0.5;stroke-dasharray:5,5;" x1="37" x2="37" y1="115.4434" y2="1649.9727"/></g></g><g class="participant-lifeline" data-entity-uid="part2" data-qualified-name="FE" id="part2-lifeline"><g><title>Frontend</title><rect fill="#000000" fill-opacity="0.00000" height="1534.5293" width="8" x="179.0013" y="115.4434"/><line style="stroke:#2196F3;stroke-width:0.5;stroke-dasharray:5,5;" x1="182.1761" x2="182.1761" y1="115.4434" y2="1649.9727"/></g></g><g class="participant-lifeline" data-entity-uid="part3" data-qualified-name="BE" id="part3-lifeline"><g><title>Backend</title><rect fill="#000000" fill-opacity="0.00000" height="1534.5293" width="8" x="446.4671" y="115.4434"/><line style="stroke:#2196F3;stroke-width:0.5;stroke-dasharray:5,5;" x1="450.4441" x2="450.4441" y1="115.4434" y2="1649.9727"/></g></g><g class="participant-lifeline" data-entity-uid="part4" data-qualified-name="Redis" id="part4-lifeline"><g><title>Redis</title><rect fill="#000000" fill-opacity="0.00000" height="1534.5293" width="8" x="656.9134" y="115.4434"/><line style="stroke:#2196F3;stroke-width:0.5;stroke-dasharray:5,5;" x1="660.1143" x2="660.1143" y1="115.4434" y2="1649.9727"/></g></g><g class="participant-lifeline" data-entity-uid="part5" data-qualified-name="DB" id="part5-lifeline"><g><title>PostgreSQL</title><rect fill="#000000" fill-opacity="0.00000" height="1534.5293" width="8" x="791.9034" y="115.4434"/><line style="stroke:#2196F3;stroke-width:0.5;stroke-dasharray:5,5;" x1="795.7124" x2="795.7124" y1="115.4434" y2="1649.9727"/></g></g><g class="participant-lifeline" data-entity-uid="part6" data-qualified-name="Worker" id="part6-lifeline"><g><title>Celery Worker</title><rect fill="#000000" fill-opacity="0.00000" height="1534.5293" width="8" x="1056.2491" y="115.4434"/><line style="stroke:#2196F3;stroke-width:0.5;stroke-dasharray:5,5;" x1="1059.3711" x2="1059.3711" y1="115.4434" y2="1649.9727"/></g></g><g class="participant-lifeline" data-entity-uid="part7" data-qualified-name="SMTP" id="part7-lifeline"><g><title>Email</title><rect fill="#000000" fill-opacity="0.00000" height="1534.5293" width="8" x="1236.666" y="115.4434"/><line style="stroke:#2196F3;stroke-width:0.5;stroke-dasharray:5,5;" x1="1239.8716" x2="1239.8716" y1="115.4434" y2="1649.9727"/></g></g><g class="participant participant-head" data-entity-uid="part1" data-qualified-name="U" id="part1-head"><text fill="#000000" font-family="sans-serif" font-size="11" lengthAdjust="spacing" textLength="28.545" x="20" y="113.123">&#49324;&#50857;&#51088;</text><ellipse cx="37.2725" cy="50.9883" fill="#E2E2F0" rx="8" ry="8" style="stroke:#2196F3;stroke-width:0.5;"/><path d="M37.2725,58.9883 L37.2725,85.9883 M24.2725,66.9883 L50.2725,66.9883 M37.2725,85.9883 L24.2725,100.9883 M37.2725,85.9883 L50.2725,100.9883" fill="none" style="stroke:#2196F3;stroke-width:0.5;"/></g><g class="participant participant-tail" data-entity-uid="part1" data-qualified-name="U" id="part1-tail"><text fill="#000000" font-family="sans-serif" font-size="11" lengthAdjust="spacing" textLength="28.545" x="20" y="1659.6074">&#49324;&#50857;&#51088;</text><ellipse cx="37.2725" cy="1670.4277" fill="#E2E2F0" rx="8" ry="8" style="stroke:#2196F3;stroke-width:0.5;"/><path d="M37.2725,1678.4277 L37.2725,1705.4277 M24.2725,1686.4277 L50.2725,1686.4277 M37.2725,1705.4277 L24.2725,1720.4277 M37.2725,1705.4277 L50.2725,1720.4277" fill="none" style="stroke:#2196F3;stroke-width:0.5;"/></g><g class="participant participant-head" data-entity-uid="part2" data-qualified-name="FE" id="part2-head"><rect fill="#E8F4FD" height="39.9102" rx="2.5" ry="2.5" style="stroke:#2196F3;stroke-width:0.5;" width="85.6504" x="140.1761" y="74.5332"/><text fill="#000000" font-family="sans-serif" font-size="11" lengthAdjust="spacing" textLength="47.9746" x="159.0139" y="92.168">Frontend</text><text fill="#000000" font-family="sans-serif" font-size="11" lengthAdjust="spacing" textLength="71.6504" x="147.1761" y="105.123">(EventSource)</text></g><g class="participant participant-tail" data-entity-uid="part2" data-qualified-name="FE" id="part2-tail"><rect fill="#E8F4FD" height="39.9102" rx="2.5" ry="2.5" style="stroke:#2196F3;stroke-width:0.5;" width="85.6504" x="140.1761" y="1648.9727"/><text fill="#000000" font-family="sans-serif" font-size="11" lengthAdjust="spacing" textLength="47.9746" x="159.0139" y="1666.6074">Frontend</text><text fill="#000000" font-family="sans-serif" font-size="11" lengthAdjust="spacing" textLength="71.6504" x="147.1761" y="1679.5625">(EventSource)</text></g><g class="participant participant-head" data-entity-uid="part3" data-qualified-name="BE" id="part3-head"><rect fill="#E8F4FD" height="52.8652" rx="2.5" ry="2.5" style="stroke:#2196F3;stroke-width:0.5;" width="110.0459" x="395.4441" y="61.5781"/><text fill="#000000" font-family="sans-serif" font-size="11" lengthAdjust="spacing" textLength="44.3438" x="428.2952" y="79.2129">Backend</text><text fill="#000000" font-family="sans-serif" font-size="11" lengthAdjust="spacing" textLength="96.0459" x="402.4441" y="92.168">UserSseConsumer</text><text fill="#000000" font-family="sans-serif" font-size="11" lengthAdjust="spacing" textLength="64.0825" x="418.4258" y="105.123">(JWT Bearer)</text></g><g class="participant participant-tail" data-entity-uid="part3" data-qualified-name="BE" id="part3-tail"><rect fill="#E8F4FD" height="52.8652" rx="2.5" ry="2.5" style="stroke:#2196F3;stroke-width:0.5;" width="110.0459" x="395.4441" y="1648.9727"/><text fill="#000000" font-family="sans-serif" font-size="11" lengthAdjust="spacing" textLength="44.3438" x="428.2952" y="1666.6074">Backend</text><text fill="#000000" font-family="sans-serif" font-size="11" lengthAdjust="spacing" textLength="96.0459" x="402.4441" y="1679.5625">UserSseConsumer</text><text fill="#000000" font-family="sans-serif" font-size="11" lengthAdjust="spacing" textLength="64.0825" x="418.4258" y="1692.5176">(JWT Bearer)</text></g><g class="participant participant-head" data-entity-uid="part4" data-qualified-name="Redis" id="part4-head"><path d="M574.1143,66.5781 L747.7124,66.5781 C752.7124,66.5781 752.7124,91.0107 752.7124,91.0107 C752.7124,91.0107 752.7124,115.4434 747.7124,115.4434 L574.1143,115.4434 C569.1143,115.4434 569.1143,91.0107 569.1143,91.0107 C569.1143,91.0107 569.1143,66.5781 574.1143,66.5781" fill="#E2E2F0" style="stroke:#181818;stroke-width:0.5;"/><path d="M747.7124,66.5781 C742.7124,66.5781 742.7124,91.0107 742.7124,91.0107 C742.7124,115.4434 747.7124,115.4434 747.7124,115.4434" fill="none" style="stroke:#181818;stroke-width:0.5;"/><text fill="#000000" font-family="sans-serif" font-size="11" lengthAdjust="spacing" textLength="28.7944" x="641.5161" y="82.2129">Redis</text><text fill="#000000" font-family="sans-serif" font-size="11" lengthAdjust="spacing" textLength="75.2705" x="618.2781" y="95.168">Channel Layer</text><text fill="#000000" font-family="sans-serif" font-size="11" lengthAdjust="spacing" textLength="163.5981" x="574.1143" y="108.123">(group: user_{id}_notifications)</text></g><g class="participant participant-tail" data-entity-uid="part4" data-qualified-name="Redis" id="part4-tail"><path d="M574.1143,1648.9727 L747.7124,1648.9727 C752.7124,1648.9727 752.7124,1673.4053 752.7124,1673.4053 C752.7124,1673.4053 752.7124,1697.8379 747.7124,1697.8379 L574.1143,1697.8379 C569.1143,1697.8379 569.1143,1673.4053 569.1143,1673.4053 C569.1143,1673.4053 569.1143,1648.9727 574.1143,1648.9727" fill="#E2E2F0" style="stroke:#181818;stroke-width:0.5;"/><path d="M747.7124,1648.9727 C742.7124,1648.9727 742.7124,1673.4053 742.7124,1673.4053 C742.7124,1697.8379 747.7124,1697.8379 747.7124,1697.8379" fill="none" style="stroke:#181818;stroke-width:0.5;"/><text fill="#000000" font-family="sans-serif" font-size="11" lengthAdjust="spacing" textLength="28.7944" x="641.5161" y="1664.6074">Redis</text><text fill="#000000" font-family="sans-serif" font-size="11" lengthAdjust="spacing" textLength="75.2705" x="618.2781" y="1677.5625">Channel Layer</text><text fill="#000000" font-family="sans-serif" font-size="11" lengthAdjust="spacing" textLength="163.5981" x="574.1143" y="1690.5176">(group: user_{id}_notifications)</text></g><g class="participant participant-head" data-entity-uid="part5" data-qualified-name="DB" id="part5-head"><text fill="#000000" font-family="sans-serif" font-size="11" lengthAdjust="spacing" textLength="60.3818" x="762.7124" y="113.123">PostgreSQL</text><path d="M777.9034,66.4883 C777.9034,56.4883 795.9034,56.4883 795.9034,56.4883 C795.9034,56.4883 813.9034,56.4883 813.9034,66.4883 L813.9034,92.4883 C813.9034,102.4883 795.9034,102.4883 795.9034,102.4883 C795.9034,102.4883 777.9034,102.4883 777.9034,92.4883 L777.9034,66.4883" fill="#E2E2F0" style="stroke:#181818;stroke-width:0.5;"/><path d="M777.9034,66.4883 C777.9034,76.4883 795.9034,76.4883 795.9034,76.4883 C795.9034,76.4883 813.9034,76.4883 813.9034,66.4883" fill="none" style="stroke:#181818;stroke-width:0.5;"/></g><g class="participant participant-tail" data-entity-uid="part5" data-qualified-name="DB" id="part5-tail"><text fill="#000000" font-family="sans-serif" font-size="11" lengthAdjust="spacing" textLength="60.3818" x="762.7124" y="1659.6074">PostgreSQL</text><path d="M777.9034,1671.9277 C777.9034,1661.9277 795.9034,1661.9277 795.9034,1661.9277 C795.9034,1661.9277 813.9034,1661.9277 813.9034,1671.9277 L813.9034,1697.9277 C813.9034,1707.9277 795.9034,1707.9277 795.9034,1707.9277 C795.9034,1707.9277 777.9034,1707.9277 777.9034,1697.9277 L777.9034,1671.9277" fill="#E2E2F0" style="stroke:#181818;stroke-width:0.5;"/><path d="M777.9034,1671.9277 C777.9034,1681.9277 795.9034,1681.9277 795.9034,1681.9277 C795.9034,1681.9277 813.9034,1681.9277 813.9034,1671.9277" fill="none" style="stroke:#181818;stroke-width:0.5;"/></g><g class="participant participant-head" data-entity-uid="part6" data-qualified-name="Worker" id="part6-head"><rect fill="#E8F4FD" height="52.8652" rx="2.5" ry="2.5" style="stroke:#2196F3;stroke-width:0.5;" width="153.7559" x="983.3711" y="61.5781"/><text fill="#000000" font-family="sans-serif" font-size="11" lengthAdjust="spacing" textLength="74.5024" x="1022.9978" y="79.2129">Celery Worker</text><text fill="#000000" font-family="sans-serif" font-size="11" lengthAdjust="spacing" textLength="95.1812" x="1012.6585" y="92.168">(analysis-resume,</text><text fill="#000000" font-family="sans-serif" font-size="11" lengthAdjust="spacing" textLength="139.7559" x="990.3711" y="105.123">interview-analysis-report)</text></g><g class="participant participant-tail" data-entity-uid="part6" data-qualified-name="Worker" id="part6-tail"><rect fill="#E8F4FD" height="52.8652" rx="2.5" ry="2.5" style="stroke:#2196F3;stroke-width:0.5;" width="153.7559" x="983.3711" y="1648.9727"/><text fill="#000000" font-family="sans-serif" font-size="11" lengthAdjust="spacing" textLength="74.5024" x="1022.9978" y="1666.6074">Celery Worker</text><text fill="#000000" font-family="sans-serif" font-size="11" lengthAdjust="spacing" textLength="95.1812" x="1012.6585" y="1679.5625">(analysis-resume,</text><text fill="#000000" font-family="sans-serif" font-size="11" lengthAdjust="spacing" textLength="139.7559" x="990.3711" y="1692.5176">interview-analysis-report)</text></g><g class="participant participant-head" data-entity-uid="part7" data-qualified-name="SMTP" id="part7-head"><rect fill="#E8F4FD" height="39.9102" rx="2.5" ry="2.5" style="stroke:#2196F3;stroke-width:0.5;" width="49.5889" x="1215.8716" y="74.5332"/><text fill="#000000" font-family="sans-serif" font-size="11" lengthAdjust="spacing" textLength="28.6655" x="1226.3333" y="92.168">Email</text><text fill="#000000" font-family="sans-serif" font-size="11" lengthAdjust="spacing" textLength="35.5889" x="1222.8716" y="105.123">(SMTP)</text></g><g class="participant participant-tail" data-entity-uid="part7" data-qualified-name="SMTP" id="part7-tail"><rect fill="#E8F4FD" height="39.9102" rx="2.5" ry="2.5" style="stroke:#2196F3;stroke-width:0.5;" width="49.5889" x="1215.8716" y="1648.9727"/><text fill="#000000" font-family="sans-serif" font-size="11" lengthAdjust="spacing" textLength="28.6655" x="1226.3333" y="1666.6074">Email</text><text fill="#000000" font-family="sans-serif" font-size="11" lengthAdjust="spacing" textLength="35.5889" x="1222.8716" y="1679.5625">(SMTP)</text></g><g><title>Backend</title><rect fill="#E8F4FD" height="119.7754" style="stroke:#181818;stroke-width:1;" width="10" x="445.4671" y="225.2637"/></g><g><title>Backend</title><rect fill="#E8F4FD" height="146.7305" style="stroke:#181818;stroke-width:1;" width="10" x="445.4671" y="722.4551"/></g><g><title>Backend</title><rect fill="#E8F4FD" height="26.9551" style="stroke:#181818;stroke-width:1;" width="10" x="445.4671" y="950.0508"/></g><g><title>Backend</title><rect fill="#E8F4FD" height="53.9102" style="stroke:#181818;stroke-width:1;" width="10" x="445.4671" y="1151.7813"/></g><g><title>Backend</title><rect fill="#E8F4FD" height="39.9102" style="stroke:#181818;stroke-width:1;" width="10" x="445.4671" y="1592.0625"/></g><rect fill="#EEEEEE" height="3" style="stroke:#EEEEEE;stroke-width:1;" width="1285.4605" x="0" y="144.9209"/><line style="stroke:#000000;stroke-width:1;" x1="0" x2="1285.4605" y1="144.9209" y2="144.9209"/><line style="stroke:#000000;stroke-width:1;" x1="0" x2="1285.4605" y1="147.9209" y2="147.9209"/><rect fill="#EEEEEE" height="20.9551" style="stroke:#000000;stroke-width:2;" width="123.8124" x="580.824" y="135.4434"/><text fill="#000000" font-family="sans-serif" font-size="11" font-weight="bold" lengthAdjust="spacing" textLength="106.187" x="586.824" y="150.0781">Step 1. SSE &#50672;&#44208; &#49688;&#47549;</text><g class="message" data-entity-1="part1" data-entity-2="part2" id="msg1"><polygon fill="#555555" points="171.0013,181.3535,181.0013,185.3535,171.0013,189.3535,175.0013,185.3535" style="stroke:#555555;stroke-width:1;"/><line style="stroke:#555555;stroke-width:1;" x1="37.2725" x2="177.0013" y1="185.3535" y2="185.3535"/><text fill="#000000" font-family="sans-serif" font-size="11" lengthAdjust="spacing" textLength="112.7457" x="44.2725" y="181.0332">&#54168;&#51060;&#51648; &#51652;&#51077; (&#47196;&#44536;&#51064; &#49345;&#53468;)</text></g><g class="message" data-entity-1="part2" data-entity-2="part3" id="msg2"><polygon fill="#555555" points="433.4671,221.2637,443.4671,225.2637,433.4671,229.2637,437.4671,225.2637" style="stroke:#555555;stroke-width:1;"/><line style="stroke:#555555;stroke-width:1;" x1="183.0013" x2="439.4671" y1="225.2637" y2="225.2637"/><text fill="#000000" font-family="sans-serif" font-size="11" lengthAdjust="spacing" textLength="125.2915" x="190.0013" y="207.9883">GET /sse/notifications/</text><text fill="#000000" font-family="sans-serif" font-size="11" lengthAdjust="spacing" textLength="144.0957" x="190.0013" y="220.9434">Authorization: Bearer {JWT}</text></g><g class="message" data-entity-1="part3" data-entity-2="part3" id="msg3"><line style="stroke:#555555;stroke-width:1;" x1="455.4671" x2="497.4671" y1="252.2188" y2="252.2188"/><line style="stroke:#555555;stroke-width:1;" x1="497.4671" x2="497.4671" y1="252.2188" y2="265.2188"/><line style="stroke:#555555;stroke-width:1;" x1="456.4671" x2="497.4671" y1="265.2188" y2="265.2188"/><polygon fill="#555555" points="466.4671,261.2188,456.4671,265.2188,466.4671,269.2188,462.4671,265.2188" style="stroke:#555555;stroke-width:1;"/><text fill="#000000" font-family="sans-serif" font-size="11" lengthAdjust="spacing" textLength="147.6088" x="462.4671" y="247.8984">JWT &#44160;&#51613; + current_user &#44208;&#51221;</text></g><g class="message" data-entity-1="part3" data-entity-2="part4" id="msg4"><polygon fill="#555555" points="648.9134,301.1289,658.9134,305.1289,648.9134,309.1289,652.9134,305.1289" style="stroke:#555555;stroke-width:1;"/><line style="stroke:#555555;stroke-width:1;" x1="455.4671" x2="654.9134" y1="305.1289" y2="305.1289"/><text fill="#000000" font-family="sans-serif" font-size="11" lengthAdjust="spacing" textLength="57.2881" x="462.4671" y="287.8535">group_add</text><text fill="#000000" font-family="sans-serif" font-size="11" lengthAdjust="spacing" textLength="181.4463" x="462.4671" y="300.8086">("user_{id}_notifications", channel)</text></g><g class="message" data-entity-1="part3" data-entity-2="part2" id="msg5"><polygon fill="#555555" points="194.0013,341.0391,184.0013,345.0391,194.0013,349.0391,190.0013,345.0391" style="stroke:#555555;stroke-width:1;"/><line style="stroke:#555555;stroke-width:1;stroke-dasharray:2,2;" x1="188.0013" x2="449.4671" y1="345.0391" y2="345.0391"/><text fill="#000000" font-family="sans-serif" font-size="11" lengthAdjust="spacing" textLength="40.0737" x="200.0013" y="327.7637">200 OK</text><text fill="#000000" font-family="sans-serif" font-size="11" lengthAdjust="spacing" textLength="180.2808" x="200.0013" y="340.7188">Content-Type: text/event-stream</text></g><g class="message" data-entity-1="part2" data-entity-2="part2" id="msg6"><line style="stroke:#555555;stroke-width:1;" x1="183.0013" x2="225.0013" y1="371.9941" y2="371.9941"/><line style="stroke:#555555;stroke-width:1;" x1="225.0013" x2="225.0013" y1="371.9941" y2="384.9941"/><line style="stroke:#555555;stroke-width:1;" x1="184.0013" x2="225.0013" y1="384.9941" y2="384.9941"/><polygon fill="#555555" points="194.0013,380.9941,184.0013,384.9941,194.0013,388.9941,190.0013,384.9941" style="stroke:#555555;stroke-width:1;"/><text fill="#000000" font-family="sans-serif" font-size="11" lengthAdjust="spacing" textLength="158.2118" x="190.0013" y="367.6738">EventSource &#54876;&#49457;&#54868; (&#51088;&#46041; &#51116;&#50672;&#44208;)</text></g><rect fill="#EEEEEE" height="3" style="stroke:#EEEEEE;stroke-width:1;" width="1285.4605" x="0" y="412.4717"/><line style="stroke:#000000;stroke-width:1;" x1="0" x2="1285.4605" y1="412.4717" y2="412.4717"/><line style="stroke:#000000;stroke-width:1;" x1="0" x2="1285.4605" y1="415.4717" y2="415.4717"/><rect fill="#EEEEEE" height="20.9551" style="stroke:#000000;stroke-width:2;" width="217.7591" x="533.8507" y="402.9941"/><text fill="#000000" font-family="sans-serif" font-size="11" font-weight="bold" lengthAdjust="spacing" textLength="200.1336" x="539.8507" y="417.6289">Step 2-A. &#51060;&#48292;&#53944; &#49548;&#49828; &#8212; &#51060;&#47141;&#49436; &#48516;&#49437; &#50756;&#47308;</text><g class="message" data-entity-1="part6" data-entity-2="part5" id="msg7"><polygon fill="#555555" points="806.9034,461.8594,796.9034,465.8594,806.9034,469.8594,802.9034,465.8594" style="stroke:#555555;stroke-width:1;"/><line style="stroke:#555555;stroke-width:1;" x1="800.9034" x2="1059.2491" y1="465.8594" y2="465.8594"/><text fill="#000000" font-family="sans-serif" font-size="11" lengthAdjust="spacing" textLength="158.1411" x="812.9034" y="448.584">Resume.status = COMPLETED</text><text fill="#000000" font-family="sans-serif" font-size="11" lengthAdjust="spacing" textLength="124.4216" x="812.9034" y="461.5391">ResumeEmbedding &#51200;&#51109;</text></g><g class="message" data-entity-1="part6" data-entity-2="part5" id="msg8"><polygon fill="#555555" points="806.9034,488.8145,796.9034,492.8145,806.9034,496.8145,802.9034,492.8145" style="stroke:#555555;stroke-width:1;"/><line style="stroke:#555555;stroke-width:1;" x1="800.9034" x2="1059.2491" y1="492.8145" y2="492.8145"/><text fill="#000000" font-family="sans-serif" font-size="11" lengthAdjust="spacing" textLength="193.021" x="812.9034" y="488.4941">Notification(type=resume_analyzed)</text></g><g class="message" data-entity-1="part6" data-entity-2="part4" id="msg9"><polygon fill="#555555" points="671.9134,528.7246,661.9134,532.7246,671.9134,536.7246,667.9134,532.7246" style="stroke:#555555;stroke-width:1;"/><line style="stroke:#555555;stroke-width:1;" x1="665.9134" x2="1059.2491" y1="532.7246" y2="532.7246"/><text fill="#000000" font-family="sans-serif" font-size="11" lengthAdjust="spacing" textLength="62.8525" x="677.9134" y="515.4492">group_send</text><text fill="#000000" font-family="sans-serif" font-size="11" lengthAdjust="spacing" textLength="181.6289" x="677.9134" y="528.4043">("user_{id}_notifications", payload)</text></g><rect fill="#EEEEEE" height="3" style="stroke:#EEEEEE;stroke-width:1;" width="1285.4605" x="0" y="560.2021"/><line style="stroke:#000000;stroke-width:1;" x1="0" x2="1285.4605" y1="560.2021" y2="560.2021"/><line style="stroke:#000000;stroke-width:1;" x1="0" x2="1285.4605" y1="563.2021" y2="563.2021"/><rect fill="#EEEEEE" height="20.9551" style="stroke:#000000;stroke-width:2;" width="239.2437" x="523.1084" y="550.7246"/><text fill="#000000" font-family="sans-serif" font-size="11" font-weight="bold" lengthAdjust="spacing" textLength="221.6182" x="529.1084" y="565.3594">Step 2-B. &#51060;&#48292;&#53944; &#49548;&#49828; &#8212; &#47732;&#51217; &#48516;&#49437; &#47532;&#54252;&#53944; &#50756;&#47308;</text><g class="message" data-entity-1="part6" data-entity-2="part5" id="msg10"><polygon fill="#555555" points="806.9034,596.6348,796.9034,600.6348,806.9034,604.6348,802.9034,600.6348" style="stroke:#555555;stroke-width:1;"/><line style="stroke:#555555;stroke-width:1;" x1="800.9034" x2="1059.2491" y1="600.6348" y2="600.6348"/><text fill="#000000" font-family="sans-serif" font-size="11" lengthAdjust="spacing" textLength="240.3457" x="812.9034" y="596.3145">InterviewAnalysisReport(status=COMPLETED)</text></g><g class="message" data-entity-1="part6" data-entity-2="part5" id="msg11"><polygon fill="#555555" points="806.9034,623.5898,796.9034,627.5898,806.9034,631.5898,802.9034,627.5898" style="stroke:#555555;stroke-width:1;"/><line style="stroke:#555555;stroke-width:1;" x1="800.9034" x2="1059.2491" y1="627.5898" y2="627.5898"/><text fill="#000000" font-family="sans-serif" font-size="11" lengthAdjust="spacing" textLength="222.3257" x="812.9034" y="623.2695">Notification(type=interview_report_ready)</text></g><g class="message" data-entity-1="part6" data-entity-2="part4" id="msg12"><polygon fill="#555555" points="671.9134,650.5449,661.9134,654.5449,671.9134,658.5449,667.9134,654.5449" style="stroke:#555555;stroke-width:1;"/><line style="stroke:#555555;stroke-width:1;" x1="665.9134" x2="1059.2491" y1="654.5449" y2="654.5449"/><text fill="#000000" font-family="sans-serif" font-size="11" lengthAdjust="spacing" textLength="80.4482" x="677.9134" y="650.2246">group_send(...)</text></g><rect fill="#EEEEEE" height="3" style="stroke:#EEEEEE;stroke-width:1;" width="1285.4605" x="0" y="682.0225"/><line style="stroke:#000000;stroke-width:1;" x1="0" x2="1285.4605" y1="682.0225" y2="682.0225"/><line style="stroke:#000000;stroke-width:1;" x1="0" x2="1285.4605" y1="685.0225" y2="685.0225"/><rect fill="#EEEEEE" height="20.9551" style="stroke:#000000;stroke-width:2;" width="269.0266" x="508.2169" y="672.5449"/><text fill="#000000" font-family="sans-serif" font-size="11" font-weight="bold" lengthAdjust="spacing" textLength="251.4011" x="514.2169" y="687.1797">Step 2-C. &#51060;&#48292;&#53944; &#49548;&#49828; &#8212; &#50629;&#51201; &#45804;&#49457; / &#49828;&#53944;&#47533; &#47560;&#51068;&#49828;&#53668;</text><g class="message" data-entity-1="part3" data-entity-2="part5" id="msg13"><polygon fill="#555555" points="783.9034,718.4551,793.9034,722.4551,783.9034,726.4551,787.9034,722.4551" style="stroke:#555555;stroke-width:1;"/><line style="stroke:#555555;stroke-width:1;" x1="455.4671" x2="789.9034" y1="722.4551" y2="722.4551"/><text fill="#000000" font-family="sans-serif" font-size="11" lengthAdjust="spacing" textLength="146.1778" x="462.4671" y="718.1348">&#49324;&#50857;&#51088; &#54665;&#46041; &#44592;&#47197; (signal hook)</text></g><g class="message" data-entity-1="part3" data-entity-2="part3" id="msg14"><line style="stroke:#555555;stroke-width:1;" x1="455.4671" x2="497.4671" y1="762.3652" y2="762.3652"/><line style="stroke:#555555;stroke-width:1;" x1="497.4671" x2="497.4671" y1="762.3652" y2="775.3652"/><line style="stroke:#555555;stroke-width:1;" x1="456.4671" x2="497.4671" y1="775.3652" y2="775.3652"/><polygon fill="#555555" points="466.4671,771.3652,456.4671,775.3652,466.4671,779.3652,462.4671,775.3652" style="stroke:#555555;stroke-width:1;"/><text fill="#000000" font-family="sans-serif" font-size="11" lengthAdjust="spacing" textLength="149.7622" x="462.4671" y="745.0898">EvaluateAchievementService</text><text fill="#000000" font-family="sans-serif" font-size="11" lengthAdjust="spacing" textLength="120.3716" x="462.4671" y="758.0449">+ UpdateStreakService</text></g><g class="message" data-entity-1="part3" data-entity-2="part5" id="msg15"><polygon fill="#555555" points="783.9034,798.3203,793.9034,802.3203,783.9034,806.3203,787.9034,802.3203" style="stroke:#555555;stroke-width:1;"/><line style="stroke:#555555;stroke-width:1;" x1="455.4671" x2="789.9034" y1="802.3203" y2="802.3203"/><text fill="#000000" font-family="sans-serif" font-size="11" lengthAdjust="spacing" textLength="180.2702" x="462.4671" y="798">UserAchievement / StreakLog &#51200;&#51109;</text></g><g class="message" data-entity-1="part3" data-entity-2="part5" id="msg16"><polygon fill="#555555" points="783.9034,838.2305,793.9034,842.2305,783.9034,846.2305,787.9034,842.2305" style="stroke:#555555;stroke-width:1;"/><line style="stroke:#555555;stroke-width:1;" x1="455.4671" x2="789.9034" y1="842.2305" y2="842.2305"/><text fill="#000000" font-family="sans-serif" font-size="11" lengthAdjust="spacing" textLength="206.3091" x="462.4671" y="824.9551">Notification(type=achievement_earned</text><text fill="#000000" font-family="sans-serif" font-size="11" lengthAdjust="spacing" textLength="116.6335" x="462.4671" y="837.9102">&#46608;&#45716; streak_milestone)</text></g><g class="message" data-entity-1="part3" data-entity-2="part4" id="msg17"><polygon fill="#555555" points="648.9134,865.1855,658.9134,869.1855,648.9134,873.1855,652.9134,869.1855" style="stroke:#555555;stroke-width:1;"/><line style="stroke:#555555;stroke-width:1;" x1="450.4671" x2="654.9134" y1="869.1855" y2="869.1855"/><text fill="#000000" font-family="sans-serif" font-size="11" lengthAdjust="spacing" textLength="80.4482" x="457.4671" y="864.8652">group_send(...)</text></g><rect fill="#EEEEEE" height="3" style="stroke:#EEEEEE;stroke-width:1;" width="1285.4605" x="0" y="896.6631"/><line style="stroke:#000000;stroke-width:1;" x1="0" x2="1285.4605" y1="896.6631" y2="896.6631"/><line style="stroke:#000000;stroke-width:1;" x1="0" x2="1285.4605" y1="899.6631" y2="899.6631"/><rect fill="#EEEEEE" height="20.9551" style="stroke:#000000;stroke-width:2;" width="237.0809" x="524.1898" y="887.1855"/><text fill="#000000" font-family="sans-serif" font-size="11" font-weight="bold" lengthAdjust="spacing" textLength="219.4554" x="530.1898" y="901.8203">Step 3. Channel Layer &#8594; &#53364;&#46972;&#51060;&#50616;&#53944; push</text><g class="message" data-entity-1="part4" data-entity-2="part3" id="msg18"><polygon fill="#555555" points="466.4671,946.0508,456.4671,950.0508,466.4671,954.0508,462.4671,950.0508" style="stroke:#555555;stroke-width:1;"/><line style="stroke:#555555;stroke-width:1;" x1="460.4671" x2="659.9134" y1="950.0508" y2="950.0508"/><text fill="#000000" font-family="sans-serif" font-size="11" lengthAdjust="spacing" textLength="114.1628" x="472.4671" y="932.7754">channel message &#49688;&#49888;</text><text fill="#000000" font-family="sans-serif" font-size="11" lengthAdjust="spacing" textLength="103.5066" x="472.4671" y="945.7305">(SSE consumer &#53084;&#48177;)</text></g><g class="message" data-entity-1="part3" data-entity-2="part2" id="msg19"><polygon fill="#555555" points="194.0013,973.0059,184.0013,977.0059,194.0013,981.0059,190.0013,977.0059" style="stroke:#555555;stroke-width:1;"/><line style="stroke:#555555;stroke-width:1;" x1="188.0013" x2="449.4671" y1="977.0059" y2="977.0059"/><text fill="#000000" font-family="sans-serif" font-size="11" lengthAdjust="spacing" textLength="238.4658" x="200.0013" y="972.6855">data: { type, title, body, url, timestamp }\n\n</text></g><g class="message" data-entity-1="part2" data-entity-2="part2" id="msg20"><line style="stroke:#555555;stroke-width:1;" x1="183.0013" x2="225.0013" y1="1003.9609" y2="1003.9609"/><line style="stroke:#555555;stroke-width:1;" x1="225.0013" x2="225.0013" y1="1003.9609" y2="1016.9609"/><line style="stroke:#555555;stroke-width:1;" x1="184.0013" x2="225.0013" y1="1016.9609" y2="1016.9609"/><polygon fill="#555555" points="194.0013,1012.9609,184.0013,1016.9609,194.0013,1020.9609,190.0013,1016.9609" style="stroke:#555555;stroke-width:1;"/><text fill="#000000" font-family="sans-serif" font-size="11" lengthAdjust="spacing" textLength="160.2603" x="190.0013" y="999.6406">EventSource.onmessage &#54648;&#46308;&#47084;</text></g><g class="message" data-entity-1="part2" data-entity-2="part2" id="msg21"><line style="stroke:#555555;stroke-width:1;" x1="183.0013" x2="225.0013" y1="1043.916" y2="1043.916"/><line style="stroke:#555555;stroke-width:1;" x1="225.0013" x2="225.0013" y1="1043.916" y2="1056.916"/><line style="stroke:#555555;stroke-width:1;" x1="184.0013" x2="225.0013" y1="1056.916" y2="1056.916"/><polygon fill="#555555" points="194.0013,1052.916,184.0013,1056.916,194.0013,1060.916,190.0013,1056.916" style="stroke:#555555;stroke-width:1;"/><text fill="#000000" font-family="sans-serif" font-size="11" lengthAdjust="spacing" textLength="150.3593" x="190.0013" y="1039.5957">&#50508;&#47548; UI &#44081;&#49888; (toast + &#54756;&#45908; &#48176;&#51648;)</text></g><rect fill="#EEEEEE" height="3" style="stroke:#EEEEEE;stroke-width:1;" width="1285.4605" x="0" y="1084.3936"/><line style="stroke:#000000;stroke-width:1;" x1="0" x2="1285.4605" y1="1084.3936" y2="1084.3936"/><line style="stroke:#000000;stroke-width:1;" x1="0" x2="1285.4605" y1="1087.3936" y2="1087.3936"/><rect fill="#EEEEEE" height="20.9551" style="stroke:#000000;stroke-width:2;" width="189.4936" x="547.9834" y="1074.916"/><text fill="#000000" font-family="sans-serif" font-size="11" font-weight="bold" lengthAdjust="spacing" textLength="171.8681" x="553.9834" y="1089.5508">Step 4. &#49324;&#50857;&#51088; &#51064;&#53552;&#47001;&#49496; &#8594; &#49345;&#49464; &#51312;&#54924;</text><g class="message" data-entity-1="part1" data-entity-2="part2" id="msg22"><polygon fill="#555555" points="171.0013,1120.8262,181.0013,1124.8262,171.0013,1128.8262,175.0013,1124.8262" style="stroke:#555555;stroke-width:1;"/><line style="stroke:#555555;stroke-width:1;" x1="37.2725" x2="177.0013" y1="1124.8262" y2="1124.8262"/><text fill="#000000" font-family="sans-serif" font-size="11" lengthAdjust="spacing" textLength="41.5405" x="44.2725" y="1120.5059">&#50508;&#47548; &#53364;&#47533;</text></g><g class="message" data-entity-1="part2" data-entity-2="part3" id="msg23"><polygon fill="#555555" points="433.4671,1147.7813,443.4671,1151.7813,433.4671,1155.7813,437.4671,1151.7813" style="stroke:#555555;stroke-width:1;"/><line style="stroke:#555555;stroke-width:1;" x1="183.0013" x2="439.4671" y1="1151.7813" y2="1151.7813"/><text fill="#000000" font-family="sans-serif" font-size="11" lengthAdjust="spacing" textLength="179.2227" x="190.0013" y="1147.4609">GET /api/v1/notifications/{uuid}/</text></g><g class="message" data-entity-1="part3" data-entity-2="part5" id="msg24"><polygon fill="#555555" points="783.9034,1174.7363,793.9034,1178.7363,783.9034,1182.7363,787.9034,1178.7363" style="stroke:#555555;stroke-width:1;"/><line style="stroke:#555555;stroke-width:1;" x1="455.4671" x2="789.9034" y1="1178.7363" y2="1178.7363"/><text fill="#000000" font-family="sans-serif" font-size="11" lengthAdjust="spacing" textLength="156.9865" x="462.4671" y="1174.416">Notification &#51312;&#54924; + read=True</text></g><g class="message" data-entity-1="part3" data-entity-2="part2" id="msg25"><polygon fill="#555555" points="194.0013,1201.6914,184.0013,1205.6914,194.0013,1209.6914,190.0013,1205.6914" style="stroke:#555555;stroke-width:1;"/><line style="stroke:#555555;stroke-width:1;stroke-dasharray:2,2;" x1="188.0013" x2="449.4671" y1="1205.6914" y2="1205.6914"/><text fill="#000000" font-family="sans-serif" font-size="11" lengthAdjust="spacing" textLength="120.9521" x="200.0013" y="1201.3711">&#50508;&#47548; &#49345;&#49464; + deeplink url</text></g><g class="message" data-entity-1="part2" data-entity-2="part1" id="msg26"><polygon fill="#555555" points="48.2725,1241.6016,38.2725,1245.6016,48.2725,1249.6016,44.2725,1245.6016" style="stroke:#555555;stroke-width:1;"/><line style="stroke:#555555;stroke-width:1;" x1="42.2725" x2="182.0013" y1="1245.6016" y2="1245.6016"/><text fill="#000000" font-family="sans-serif" font-size="11" lengthAdjust="spacing" textLength="115.1064" x="54.2725" y="1228.3262">&#54644;&#45817; &#46020;&#47700;&#51064; &#54868;&#47732;&#51004;&#47196; &#51060;&#46041;</text><text fill="#000000" font-family="sans-serif" font-size="11" lengthAdjust="spacing" textLength="121.7288" x="54.2725" y="1241.2813">(&#51060;&#47141;&#49436; / &#47532;&#54252;&#53944; / &#50629;&#51201; &#46321;)</text></g><rect fill="#EEEEEE" height="3" style="stroke:#EEEEEE;stroke-width:1;" width="1285.4605" x="0" y="1273.0791"/><line style="stroke:#000000;stroke-width:1;" x1="0" x2="1285.4605" y1="1273.0791" y2="1273.0791"/><line style="stroke:#000000;stroke-width:1;" x1="0" x2="1285.4605" y1="1276.0791" y2="1276.0791"/><rect fill="#EEEEEE" height="20.9551" style="stroke:#000000;stroke-width:2;" width="326.9423" x="479.2591" y="1263.6016"/><text fill="#000000" font-family="sans-serif" font-size="11" font-weight="bold" lengthAdjust="spacing" textLength="309.3168" x="485.2591" y="1278.2363">Step 5. &#51060;&#47700;&#51068; &#50508;&#47548; (UserEmailNotificationSettings &#46041;&#51032; &#49884;)</text><path d="M800,1299.5566 L800,1334.5566 L1120,1334.5566 L1120,1309.5566 L1110,1299.5566 L800,1299.5566" fill="#FEFFDD" style="stroke:#181818;stroke-width:0.5;"/><path d="M1110,1299.5566 L1110,1309.5566 L1120,1309.5566 L1110,1299.5566" fill="#FEFFDD" style="stroke:#181818;stroke-width:0.5;"/><text fill="#000000" font-family="sans-serif" font-size="11" lengthAdjust="spacing" textLength="299.5894" x="806" y="1315.1914">UserEmailNotificationSettings.{type}_subscribed &#44050;&#50640; &#46384;&#46972;</text><text fill="#000000" font-family="sans-serif" font-size="11" lengthAdjust="spacing" textLength="232.5643" x="806" y="1328.1465">Celery &#44032; &#48708;&#46041;&#44592;&#47196; SMTP &#48156;&#49569; &#8212; SSE &#54392;&#49884;&#50752; &#48337;&#54665;</text><g class="message" data-entity-1="part6" data-entity-2="part5" id="msg27"><polygon fill="#555555" points="806.9034,1355.4219,796.9034,1359.4219,806.9034,1363.4219,802.9034,1359.4219" style="stroke:#555555;stroke-width:1;"/><line style="stroke:#555555;stroke-width:1;" x1="800.9034" x2="1059.2491" y1="1359.4219" y2="1359.4219"/><text fill="#000000" font-family="sans-serif" font-size="11" lengthAdjust="spacing" textLength="96.0764" x="812.9034" y="1355.1016">&#49324;&#50857;&#51088; &#50508;&#47548; &#49444;&#51221; &#51312;&#54924;</text></g><path d="M10,1374.4219 L69.502,1374.4219 L69.502,1379.377 L59.502,1389.377 L10,1389.377 L10,1374.4219" fill="#EEEEEE" style="stroke:#000000;stroke-width:1.5;"/><rect fill="none" height="123.7754" style="stroke:#000000;stroke-width:1.5;" width="1265.4605" x="10" y="1374.4219"/><text fill="#000000" font-family="sans-serif" font-size="11" font-weight="bold" lengthAdjust="spacing" textLength="14.502" x="25" y="1386.0566">alt</text><text fill="#000000" font-family="sans-serif" font-size="11" font-weight="bold" lengthAdjust="spacing" textLength="82.0093" x="84.502" y="1387.0566">[&#51060;&#47700;&#51068; &#49688;&#49888; &#46041;&#51032;]</text><g class="message" data-entity-1="part6" data-entity-2="part7" id="msg28"><polygon fill="#555555" points="1228.666,1404.332,1238.666,1408.332,1228.666,1412.332,1232.666,1408.332" style="stroke:#555555;stroke-width:1;"/><line style="stroke:#555555;stroke-width:1;" x1="1060.2491" x2="1234.666" y1="1408.332" y2="1408.332"/><text fill="#000000" font-family="sans-serif" font-size="11" lengthAdjust="spacing" textLength="156.417" x="1067.2491" y="1404.0117">send_mail(template, payload)</text></g><g class="message" data-entity-1="part7" data-entity-2="part1" id="msg29"><polygon fill="#555555" points="48.2725,1431.2871,38.2725,1435.2871,48.2725,1439.2871,44.2725,1435.2871" style="stroke:#555555;stroke-width:1;"/><line style="stroke:#555555;stroke-width:1;stroke-dasharray:2,2;" x1="42.2725" x2="1239.666" y1="1435.2871" y2="1435.2871"/><text fill="#000000" font-family="sans-serif" font-size="11" lengthAdjust="spacing" textLength="51.0555" x="54.2725" y="1430.9668">&#51060;&#47700;&#51068; &#49688;&#49888;</text></g><line style="stroke:#000000;stroke-width:1;stroke-dasharray:2,2;" x1="10" x2="1275.4605" y1="1444.2871" y2="1444.2871"/><text fill="#000000" font-family="sans-serif" font-size="11" font-weight="bold" lengthAdjust="spacing" textLength="38.1457" x="15" y="1454.9219">[&#46041;&#51032; X]</text><g class="message" data-entity-1="part6" data-entity-2="part6" id="msg30"><line style="stroke:#555555;stroke-width:1;" x1="1060.2491" x2="1102.2491" y1="1477.1973" y2="1477.1973"/><line style="stroke:#555555;stroke-width:1;" x1="1102.2491" x2="1102.2491" y1="1477.1973" y2="1490.1973"/><line style="stroke:#555555;stroke-width:1;" x1="1061.2491" x2="1102.2491" y1="1490.1973" y2="1490.1973"/><polygon fill="#555555" points="1071.2491,1486.1973,1061.2491,1490.1973,1071.2491,1494.1973,1067.2491,1490.1973" style="stroke:#555555;stroke-width:1;"/><text fill="#000000" font-family="sans-serif" font-size="11" lengthAdjust="spacing" textLength="22.1396" x="1067.2491" y="1472.877">skip</text></g><rect fill="#EEEEEE" height="3" style="stroke:#EEEEEE;stroke-width:1;" width="1285.4605" x="0" y="1524.6748"/><line style="stroke:#000000;stroke-width:1;" x1="0" x2="1285.4605" y1="1524.6748" y2="1524.6748"/><line style="stroke:#000000;stroke-width:1;" x1="0" x2="1285.4605" y1="1527.6748" y2="1527.6748"/><rect fill="#EEEEEE" height="20.9551" style="stroke:#000000;stroke-width:2;" width="101.0121" x="592.2242" y="1515.1973"/><text fill="#000000" font-family="sans-serif" font-size="11" font-weight="bold" lengthAdjust="spacing" textLength="83.3867" x="598.2242" y="1529.832">Step 6. &#50672;&#44208; &#51333;&#47308;</text><g class="message" data-entity-1="part1" data-entity-2="part2" id="msg31"><polygon fill="#555555" points="171.0013,1561.1074,181.0013,1565.1074,171.0013,1569.1074,175.0013,1565.1074" style="stroke:#555555;stroke-width:1;"/><line style="stroke:#555555;stroke-width:1;" x1="37.2725" x2="177.0013" y1="1565.1074" y2="1565.1074"/><text fill="#000000" font-family="sans-serif" font-size="11" lengthAdjust="spacing" textLength="101.845" x="44.2725" y="1560.7871">&#54168;&#51060;&#51648; &#51060;&#53448; / &#47196;&#44536;&#50500;&#50883;</text></g><g class="message" data-entity-1="part2" data-entity-2="part3" id="msg32"><polygon fill="#555555" points="433.4671,1588.0625,443.4671,1592.0625,433.4671,1596.0625,437.4671,1592.0625" style="stroke:#555555;stroke-width:1;"/><line style="stroke:#555555;stroke-width:1;" x1="183.0013" x2="439.4671" y1="1592.0625" y2="1592.0625"/><text fill="#000000" font-family="sans-serif" font-size="11" lengthAdjust="spacing" textLength="102.4375" x="190.0013" y="1587.7422">EventSource.close()</text></g><g class="message" data-entity-1="part3" data-entity-2="part4" id="msg33"><polygon fill="#555555" points="648.9134,1627.9727,658.9134,1631.9727,648.9134,1635.9727,652.9134,1631.9727" style="stroke:#555555;stroke-width:1;"/><line style="stroke:#555555;stroke-width:1;" x1="450.4671" x2="654.9134" y1="1631.9727" y2="1631.9727"/><text fill="#000000" font-family="sans-serif" font-size="11" lengthAdjust="spacing" textLength="76.2104" x="457.4671" y="1614.6973">group_discard</text><text fill="#000000" font-family="sans-serif" font-size="11" lengthAdjust="spacing" textLength="181.4463" x="457.4671" y="1627.6523">("user_{id}_notifications", channel)</text></g><text fill="#888888" font-family="sans-serif" font-size="10" lengthAdjust="spacing" textLength="372.8672" x="455.7967" y="1732.5957">MeFit - &#49892;&#49884;&#44036; &#50508;&#47548; (UserSseConsumer + Channels Channel Layer + &#51060;&#47700;&#51068; &#48337;&#54665;)</text><?plantuml-src ZLTTJnj757tVNt55Nsm5so5VQb5T2HkxIaiQ6eFI1qlMO0-mydhNdPqb8GY958FIG4j88E3Kfj0wH968QbBKKedycJooi_-XTtRNzjf04a32pDov7-UUUsRWAjSes7yTEvjh406nqX0hjTDc1SJcghr_WWirPs51F6v0A9D9mIMuGmkg2SbfekjKWn4oIncksdYkiGwYVcI_RJYFZq4ih-AXiAAOHLKl4qPAC47onIbcM7eXQMW6Wy_IAVaTi2ZGIM9fF6teFAC-e30m4DWqwOyMrVCKvXI08SQCUxwRw-wNNCnpWoKCLg3CtxeoyCMDz5NS6b4dwOYgqu_izcQO-ZnzBJsC5gE4SJMlbedEptSHDFWKBy4Q0HB6_IwtYSk9LFAwlt76NJALJWyeyuf2PC7G9tuw42zUYvqdVK1C65VAdJ3GbsOOYUg5h1vApL0CQbWiJyEkAOBVPIj3kQRZ9cKPaoODtRHAbE7PR-wEGO8IHfbtD95Ii1qMXJwN45czYn5uGAPS7WGBFUNcrC9yJZUuEgdc2LVHg-V4FQeK22SJn4HNeuR9fnZDV3_YRWydkjDBKesoMRXhiA8RWkX4cpLLCyAeJBC_gwjOAfjHwRr8OAziCEx5yqvsEqsLYAgXiyojiL7FIdvIb7WSCfoMOI0AalXYgtdwjWdYqRQz_mxYSKKPXyXNY20CWlFhDX9Vl5e0yQeYTfOWPE_LJlyz5dMSWyM7pc8jhA0XcYUa-TUfCOYP9err8HBBwaCMdpQO-i1T6FJXXZc4VbwsMfqXd4hWGVffUPEDENsx8FRhE8PvYp7iSKwYZgjDiRlPjlO6Tn3SnkH8GJAYxuBszFL3tkjds3_VglNAvSjm-rjijyig7XcRBTD1uFG-Zr59huZ96IKbfK236NlLkmu290IdMXELGwUw0I5ahxrM1R5pu24TxdJWIcGeUaPPuFt2Xhku-r9KQc3_Kn6LEeXgnVvprMsFrsiPTZY1OU-u58cQd73BX3WaRzyQ7KcDfOQpkhULAatGGa7Lfq3iBeYTbxqElWlW4-9OTTnZNSvbsWDQ20TET6DjUkFt0R3BP5OpIA6hwCG5HTklZyJkUgjYU__0MJjmJIwi_MPhAeRyeRZZpaJ80oFUXYByyPhR0vRpvWf_aSBiXqiFHQFHhigI5xLpQqdiFiIxv01P0J70TRImzz-0_UgHg9_8lvSRReKUfTqas-e7plEV9OTEZvlsNXr2fZg5zSAqOHJ35yzFQePe5cuCvQTLP719ibEMcATP_HACbr6TQ4PokkWlju-xqQLI1evYrfxnYD4cKfVzMKX9vtGE9rwdo1Lx-udzU0FSMIhcIgf6JMxeD7p1C7TGxXwxDkPNepqtzllbf-0yFB8HL5IkvyUo4sNBd7R1zPot0FA504hKDCaKbH8eLdQbOg8ivlqR0iIxcjqyF1zdT-wboW_27CYQ-u7BPqS_J1Y5sNwmc2PNC00dfJBCPxCw_doIX4GDlPMNitbiFslOlny4JVrNpFXDE6qUOjeGuWOnEKgbizMmVy5fQZPHk0Fql1ODC0eLtAaqxPsgMDfsCKCv5nKaxLxJUR7QSmtuiIIi-s_E23ufgx6PWHxDdxCib8FOkQYTeKihwYMGGnSVOnRj4UVMcyrByXA-fsXPK_MYHBW7pd7uCkBVNfj7zif_OAzLxDSRyif2FPOQKpl1MymTrBKgThkZjR60wCJQG_liC03YTM_2fR-JLbOXEIhkRHiiAaCvHz4rCNvLrBVbUpFiuef0KM3gr3G7Or8-1G0-w20w9vardpEj2JFFL1HpRFbJiVK4x8qcyXpF---7q-O2sFzLCA2h53NtmaSYrCJodgj3ajZE-Z6c8gfe-lSw2ek28mOofpFg6c2B3t-bWVUktos5Q3o8XJiyVh6OKiUNcyGWo57EoHf3d9RA6dOhS3k0PoNxFIuZzxXLg8QlA1_87xgy-v_GVr4jorewlReHRJzk_bXgtI3dFcxgHyxY8zb-xtMpMH6_BGPv7fpBl6QOD7I-7dIB5txE4_Qfhv4UWPiqi2KCRj6qoi_xzoNKyvB5eV25yEp_C1qulPQ7_mS0?></g></svg>