<?plantuml 1.2026.1?><svg xmlns="http://www.w3.org/2000/svg" xmlns:xlink="http://www.w3.org/1999/xlink" contentStyleType="text/css" data-diagram-type="CLASS" height="1033px" preserveAspectRatio="none" style="width:1122px;height:1033px;background:#FEFEFE;" version="1.1" viewBox="0 0 1122 1033" width="1122px" zoomAndPan="magnify"><title>&#48120;&#54607; - Interview &#46020;&#47700;&#51064; &#53364;&#47000;&#49828; &#45796;&#51060;&#50612;&#44536;&#47016;</title><defs/><g><rect fill="#FEFEFE" height="1033" style="stroke:none;stroke-width:1;" width="1122" x="0" y="0"/><g class="title" data-source-line="1"><text fill="#000000" font-family="sans-serif" font-size="14" font-weight="bold" lengthAdjust="spacing" textLength="256.6605" x="425.9223" y="23.5352">&#48120;&#54607; - Interview &#46020;&#47700;&#51064; &#53364;&#47000;&#49828; &#45796;&#51060;&#50612;&#44536;&#47016;</text></g><!--class User--><g class="entity" data-qualified-name="User" data-source-line="22" id="ent0002"><rect fill="#ECEFF1" height="86.0645" rx="2.5" ry="2.5" style="stroke:#607D8B;stroke-width:0.5;" width="100.3867" x="550.55" y="44.4883"/><ellipse cx="573.0725" cy="61.8545" fill="#ADD1B2" rx="9" ry="9" style="stroke:#181818;stroke-width:1;"/><path d="M574.3787,65.6235 Q574.0027,65.8169 573.5891,65.9136 Q573.1755,66.0103 572.719,66.0103 Q571.0969,66.0103 570.2429,64.9414 Q569.3889,63.8726 569.3889,61.853 Q569.3889,59.8281 570.2429,58.7593 Q571.0969,57.6904 572.719,57.6904 Q573.1755,57.6904 573.5945,57.7871 Q574.0134,57.8838 574.3787,58.0771 L574.3787,59.8389 Q573.9705,59.4629 573.5864,59.2883 Q573.2024,59.1138 572.7942,59.1138 Q571.9241,59.1138 571.481,59.804 Q571.0378,60.4941 571.0378,61.853 Q571.0378,63.2065 571.481,63.8967 Q571.9241,64.5869 572.7942,64.5869 Q573.2024,64.5869 573.5864,64.4124 Q573.9705,64.2378 574.3787,63.8618 Z " fill="#000000"/><text fill="#000000" font-family="sans-serif" font-size="11" font-style="italic" lengthAdjust="spacing" textLength="55.2256" x="585.1886" y="60.123">&#171;external&#187;</text><text fill="#455A64" font-family="sans-serif" font-size="10" lengthAdjust="spacing" textLength="21.6895" x="601.9567" y="72.1113">User</text><line style="stroke:#607D8B;stroke-width:0.5;" x1="551.55" x2="649.9367" y1="79.2207" y2="79.2207"/><g data-visibility-modifier="PUBLIC_FIELD"><ellipse cx="561.55" cy="90.6094" fill="none" rx="3" ry="3" style="stroke:#038048;stroke-width:1;"/></g><text fill="#455A64" font-family="sans-serif" font-size="10" lengthAdjust="spacing" textLength="76.3867" x="568.55" y="92.8887">id: BigAutoField</text><g data-visibility-modifier="PUBLIC_FIELD"><ellipse cx="561.55" cy="102.3867" fill="none" rx="3" ry="3" style="stroke:#038048;stroke-width:1;"/></g><text fill="#455A64" font-family="sans-serif" font-size="10" lengthAdjust="spacing" textLength="45.4688" x="568.55" y="104.666">email: str</text><line style="stroke:#607D8B;stroke-width:1;" x1="551.55" x2="649.9367" y1="110.7754" y2="110.7754"/><text fill="#455A64" font-family="sans-serif" font-size="10" lengthAdjust="spacing" textLength="61.6824" x="556.55" y="124.4434">(users &#46020;&#47700;&#51064;)</text></g><!--class Resume--><g class="entity" data-qualified-name="Resume" data-source-line="29" id="ent0003"><rect fill="#ECEFF1" height="74.2871" rx="2.5" ry="2.5" style="stroke:#607D8B;stroke-width:0.5;" width="127.5303" x="685.97" y="50.3783"/><ellipse cx="720.7071" cy="67.7445" fill="#ADD1B2" rx="9" ry="9" style="stroke:#181818;stroke-width:1;"/><path d="M722.0133,71.5135 Q721.6373,71.7069 721.2237,71.8036 Q720.8101,71.9003 720.3536,71.9003 Q718.7315,71.9003 717.8775,70.8314 Q717.0235,69.7626 717.0235,67.743 Q717.0235,65.7181 717.8775,64.6493 Q718.7315,63.5804 720.3536,63.5804 Q720.8101,63.5804 721.2291,63.6771 Q721.648,63.7738 722.0133,63.9671 L722.0133,65.7289 Q721.6051,65.3529 721.221,65.1783 Q720.837,65.0038 720.4288,65.0038 Q719.5587,65.0038 719.1156,65.694 Q718.6724,66.3841 718.6724,67.743 Q718.6724,69.0965 719.1156,69.7867 Q719.5587,70.4769 720.4288,70.4769 Q720.837,70.4769 721.221,70.3024 Q721.6051,70.1278 722.0133,69.7518 Z " fill="#000000"/><text fill="#000000" font-family="sans-serif" font-size="11" font-style="italic" lengthAdjust="spacing" textLength="55.2256" x="735.5376" y="66.013">&#171;external&#187;</text><text fill="#455A64" font-family="sans-serif" font-size="10" lengthAdjust="spacing" textLength="38.1055" x="744.0976" y="78.0013">Resume</text><line style="stroke:#607D8B;stroke-width:0.5;" x1="686.97" x2="812.5003" y1="85.1107" y2="85.1107"/><g data-visibility-modifier="PUBLIC_FIELD"><ellipse cx="696.97" cy="96.4994" fill="none" rx="3" ry="3" style="stroke:#038048;stroke-width:1;"/></g><text fill="#455A64" font-family="sans-serif" font-size="10" lengthAdjust="spacing" textLength="52.1533" x="703.97" y="98.7787">uuid: UUID</text><g data-visibility-modifier="PUBLIC_FIELD"><ellipse cx="696.97" cy="108.2767" fill="none" rx="3" ry="3" style="stroke:#038048;stroke-width:1;"/></g><text fill="#455A64" font-family="sans-serif" font-size="10" lengthAdjust="spacing" textLength="103.5303" x="703.97" y="110.556">status: ResumeStatus</text><line style="stroke:#607D8B;stroke-width:0.5;" x1="686.97" x2="812.5003" y1="116.6654" y2="116.6654"/></g><!--class UserJobDescription--><g class="entity" data-qualified-name="UserJobDescription" data-source-line="34" id="ent0004"><rect fill="#ECEFF1" height="74.2871" rx="2.5" ry="2.5" style="stroke:#607D8B;stroke-width:0.5;" width="160.5088" x="848.48" y="50.3783"/><ellipse cx="879.3609" cy="67.7445" fill="#ADD1B2" rx="9" ry="9" style="stroke:#181818;stroke-width:1;"/><path d="M880.6671,71.5135 Q880.2911,71.7069 879.8775,71.8036 Q879.4639,71.9003 879.0074,71.9003 Q877.3853,71.9003 876.5313,70.8314 Q875.6773,69.7626 875.6773,67.743 Q875.6773,65.7181 876.5313,64.6493 Q877.3853,63.5804 879.0074,63.5804 Q879.4639,63.5804 879.8829,63.6771 Q880.3018,63.7738 880.6671,63.9671 L880.6671,65.7289 Q880.2589,65.3529 879.8748,65.1783 Q879.4908,65.0038 879.0826,65.0038 Q878.2125,65.0038 877.7694,65.694 Q877.3262,66.3841 877.3262,67.743 Q877.3262,69.0965 877.7694,69.7867 Q878.2125,70.4769 879.0826,70.4769 Q879.4908,70.4769 879.8748,70.3024 Q880.2589,70.1278 880.6671,69.7518 Z " fill="#000000"/><text fill="#000000" font-family="sans-serif" font-size="11" font-style="italic" lengthAdjust="spacing" textLength="55.2256" x="914.1084" y="66.013">&#171;external&#187;</text><text fill="#455A64" font-family="sans-serif" font-size="10" lengthAdjust="spacing" textLength="92.7734" x="895.3344" y="78.0013">UserJobDescription</text><line style="stroke:#607D8B;stroke-width:0.5;" x1="849.48" x2="1007.9888" y1="85.1107" y2="85.1107"/><g data-visibility-modifier="PUBLIC_FIELD"><ellipse cx="859.48" cy="96.4994" fill="none" rx="3" ry="3" style="stroke:#038048;stroke-width:1;"/></g><text fill="#455A64" font-family="sans-serif" font-size="10" lengthAdjust="spacing" textLength="52.1533" x="866.48" y="98.7787">uuid: UUID</text><g data-visibility-modifier="PUBLIC_FIELD"><ellipse cx="859.48" cy="108.2767" fill="none" rx="3" ry="3" style="stroke:#038048;stroke-width:1;"/></g><text fill="#455A64" font-family="sans-serif" font-size="10" lengthAdjust="spacing" textLength="136.5088" x="866.48" y="110.556">status: JobDescriptionStatus</text><line style="stroke:#607D8B;stroke-width:0.5;" x1="849.48" x2="1007.9888" y1="116.6654" y2="116.6654"/></g><!--class TicketLog--><g class="entity" data-qualified-name="TicketLog" data-source-line="39" id="ent0005"><rect fill="#ECEFF1" height="74.2871" rx="2.5" ry="2.5" style="stroke:#607D8B;stroke-width:0.5;" width="198.3213" x="512.58" y="509.9183"/><ellipse cx="582.3779" cy="527.2845" fill="#ADD1B2" rx="9" ry="9" style="stroke:#181818;stroke-width:1;"/><path d="M583.684,531.0535 Q583.308,531.2469 582.8945,531.3436 Q582.4809,531.4403 582.0243,531.4403 Q580.4023,531.4403 579.5483,530.3714 Q578.6943,529.3026 578.6943,527.283 Q578.6943,525.2581 579.5483,524.1893 Q580.4023,523.1204 582.0243,523.1204 Q582.4809,523.1204 582.8998,523.2171 Q583.3188,523.3138 583.684,523.5071 L583.684,525.2689 Q583.2758,524.8929 582.8918,524.7183 Q582.5077,524.5438 582.0995,524.5438 Q581.2294,524.5438 580.7863,525.234 Q580.3432,525.9241 580.3432,527.283 Q580.3432,528.6365 580.7863,529.3267 Q581.2294,530.0169 582.0995,530.0169 Q582.5077,530.0169 582.8918,529.8424 Q583.2758,529.6678 583.684,529.2918 Z " fill="#000000"/><text fill="#000000" font-family="sans-serif" font-size="11" font-style="italic" lengthAdjust="spacing" textLength="55.2256" x="597.8779" y="525.553">&#171;external&#187;</text><text fill="#455A64" font-family="sans-serif" font-size="10" lengthAdjust="spacing" textLength="47.2021" x="601.8896" y="537.5413">TicketLog</text><line style="stroke:#607D8B;stroke-width:0.5;" x1="513.58" x2="709.9013" y1="544.6507" y2="544.6507"/><g data-visibility-modifier="PUBLIC_FIELD"><ellipse cx="523.58" cy="556.0394" fill="none" rx="3" ry="3" style="stroke:#038048;stroke-width:1;"/></g><text fill="#455A64" font-family="sans-serif" font-size="10" lengthAdjust="spacing" textLength="174.3213" x="530.58" y="558.3187">action: GRANT/USE/REFUND/EXPIRE</text><g data-visibility-modifier="PUBLIC_FIELD"><ellipse cx="523.58" cy="567.8167" fill="none" rx="3" ry="3" style="stroke:#038048;stroke-width:1;"/></g><text fill="#455A64" font-family="sans-serif" font-size="10" lengthAdjust="spacing" textLength="56.3184" x="530.58" y="570.096">amount: int</text><line style="stroke:#607D8B;stroke-width:0.5;" x1="513.58" x2="709.9013" y1="576.2054" y2="576.2054"/></g><!--class InterviewSession--><g class="entity" data-qualified-name="InterviewSession" data-source-line="44" id="ent0006"><rect fill="#FFF9C4" height="203.8379" rx="2.5" ry="2.5" style="stroke:#FBC02D;stroke-width:0.5;" width="270.0254" x="614.73" y="190.5583"/><ellipse cx="705.8804" cy="207.9245" fill="#ADD1B2" rx="9" ry="9" style="stroke:#181818;stroke-width:1;"/><path d="M707.1865,211.6935 Q706.8106,211.8869 706.397,211.9836 Q705.9834,212.0803 705.5269,212.0803 Q703.9048,212.0803 703.0508,211.0114 Q702.1968,209.9426 702.1968,207.923 Q702.1968,205.8981 703.0508,204.8293 Q703.9048,203.7604 705.5269,203.7604 Q705.9834,203.7604 706.4024,203.8571 Q706.8213,203.9538 707.1865,204.1471 L707.1865,205.9089 Q706.7783,205.5329 706.3943,205.3583 Q706.0103,205.1838 705.6021,205.1838 Q704.732,205.1838 704.2888,205.874 Q703.8457,206.5641 703.8457,207.923 Q703.8457,209.2765 704.2888,209.9667 Q704.732,210.6569 705.6021,210.6569 Q706.0103,210.6569 706.3943,210.4824 Q706.7783,210.3078 707.1865,209.9318 Z " fill="#000000"/><text fill="#000000" font-family="sans-serif" font-size="11" font-style="italic" lengthAdjust="spacing" textLength="65.1245" x="730.9304" y="206.193">&#171;aggregate&#187;</text><text fill="#455A64" font-family="sans-serif" font-size="10" lengthAdjust="spacing" textLength="80.2246" x="723.3804" y="218.1813">InterviewSession</text><line style="stroke:#FBC02D;stroke-width:0.5;" x1="615.73" x2="883.7554" y1="225.2907" y2="225.2907"/><g data-visibility-modifier="PUBLIC_METHOD"><ellipse cx="625.73" cy="236.6794" fill="#84BE84" rx="3" ry="3" style="stroke:#038048;stroke-width:1;"/></g><text fill="#455A64" font-family="sans-serif" font-size="10" lengthAdjust="spacing" textLength="73.877" x="632.73" y="238.9587">uuid: UUID (PK)</text><g data-visibility-modifier="PUBLIC_FIELD"><ellipse cx="625.73" cy="248.4567" fill="none" rx="3" ry="3" style="stroke:#038048;stroke-width:1;"/></g><text fill="#455A64" font-family="sans-serif" font-size="10" lengthAdjust="spacing" textLength="95.1221" x="632.73" y="250.736">user_id: FK -&gt; User</text><g data-visibility-modifier="PUBLIC_FIELD"><ellipse cx="625.73" cy="260.2341" fill="none" rx="3" ry="3" style="stroke:#038048;stroke-width:1;"/></g><text fill="#455A64" font-family="sans-serif" font-size="10" lengthAdjust="spacing" textLength="126.4453" x="632.73" y="262.5134">resume_id: FK -&gt; Resume</text><g data-visibility-modifier="PUBLIC_FIELD"><ellipse cx="625.73" cy="272.0114" fill="none" rx="3" ry="3" style="stroke:#038048;stroke-width:1;"/></g><text fill="#455A64" font-family="sans-serif" font-size="10" lengthAdjust="spacing" textLength="246.0254" x="632.73" y="274.2907">user_job_description_id: FK -&gt; UserJobDescription</text><g data-visibility-modifier="PUBLIC_FIELD"><ellipse cx="625.73" cy="283.7887" fill="none" rx="3" ry="3" style="stroke:#038048;stroke-width:1;"/></g><text fill="#455A64" font-family="sans-serif" font-size="10" lengthAdjust="spacing" textLength="168.501" x="632.73" y="286.068">mode: FOLLOWUP / FULL_PROCESS</text><g data-visibility-modifier="PUBLIC_FIELD"><ellipse cx="625.73" cy="295.5661" fill="none" rx="3" ry="3" style="stroke:#038048;stroke-width:1;"/></g><text fill="#455A64" font-family="sans-serif" font-size="10" lengthAdjust="spacing" textLength="164.0283" x="632.73" y="297.8454">difficulty: EASY / MEDIUM / HARD</text><g data-visibility-modifier="PUBLIC_FIELD"><ellipse cx="625.73" cy="307.3434" fill="none" rx="3" ry="3" style="stroke:#038048;stroke-width:1;"/></g><text fill="#455A64" font-family="sans-serif" font-size="10" lengthAdjust="spacing" textLength="165.2734" x="632.73" y="309.6227">interview_mode: PRACTICE / REAL</text><g data-visibility-modifier="PUBLIC_FIELD"><ellipse cx="625.73" cy="319.1208" fill="none" rx="3" ry="3" style="stroke:#038048;stroke-width:1;"/></g><text fill="#455A64" font-family="sans-serif" font-size="10" lengthAdjust="spacing" textLength="239.4385" x="632.73" y="321.4001">status: IN_PROGRESS / COMPLETED / CANCELLED</text><g data-visibility-modifier="PUBLIC_FIELD"><ellipse cx="625.73" cy="330.8981" fill="none" rx="3" ry="3" style="stroke:#038048;stroke-width:1;"/></g><text fill="#455A64" font-family="sans-serif" font-size="10" lengthAdjust="spacing" textLength="97.3145" x="632.73" y="333.1774">started_at: datetime</text><g data-visibility-modifier="PUBLIC_FIELD"><ellipse cx="625.73" cy="342.6755" fill="none" rx="3" ry="3" style="stroke:#038048;stroke-width:1;"/></g><text fill="#455A64" font-family="sans-serif" font-size="10" lengthAdjust="spacing" textLength="118.4375" x="632.73" y="344.9548">completed_at: datetime?</text><line style="stroke:#FBC02D;stroke-width:1;" x1="615.73" x2="883.7554" y1="351.0641" y2="351.0641"/><g data-visibility-modifier="PUBLIC_METHOD"><ellipse cx="625.73" cy="362.4528" fill="#84BE84" rx="3" ry="3" style="stroke:#038048;stroke-width:1;"/></g><text fill="#455A64" font-family="sans-serif" font-size="10" lengthAdjust="spacing" textLength="28.6963" x="632.73" y="364.7321">start()</text><g data-visibility-modifier="PUBLIC_METHOD"><ellipse cx="625.73" cy="374.2302" fill="#84BE84" rx="3" ry="3" style="stroke:#038048;stroke-width:1;"/></g><text fill="#455A64" font-family="sans-serif" font-size="10" lengthAdjust="spacing" textLength="33.4717" x="632.73" y="376.5095">finish()</text><g data-visibility-modifier="PUBLIC_METHOD"><ellipse cx="625.73" cy="386.0075" fill="#84BE84" rx="3" ry="3" style="stroke:#038048;stroke-width:1;"/></g><text fill="#455A64" font-family="sans-serif" font-size="10" lengthAdjust="spacing" textLength="36.9385" x="632.73" y="388.2868">cancel()</text></g><!--class InterviewTurn--><g class="entity" data-qualified-name="InterviewTurn" data-source-line="61" id="ent0007"><rect fill="#E8F4FD" height="173.5508" rx="2.5" ry="2.5" style="stroke:#2196F3;stroke-width:0.5;" width="286.3779" x="745.55" y="460.2783"/><ellipse cx="851.6589" cy="474.2783" fill="#ADD1B2" rx="9" ry="9" style="stroke:#181818;stroke-width:1;"/><path d="M852.965,478.0473 Q852.5891,478.2407 852.1755,478.3374 Q851.7619,478.434 851.3054,478.434 Q849.6833,478.434 848.8293,477.3652 Q847.9753,476.2963 847.9753,474.2768 Q847.9753,472.2519 848.8293,471.1831 Q849.6833,470.1142 851.3054,470.1142 Q851.7619,470.1142 852.1809,470.2109 Q852.5998,470.3076 852.965,470.5009 L852.965,472.2627 Q852.5568,471.8867 852.1728,471.7121 Q851.7888,471.5376 851.3806,471.5376 Q850.5104,471.5376 850.0673,472.2277 Q849.6242,472.9179 849.6242,474.2768 Q849.6242,475.6303 850.0673,476.3205 Q850.5104,477.0107 851.3806,477.0107 Q851.7888,477.0107 852.1728,476.8361 Q852.5568,476.6616 852.965,476.2856 Z " fill="#000000"/><text fill="#455A64" font-family="sans-serif" font-size="10" lengthAdjust="spacing" textLength="66.6602" x="869.1589" y="478.0576">InterviewTurn</text><line style="stroke:#2196F3;stroke-width:0.5;" x1="746.55" x2="1030.9279" y1="488.2783" y2="488.2783"/><g data-visibility-modifier="PUBLIC_FIELD"><ellipse cx="756.55" cy="499.667" fill="none" rx="3" ry="3" style="stroke:#038048;stroke-width:1;"/></g><text fill="#455A64" font-family="sans-serif" font-size="10" lengthAdjust="spacing" textLength="68.5059" x="763.55" y="501.9462">session_id: FK</text><g data-visibility-modifier="PUBLIC_FIELD"><ellipse cx="756.55" cy="511.4443" fill="none" rx="3" ry="3" style="stroke:#038048;stroke-width:1;"/></g><text fill="#455A64" font-family="sans-serif" font-size="10" lengthAdjust="spacing" textLength="67.6611" x="763.55" y="513.7236">question: text</text><g data-visibility-modifier="PUBLIC_FIELD"><ellipse cx="756.55" cy="523.2216" fill="none" rx="3" ry="3" style="stroke:#038048;stroke-width:1;"/></g><text fill="#455A64" font-family="sans-serif" font-size="10" lengthAdjust="spacing" textLength="262.3779" x="763.55" y="525.5009">question_type: INITIAL / FOLLOWUP / SECTION_INTRO</text><g data-visibility-modifier="PUBLIC_FIELD"><ellipse cx="756.55" cy="534.999" fill="none" rx="3" ry="3" style="stroke:#038048;stroke-width:1;"/></g><text fill="#455A64" font-family="sans-serif" font-size="10" lengthAdjust="spacing" textLength="92.5049" x="763.55" y="537.2783">question_order: int</text><g data-visibility-modifier="PUBLIC_FIELD"><ellipse cx="756.55" cy="546.7763" fill="none" rx="3" ry="3" style="stroke:#038048;stroke-width:1;"/></g><text fill="#455A64" font-family="sans-serif" font-size="10" lengthAdjust="spacing" textLength="88.1104" x="763.55" y="549.0556">answer_text: text?</text><g data-visibility-modifier="PUBLIC_FIELD"><ellipse cx="756.55" cy="558.5537" fill="none" rx="3" ry="3" style="stroke:#038048;stroke-width:1;"/></g><text fill="#455A64" font-family="sans-serif" font-size="10" lengthAdjust="spacing" textLength="110.3857" x="763.55" y="560.833">answer_video_key: str?</text><g data-visibility-modifier="PUBLIC_FIELD"><ellipse cx="756.55" cy="570.331" fill="none" rx="3" ry="3" style="stroke:#038048;stroke-width:1;"/></g><text fill="#455A64" font-family="sans-serif" font-size="10" lengthAdjust="spacing" textLength="111.3672" x="763.55" y="572.6103">answer_audio_key: str?</text><g data-visibility-modifier="PUBLIC_FIELD"><ellipse cx="756.55" cy="582.1084" fill="none" rx="3" ry="3" style="stroke:#038048;stroke-width:1;"/></g><text fill="#455A64" font-family="sans-serif" font-size="10" lengthAdjust="spacing" textLength="97.3145" x="763.55" y="584.3877">started_at: datetime</text><g data-visibility-modifier="PUBLIC_FIELD"><ellipse cx="756.55" cy="593.8857" fill="none" rx="3" ry="3" style="stroke:#038048;stroke-width:1;"/></g><text fill="#455A64" font-family="sans-serif" font-size="10" lengthAdjust="spacing" textLength="113.5352" x="763.55" y="596.165">answered_at: datetime?</text><g data-visibility-modifier="PUBLIC_FIELD"><ellipse cx="756.55" cy="605.663" fill="none" rx="3" ry="3" style="stroke:#038048;stroke-width:1;"/></g><text fill="#455A64" font-family="sans-serif" font-size="10" lengthAdjust="spacing" textLength="135.1514" x="763.55" y="607.9423">voice_analysis_result: JSON?</text><line style="stroke:#2196F3;stroke-width:0.5;" x1="746.55" x2="1030.9279" y1="614.0517" y2="614.0517"/><g data-visibility-modifier="PUBLIC_METHOD"><ellipse cx="756.55" cy="625.4404" fill="#84BE84" rx="3" ry="3" style="stroke:#038048;stroke-width:1;"/></g><text fill="#455A64" font-family="sans-serif" font-size="10" lengthAdjust="spacing" textLength="98.1104" x="763.55" y="627.7197">id: BigAutoField (PK)</text></g><!--class InterviewRecording--><g class="entity" data-qualified-name="InterviewRecording" data-source-line="75" id="ent0008"><rect fill="#E8F4FD" height="173.5508" rx="2.5" ry="2.5" style="stroke:#2196F3;stroke-width:0.5;" width="257.5352" x="857.97" y="699.7183"/><ellipse cx="936.6326" cy="713.7183" fill="#ADD1B2" rx="9" ry="9" style="stroke:#181818;stroke-width:1;"/><path d="M937.9388,717.4873 Q937.5628,717.6807 937.1492,717.7774 Q936.7356,717.874 936.2791,717.874 Q934.657,717.874 933.803,716.8052 Q932.949,715.7363 932.949,713.7168 Q932.949,711.6919 933.803,710.6231 Q934.657,709.5542 936.2791,709.5542 Q936.7356,709.5542 937.1546,709.6509 Q937.5735,709.7476 937.9388,709.9409 L937.9388,711.7027 Q937.5305,711.3267 937.1465,711.1521 Q936.7625,710.9776 936.3543,710.9776 Q935.4842,710.9776 935.041,711.6677 Q934.5979,712.3579 934.5979,713.7168 Q934.5979,715.0703 935.041,715.7605 Q935.4842,716.4507 936.3543,716.4507 Q936.7625,716.4507 937.1465,716.2761 Q937.5305,716.1016 937.9388,715.7256 Z " fill="#000000"/><text fill="#455A64" font-family="sans-serif" font-size="10" lengthAdjust="spacing" textLength="92.71" x="954.1326" y="717.4976">InterviewRecording</text><line style="stroke:#2196F3;stroke-width:0.5;" x1="858.97" x2="1114.5052" y1="727.7183" y2="727.7183"/><g data-visibility-modifier="PUBLIC_FIELD"><ellipse cx="868.97" cy="739.107" fill="none" rx="3" ry="3" style="stroke:#038048;stroke-width:1;"/></g><text fill="#455A64" font-family="sans-serif" font-size="10" lengthAdjust="spacing" textLength="68.5059" x="875.97" y="741.3863">session_id: FK</text><g data-visibility-modifier="PUBLIC_FIELD"><ellipse cx="868.97" cy="750.8843" fill="none" rx="3" ry="3" style="stroke:#038048;stroke-width:1;"/></g><text fill="#455A64" font-family="sans-serif" font-size="10" lengthAdjust="spacing" textLength="56.8652" x="875.97" y="753.1636">turn_id: FK?</text><g data-visibility-modifier="PUBLIC_FIELD"><ellipse cx="868.97" cy="762.6616" fill="none" rx="3" ry="3" style="stroke:#038048;stroke-width:1;"/></g><text fill="#455A64" font-family="sans-serif" font-size="10" lengthAdjust="spacing" textLength="106.6895" x="875.97" y="764.9409">scaled_video_key: str?</text><g data-visibility-modifier="PUBLIC_FIELD"><ellipse cx="868.97" cy="774.439" fill="none" rx="3" ry="3" style="stroke:#038048;stroke-width:1;"/></g><text fill="#455A64" font-family="sans-serif" font-size="10" lengthAdjust="spacing" textLength="85.332" x="875.97" y="776.7183">frame_prefix: str?</text><g data-visibility-modifier="PUBLIC_FIELD"><ellipse cx="868.97" cy="786.2163" fill="none" rx="3" ry="3" style="stroke:#038048;stroke-width:1;"/></g><text fill="#455A64" font-family="sans-serif" font-size="10" lengthAdjust="spacing" textLength="72.1729" x="875.97" y="788.4956">audio_key: str?</text><g data-visibility-modifier="PUBLIC_FIELD"><ellipse cx="868.97" cy="797.9937" fill="none" rx="3" ry="3" style="stroke:#038048;stroke-width:1;"/></g><text fill="#455A64" font-family="sans-serif" font-size="10" lengthAdjust="spacing" textLength="107.6709" x="875.97" y="800.273">scaled_audio_key: str?</text><g data-visibility-modifier="PUBLIC_FIELD"><ellipse cx="868.97" cy="809.771" fill="none" rx="3" ry="3" style="stroke:#038048;stroke-width:1;"/></g><text fill="#455A64" font-family="sans-serif" font-size="10" lengthAdjust="spacing" textLength="130.1416" x="875.97" y="812.0503">face_analysis_result: JSON?</text><g data-visibility-modifier="PUBLIC_FIELD"><ellipse cx="868.97" cy="821.5484" fill="none" rx="3" ry="3" style="stroke:#038048;stroke-width:1;"/></g><text fill="#455A64" font-family="sans-serif" font-size="10" lengthAdjust="spacing" textLength="233.5352" x="875.97" y="823.8277">transcript_status: PENDING/COMPLETED/FAILED</text><g data-visibility-modifier="PUBLIC_FIELD"><ellipse cx="868.97" cy="833.3257" fill="none" rx="3" ry="3" style="stroke:#038048;stroke-width:1;"/></g><text fill="#455A64" font-family="sans-serif" font-size="10" lengthAdjust="spacing" textLength="195.8594" x="875.97" y="835.605">status: UPLOADING/COMPLETED/FAILED</text><line style="stroke:#2196F3;stroke-width:0.5;" x1="858.97" x2="1114.5052" y1="841.7144" y2="841.7144"/><g data-visibility-modifier="PUBLIC_METHOD"><ellipse cx="868.97" cy="853.103" fill="#84BE84" rx="3" ry="3" style="stroke:#038048;stroke-width:1;"/></g><text fill="#455A64" font-family="sans-serif" font-size="10" lengthAdjust="spacing" textLength="73.877" x="875.97" y="855.3823">uuid: UUID (PK)</text><g data-visibility-modifier="PUBLIC_METHOD"><ellipse cx="868.97" cy="864.8804" fill="#84BE84" rx="3" ry="3" style="stroke:#038048;stroke-width:1;"/></g><text fill="#455A64" font-family="sans-serif" font-size="10" lengthAdjust="spacing" textLength="150.5811" x="875.97" y="867.1597">original_video_key: str (.webm)</text></g><!--class InterviewAnalysisReport--><g class="entity" data-qualified-name="InterviewAnalysisReport" data-source-line="89" id="ent0009"><rect fill="#E8F4FD" height="185.3281" rx="2.5" ry="2.5" style="stroke:#2196F3;stroke-width:0.5;" width="273.4775" x="7" y="454.3983"/><ellipse cx="82.0762" cy="468.3983" fill="#ADD1B2" rx="9" ry="9" style="stroke:#181818;stroke-width:1;"/><path d="M83.3823,472.1673 Q83.0063,472.3607 82.5928,472.4574 Q82.1792,472.554 81.7227,472.554 Q80.1006,472.554 79.2466,471.4852 Q78.3926,470.4163 78.3926,468.3968 Q78.3926,466.3719 79.2466,465.3031 Q80.1006,464.2342 81.7227,464.2342 Q82.1792,464.2342 82.5981,464.3309 Q83.0171,464.4276 83.3823,464.6209 L83.3823,466.3827 Q82.9741,466.0067 82.5901,465.8321 Q82.2061,465.6576 81.7979,465.6576 Q80.9277,465.6576 80.4846,466.3477 Q80.0415,467.0379 80.0415,468.3968 Q80.0415,469.7503 80.4846,470.4405 Q80.9277,471.1307 81.7979,471.1307 Q82.2061,471.1307 82.5901,470.9561 Q82.9741,470.7816 83.3823,470.4056 Z " fill="#000000"/><text fill="#455A64" font-family="sans-serif" font-size="10" lengthAdjust="spacing" textLength="115.8252" x="99.5762" y="472.1776">InterviewAnalysisReport</text><line style="stroke:#2196F3;stroke-width:0.5;" x1="8" x2="279.4775" y1="482.3983" y2="482.3983"/><g data-visibility-modifier="PUBLIC_FIELD"><ellipse cx="18" cy="493.787" fill="none" rx="3" ry="3" style="stroke:#038048;stroke-width:1;"/></g><text fill="#455A64" font-family="sans-serif" font-size="10" lengthAdjust="spacing" textLength="249.4775" x="25" y="496.0662">status: PENDING/GENERATING/COMPLETED/FAILED</text><g data-visibility-modifier="PUBLIC_FIELD"><ellipse cx="18" cy="505.5643" fill="none" rx="3" ry="3" style="stroke:#038048;stroke-width:1;"/></g><text fill="#455A64" font-family="sans-serif" font-size="10" lengthAdjust="spacing" textLength="51.1914" x="25" y="507.8436">grade: str?</text><g data-visibility-modifier="PUBLIC_FIELD"><ellipse cx="18" cy="517.3416" fill="none" rx="3" ry="3" style="stroke:#038048;stroke-width:1;"/></g><text fill="#455A64" font-family="sans-serif" font-size="10" lengthAdjust="spacing" textLength="111.9727" x="25" y="519.6209">category_scores: JSON?</text><g data-visibility-modifier="PUBLIC_FIELD"><ellipse cx="18" cy="529.119" fill="none" rx="3" ry="3" style="stroke:#038048;stroke-width:1;"/></g><text fill="#455A64" font-family="sans-serif" font-size="10" lengthAdjust="spacing" textLength="130.3418" x="25" y="531.3983">question_feedbacks: JSON?</text><g data-visibility-modifier="PUBLIC_FIELD"><ellipse cx="18" cy="540.8963" fill="none" rx="3" ry="3" style="stroke:#038048;stroke-width:1;"/></g><text fill="#455A64" font-family="sans-serif" font-size="10" lengthAdjust="spacing" textLength="80.1855" x="25" y="543.1756">strengths: JSON?</text><g data-visibility-modifier="PUBLIC_FIELD"><ellipse cx="18" cy="552.6737" fill="none" rx="3" ry="3" style="stroke:#038048;stroke-width:1;"/></g><text fill="#455A64" font-family="sans-serif" font-size="10" lengthAdjust="spacing" textLength="129.3604" x="25" y="554.953">improvement_areas: JSON?</text><g data-visibility-modifier="PUBLIC_FIELD"><ellipse cx="18" cy="564.451" fill="none" rx="3" ry="3" style="stroke:#038048;stroke-width:1;"/></g><text fill="#455A64" font-family="sans-serif" font-size="10" lengthAdjust="spacing" textLength="122.373" x="25" y="566.7303">total_token_usage: JSON?</text><g data-visibility-modifier="PUBLIC_FIELD"><ellipse cx="18" cy="576.2284" fill="none" rx="3" ry="3" style="stroke:#038048;stroke-width:1;"/></g><text fill="#455A64" font-family="sans-serif" font-size="10" lengthAdjust="spacing" textLength="101.5332" x="25" y="578.5077">started_at: datetime?</text><g data-visibility-modifier="PUBLIC_FIELD"><ellipse cx="18" cy="588.0057" fill="none" rx="3" ry="3" style="stroke:#038048;stroke-width:1;"/></g><text fill="#455A64" font-family="sans-serif" font-size="10" lengthAdjust="spacing" textLength="118.4375" x="25" y="590.285">completed_at: datetime?</text><line style="stroke:#2196F3;stroke-width:0.5;" x1="8" x2="279.4775" y1="596.3944" y2="596.3944"/><g data-visibility-modifier="PUBLIC_METHOD"><ellipse cx="18" cy="607.783" fill="#84BE84" rx="3" ry="3" style="stroke:#038048;stroke-width:1;"/></g><text fill="#455A64" font-family="sans-serif" font-size="10" lengthAdjust="spacing" textLength="73.877" x="25" y="610.0623">uuid: UUID (PK)</text><g data-visibility-modifier="PUBLIC_METHOD"><ellipse cx="18" cy="619.5604" fill="#84BE84" rx="3" ry="3" style="stroke:#038048;stroke-width:1;"/></g><text fill="#455A64" font-family="sans-serif" font-size="10" lengthAdjust="spacing" textLength="93.9844" x="25" y="621.8397">session_id: FK (1:1)</text><g data-visibility-modifier="PUBLIC_METHOD"><ellipse cx="18" cy="631.3377" fill="#84BE84" rx="3" ry="3" style="stroke:#038048;stroke-width:1;"/></g><text fill="#455A64" font-family="sans-serif" font-size="10" lengthAdjust="spacing" textLength="127.9785" x="25" y="633.617">overall_score: int? (0~100)</text></g><g class="entity" data-qualified-name="GMN18" data-source-line="114" id="ent0019"><path d="M315.73,503.1883 L315.73,543.0483 L280.97,547.0483 L315.73,551.0483 L315.73,590.9187 A0,0 0 0 0 315.73,590.9187 L477.7378,590.9187 A0,0 0 0 0 477.7378,590.9187 L477.7378,513.1883 L467.7378,503.1883 L315.73,503.1883 A0,0 0 0 0 315.73,503.1883" fill="#FEFFDD" style="stroke:#181818;stroke-width:0.5;"/><path d="M467.7378,503.1883 L467.7378,513.1883 L477.7378,513.1883 L467.7378,503.1883" fill="#FEFFDD" style="stroke:#181818;stroke-width:0.5;"/><text fill="#000000" font-family="sans-serif" font-size="11" lengthAdjust="spacing" textLength="141.0078" x="321.73" y="518.823">category_scores 5 &#52852;&#53580;&#44256;&#47532;:</text><text fill="#000000" font-family="sans-serif" font-size="11" lengthAdjust="spacing" textLength="38.3902" x="321.73" y="531.7781">- &#44396;&#52404;&#49457;</text><text fill="#000000" font-family="sans-serif" font-size="11" lengthAdjust="spacing" textLength="60.9007" x="321.73" y="544.7332">- &#51649;&#47924; &#51201;&#54633;&#49457;</text><text fill="#000000" font-family="sans-serif" font-size="11" lengthAdjust="spacing" textLength="38.3902" x="321.73" y="557.6883">- &#45436;&#47532;&#49457;</text><text fill="#000000" font-family="sans-serif" font-size="11" lengthAdjust="spacing" textLength="38.3902" x="321.73" y="570.6434">- &#49888;&#47280;&#46020;</text><text fill="#000000" font-family="sans-serif" font-size="11" lengthAdjust="spacing" textLength="47.9052" x="321.73" y="583.5984">- &#47732;&#51217;&#53468;&#46020;</text></g><g class="entity" data-qualified-name="GMN21" data-source-line="123" id="ent0022"><path d="M903.03,933.2683 L903.03,1008.0437 A0,0 0 0 0 903.03,1008.0437 L1070.4514,1008.0437 A0,0 0 0 0 1070.4514,1008.0437 L1070.4514,943.2683 L1060.4514,933.2683 L990.74,933.2683 L986.74,873.7283 L982.74,933.2683 L903.03,933.2683 A0,0 0 0 0 903.03,933.2683" fill="#FEFFDD" style="stroke:#181818;stroke-width:0.5;"/><path d="M1060.4514,933.2683 L1060.4514,943.2683 L1070.4514,943.2683 L1060.4514,933.2683" fill="#FEFFDD" style="stroke:#181818;stroke-width:0.5;"/><text fill="#000000" font-family="sans-serif" font-size="11" lengthAdjust="spacing" textLength="91.5533" x="909.03" y="948.903">Lambda 4 &#51333; &#44208;&#44284;:</text><text fill="#000000" font-family="sans-serif" font-size="11" lengthAdjust="spacing" textLength="133.4395" x="909.03" y="961.8581">- video-converter (.mp4)</text><text fill="#000000" font-family="sans-serif" font-size="11" lengthAdjust="spacing" textLength="146.4214" x="909.03" y="974.8132">- frame-extractor (.jpg ZIP)</text><text fill="#000000" font-family="sans-serif" font-size="11" lengthAdjust="spacing" textLength="128.9009" x="909.03" y="987.7683">- audio-extractor (.wav)</text><text fill="#000000" font-family="sans-serif" font-size="11" lengthAdjust="spacing" textLength="112.5945" x="909.03" y="1000.7234">- face-analyzer (&#54364;&#51221;)</text></g><!--reverse link User to InterviewSession--><g class="link" data-entity-1="ent0002" data-entity-2="ent0006" data-link-type="composition" data-source-line="104" id="lnk10"><path codeLine="104" d="M632.83,142.9883 C632.83,160.4983 632.83,169.4883 632.83,190.4583" fill="none" id="User-backto-InterviewSession" style="stroke:#555555;stroke-width:1;"/><polygon fill="#555555" points="632.83,130.9883,628.83,136.9883,632.83,142.9883,636.83,136.9883,632.83,130.9883" style="stroke:#555555;stroke-width:1;"/><text fill="#000000" font-family="sans-serif" font-size="11" lengthAdjust="spacing" textLength="62.4551" x="569.83" y="158.363">participates</text><text fill="#000000" font-family="sans-serif" font-size="11" lengthAdjust="spacing" textLength="6.9556" x="631.3571" y="149.2709">1</text><text fill="#000000" font-family="sans-serif" font-size="11" lengthAdjust="spacing" textLength="5.3013" x="617.9536" y="180.1873">*</text></g><!--link Resume to InterviewSession--><g class="link" data-entity-1="ent0003" data-entity-2="ent0006" data-link-type="dependency" data-source-line="105" id="lnk11"><path codeLine="105" d="M749.74,125.1183 C749.74,143.6083 749.74,160.8783 749.74,184.1483" fill="none" id="Resume-to-InterviewSession" style="stroke:#555555;stroke-width:1;"/><polygon fill="#555555" points="749.74,190.1483,753.74,181.1483,749.74,185.1483,745.74,181.1483,749.74,190.1483" style="stroke:#555555;stroke-width:1;"/><text fill="#000000" font-family="sans-serif" font-size="11" lengthAdjust="spacing" textLength="73.0952" x="675.74" y="155.263">referenced by</text><text fill="#000000" font-family="sans-serif" font-size="11" lengthAdjust="spacing" textLength="6.9556" x="743.3073" y="143.3283">1</text><text fill="#000000" font-family="sans-serif" font-size="11" lengthAdjust="spacing" textLength="5.3013" x="744.5526" y="180.1886">*</text></g><!--link UserJobDescription to InterviewSession--><g class="link" data-entity-1="ent0004" data-entity-2="ent0006" data-link-type="dependency" data-source-line="106" id="lnk12"><path codeLine="106" d="M866.62,125.1183 C866.62,143.6083 866.62,160.8783 866.62,184.1483" fill="none" id="UserJobDescription-to-InterviewSession" style="stroke:#555555;stroke-width:1;"/><polygon fill="#555555" points="866.62,190.1483,870.62,181.1483,866.62,185.1483,862.62,181.1483,866.62,190.1483" style="stroke:#555555;stroke-width:1;"/><text fill="#000000" font-family="sans-serif" font-size="11" lengthAdjust="spacing" textLength="73.0952" x="792.62" y="155.263">referenced by</text><text fill="#000000" font-family="sans-serif" font-size="11" lengthAdjust="spacing" textLength="6.9556" x="849.5106" y="143.3283">1</text><text fill="#000000" font-family="sans-serif" font-size="11" lengthAdjust="spacing" textLength="5.3013" x="870.7464" y="180.1886">*</text></g><!--reverse link InterviewSession to InterviewTurn--><g class="link" data-entity-1="ent0006" data-entity-2="ent0007" data-link-type="composition" data-source-line="107" id="lnk13"><path codeLine="107" d="M815.15,406.5583 C815.15,428.2783 815.15,439.0183 815.15,460.1083" fill="none" id="InterviewSession-backto-InterviewTurn" style="stroke:#555555;stroke-width:1;"/><polygon fill="#555555" points="815.15,394.5583,811.15,400.5583,815.15,406.5583,819.15,400.5583,815.15,394.5583" style="stroke:#555555;stroke-width:1;"/><text fill="#000000" font-family="sans-serif" font-size="11" lengthAdjust="spacing" textLength="45.0205" x="769.15" y="424.963">contains</text><text fill="#000000" font-family="sans-serif" font-size="11" lengthAdjust="spacing" textLength="6.9556" x="813.7681" y="413.1653">1</text><text fill="#000000" font-family="sans-serif" font-size="11" lengthAdjust="spacing" textLength="5.3013" x="802.9121" y="449.9297">*</text></g><!--reverse link InterviewSession to InterviewRecording--><g class="link" data-entity-1="ent0006" data-entity-2="ent0008" data-link-type="composition" data-source-line="108" id="lnk14"><path codeLine="108" d="M728.22,406.7483 C728.22,551.3183 728.22,786.0483 728.22,786.0483 C728.22,786.0483 792.85,786.0483 857.48,786.0483" fill="none" id="InterviewSession-backto-InterviewRecording" style="stroke:#555555;stroke-width:1;"/><polygon fill="#555555" points="728.22,394.7483,724.22,400.7483,728.22,406.7483,732.22,400.7483,728.22,394.7483" style="stroke:#555555;stroke-width:1;"/><text fill="#000000" font-family="sans-serif" font-size="11" lengthAdjust="spacing" textLength="27.6665" x="700.22" y="652.663">owns</text><text fill="#000000" font-family="sans-serif" font-size="11" lengthAdjust="spacing" textLength="6.9556" x="720.5293" y="413.0294">1</text><text fill="#000000" font-family="sans-serif" font-size="11" lengthAdjust="spacing" textLength="5.3013" x="844.8715" y="784.338">*</text></g><!--link InterviewSession to InterviewAnalysisReport--><g class="link" data-entity-1="ent0006" data-entity-2="ent0009" data-link-type="association" data-source-line="109" id="lnk15"><path codeLine="109" d="M646.78,394.7483 C646.78,439.5183 646.78,482.0483 646.78,482.0483 C646.78,482.0483 429.82,482.0483 280.87,482.0483" fill="none" id="InterviewSession-InterviewAnalysisReport" style="stroke:#555555;stroke-width:1;"/><text fill="#000000" font-family="sans-serif" font-size="11" lengthAdjust="spacing" textLength="45.9443" x="461.47" y="479.683">analyzes</text><text fill="#000000" font-family="sans-serif" font-size="11" lengthAdjust="spacing" textLength="6.9556" x="633.3631" y="413.0294">1</text><text fill="#000000" font-family="sans-serif" font-size="11" lengthAdjust="spacing" textLength="6.9556" x="288.5596" y="476.8256">1</text></g><!--link InterviewTurn to InterviewRecording--><g class="link" data-entity-1="ent0007" data-entity-2="ent0008" data-link-type="association" data-source-line="110" id="lnk16"><path codeLine="110" d="M944.95,634.1783 C944.95,655.4383 944.95,678.1883 944.95,699.4383" fill="none" id="InterviewTurn-InterviewRecording" style="stroke:#555555;stroke-width:1;"/><text fill="#000000" font-family="sans-serif" font-size="11" lengthAdjust="spacing" textLength="43.3018" x="900.95" y="664.443">per turn</text><text fill="#000000" font-family="sans-serif" font-size="11" lengthAdjust="spacing" textLength="6.9556" x="943.3961" y="652.5645">1</text><text fill="#000000" font-family="sans-serif" font-size="11" lengthAdjust="spacing" textLength="20.8721" x="920.216" y="689.5385">0..1</text></g><!--link InterviewSession to TicketLog--><g class="link" data-entity-1="ent0006" data-entity-2="ent0005" data-link-type="dependency" data-source-line="111" id="lnk17"><path codeLine="111" d="M678.84,394.5583 C678.84,435.0883 678.84,473.1683 678.84,503.4683" fill="none" id="InterviewSession-to-TicketLog" style="stroke:#555555;stroke-width:1;"/><polygon fill="#555555" points="678.84,509.4683,682.84,500.4683,678.84,504.4683,674.84,500.4683,678.84,509.4683" style="stroke:#555555;stroke-width:1;"/><text fill="#000000" font-family="sans-serif" font-size="11" lengthAdjust="spacing" textLength="71.8921" x="606.84" y="449.653">triggers (USE)</text><text fill="#000000" font-family="sans-serif" font-size="11" lengthAdjust="spacing" textLength="6.9556" x="667.4479" y="413.1653">1</text><text fill="#000000" font-family="sans-serif" font-size="11" lengthAdjust="spacing" textLength="6.9556" x="685.5536" y="499.6146">1</text></g><g class="footer" data-source-line="130"><text fill="#888888" font-family="sans-serif" font-size="10" lengthAdjust="spacing" textLength="181.499" x="463.5031" y="1023.7116">MeFit - backend/webapp/interviews/</text></g><?plantuml-src bLPRRnD757xthnYbBpR8sAO91GibsjYxgS6nhRMjNbvMuztnPiXwPpixcn2gLefANaebX5IgFW2A46gBX5GAhaebVb7i_8UUcVLbxQmHJQHazvppdJdpdTiAAZo2Hd--Et_y4ELHpHU47r1oY4OFxuzU_Zn--WwT7mz7ptuT__W2ZHwy63yTZdyPdltpRlJiZqmctAT-W3aUe1wszrtE8j-fC8znz8cXoz-4XKFwEFA4mNpHflS8AfKIIe_wH1m5134kzbX2ONiu3D6t6OIsbq_GhnlhHbLg67S8dqYlbcvSCpu5gSOvEvm8DzIF50h1QIyIP1v6SLaymQnlR6ZNrZFVBGTpyoPsNKvSBCZcPdfaXc7SgAmlHsPiLufNgsaEoLrWtSVUAdzwHJUCqhA_QyNFgjUtmLyc9gaR4eukEBjCdJBQfguM2MPGuZbIHWQOUcKK2Wvl-JpyoKQ03kTPpytzcYIC1YJ5SnH9tzrkJIRXSYYmYCBonBojtXQ3kyLwLHBQd0Q2Cl-Z7Ix2bXrtgBrFH9svAVwmBH5bj6DgZKwXszOBfcvq6zM2_cMhPkhAP00yYpAYlfZxd7L1cuHX7EfopXEnecphTaw9u8wMb1gtKNvJNLcAkI8aeOWPcY7ki9xbp2-uv67nzX8qO0u1YsQztloYsq85P7JhTQjbDYjwkoqD7DhlKnjwxQYCTAtz5PZiwjLQTnSUFjTCHIwTNj6AtRLChTAfLNGmCNMjdkI_rf3ETqpm3jfASxTLrpjwLJvhZOfUh-lJT75170i3cmuG9MXyHviD0eyiQxQcXHVZieh0FlLfk1S_szYtYPVDfMIb4t4_lRPdgGZZn4sub99l8XB6rI2WJ98IImuUUSrQfwRL9PzpQjiwiD9iMBL6nsmkW5GdndKZoyWF3o6LqdLym5P2Ua0TmgnzSgGwBgd1aKENDAjeZ14fB5u-ODGc5eQwFmffQCboyy3cLhlPs4fXpoGsn4vzTsKTNoHF0EEJLtKauzIbSE3IrL3soY7f3M8dDlOWsfIxzs7o4IlWf4_l9XX9eI9saQBfuzKtbk5oO4krZ3KjufRUgDOQEuLP-HOChJQlN6NJRTMRMhhLHHgroUac2M1dVIINA5igbtB9CwTnxUWDtTGwgq9a1uHZpxD2o1rHLRU5iiNlIyMYykPoB9juIeyDvU4oVXIRXmbcPkNR9yIHEpkf13ZnNR6NbD51mE7m0V65XJd1IPrW0af0i7tYMr68NRBWws8PRtre7033Qe6jbTRGfNmUhLrQkpY7omZsfg0s3G0NPYQRIKBoC2vNGA3Ge75WcZYeTvH9MKJ_2t_183LWDQBAo8RF2Kpzy2DHyzOi8tQu2YPHfRMLbLX6gZ7kaGHSXJF55gzSAQquD804o5vVTV2c-ZzVkJ3hO1AuyiiX2-irbyduJ104iZs1M7zLZ507IoMADj3ut-7voKzdRqz7lxqgo-s0plv-DNup7D__IxsDVpyUlHgYyUdn-UENK-7ev3sOpqmUd8wUluPlc5ZtSZW-VNJ-mnCf8Bw3P6oJ27jC23PO27760u3hUD1pC5f7u-SdwEpDwxEtx-EGr3ZBGrgX7m470syGhEUKIesrF8n-3fyTJAhk12xwkjQArMgABQWFyS442TCiFqaQACuVFHcVFiubGkup9W_R9GOLO2_x5fG5cBKu20gpLHuM_WC0?></g></svg>