<?plantuml 1.2026.1?><svg xmlns="http://www.w3.org/2000/svg" xmlns:xlink="http://www.w3.org/1999/xlink" contentStyleType="text/css" data-diagram-type="CLASS" height="566px" preserveAspectRatio="none" style="width:1547px;height:566px;background:#FEFEFE;" version="1.1" viewBox="0 0 1547 566" width="1547px" zoomAndPan="magnify"><title>&#48120;&#54607; - Resume &#46020;&#47700;&#51064; &#53364;&#47000;&#49828; &#45796;&#51060;&#50612;&#44536;&#47016;</title><defs/><g><rect fill="#FEFEFE" height="566" style="stroke:none;stroke-width:1;" width="1547" x="0" y="0"/><g class="title" data-source-line="1"><text fill="#000000" font-family="sans-serif" font-size="14" font-weight="bold" lengthAdjust="spacing" textLength="246.1947" x="643.4639" y="23.5352">&#48120;&#54607; - Resume &#46020;&#47700;&#51064; &#53364;&#47000;&#49828; &#45796;&#51060;&#50612;&#44536;&#47016;</text></g><!--class User--><g class="entity" data-qualified-name="User" data-source-line="30" id="ent0002"><rect fill="#ECEFF1" height="74.2871" rx="2.5" ry="2.5" style="stroke:#607D8B;stroke-width:0.5;" width="100.3867" x="718.68" y="44.4883"/><ellipse cx="741.2025" cy="61.8545" fill="#ADD1B2" rx="9" ry="9" style="stroke:#181818;stroke-width:1;"/><path d="M742.5087,65.6235 Q742.1327,65.8169 741.7191,65.9136 Q741.3055,66.0103 740.849,66.0103 Q739.2269,66.0103 738.3729,64.9414 Q737.5189,63.8726 737.5189,61.853 Q737.5189,59.8281 738.3729,58.7593 Q739.2269,57.6904 740.849,57.6904 Q741.3055,57.6904 741.7245,57.7871 Q742.1434,57.8838 742.5087,58.0771 L742.5087,59.8389 Q742.1005,59.4629 741.7164,59.2883 Q741.3324,59.1138 740.9242,59.1138 Q740.0541,59.1138 739.611,59.804 Q739.1678,60.4941 739.1678,61.853 Q739.1678,63.2065 739.611,63.8967 Q740.0541,64.5869 740.9242,64.5869 Q741.3324,64.5869 741.7164,64.4124 Q742.1005,64.2378 742.5087,63.8618 Z " fill="#000000"/><text fill="#000000" font-family="sans-serif" font-size="11" font-style="italic" lengthAdjust="spacing" textLength="55.2256" x="753.3186" y="60.123">&#171;external&#187;</text><text fill="#455A64" font-family="sans-serif" font-size="10" lengthAdjust="spacing" textLength="21.6895" x="770.0867" y="72.1113">User</text><line style="stroke:#607D8B;stroke-width:0.5;" x1="719.68" x2="818.0667" y1="79.2207" y2="79.2207"/><g data-visibility-modifier="PUBLIC_FIELD"><ellipse cx="729.68" cy="90.6094" fill="none" rx="3" ry="3" style="stroke:#038048;stroke-width:1;"/></g><text fill="#455A64" font-family="sans-serif" font-size="10" lengthAdjust="spacing" textLength="76.3867" x="736.68" y="92.8887">id: BigAutoField</text><g data-visibility-modifier="PUBLIC_FIELD"><ellipse cx="729.68" cy="102.3867" fill="none" rx="3" ry="3" style="stroke:#038048;stroke-width:1;"/></g><text fill="#455A64" font-family="sans-serif" font-size="10" lengthAdjust="spacing" textLength="45.4688" x="736.68" y="104.666">email: str</text><line style="stroke:#607D8B;stroke-width:0.5;" x1="719.68" x2="818.0667" y1="110.7754" y2="110.7754"/></g><!--class Resume--><g class="entity" data-qualified-name="Resume" data-source-line="35" id="ent0003"><rect fill="#FFF9C4" height="168.5059" rx="2.5" ry="2.5" style="stroke:#FBC02D;stroke-width:0.5;" width="275.333" x="631.21" y="178.7783"/><ellipse cx="734.5642" cy="196.1445" fill="#ADD1B2" rx="9" ry="9" style="stroke:#181818;stroke-width:1;"/><path d="M735.8704,199.9135 Q735.4944,200.1069 735.0808,200.2036 Q734.6673,200.3003 734.2107,200.3003 Q732.5887,200.3003 731.7347,199.2314 Q730.8807,198.1626 730.8807,196.143 Q730.8807,194.1181 731.7347,193.0493 Q732.5887,191.9804 734.2107,191.9804 Q734.6673,191.9804 735.0862,192.0771 Q735.5052,192.1738 735.8704,192.3671 L735.8704,194.1289 Q735.4622,193.7529 735.0782,193.5783 Q734.6941,193.4038 734.2859,193.4038 Q733.4158,193.4038 732.9727,194.094 Q732.5296,194.7841 732.5296,196.143 Q732.5296,197.4965 732.9727,198.1867 Q733.4158,198.8769 734.2859,198.8769 Q734.6941,198.8769 735.0782,198.7024 Q735.4622,198.5278 735.8704,198.1518 Z " fill="#000000"/><text fill="#000000" font-family="sans-serif" font-size="11" font-style="italic" lengthAdjust="spacing" textLength="65.1245" x="750.0642" y="194.413">&#171;aggregate&#187;</text><text fill="#455A64" font-family="sans-serif" font-size="10" lengthAdjust="spacing" textLength="38.1055" x="763.5738" y="206.4013">Resume</text><line style="stroke:#FBC02D;stroke-width:0.5;" x1="632.21" x2="905.543" y1="213.5107" y2="213.5107"/><g data-visibility-modifier="PUBLIC_METHOD"><ellipse cx="642.21" cy="224.8994" fill="#84BE84" rx="3" ry="3" style="stroke:#038048;stroke-width:1;"/></g><text fill="#455A64" font-family="sans-serif" font-size="10" lengthAdjust="spacing" textLength="73.877" x="649.21" y="227.1787">uuid: UUID (PK)</text><g data-visibility-modifier="PUBLIC_FIELD"><ellipse cx="642.21" cy="236.6767" fill="none" rx="3" ry="3" style="stroke:#038048;stroke-width:1;"/></g><text fill="#455A64" font-family="sans-serif" font-size="10" lengthAdjust="spacing" textLength="53.3691" x="649.21" y="238.956">user_id: FK</text><g data-visibility-modifier="PUBLIC_FIELD"><ellipse cx="642.21" cy="248.4541" fill="none" rx="3" ry="3" style="stroke:#038048;stroke-width:1;"/></g><text fill="#455A64" font-family="sans-serif" font-size="10" lengthAdjust="spacing" textLength="38.0908" x="649.21" y="250.7334">title: str</text><g data-visibility-modifier="PUBLIC_FIELD"><ellipse cx="642.21" cy="260.2314" fill="none" rx="3" ry="3" style="stroke:#038048;stroke-width:1;"/></g><text fill="#455A64" font-family="sans-serif" font-size="10" lengthAdjust="spacing" textLength="119.2822" x="649.21" y="262.5107">source_type: FILE / TEXT</text><g data-visibility-modifier="PUBLIC_FIELD"><ellipse cx="642.21" cy="272.0088" fill="none" rx="3" ry="3" style="stroke:#038048;stroke-width:1;"/></g><text fill="#455A64" font-family="sans-serif" font-size="10" lengthAdjust="spacing" textLength="97.3779" x="649.21" y="274.288">source_file_key: str?</text><g data-visibility-modifier="PUBLIC_FIELD"><ellipse cx="642.21" cy="283.7861" fill="none" rx="3" ry="3" style="stroke:#038048;stroke-width:1;"/></g><text fill="#455A64" font-family="sans-serif" font-size="10" lengthAdjust="spacing" textLength="251.333" x="649.21" y="286.0654">status: DRAFT / ANALYZING / COMPLETED / FAILED</text><g data-visibility-modifier="PUBLIC_FIELD"><ellipse cx="642.21" cy="295.5634" fill="none" rx="3" ry="3" style="stroke:#038048;stroke-width:1;"/></g><text fill="#455A64" font-family="sans-serif" font-size="10" lengthAdjust="spacing" textLength="110.4395" x="649.21" y="297.8427">analyzed_at: datetime?</text><g data-visibility-modifier="PUBLIC_METHOD"><ellipse cx="642.21" cy="307.3408" fill="#84BE84" rx="3" ry="3" style="stroke:#038048;stroke-width:1;"/></g><text fill="#455A64" font-family="sans-serif" font-size="10" lengthAdjust="spacing" textLength="164.5361" x="649.21" y="309.6201">deleted_at: datetime? (soft delete)</text><line style="stroke:#FBC02D;stroke-width:1;" x1="632.21" x2="905.543" y1="315.7295" y2="315.7295"/><g data-visibility-modifier="PUBLIC_METHOD"><ellipse cx="642.21" cy="327.1181" fill="#84BE84" rx="3" ry="3" style="stroke:#038048;stroke-width:1;"/></g><text fill="#455A64" font-family="sans-serif" font-size="10" lengthAdjust="spacing" textLength="41.8848" x="649.21" y="329.3974">finalize()</text><g data-visibility-modifier="PUBLIC_METHOD"><ellipse cx="642.21" cy="338.8955" fill="#84BE84" rx="3" ry="3" style="stroke:#038048;stroke-width:1;"/></g><text fill="#455A64" font-family="sans-serif" font-size="10" lengthAdjust="spacing" textLength="52.8369" x="649.21" y="341.1748">reanalyze()</text></g><!--class ResumeBasicInfo--><g class="entity" data-qualified-name="ResumeBasicInfo" data-source-line="49" id="ent0004"><rect fill="#C8E6C9" height="97.8418" rx="2.5" ry="2.5" style="stroke:#388E3C;stroke-width:0.5;" width="117.7549" x="7" y="424.9483"/><ellipse cx="23.7613" cy="442.3145" fill="#ADD1B2" rx="9" ry="9" style="stroke:#181818;stroke-width:1;"/><path d="M25.0674,446.0835 Q24.6915,446.2769 24.2779,446.3736 Q23.8643,446.4703 23.4078,446.4703 Q21.7857,446.4703 20.9317,445.4014 Q20.0777,444.3326 20.0777,442.313 Q20.0777,440.2881 20.9317,439.2193 Q21.7857,438.1504 23.4078,438.1504 Q23.8643,438.1504 24.2833,438.2471 Q24.7022,438.3438 25.0674,438.5371 L25.0674,440.2989 Q24.6592,439.9229 24.2752,439.7483 Q23.8912,439.5738 23.483,439.5738 Q22.6128,439.5738 22.1697,440.264 Q21.7266,440.9541 21.7266,442.313 Q21.7266,443.6665 22.1697,444.3567 Q22.6128,445.0469 23.483,445.0469 Q23.8912,445.0469 24.2752,444.8724 Q24.6592,444.6978 25.0674,444.3218 Z " fill="#000000"/><text fill="#000000" font-family="sans-serif" font-size="11" font-style="italic" lengthAdjust="spacing" textLength="49.7739" x="52.4084" y="440.583">&#171;section&#187;</text><text fill="#455A64" font-family="sans-serif" font-size="10" lengthAdjust="spacing" textLength="81.3965" x="36.5971" y="452.5713">ResumeBasicInfo</text><line style="stroke:#388E3C;stroke-width:0.5;" x1="8" x2="123.7549" y1="459.6807" y2="459.6807"/><g data-visibility-modifier="PUBLIC_FIELD"><ellipse cx="18" cy="471.0694" fill="none" rx="3" ry="3" style="stroke:#038048;stroke-width:1;"/></g><text fill="#455A64" font-family="sans-serif" font-size="10" lengthAdjust="spacing" textLength="45.8936" x="25" y="473.3487">name: str</text><g data-visibility-modifier="PUBLIC_FIELD"><ellipse cx="18" cy="482.8467" fill="none" rx="3" ry="3" style="stroke:#038048;stroke-width:1;"/></g><text fill="#455A64" font-family="sans-serif" font-size="10" lengthAdjust="spacing" textLength="54.8535" x="25" y="485.126">contact: str</text><g data-visibility-modifier="PUBLIC_FIELD"><ellipse cx="18" cy="494.6241" fill="none" rx="3" ry="3" style="stroke:#038048;stroke-width:1;"/></g><text fill="#455A64" font-family="sans-serif" font-size="10" lengthAdjust="spacing" textLength="57.915" x="25" y="496.9034">location: str</text><line style="stroke:#388E3C;stroke-width:0.5;" x1="8" x2="123.7549" y1="503.0127" y2="503.0127"/><g data-visibility-modifier="PUBLIC_METHOD"><ellipse cx="18" cy="514.4014" fill="#84BE84" rx="3" ry="3" style="stroke:#038048;stroke-width:1;"/></g><text fill="#455A64" font-family="sans-serif" font-size="10" lengthAdjust="spacing" textLength="93.7549" x="25" y="516.6807">resume_id: FK (1:1)</text></g><!--class ResumeSummary--><g class="entity" data-qualified-name="ResumeSummary" data-source-line="56" id="ent0005"><rect fill="#C8E6C9" height="86.0645" rx="2.5" ry="2.5" style="stroke:#388E3C;stroke-width:0.5;" width="117.7549" x="160" y="430.8383"/><ellipse cx="175.9461" cy="448.2045" fill="#ADD1B2" rx="9" ry="9" style="stroke:#181818;stroke-width:1;"/><path d="M177.2522,451.9735 Q176.8763,452.1669 176.4627,452.2636 Q176.0491,452.3603 175.5926,452.3603 Q173.9705,452.3603 173.1165,451.2914 Q172.2625,450.2226 172.2625,448.203 Q172.2625,446.1781 173.1165,445.1093 Q173.9705,444.0404 175.5926,444.0404 Q176.0491,444.0404 176.4681,444.1371 Q176.887,444.2338 177.2522,444.4271 L177.2522,446.1889 Q176.844,445.8129 176.46,445.6383 Q176.076,445.4638 175.6678,445.4638 Q174.7977,445.4638 174.3545,446.154 Q173.9114,446.8441 173.9114,448.203 Q173.9114,449.5565 174.3545,450.2467 Q174.7977,450.9369 175.6678,450.9369 Q176.076,450.9369 176.46,450.7624 Q176.844,450.5878 177.2522,450.2118 Z " fill="#000000"/><text fill="#000000" font-family="sans-serif" font-size="11" font-style="italic" lengthAdjust="spacing" textLength="49.7739" x="205.3178" y="446.473">&#171;section&#187;</text><text fill="#455A64" font-family="sans-serif" font-size="10" lengthAdjust="spacing" textLength="83.208" x="188.6008" y="458.4613">ResumeSummary</text><line style="stroke:#388E3C;stroke-width:0.5;" x1="161" x2="276.7549" y1="465.5707" y2="465.5707"/><g data-visibility-modifier="PUBLIC_FIELD"><ellipse cx="171" cy="476.9594" fill="none" rx="3" ry="3" style="stroke:#038048;stroke-width:1;"/></g><text fill="#455A64" font-family="sans-serif" font-size="10" lengthAdjust="spacing" textLength="69.0625" x="178" y="479.2387">objective: text</text><g data-visibility-modifier="PUBLIC_FIELD"><ellipse cx="171" cy="488.7367" fill="none" rx="3" ry="3" style="stroke:#038048;stroke-width:1;"/></g><text fill="#455A64" font-family="sans-serif" font-size="10" lengthAdjust="spacing" textLength="70.3271" x="178" y="491.016">summary: text</text><line style="stroke:#388E3C;stroke-width:0.5;" x1="161" x2="276.7549" y1="497.1254" y2="497.1254"/><g data-visibility-modifier="PUBLIC_METHOD"><ellipse cx="171" cy="508.5141" fill="#84BE84" rx="3" ry="3" style="stroke:#038048;stroke-width:1;"/></g><text fill="#455A64" font-family="sans-serif" font-size="10" lengthAdjust="spacing" textLength="93.7549" x="178" y="510.7934">resume_id: FK (1:1)</text></g><!--class ResumeExperience--><g class="entity" data-qualified-name="ResumeExperience" data-source-line="62" id="ent0006"><rect fill="#C8E6C9" height="133.1738" rx="2.5" ry="2.5" style="stroke:#388E3C;stroke-width:0.5;" width="122.1104" x="312.82" y="407.2883"/><ellipse cx="327.2302" cy="424.6545" fill="#ADD1B2" rx="9" ry="9" style="stroke:#181818;stroke-width:1;"/><path d="M328.5364,428.4235 Q328.1604,428.6169 327.7468,428.7136 Q327.3332,428.8103 326.8767,428.8103 Q325.2546,428.8103 324.4006,427.7414 Q323.5466,426.6726 323.5466,424.653 Q323.5466,422.6281 324.4006,421.5593 Q325.2546,420.4904 326.8767,420.4904 Q327.3332,420.4904 327.7522,420.5871 Q328.1711,420.6838 328.5364,420.8771 L328.5364,422.6389 Q328.1282,422.2629 327.7441,422.0883 Q327.3601,421.9138 326.9519,421.9138 Q326.0818,421.9138 325.6387,422.604 Q325.1955,423.2941 325.1955,424.653 Q325.1955,426.0065 325.6387,426.6967 Q326.0818,427.3869 326.9519,427.3869 Q327.3601,427.3869 327.7441,427.2124 Q328.1282,427.0378 328.5364,426.6618 Z " fill="#000000"/><text fill="#000000" font-family="sans-serif" font-size="11" font-style="italic" lengthAdjust="spacing" textLength="49.7739" x="360.1449" y="422.923">&#171;section&#187;</text><text fill="#455A64" font-family="sans-serif" font-size="10" lengthAdjust="spacing" textLength="90.9766" x="339.5436" y="434.9113">ResumeExperience</text><line style="stroke:#388E3C;stroke-width:0.5;" x1="313.82" x2="433.9304" y1="442.0207" y2="442.0207"/><g data-visibility-modifier="PUBLIC_FIELD"><ellipse cx="323.82" cy="453.4094" fill="none" rx="3" ry="3" style="stroke:#038048;stroke-width:1;"/></g><text fill="#455A64" font-family="sans-serif" font-size="10" lengthAdjust="spacing" textLength="68.2764" x="330.82" y="455.6887">resume_id: FK</text><g data-visibility-modifier="PUBLIC_FIELD"><ellipse cx="323.82" cy="465.1867" fill="none" rx="3" ry="3" style="stroke:#038048;stroke-width:1;"/></g><text fill="#455A64" font-family="sans-serif" font-size="10" lengthAdjust="spacing" textLength="63.1055" x="330.82" y="467.466">company: str</text><g data-visibility-modifier="PUBLIC_FIELD"><ellipse cx="323.82" cy="476.9641" fill="none" rx="3" ry="3" style="stroke:#038048;stroke-width:1;"/></g><text fill="#455A64" font-family="sans-serif" font-size="10" lengthAdjust="spacing" textLength="58.6621" x="330.82" y="479.2434">position: str</text><g data-visibility-modifier="PUBLIC_FIELD"><ellipse cx="323.82" cy="488.7414" fill="none" rx="3" ry="3" style="stroke:#038048;stroke-width:1;"/></g><text fill="#455A64" font-family="sans-serif" font-size="10" lengthAdjust="spacing" textLength="75.7764" x="330.82" y="491.0207">start_date: date</text><g data-visibility-modifier="PUBLIC_FIELD"><ellipse cx="323.82" cy="500.5188" fill="none" rx="3" ry="3" style="stroke:#038048;stroke-width:1;"/></g><text fill="#455A64" font-family="sans-serif" font-size="10" lengthAdjust="spacing" textLength="75.874" x="330.82" y="502.798">end_date: date?</text><g data-visibility-modifier="PUBLIC_FIELD"><ellipse cx="323.82" cy="512.2961" fill="none" rx="3" ry="3" style="stroke:#038048;stroke-width:1;"/></g><text fill="#455A64" font-family="sans-serif" font-size="10" lengthAdjust="spacing" textLength="79.8535" x="330.82" y="514.5754">description: text</text><line style="stroke:#388E3C;stroke-width:0.5;" x1="313.82" x2="433.9304" y1="520.6848" y2="520.6848"/><g data-visibility-modifier="PUBLIC_METHOD"><ellipse cx="323.82" cy="532.0734" fill="#84BE84" rx="3" ry="3" style="stroke:#038048;stroke-width:1;"/></g><text fill="#455A64" font-family="sans-serif" font-size="10" lengthAdjust="spacing" textLength="98.1104" x="330.82" y="534.3527">id: BigAutoField (PK)</text></g><!--class ResumeEducation--><g class="entity" data-qualified-name="ResumeEducation" data-source-line="72" id="ent0007"><rect fill="#C8E6C9" height="133.1738" rx="2.5" ry="2.5" style="stroke:#388E3C;stroke-width:0.5;" width="122.1104" x="469.82" y="407.2883"/><ellipse cx="486.6274" cy="424.6545" fill="#ADD1B2" rx="9" ry="9" style="stroke:#181818;stroke-width:1;"/><path d="M487.9336,428.4235 Q487.5576,428.6169 487.144,428.7136 Q486.7304,428.8103 486.2739,428.8103 Q484.6518,428.8103 483.7978,427.7414 Q482.9438,426.6726 482.9438,424.653 Q482.9438,422.6281 483.7978,421.5593 Q484.6518,420.4904 486.2739,420.4904 Q486.7304,420.4904 487.1494,420.5871 Q487.5683,420.6838 487.9336,420.8771 L487.9336,422.6389 Q487.5254,422.2629 487.1413,422.0883 Q486.7573,421.9138 486.3491,421.9138 Q485.479,421.9138 485.0359,422.604 Q484.5928,423.2941 484.5928,424.653 Q484.5928,426.0065 485.0359,426.6967 Q485.479,427.3869 486.3491,427.3869 Q486.7573,427.3869 487.1413,427.2124 Q487.5254,427.0378 487.9336,426.6618 Z " fill="#000000"/><text fill="#000000" font-family="sans-serif" font-size="11" font-style="italic" lengthAdjust="spacing" textLength="49.7739" x="517.4113" y="422.923">&#171;section&#187;</text><text fill="#455A64" font-family="sans-serif" font-size="10" lengthAdjust="spacing" textLength="85.6494" x="499.4735" y="434.9113">ResumeEducation</text><line style="stroke:#388E3C;stroke-width:0.5;" x1="470.82" x2="590.9304" y1="442.0207" y2="442.0207"/><g data-visibility-modifier="PUBLIC_FIELD"><ellipse cx="480.82" cy="453.4094" fill="none" rx="3" ry="3" style="stroke:#038048;stroke-width:1;"/></g><text fill="#455A64" font-family="sans-serif" font-size="10" lengthAdjust="spacing" textLength="68.2764" x="487.82" y="455.6887">resume_id: FK</text><g data-visibility-modifier="PUBLIC_FIELD"><ellipse cx="480.82" cy="465.1867" fill="none" rx="3" ry="3" style="stroke:#038048;stroke-width:1;"/></g><text fill="#455A64" font-family="sans-serif" font-size="10" lengthAdjust="spacing" textLength="50.8594" x="487.82" y="467.466">school: str</text><g data-visibility-modifier="PUBLIC_FIELD"><ellipse cx="480.82" cy="476.9641" fill="none" rx="3" ry="3" style="stroke:#038048;stroke-width:1;"/></g><text fill="#455A64" font-family="sans-serif" font-size="10" lengthAdjust="spacing" textLength="52.5928" x="487.82" y="479.2434">degree: str</text><g data-visibility-modifier="PUBLIC_FIELD"><ellipse cx="480.82" cy="488.7414" fill="none" rx="3" ry="3" style="stroke:#038048;stroke-width:1;"/></g><text fill="#455A64" font-family="sans-serif" font-size="10" lengthAdjust="spacing" textLength="47.3926" x="487.82" y="491.0207">major: str</text><g data-visibility-modifier="PUBLIC_FIELD"><ellipse cx="480.82" cy="500.5188" fill="none" rx="3" ry="3" style="stroke:#038048;stroke-width:1;"/></g><text fill="#455A64" font-family="sans-serif" font-size="10" lengthAdjust="spacing" textLength="75.7764" x="487.82" y="502.798">start_date: date</text><g data-visibility-modifier="PUBLIC_FIELD"><ellipse cx="480.82" cy="512.2961" fill="none" rx="3" ry="3" style="stroke:#038048;stroke-width:1;"/></g><text fill="#455A64" font-family="sans-serif" font-size="10" lengthAdjust="spacing" textLength="75.874" x="487.82" y="514.5754">end_date: date?</text><line style="stroke:#388E3C;stroke-width:0.5;" x1="470.82" x2="590.9304" y1="520.6848" y2="520.6848"/><g data-visibility-modifier="PUBLIC_METHOD"><ellipse cx="480.82" cy="532.0734" fill="#84BE84" rx="3" ry="3" style="stroke:#038048;stroke-width:1;"/></g><text fill="#455A64" font-family="sans-serif" font-size="10" lengthAdjust="spacing" textLength="98.1104" x="487.82" y="534.3527">id: BigAutoField (PK)</text></g><!--class ResumeCertification--><g class="entity" data-qualified-name="ResumeCertification" data-source-line="82" id="ent0008"><rect fill="#C8E6C9" height="109.6191" rx="2.5" ry="2.5" style="stroke:#388E3C;stroke-width:0.5;" width="125.5098" x="627.12" y="419.0583"/><ellipse cx="640.12" cy="436.4245" fill="#ADD1B2" rx="9" ry="9" style="stroke:#181818;stroke-width:1;"/><path d="M641.4262,440.1935 Q641.0502,440.3869 640.6366,440.4836 Q640.223,440.5803 639.7665,440.5803 Q638.1444,440.5803 637.2904,439.5114 Q636.4364,438.4426 636.4364,436.423 Q636.4364,434.3981 637.2904,433.3293 Q638.1444,432.2604 639.7665,432.2604 Q640.223,432.2604 640.642,432.3571 Q641.0609,432.4538 641.4262,432.6471 L641.4262,434.4089 Q641.0179,434.0329 640.6339,433.8583 Q640.2499,433.6838 639.8417,433.6838 Q638.9716,433.6838 638.5284,434.374 Q638.0853,435.0641 638.0853,436.423 Q638.0853,437.7765 638.5284,438.4667 Q638.9716,439.1569 639.8417,439.1569 Q640.2499,439.1569 640.6339,438.9824 Q641.0179,438.8078 641.4262,438.4318 Z " fill="#000000"/><text fill="#000000" font-family="sans-serif" font-size="11" font-style="italic" lengthAdjust="spacing" textLength="49.7739" x="675.9879" y="434.693">&#171;section&#187;</text><text fill="#455A64" font-family="sans-serif" font-size="10" lengthAdjust="spacing" textLength="97.5098" x="652.12" y="446.6813">ResumeCertification</text><line style="stroke:#388E3C;stroke-width:0.5;" x1="628.12" x2="751.6298" y1="453.7907" y2="453.7907"/><g data-visibility-modifier="PUBLIC_FIELD"><ellipse cx="638.12" cy="465.1794" fill="none" rx="3" ry="3" style="stroke:#038048;stroke-width:1;"/></g><text fill="#455A64" font-family="sans-serif" font-size="10" lengthAdjust="spacing" textLength="68.2764" x="645.12" y="467.4587">resume_id: FK</text><g data-visibility-modifier="PUBLIC_FIELD"><ellipse cx="638.12" cy="476.9567" fill="none" rx="3" ry="3" style="stroke:#038048;stroke-width:1;"/></g><text fill="#455A64" font-family="sans-serif" font-size="10" lengthAdjust="spacing" textLength="45.8936" x="645.12" y="479.236">name: str</text><g data-visibility-modifier="PUBLIC_FIELD"><ellipse cx="638.12" cy="488.7341" fill="none" rx="3" ry="3" style="stroke:#038048;stroke-width:1;"/></g><text fill="#455A64" font-family="sans-serif" font-size="10" lengthAdjust="spacing" textLength="48.2129" x="645.12" y="491.0134">issuer: str</text><g data-visibility-modifier="PUBLIC_FIELD"><ellipse cx="638.12" cy="500.5114" fill="none" rx="3" ry="3" style="stroke:#038048;stroke-width:1;"/></g><text fill="#455A64" font-family="sans-serif" font-size="10" lengthAdjust="spacing" textLength="72.876" x="645.12" y="502.7907">issued_at: date</text><line style="stroke:#388E3C;stroke-width:0.5;" x1="628.12" x2="751.6298" y1="508.9001" y2="508.9001"/><g data-visibility-modifier="PUBLIC_METHOD"><ellipse cx="638.12" cy="520.2888" fill="#84BE84" rx="3" ry="3" style="stroke:#038048;stroke-width:1;"/></g><text fill="#455A64" font-family="sans-serif" font-size="10" lengthAdjust="spacing" textLength="98.1104" x="645.12" y="522.568">id: BigAutoField (PK)</text></g><!--class ResumeProject--><g class="entity" data-qualified-name="ResumeProject" data-source-line="90" id="ent0009"><rect fill="#C8E6C9" height="133.1738" rx="2.5" ry="2.5" style="stroke:#388E3C;stroke-width:0.5;" width="122.1104" x="787.82" y="407.2883"/><ellipse cx="811.0654" cy="424.6545" fill="#ADD1B2" rx="9" ry="9" style="stroke:#181818;stroke-width:1;"/><path d="M812.3716,428.4235 Q811.9956,428.6169 811.582,428.7136 Q811.1684,428.8103 810.7119,428.8103 Q809.0898,428.8103 808.2358,427.7414 Q807.3818,426.6726 807.3818,424.653 Q807.3818,422.6281 808.2358,421.5593 Q809.0898,420.4904 810.7119,420.4904 Q811.1684,420.4904 811.5874,420.5871 Q812.0063,420.6838 812.3716,420.8771 L812.3716,422.6389 Q811.9634,422.2629 811.5793,422.0883 Q811.1953,421.9138 810.7871,421.9138 Q809.917,421.9138 809.4739,422.604 Q809.0307,423.2941 809.0307,424.653 Q809.0307,426.0065 809.4739,426.6967 Q809.917,427.3869 810.7871,427.3869 Q811.1953,427.3869 811.5793,427.2124 Q811.9634,427.0378 812.3716,426.6618 Z " fill="#000000"/><text fill="#000000" font-family="sans-serif" font-size="11" font-style="italic" lengthAdjust="spacing" textLength="49.7739" x="836.1266" y="422.923">&#171;section&#187;</text><text fill="#455A64" font-family="sans-serif" font-size="10" lengthAdjust="spacing" textLength="71.3428" x="825.3422" y="434.9113">ResumeProject</text><line style="stroke:#388E3C;stroke-width:0.5;" x1="788.82" x2="908.9304" y1="442.0207" y2="442.0207"/><g data-visibility-modifier="PUBLIC_FIELD"><ellipse cx="798.82" cy="453.4094" fill="none" rx="3" ry="3" style="stroke:#038048;stroke-width:1;"/></g><text fill="#455A64" font-family="sans-serif" font-size="10" lengthAdjust="spacing" textLength="68.2764" x="805.82" y="455.6887">resume_id: FK</text><g data-visibility-modifier="PUBLIC_FIELD"><ellipse cx="798.82" cy="465.1867" fill="none" rx="3" ry="3" style="stroke:#038048;stroke-width:1;"/></g><text fill="#455A64" font-family="sans-serif" font-size="10" lengthAdjust="spacing" textLength="45.8936" x="805.82" y="467.466">name: str</text><g data-visibility-modifier="PUBLIC_FIELD"><ellipse cx="798.82" cy="476.9641" fill="none" rx="3" ry="3" style="stroke:#038048;stroke-width:1;"/></g><text fill="#455A64" font-family="sans-serif" font-size="10" lengthAdjust="spacing" textLength="37.9541" x="805.82" y="479.2434">role: str</text><g data-visibility-modifier="PUBLIC_FIELD"><ellipse cx="798.82" cy="488.7414" fill="none" rx="3" ry="3" style="stroke:#038048;stroke-width:1;"/></g><text fill="#455A64" font-family="sans-serif" font-size="10" lengthAdjust="spacing" textLength="79.8535" x="805.82" y="491.0207">description: text</text><g data-visibility-modifier="PUBLIC_FIELD"><ellipse cx="798.82" cy="500.5188" fill="none" rx="3" ry="3" style="stroke:#038048;stroke-width:1;"/></g><text fill="#455A64" font-family="sans-serif" font-size="10" lengthAdjust="spacing" textLength="75.7764" x="805.82" y="502.798">start_date: date</text><g data-visibility-modifier="PUBLIC_FIELD"><ellipse cx="798.82" cy="512.2961" fill="none" rx="3" ry="3" style="stroke:#038048;stroke-width:1;"/></g><text fill="#455A64" font-family="sans-serif" font-size="10" lengthAdjust="spacing" textLength="75.874" x="805.82" y="514.5754">end_date: date?</text><line style="stroke:#388E3C;stroke-width:0.5;" x1="788.82" x2="908.9304" y1="520.6848" y2="520.6848"/><g data-visibility-modifier="PUBLIC_METHOD"><ellipse cx="798.82" cy="532.0734" fill="#84BE84" rx="3" ry="3" style="stroke:#038048;stroke-width:1;"/></g><text fill="#455A64" font-family="sans-serif" font-size="10" lengthAdjust="spacing" textLength="98.1104" x="805.82" y="534.3527">id: BigAutoField (PK)</text></g><!--class ResumeSkill--><g class="entity" data-qualified-name="ResumeSkill" data-source-line="100" id="ent0010"><rect fill="#E8F4FD" height="67.5547" rx="2.5" ry="2.5" style="stroke:#2196F3;stroke-width:0.5;" width="100.3867" x="944.68" y="440.0983"/><ellipse cx="964.1505" cy="454.0983" fill="#ADD1B2" rx="9" ry="9" style="stroke:#181818;stroke-width:1;"/><path d="M965.4567,457.8673 Q965.0807,458.0607 964.6671,458.1574 Q964.2535,458.254 963.797,458.254 Q962.1749,458.254 961.3209,457.1852 Q960.4669,456.1163 960.4669,454.0968 Q960.4669,452.0719 961.3209,451.0031 Q962.1749,449.9342 963.797,449.9342 Q964.2535,449.9342 964.6725,450.0309 Q965.0914,450.1276 965.4567,450.3209 L965.4567,452.0827 Q965.0485,451.7067 964.6644,451.5321 Q964.2804,451.3576 963.8722,451.3576 Q963.0021,451.3576 962.559,452.0477 Q962.1158,452.7379 962.1158,454.0968 Q962.1158,455.4503 962.559,456.1405 Q963.0021,456.8307 963.8722,456.8307 Q964.2804,456.8307 964.6644,456.6561 Q965.0485,456.4816 965.4567,456.1056 Z " fill="#000000"/><text fill="#455A64" font-family="sans-serif" font-size="10" lengthAdjust="spacing" textLength="58.0078" x="977.5884" y="457.8776">ResumeSkill</text><line style="stroke:#2196F3;stroke-width:0.5;" x1="945.68" x2="1044.0667" y1="468.0983" y2="468.0983"/><g data-visibility-modifier="PUBLIC_FIELD"><ellipse cx="955.68" cy="479.487" fill="none" rx="3" ry="3" style="stroke:#038048;stroke-width:1;"/></g><text fill="#455A64" font-family="sans-serif" font-size="10" lengthAdjust="spacing" textLength="76.3867" x="962.68" y="481.7663">id: BigAutoField</text><g data-visibility-modifier="PUBLIC_FIELD"><ellipse cx="955.68" cy="491.2643" fill="none" rx="3" ry="3" style="stroke:#038048;stroke-width:1;"/></g><text fill="#455A64" font-family="sans-serif" font-size="10" lengthAdjust="spacing" textLength="45.8936" x="962.68" y="493.5436">name: str</text><line style="stroke:#2196F3;stroke-width:0.5;" x1="945.68" x2="1044.0667" y1="499.653" y2="499.653"/></g><!--class ResumeKeyword--><g class="entity" data-qualified-name="ResumeKeyword" data-source-line="105" id="ent0011"><rect fill="#E8F4FD" height="67.5547" rx="2.5" ry="2.5" style="stroke:#2196F3;stroke-width:0.5;" width="107.6631" x="1080.05" y="440.0983"/><ellipse cx="1093.05" cy="454.0983" fill="#ADD1B2" rx="9" ry="9" style="stroke:#181818;stroke-width:1;"/><path d="M1094.3562,457.8673 Q1093.9802,458.0607 1093.5666,458.1574 Q1093.153,458.254 1092.6965,458.254 Q1091.0744,458.254 1090.2204,457.1852 Q1089.3664,456.1163 1089.3664,454.0968 Q1089.3664,452.0719 1090.2204,451.0031 Q1091.0744,449.9342 1092.6965,449.9342 Q1093.153,449.9342 1093.572,450.0309 Q1093.9909,450.1276 1094.3562,450.3209 L1094.3562,452.0827 Q1093.9479,451.7067 1093.5639,451.5321 Q1093.1799,451.3576 1092.7717,451.3576 Q1091.9016,451.3576 1091.4584,452.0477 Q1091.0153,452.7379 1091.0153,454.0968 Q1091.0153,455.4503 1091.4584,456.1405 Q1091.9016,456.8307 1092.7717,456.8307 Q1093.1799,456.8307 1093.5639,456.6561 Q1093.9479,456.4816 1094.3562,456.1056 Z " fill="#000000"/><text fill="#455A64" font-family="sans-serif" font-size="10" lengthAdjust="spacing" textLength="79.6631" x="1105.05" y="457.8776">ResumeKeyword</text><line style="stroke:#2196F3;stroke-width:0.5;" x1="1081.05" x2="1186.7131" y1="468.0983" y2="468.0983"/><g data-visibility-modifier="PUBLIC_FIELD"><ellipse cx="1091.05" cy="479.487" fill="none" rx="3" ry="3" style="stroke:#038048;stroke-width:1;"/></g><text fill="#455A64" font-family="sans-serif" font-size="10" lengthAdjust="spacing" textLength="76.3867" x="1098.05" y="481.7663">id: BigAutoField</text><g data-visibility-modifier="PUBLIC_FIELD"><ellipse cx="1091.05" cy="491.2643" fill="none" rx="3" ry="3" style="stroke:#038048;stroke-width:1;"/></g><text fill="#455A64" font-family="sans-serif" font-size="10" lengthAdjust="spacing" textLength="45.8936" x="1098.05" y="493.5436">name: str</text><line style="stroke:#2196F3;stroke-width:0.5;" x1="1081.05" x2="1186.7131" y1="499.653" y2="499.653"/></g><!--class ResumeIndustryDomain--><g class="entity" data-qualified-name="ResumeIndustryDomain" data-source-line="110" id="ent0012"><rect fill="#E8F4FD" height="67.5547" rx="2.5" ry="2.5" style="stroke:#2196F3;stroke-width:0.5;" width="143.4346" x="1223.16" y="440.0983"/><ellipse cx="1236.16" cy="454.0983" fill="#ADD1B2" rx="9" ry="9" style="stroke:#181818;stroke-width:1;"/><path d="M1237.4662,457.8673 Q1237.0902,458.0607 1236.6766,458.1574 Q1236.263,458.254 1235.8065,458.254 Q1234.1844,458.254 1233.3304,457.1852 Q1232.4764,456.1163 1232.4764,454.0968 Q1232.4764,452.0719 1233.3304,451.0031 Q1234.1844,449.9342 1235.8065,449.9342 Q1236.263,449.9342 1236.682,450.0309 Q1237.1009,450.1276 1237.4662,450.3209 L1237.4662,452.0827 Q1237.0579,451.7067 1236.6739,451.5321 Q1236.2899,451.3576 1235.8817,451.3576 Q1235.0116,451.3576 1234.5684,452.0477 Q1234.1253,452.7379 1234.1253,454.0968 Q1234.1253,455.4503 1234.5684,456.1405 Q1235.0116,456.8307 1235.8817,456.8307 Q1236.2899,456.8307 1236.6739,456.6561 Q1237.0579,456.4816 1237.4662,456.1056 Z " fill="#000000"/><text fill="#455A64" font-family="sans-serif" font-size="10" lengthAdjust="spacing" textLength="115.4346" x="1248.16" y="457.8776">ResumeIndustryDomain</text><line style="stroke:#2196F3;stroke-width:0.5;" x1="1224.16" x2="1365.5946" y1="468.0983" y2="468.0983"/><g data-visibility-modifier="PUBLIC_FIELD"><ellipse cx="1234.16" cy="479.487" fill="none" rx="3" ry="3" style="stroke:#038048;stroke-width:1;"/></g><text fill="#455A64" font-family="sans-serif" font-size="10" lengthAdjust="spacing" textLength="76.3867" x="1241.16" y="481.7663">id: BigAutoField</text><g data-visibility-modifier="PUBLIC_FIELD"><ellipse cx="1234.16" cy="491.2643" fill="none" rx="3" ry="3" style="stroke:#038048;stroke-width:1;"/></g><text fill="#455A64" font-family="sans-serif" font-size="10" lengthAdjust="spacing" textLength="45.8936" x="1241.16" y="493.5436">name: str</text><line style="stroke:#2196F3;stroke-width:0.5;" x1="1224.16" x2="1365.5946" y1="499.653" y2="499.653"/></g><!--class ResumeEmbedding--><g class="entity" data-qualified-name="ResumeEmbedding" data-source-line="115" id="ent0013"><rect fill="#F8BBD0" height="97.8418" rx="2.5" ry="2.5" style="stroke:#C2185B;stroke-width:0.5;" width="138.4824" x="1401.64" y="424.9483"/><ellipse cx="1422.6662" cy="442.3145" fill="#ADD1B2" rx="9" ry="9" style="stroke:#181818;stroke-width:1;"/><path d="M1423.9723,446.0835 Q1423.5963,446.2769 1423.1828,446.3736 Q1422.7692,446.4703 1422.3127,446.4703 Q1420.6906,446.4703 1419.8366,445.4014 Q1418.9826,444.3326 1418.9826,442.313 Q1418.9826,440.2881 1419.8366,439.2193 Q1420.6906,438.1504 1422.3127,438.1504 Q1422.7692,438.1504 1423.1881,438.2471 Q1423.6071,438.3438 1423.9723,438.5371 L1423.9723,440.2989 Q1423.5641,439.9229 1423.1801,439.7483 Q1422.7961,439.5738 1422.3879,439.5738 Q1421.5177,439.5738 1421.0746,440.264 Q1420.6315,440.9541 1420.6315,442.313 Q1420.6315,443.6665 1421.0746,444.3567 Q1421.5177,445.0469 1422.3879,445.0469 Q1422.7961,445.0469 1423.1801,444.8724 Q1423.5641,444.6978 1423.9723,444.3218 Z " fill="#000000"/><text fill="#000000" font-family="sans-serif" font-size="11" font-style="italic" lengthAdjust="spacing" textLength="71.688" x="1446.929" y="440.583">&#171;embedding&#187;</text><text fill="#455A64" font-family="sans-serif" font-size="10" lengthAdjust="spacing" textLength="92.6465" x="1436.4498" y="452.5713">ResumeEmbedding</text><line style="stroke:#C2185B;stroke-width:0.5;" x1="1402.64" x2="1539.1224" y1="459.6807" y2="459.6807"/><g data-visibility-modifier="PUBLIC_METHOD"><ellipse cx="1412.64" cy="471.0694" fill="#84BE84" rx="3" ry="3" style="stroke:#038048;stroke-width:1;"/></g><text fill="#455A64" font-family="sans-serif" font-size="10" lengthAdjust="spacing" textLength="93.7549" x="1419.64" y="473.3487">resume_id: FK (1:1)</text><g data-visibility-modifier="PUBLIC_FIELD"><ellipse cx="1412.64" cy="482.8467" fill="none" rx="3" ry="3" style="stroke:#038048;stroke-width:1;"/></g><text fill="#455A64" font-family="sans-serif" font-size="10" lengthAdjust="spacing" textLength="89.9414" x="1419.64" y="485.126">vector: float[1536]</text><g data-visibility-modifier="PUBLIC_FIELD"><ellipse cx="1412.64" cy="494.6241" fill="none" rx="3" ry="3" style="stroke:#038048;stroke-width:1;"/></g><text fill="#455A64" font-family="sans-serif" font-size="10" lengthAdjust="spacing" textLength="114.4824" x="1419.64" y="496.9034">embedded_at: datetime</text><line style="stroke:#C2185B;stroke-width:1;" x1="1402.64" x2="1539.1224" y1="503.0127" y2="503.0127"/><text fill="#455A64" font-family="sans-serif" font-size="10" lengthAdjust="spacing" textLength="99.8291" x="1407.64" y="516.6807">(OpenAI Embedding)</text></g><g class="entity" data-qualified-name="GMN25" data-source-line="136" id="ent0026"><path d="M941.63,199.7383 L941.63,259.4583 L906.72,263.4583 L941.63,267.4583 L941.63,326.334 A0,0 0 0 0 941.63,326.334 L1114.1303,326.334 A0,0 0 0 0 1114.1303,326.334 L1114.1303,209.7383 L1104.1303,199.7383 L941.63,199.7383 A0,0 0 0 0 941.63,199.7383" fill="#FEFFDD" style="stroke:#181818;stroke-width:0.5;"/><path d="M1104.1303,199.7383 L1104.1303,209.7383 L1114.1303,209.7383 L1104.1303,199.7383" fill="#FEFFDD" style="stroke:#181818;stroke-width:0.5;"/><text fill="#000000" font-family="sans-serif" font-size="11" lengthAdjust="spacing" textLength="45.0209" x="947.63" y="215.373">&#49373;&#49457; &#44221;&#47196;:</text><text fill="#000000" font-family="sans-serif" font-size="11" lengthAdjust="spacing" textLength="136.1201" x="947.63" y="228.3281">- FILE: &#51088;&#46041; finalize &#8594; &#48516;&#49437;</text><text fill="#000000" font-family="sans-serif" font-size="11" lengthAdjust="spacing" textLength="151.5003" x="947.63" y="241.2832">- TEXT: &#49324;&#50857;&#51088; finalize &#8594; &#48516;&#49437;</text><text fill="#000000" font-family="sans-serif" font-size="11" lengthAdjust="spacing" textLength="3.4805" x="947.63" y="254.2383">&#160;</text><text fill="#000000" font-family="sans-serif" font-size="11" lengthAdjust="spacing" textLength="136.6249" x="947.63" y="267.1934">&#48516;&#49437; &#50892;&#52964;: analysis-resume</text><text fill="#000000" font-family="sans-serif" font-size="11" lengthAdjust="spacing" textLength="96.0029" x="947.63" y="280.1484">- ExtractTextTask</text><text fill="#000000" font-family="sans-serif" font-size="11" lengthAdjust="spacing" textLength="142.6994" x="947.63" y="293.1035">- EmbedResumeTask (&#48337;&#47148;)</text><text fill="#000000" font-family="sans-serif" font-size="11" lengthAdjust="spacing" textLength="148.3445" x="947.63" y="306.0586">- AnalyzeResumeTask (&#48337;&#47148;)</text><text fill="#000000" font-family="sans-serif" font-size="11" lengthAdjust="spacing" textLength="148.3442" x="947.63" y="319.0137">- FinalizeResumeTask (join)</text></g><!--reverse link User to Resume--><g class="link" data-entity-1="ent0002" data-entity-2="ent0003" data-link-type="composition" data-source-line="123" id="lnk14"><path codeLine="123" d="M768.88,131.2183 C768.88,148.4483 768.88,157.6183 768.88,178.3683" fill="none" id="User-backto-Resume" style="stroke:#555555;stroke-width:1;"/><polygon fill="#555555" points="768.88,119.2183,764.88,125.2183,768.88,131.2183,772.88,125.2183,768.88,119.2183" style="stroke:#555555;stroke-width:1;"/><text fill="#000000" font-family="sans-serif" font-size="11" lengthAdjust="spacing" textLength="27.6665" x="740.88" y="146.433">owns</text><text fill="#000000" font-family="sans-serif" font-size="11" lengthAdjust="spacing" textLength="6.9556" x="762.4476" y="137.4265">1</text><text fill="#000000" font-family="sans-serif" font-size="11" lengthAdjust="spacing" textLength="5.3013" x="763.6564" y="168.4073">*</text></g><!--reverse link Resume to ResumeBasicInfo--><g class="link" data-entity-1="ent0003" data-entity-2="ent0004" data-link-type="composition" data-source-line="124" id="lnk15"><path codeLine="124" d="M618.83,220.4583 C414.09,220.4583 65.88,220.4583 65.88,220.4583 C65.88,220.4583 65.88,351.0183 65.88,424.7083" fill="none" id="Resume-backto-ResumeBasicInfo" style="stroke:#555555;stroke-width:1;"/><polygon fill="#555555" points="630.83,220.4583,624.83,216.4583,618.83,220.4583,624.83,224.4583,630.83,220.4583" style="stroke:#555555;stroke-width:1;"/><text fill="#000000" font-family="sans-serif" font-size="11" lengthAdjust="spacing" textLength="6.9556" x="616.2641" y="216.1622">1</text><text fill="#000000" font-family="sans-serif" font-size="11" lengthAdjust="spacing" textLength="6.9556" x="59.4784" y="414.6279">1</text></g><!--reverse link Resume to ResumeSummary--><g class="link" data-entity-1="ent0003" data-entity-2="ent0005" data-link-type="composition" data-source-line="125" id="lnk16"><path codeLine="125" d="M618.8,263.4583 C455.88,263.4583 218.88,263.4583 218.88,263.4583 C218.88,263.4583 218.88,368.9283 218.88,430.5283" fill="none" id="Resume-backto-ResumeSummary" style="stroke:#555555;stroke-width:1;"/><polygon fill="#555555" points="630.8,263.4583,624.8,259.4583,618.8,263.4583,624.8,267.4583,630.8,263.4583" style="stroke:#555555;stroke-width:1;"/><text fill="#000000" font-family="sans-serif" font-size="11" lengthAdjust="spacing" textLength="6.9556" x="616.2323" y="261.7825">1</text><text fill="#000000" font-family="sans-serif" font-size="11" lengthAdjust="spacing" textLength="6.9556" x="212.4312" y="420.459">1</text></g><!--reverse link Resume to ResumeExperience--><g class="link" data-entity-1="ent0003" data-entity-2="ent0006" data-link-type="composition" data-source-line="126" id="lnk17"><path codeLine="126" d="M618.73,305.4583 C504.82,305.4583 373.88,305.4583 373.88,305.4583 C373.88,305.4583 373.88,359.8583 373.88,406.8283" fill="none" id="Resume-backto-ResumeExperience" style="stroke:#555555;stroke-width:1;"/><polygon fill="#555555" points="630.73,305.4583,624.73,301.4583,618.73,305.4583,624.73,309.4583,630.73,305.4583" style="stroke:#555555;stroke-width:1;"/><text fill="#000000" font-family="sans-serif" font-size="11" lengthAdjust="spacing" textLength="6.9556" x="616.158" y="306.3419">1</text><text fill="#000000" font-family="sans-serif" font-size="11" lengthAdjust="spacing" textLength="5.3013" x="368.6089" y="397.0722">*</text></g><!--reverse link Resume to ResumeEducation--><g class="link" data-entity-1="ent0003" data-entity-2="ent0007" data-link-type="composition" data-source-line="127" id="lnk18"><path codeLine="127" d="M671.68,359.4783 C671.68,393.7683 671.68,413.4583 671.68,413.4583 C671.68,413.4583 630.17,413.4583 592.23,413.4583" fill="none" id="Resume-backto-ResumeEducation" style="stroke:#555555;stroke-width:1;"/><polygon fill="#555555" points="671.68,347.4783,667.68,353.4783,671.68,359.4783,675.68,353.4783,671.68,347.4783" style="stroke:#555555;stroke-width:1;"/><text fill="#000000" font-family="sans-serif" font-size="11" lengthAdjust="spacing" textLength="6.9556" x="657.1104" y="365.9269">1</text><text fill="#000000" font-family="sans-serif" font-size="11" lengthAdjust="spacing" textLength="5.3013" x="600.0307" y="404.0567">*</text></g><!--reverse link Resume to ResumeCertification--><g class="link" data-entity-1="ent0003" data-entity-2="ent0008" data-link-type="composition" data-source-line="128" id="lnk19"><path codeLine="128" d="M712.16,359.5683 C712.16,383.5183 712.16,396.9583 712.16,418.6883" fill="none" id="Resume-backto-ResumeCertification" style="stroke:#555555;stroke-width:1;"/><polygon fill="#555555" points="712.16,347.5683,708.16,353.5683,712.16,359.5683,716.16,353.5683,712.16,347.5683" style="stroke:#555555;stroke-width:1;"/><text fill="#000000" font-family="sans-serif" font-size="11" lengthAdjust="spacing" textLength="6.9556" x="701.0692" y="366.0246">1</text><text fill="#000000" font-family="sans-serif" font-size="11" lengthAdjust="spacing" textLength="5.3013" x="709.9635" y="408.7868">*</text></g><!--reverse link Resume to ResumeProject--><g class="link" data-entity-1="ent0003" data-entity-2="ent0009" data-link-type="composition" data-source-line="129" id="lnk20"><path codeLine="129" d="M847.18,359.5683 C847.18,379.2783 847.18,387.9983 847.18,406.8283" fill="none" id="Resume-backto-ResumeProject" style="stroke:#555555;stroke-width:1;"/><polygon fill="#555555" points="847.18,347.5683,843.18,353.5683,847.18,359.5683,851.18,353.5683,847.18,347.5683" style="stroke:#555555;stroke-width:1;"/><text fill="#000000" font-family="sans-serif" font-size="11" lengthAdjust="spacing" textLength="6.9556" x="847.6925" y="366.0246">1</text><text fill="#000000" font-family="sans-serif" font-size="11" lengthAdjust="spacing" textLength="5.3013" x="841.7123" y="397.0722">*</text></g><!--link Resume to ResumeSkill--><g class="link" data-entity-1="ent0003" data-entity-2="ent0010" data-link-type="association" data-source-line="130" id="lnk21"><path codeLine="130" d="M906.85,343.4583 C953.91,343.4583 994.88,343.4583 994.88,343.4583 C994.88,343.4583 994.88,400.9683 994.88,439.6083" fill="none" id="Resume-ResumeSkill" style="stroke:#555555;stroke-width:1;"/><text fill="#000000" font-family="sans-serif" font-size="11" lengthAdjust="spacing" textLength="18.5088" x="975.88" y="345.153">has</text><text fill="#000000" font-family="sans-serif" font-size="11" lengthAdjust="spacing" textLength="5.3013" x="914.5404" y="346.1894">*</text><text fill="#000000" font-family="sans-serif" font-size="11" lengthAdjust="spacing" textLength="5.3013" x="989.3675" y="429.539">*</text></g><!--link Resume to ResumeKeyword--><g class="link" data-entity-1="ent0003" data-entity-2="ent0011" data-link-type="association" data-source-line="131" id="lnk22"><path codeLine="131" d="M906.64,338.4583 C996.46,338.4583 1097.09,338.4583 1097.09,338.4583 C1097.09,338.4583 1097.09,399.5883 1097.09,439.6983" fill="none" id="Resume-ResumeKeyword" style="stroke:#555555;stroke-width:1;"/><text fill="#000000" font-family="sans-serif" font-size="11" lengthAdjust="spacing" textLength="18.5088" x="1033.49" y="350.093">has</text><text fill="#000000" font-family="sans-serif" font-size="11" lengthAdjust="spacing" textLength="5.3013" x="914.7577" y="353.8282">*</text><text fill="#000000" font-family="sans-serif" font-size="11" lengthAdjust="spacing" textLength="5.3013" x="1083.5279" y="429.6487">*</text></g><!--link Resume to ResumeIndustryDomain--><g class="link" data-entity-1="ent0003" data-entity-2="ent0012" data-link-type="association" data-source-line="132" id="lnk23"><path codeLine="132" d="M906.73,334.4583 C1062.58,334.4583 1294.88,334.4583 1294.88,334.4583 C1294.88,334.4583 1294.88,398.4983 1294.88,439.7683" fill="none" id="Resume-ResumeIndustryDomain" style="stroke:#555555;stroke-width:1;"/><text fill="#000000" font-family="sans-serif" font-size="11" lengthAdjust="spacing" textLength="18.5088" x="1134.46" y="332.093">has</text><text fill="#000000" font-family="sans-serif" font-size="11" lengthAdjust="spacing" textLength="5.3013" x="914.4138" y="336.6972">*</text><text fill="#000000" font-family="sans-serif" font-size="11" lengthAdjust="spacing" textLength="5.3013" x="1289.3667" y="429.734">*</text></g><!--link Resume to ResumeEmbedding--><g class="link" data-entity-1="ent0003" data-entity-2="ent0013" data-link-type="association" data-source-line="133" id="lnk24"><path codeLine="133" d="M906.73,330.4583 C1111.17,330.4583 1470.88,330.4583 1470.88,330.4583 C1470.88,330.4583 1470.88,383.0283 1470.88,424.5183" fill="none" id="Resume-ResumeEmbedding" style="stroke:#555555;stroke-width:1;"/><text fill="#000000" font-family="sans-serif" font-size="11" lengthAdjust="spacing" textLength="59.0068" x="1175.83" y="328.093">indexed by</text><text fill="#000000" font-family="sans-serif" font-size="11" lengthAdjust="spacing" textLength="6.9556" x="914.4591" y="332.4785">1</text><text fill="#000000" font-family="sans-serif" font-size="11" lengthAdjust="spacing" textLength="6.9556" x="1464.4936" y="414.7506">1</text></g><g class="footer" data-source-line="147"><text fill="#888888" font-family="sans-serif" font-size="10" lengthAdjust="spacing" textLength="173.5303" x="679.7961" y="556.1301">MeFit - backend/webapp/resumes/</text></g><?plantuml-src hLPRRnj557xVNt5aNjn6Lh99R9nLLMIlTv6Lj8qQH-8YP8rtnyx4wnrhPhQ9M_K1Y7W0f002n2qHI7cWKYK4H109yMTux6x_0pExwzlQMvMKv24xvtpdEsVcV7CcWWWFG_ZBrVElJg44zp4F1d9zUX8--J8wkuBdxr-6vzz47rz0-Cb5T7OPVNtvxC-hyFndJUDzuWyHGmFe8AVVOpJmNPDwbC5hjgL-Pn0kxgB04pRrnHvvY47NPvmUyR4O3J5G9WxeZCFn4EVmI0EePpDOLNlJRYWFPIvcgNLTtwhO6z9QOumUfSPo_AECGZ3I2GIUbh6MDQSnc-LohRAfFSuMS-iMwlKOxY61RzzUNfbjsrlcPhOokswkhJUM4NBi24BzF3gpQbNChIpTHhLgRPZBwF2WWrsN-BtS-ghrUcCjIsYkwzLoVIdXiS3CHruUdsLQjgrd-IfhhpUgYazBchZFCOC5iXNY6b0dlLeWg4smvoeR7Y3Y6S05cuQdkbmy_fKWK1px-yq657UtRyGccQkjhFQsMWebyOHFhZWDc8FRIcyIqDonO1LQrbkj6L-NUBZTnwCuvetO8P08k06D-pMx9GDgTsixRx_JlFkc_3RltTdTiLfMGtxRDKceLBc2v2P73x7RHi80LzOho037N2xsiCWweCXfLq3YKviebHIsIoID56entXV3AQjSPawcZZXncdwNGbPGCae1qlE0ecxeCPcF1jD3SQJoaICcQuywI74ixS9UC1WWDdhfJBHpg70FP3eX-n-VPqAH6ZByrl4GCu9z1o-coEfbqlEvtCcM1aFaZoPR6b9EfbjAUif4MtKWwKCiFT-TiQJjuWuZmoHqQRbka1pMgrJBdGDAlKbjBfOgdxPdW0uf-q-5PseqCHEaIrwzpZdL4Cu3pEQNKrrdQzXbLEdWVylEwCojNkpIzGvghqyyBtyqJGl8n6tZqP4SVzU8RFfk8CsZ1fLZpxy6WJKU-B0u_FEkv0FP0QMehaUHU5SlRrJUIoQl2i_Cfl4mAjuROh_MX4c-U0Z5SxsW5-1cgGI5cuNnf3Q07lbSIrSJW5x83gnyI3fd5W2J9DD1yGBC-7RcG-OkHpuirUy481rp_aGw1XmWdeiPo-J5g8mavi5w0fwSqhJz1X3VnSVOXSv8qtmgC33IEn10kobMTZ7wy2mw-HMU_VPt-DCFXkfj_0WQ49r_5fv-2-CN1_xvw0i8_pY9JivYa7eY9UY3fz5tJoHqAKu2ao-8llyq-kl2WFYzueINs3X_2QnZmUHRqvANj8LuFx6fJIGrAXiKmzy_3tzy6Z-4K4iUlJotdLOowp-anB-XoRiEwXWqhKlb7mPti4s4357_hqhdwX7keE5mDIcEh_uB?></g></svg>