<?plantuml 1.2026.1?><svg xmlns="http://www.w3.org/2000/svg" xmlns:xlink="http://www.w3.org/1999/xlink" contentStyleType="text/css" data-diagram-type="CLASS" height="727px" preserveAspectRatio="none" style="width:496px;height:727px;background:#FEFEFE;" version="1.1" viewBox="0 0 496 727" width="496px" zoomAndPan="magnify"><title>&#48120;&#54607; - JobDescription &#46020;&#47700;&#51064; &#53364;&#47000;&#49828; &#45796;&#51060;&#50612;&#44536;&#47016;</title><defs/><g><rect fill="#FEFEFE" height="727" style="stroke:none;stroke-width:1;" width="496" x="0" y="0"/><g class="title" data-source-line="1"><text fill="#000000" font-family="sans-serif" font-size="14" font-weight="bold" lengthAdjust="spacing" textLength="296.7464" x="92.9483" y="23.5352">&#48120;&#54607; - JobDescription &#46020;&#47700;&#51064; &#53364;&#47000;&#49828; &#45796;&#51060;&#50612;&#44536;&#47016;</text></g><!--class User--><g class="entity" data-qualified-name="User" data-source-line="22" id="ent0002"><rect fill="#ECEFF1" height="74.2871" rx="2.5" ry="2.5" style="stroke:#607D8B;stroke-width:0.5;" width="100.3867" x="74.15" y="44.4883"/><ellipse cx="96.6725" cy="61.8545" fill="#ADD1B2" rx="9" ry="9" style="stroke:#181818;stroke-width:1;"/><path d="M97.9787,65.6235 Q97.6027,65.8169 97.1891,65.9136 Q96.7755,66.0103 96.319,66.0103 Q94.6969,66.0103 93.8429,64.9414 Q92.9889,63.8726 92.9889,61.853 Q92.9889,59.8281 93.8429,58.7593 Q94.6969,57.6904 96.319,57.6904 Q96.7755,57.6904 97.1945,57.7871 Q97.6134,57.8838 97.9787,58.0771 L97.9787,59.8389 Q97.5705,59.4629 97.1864,59.2883 Q96.8024,59.1138 96.3942,59.1138 Q95.5241,59.1138 95.081,59.804 Q94.6378,60.4941 94.6378,61.853 Q94.6378,63.2065 95.081,63.8967 Q95.5241,64.5869 96.3942,64.5869 Q96.8024,64.5869 97.1864,64.4124 Q97.5705,64.2378 97.9787,63.8618 Z " fill="#000000"/><text fill="#000000" font-family="sans-serif" font-size="11" font-style="italic" lengthAdjust="spacing" textLength="55.2256" x="108.7886" y="60.123">&#171;external&#187;</text><text fill="#455A64" font-family="sans-serif" font-size="10" lengthAdjust="spacing" textLength="21.6895" x="125.5567" y="72.1113">User</text><line style="stroke:#607D8B;stroke-width:0.5;" x1="75.15" x2="173.5367" y1="79.2207" y2="79.2207"/><g data-visibility-modifier="PUBLIC_FIELD"><ellipse cx="85.15" cy="90.6094" fill="none" rx="3" ry="3" style="stroke:#038048;stroke-width:1;"/></g><text fill="#455A64" font-family="sans-serif" font-size="10" lengthAdjust="spacing" textLength="76.3867" x="92.15" y="92.8887">id: BigAutoField</text><g data-visibility-modifier="PUBLIC_FIELD"><ellipse cx="85.15" cy="102.3867" fill="none" rx="3" ry="3" style="stroke:#038048;stroke-width:1;"/></g><text fill="#455A64" font-family="sans-serif" font-size="10" lengthAdjust="spacing" textLength="45.4688" x="92.15" y="104.666">email: str</text><line style="stroke:#607D8B;stroke-width:0.5;" x1="75.15" x2="173.5367" y1="110.7754" y2="110.7754"/></g><!--class UserJobDescription--><g class="entity" data-qualified-name="UserJobDescription" data-source-line="27" id="ent0003"><rect fill="#FFF9C4" height="156.7285" rx="2.5" ry="2.5" style="stroke:#FBC02D;stroke-width:0.5;" width="234.6934" x="7" y="178.7783"/><ellipse cx="74.21" cy="196.1445" fill="#ADD1B2" rx="9" ry="9" style="stroke:#181818;stroke-width:1;"/><path d="M75.5161,199.9135 Q75.1401,200.1069 74.7266,200.2036 Q74.313,200.3003 73.8564,200.3003 Q72.2344,200.3003 71.3804,199.2314 Q70.5264,198.1626 70.5264,196.143 Q70.5264,194.1181 71.3804,193.0493 Q72.2344,191.9804 73.8564,191.9804 Q74.313,191.9804 74.7319,192.0771 Q75.1509,192.1738 75.5161,192.3671 L75.5161,194.1289 Q75.1079,193.7529 74.7239,193.5783 Q74.3398,193.4038 73.9316,193.4038 Q73.0615,193.4038 72.6184,194.094 Q72.1753,194.7841 72.1753,196.143 Q72.1753,197.4965 72.6184,198.1867 Q73.0615,198.8769 73.9316,198.8769 Q74.3398,198.8769 74.7239,198.7024 Q75.1079,198.5278 75.5161,198.1518 Z " fill="#000000"/><text fill="#000000" font-family="sans-serif" font-size="11" font-style="italic" lengthAdjust="spacing" textLength="65.1245" x="105.5344" y="194.413">&#171;aggregate&#187;</text><text fill="#455A64" font-family="sans-serif" font-size="10" lengthAdjust="spacing" textLength="92.7734" x="91.71" y="206.4013">UserJobDescription</text><line style="stroke:#FBC02D;stroke-width:0.5;" x1="8" x2="240.6934" y1="213.5107" y2="213.5107"/><g data-visibility-modifier="PUBLIC_METHOD"><ellipse cx="18" cy="224.8994" fill="#84BE84" rx="3" ry="3" style="stroke:#038048;stroke-width:1;"/></g><text fill="#455A64" font-family="sans-serif" font-size="10" lengthAdjust="spacing" textLength="73.877" x="25" y="227.1787">uuid: UUID (PK)</text><g data-visibility-modifier="PUBLIC_FIELD"><ellipse cx="18" cy="236.6767" fill="none" rx="3" ry="3" style="stroke:#038048;stroke-width:1;"/></g><text fill="#455A64" font-family="sans-serif" font-size="10" lengthAdjust="spacing" textLength="53.3691" x="25" y="238.956">user_id: FK</text><g data-visibility-modifier="PUBLIC_FIELD"><ellipse cx="18" cy="248.4541" fill="none" rx="3" ry="3" style="stroke:#038048;stroke-width:1;"/></g><text fill="#455A64" font-family="sans-serif" font-size="10" lengthAdjust="spacing" textLength="73.8965" x="25" y="250.7334">source_url: str?</text><g data-visibility-modifier="PUBLIC_FIELD"><ellipse cx="18" cy="260.2314" fill="none" rx="3" ry="3" style="stroke:#038048;stroke-width:1;"/></g><text fill="#455A64" font-family="sans-serif" font-size="10" lengthAdjust="spacing" textLength="210.6934" x="25" y="262.5107">status: COLLECTING / COLLECTED / FAILED</text><g data-visibility-modifier="PUBLIC_FIELD"><ellipse cx="18" cy="272.0087" fill="none" rx="3" ry="3" style="stroke:#038048;stroke-width:1;"/></g><text fill="#455A64" font-family="sans-serif" font-size="10" lengthAdjust="spacing" textLength="110.8203" x="25" y="274.288">collected_at: datetime?</text><g data-visibility-modifier="PUBLIC_METHOD"><ellipse cx="18" cy="283.7861" fill="#84BE84" rx="3" ry="3" style="stroke:#038048;stroke-width:1;"/></g><text fill="#455A64" font-family="sans-serif" font-size="10" lengthAdjust="spacing" textLength="164.5361" x="25" y="286.0654">deleted_at: datetime? (soft delete)</text><line style="stroke:#FBC02D;stroke-width:1;" x1="8" x2="240.6934" y1="292.1748" y2="292.1748"/><g data-visibility-modifier="PUBLIC_METHOD"><ellipse cx="18" cy="303.5634" fill="#84BE84" rx="3" ry="3" style="stroke:#038048;stroke-width:1;"/></g><text fill="#455A64" font-family="sans-serif" font-size="10" lengthAdjust="spacing" textLength="83.1104" x="25" y="305.8427">mark_collecting()</text><g data-visibility-modifier="PUBLIC_METHOD"><ellipse cx="18" cy="315.3408" fill="#84BE84" rx="3" ry="3" style="stroke:#038048;stroke-width:1;"/></g><text fill="#455A64" font-family="sans-serif" font-size="10" lengthAdjust="spacing" textLength="79.6436" x="25" y="317.6201">mark_collected()</text><g data-visibility-modifier="PUBLIC_METHOD"><ellipse cx="18" cy="327.1181" fill="#84BE84" rx="3" ry="3" style="stroke:#038048;stroke-width:1;"/></g><text fill="#455A64" font-family="sans-serif" font-size="10" lengthAdjust="spacing" textLength="63.1445" x="25" y="329.3974">mark_failed()</text></g><!--class JobPosting--><g class="entity" data-qualified-name="JobPosting" data-source-line="40" id="ent0004"><rect fill="#E8F4FD" height="197.1055" rx="2.5" ry="2.5" style="stroke:#2196F3;stroke-width:0.5;" width="182.667" x="33.01" y="395.5083"/><ellipse cx="94.9001" cy="409.5083" fill="#ADD1B2" rx="9" ry="9" style="stroke:#181818;stroke-width:1;"/><path d="M96.2063,413.2773 Q95.8303,413.4707 95.4167,413.5674 Q95.0032,413.664 94.5466,413.664 Q92.9246,413.664 92.0705,412.5952 Q91.2165,411.5263 91.2165,409.5068 Q91.2165,407.4819 92.0705,406.4131 Q92.9246,405.3442 94.5466,405.3442 Q95.0032,405.3442 95.4221,405.4409 Q95.8411,405.5376 96.2063,405.7309 L96.2063,407.4927 Q95.7981,407.1167 95.4141,406.9421 Q95.03,406.7676 94.6218,406.7676 Q93.7517,406.7676 93.3086,407.4577 Q92.8655,408.1479 92.8655,409.5068 Q92.8655,410.8603 93.3086,411.5505 Q93.7517,412.2407 94.6218,412.2407 Q95.03,412.2407 95.4141,412.0661 Q95.7981,411.8916 96.2063,411.5156 Z " fill="#000000"/><text fill="#455A64" font-family="sans-serif" font-size="10" lengthAdjust="spacing" textLength="51.3867" x="112.4001" y="413.2876">JobPosting</text><line style="stroke:#2196F3;stroke-width:0.5;" x1="34.01" x2="214.677" y1="423.5083" y2="423.5083"/><g data-visibility-modifier="PUBLIC_FIELD"><ellipse cx="44.01" cy="434.897" fill="none" rx="3" ry="3" style="stroke:#038048;stroke-width:1;"/></g><text fill="#455A64" font-family="sans-serif" font-size="10" lengthAdjust="spacing" textLength="63.1055" x="51.01" y="437.1763">company: str</text><g data-visibility-modifier="PUBLIC_FIELD"><ellipse cx="44.01" cy="446.6743" fill="none" rx="3" ry="3" style="stroke:#038048;stroke-width:1;"/></g><text fill="#455A64" font-family="sans-serif" font-size="10" lengthAdjust="spacing" textLength="38.0908" x="51.01" y="448.9536">title: str</text><g data-visibility-modifier="PUBLIC_FIELD"><ellipse cx="44.01" cy="458.4516" fill="none" rx="3" ry="3" style="stroke:#038048;stroke-width:1;"/></g><text fill="#455A64" font-family="sans-serif" font-size="10" lengthAdjust="spacing" textLength="55.3125" x="51.01" y="460.7309">duties: text</text><g data-visibility-modifier="PUBLIC_FIELD"><ellipse cx="44.01" cy="470.229" fill="none" rx="3" ry="3" style="stroke:#038048;stroke-width:1;"/></g><text fill="#455A64" font-family="sans-serif" font-size="10" lengthAdjust="spacing" textLength="90.1807" x="51.01" y="472.5083">requirements: text</text><g data-visibility-modifier="PUBLIC_FIELD"><ellipse cx="44.01" cy="482.0063" fill="none" rx="3" ry="3" style="stroke:#038048;stroke-width:1;"/></g><text fill="#455A64" font-family="sans-serif" font-size="10" lengthAdjust="spacing" textLength="70.7666" x="51.01" y="484.2856">preferred: text</text><g data-visibility-modifier="PUBLIC_FIELD"><ellipse cx="44.01" cy="493.7837" fill="none" rx="3" ry="3" style="stroke:#038048;stroke-width:1;"/></g><text fill="#455A64" font-family="sans-serif" font-size="10" lengthAdjust="spacing" textLength="68.8721" x="51.01" y="496.063">work_type: str</text><g data-visibility-modifier="PUBLIC_FIELD"><ellipse cx="44.01" cy="505.561" fill="none" rx="3" ry="3" style="stroke:#038048;stroke-width:1;"/></g><text fill="#455A64" font-family="sans-serif" font-size="10" lengthAdjust="spacing" textLength="51.8262" x="51.01" y="507.8403">salary: str?</text><g data-visibility-modifier="PUBLIC_FIELD"><ellipse cx="44.01" cy="517.3384" fill="none" rx="3" ry="3" style="stroke:#038048;stroke-width:1;"/></g><text fill="#455A64" font-family="sans-serif" font-size="10" lengthAdjust="spacing" textLength="57.915" x="51.01" y="519.6177">location: str</text><g data-visibility-modifier="PUBLIC_FIELD"><ellipse cx="44.01" cy="529.1157" fill="none" rx="3" ry="3" style="stroke:#038048;stroke-width:1;"/></g><text fill="#455A64" font-family="sans-serif" font-size="10" lengthAdjust="spacing" textLength="71.1719" x="51.01" y="531.395">education: str?</text><g data-visibility-modifier="PUBLIC_FIELD"><ellipse cx="44.01" cy="540.893" fill="none" rx="3" ry="3" style="stroke:#038048;stroke-width:1;"/></g><text fill="#455A64" font-family="sans-serif" font-size="10" lengthAdjust="spacing" textLength="76.499" x="51.01" y="543.1723">experience: str?</text><g data-visibility-modifier="PUBLIC_FIELD"><ellipse cx="44.01" cy="552.6704" fill="none" rx="3" ry="3" style="stroke:#038048;stroke-width:1;"/></g><text fill="#455A64" font-family="sans-serif" font-size="10" lengthAdjust="spacing" textLength="73.8965" x="51.01" y="554.9497">source_url: str?</text><line style="stroke:#2196F3;stroke-width:0.5;" x1="34.01" x2="214.677" y1="561.0591" y2="561.0591"/><g data-visibility-modifier="PUBLIC_METHOD"><ellipse cx="44.01" cy="572.4477" fill="#84BE84" rx="3" ry="3" style="stroke:#038048;stroke-width:1;"/></g><text fill="#455A64" font-family="sans-serif" font-size="10" lengthAdjust="spacing" textLength="73.877" x="51.01" y="574.727">uuid: UUID (PK)</text><g data-visibility-modifier="PUBLIC_METHOD"><ellipse cx="44.01" cy="584.2251" fill="#84BE84" rx="3" ry="3" style="stroke:#038048;stroke-width:1;"/></g><text fill="#455A64" font-family="sans-serif" font-size="10" lengthAdjust="spacing" textLength="158.667" x="51.01" y="586.5044">user_job_description_id: FK (1:1)</text></g><g class="entity" data-qualified-name="GMN7" data-source-line="60" id="ent0008"><path d="M277.05,219.7583 L277.05,253.4783 L242.1,257.4783 L277.05,261.4783 L277.05,294.5337 A0,0 0 0 0 277.05,294.5337 L489.6429,294.5337 A0,0 0 0 0 489.6429,294.5337 L489.6429,229.7583 L479.6429,219.7583 L277.05,219.7583 A0,0 0 0 0 277.05,219.7583" fill="#FEFFDD" style="stroke:#181818;stroke-width:0.5;"/><path d="M479.6429,219.7583 L479.6429,229.7583 L489.6429,229.7583 L479.6429,219.7583" fill="#FEFFDD" style="stroke:#181818;stroke-width:0.5;"/><text fill="#000000" font-family="sans-serif" font-size="11" lengthAdjust="spacing" textLength="45.0209" x="283.05" y="235.393">&#46321;&#47197; &#44221;&#47196;:</text><text fill="#000000" font-family="sans-serif" font-size="11" lengthAdjust="spacing" textLength="191.5929" x="283.05" y="248.3481">- URL &#51077;&#47141;: scraping Worker &#51088;&#46041; &#52628;&#52636;</text><text fill="#000000" font-family="sans-serif" font-size="11" lengthAdjust="spacing" textLength="142.3486" x="290.0109" y="261.3032">+ &#49324;&#46988;&#51064; / &#51105;&#53076;&#47532;&#50500; / &#51105;&#54540;&#47000;&#45787;</text><text fill="#000000" font-family="sans-serif" font-size="11" lengthAdjust="spacing" textLength="102.2661" x="290.0109" y="274.2583">+ &#48391; &#52264;&#45800; &#49884; fallback</text><text fill="#000000" font-family="sans-serif" font-size="11" lengthAdjust="spacing" textLength="143.4733" x="283.05" y="287.2134">- &#51649;&#51217; &#51077;&#47141;: &#51593;&#49884; COLLECTED</text></g><g class="entity" data-qualified-name="GMN10" data-source-line="68" id="ent0011"><path d="M34.23,652.6083 L34.23,701.4735 A0,0 0 0 0 34.23,701.4735 L214.4672,701.4735 A0,0 0 0 0 214.4672,701.4735 L214.4672,662.6083 L204.4672,652.6083 L128.35,652.6083 L124.35,593.0483 L120.35,652.6083 L34.23,652.6083 A0,0 0 0 0 34.23,652.6083" fill="#FEFFDD" style="stroke:#181818;stroke-width:0.5;"/><path d="M204.4672,652.6083 L204.4672,662.6083 L214.4672,662.6083 L204.4672,652.6083" fill="#FEFFDD" style="stroke:#181818;stroke-width:0.5;"/><text fill="#000000" font-family="sans-serif" font-size="11" lengthAdjust="spacing" textLength="69.7065" x="40.23" y="668.243">LLM &#52628;&#52636; &#51204;&#47029;:</text><text fill="#000000" font-family="sans-serif" font-size="11" lengthAdjust="spacing" textLength="159.2372" x="40.23" y="681.1981">- &#53581;&#49828;&#53944; &#8805; 300&#51088;: gpt-4o-mini</text><text fill="#000000" font-family="sans-serif" font-size="11" lengthAdjust="spacing" textLength="142.0579" x="40.23" y="694.1532">- &#51060;&#48120;&#51648; &#51080;&#51020;: gpt-4o Vision</text></g><!--reverse link User to UserJobDescription--><g class="link" data-entity-1="ent0002" data-entity-2="ent0003" data-link-type="composition" data-source-line="56" id="lnk5"><path codeLine="56" d="M124.35,130.8583 C124.35,148.2683 124.35,157.6983 124.35,178.4483" fill="none" id="User-backto-UserJobDescription" style="stroke:#555555;stroke-width:1;"/><polygon fill="#555555" points="124.35,118.8583,120.35,124.8583,124.35,130.8583,128.35,124.8583,124.35,118.8583" style="stroke:#555555;stroke-width:1;"/><text fill="#000000" font-family="sans-serif" font-size="11" lengthAdjust="spacing" textLength="27.6665" x="96.35" y="146.283">owns</text><text fill="#000000" font-family="sans-serif" font-size="11" lengthAdjust="spacing" textLength="6.9556" x="117.9019" y="137.2778">1</text><text fill="#000000" font-family="sans-serif" font-size="11" lengthAdjust="spacing" textLength="5.3013" x="119.1081" y="168.3982">*</text></g><!--link UserJobDescription to JobPosting--><g class="link" data-entity-1="ent0003" data-entity-2="ent0004" data-link-type="association" data-source-line="57" id="lnk6"><path codeLine="57" d="M124.35,335.7083 C124.35,354.6983 124.35,375.2383 124.35,395.0383" fill="none" id="UserJobDescription-JobPosting" style="stroke:#555555;stroke-width:1;"/><text fill="#000000" font-family="sans-serif" font-size="11" lengthAdjust="spacing" textLength="18.5088" x="105.35" y="363.003">has</text><text fill="#000000" font-family="sans-serif" font-size="11" lengthAdjust="spacing" textLength="6.9556" x="118.1178" y="354.183">1</text><text fill="#000000" font-family="sans-serif" font-size="11" lengthAdjust="spacing" textLength="6.9556" x="118.1495" y="385.3421">1</text></g><g class="footer" data-source-line="73"><text fill="#888888" font-family="sans-serif" font-size="10" lengthAdjust="spacing" textLength="212.4756" x="135.0837" y="717.1415">MeFit - backend/webapp/job_descriptions/</text></g><?plantuml-src VLJRRjD047ttLupAIqiL9O6qW8L0RHAZGhW8A3n66tkIBdMyPhrMAGW9K16N5XL4GI2Qg9Mu50c9YmBqXP_XaTty0xj9I88RI1xiEJDpzipPzGegV0JvSRVzR1rIS99L2XYvd8Q2iW3a-efylw4Qkz2-tPBD5-hXQv2hhrMZfPwtVdtVbSqToueMQH0IJkfG8UvYZRCuyFBCPnpsEKNp7whmi4fYNpWi41VeTOHiTYZfqm35SeZ0k5XWGmdN9r44Doo0sUGAnSDEpYcO3ECUyXvw87jasZceqHdEsL8FdEhy32W4fvLOu4169WdtUd9JKpFJEUjcKipHewHMurWZ0eyT6wtCSPmZ-LnIcJERpnmeZ2B4Qm9vGFn_yHNpHSV99lccCuSAXsSrdzKrQJv23dl89gbdmoojpSI2EHHzps1O9zIt8HByx_R46TWxwcGS6xxv-Ra2Z9yxDT61T6FPeCuf4qOivYwMOzvTu7W74qJ4aGtviwLICNznxim9IFy9YWNzxipCbOfcBoTTvlle2lJAHDZWwQK5hME7nKCVzoHWF69L0TsSqPDAcTewuOlb7XSDQkCJIH2z8QogxUW0VJUq4-TOP5h_F_SLLYbx0yjwFi1urivETCUfXoHOxdgjOs4-kdxanOAYzaNeJJCnnwinvLZ7G0oX8SSgSexU05fYMhNvOFfK4V49NnvOxZEN64Nz0lJY8QHJWzT2v1G35uUsAhbzsfBEoHhBZi7-L0h6ze-DEYisiAKWiaPaJAFfquyXLsrO895b1KmWS5fR4C2g8tYr9FdqiznkmAylF-Jsfcrs6ERFbq0rxygjDrgaoqbe62zhJxHErNmirr-2-hQXlctgQZqJg3iVP7FDN6PfdTzMFpRasm_gsKetR6-iwGjEhhxgLSlMFL2VTkJg3gZLJQWItpVNMsTbzUwssdhINrozVM1A-aVPmi03CrDliWeJWjNDQ8FHDK-fTBed4DJMYcn-xOxLllj8NxFjXxlmyy4RE9Z9w5big8KYbMEfEWreLqAZfIzjzUwMLd5VDTR-LC0b6Xd71XAgJ3yud4Q72jreXj39z19MI1Yc4qStIly6?></g></svg>