<?plantuml 1.2026.1?><svg xmlns="http://www.w3.org/2000/svg" xmlns:xlink="http://www.w3.org/1999/xlink" contentStyleType="text/css" data-diagram-type="CLASS" height="694px" preserveAspectRatio="none" style="width:1003px;height:694px;background:#FEFEFE;" version="1.1" viewBox="0 0 1003 694" width="1003px" zoomAndPan="magnify"><title>&#48120;&#54607; - Ticket / Subscription &#46020;&#47700;&#51064; &#53364;&#47000;&#49828; &#45796;&#51060;&#50612;&#44536;&#47016;</title><defs/><g><rect fill="#FEFEFE" height="694" style="stroke:none;stroke-width:1;" width="1003" x="0" y="0"/><g class="title" data-source-line="1"><text fill="#000000" font-family="sans-serif" font-size="14" font-weight="bold" lengthAdjust="spacing" textLength="341.3781" x="324.0562" y="23.5352">&#48120;&#54607; - Ticket / Subscription &#46020;&#47700;&#51064; &#53364;&#47000;&#49828; &#45796;&#51060;&#50612;&#44536;&#47016;</text></g><!--class User--><g class="entity" data-qualified-name="User" data-source-line="26" id="ent0002"><rect fill="#ECEFF1" height="74.2871" rx="2.5" ry="2.5" style="stroke:#607D8B;stroke-width:0.5;" width="100.3867" x="322.66" y="56.2683"/><ellipse cx="345.1825" cy="73.6345" fill="#ADD1B2" rx="9" ry="9" style="stroke:#181818;stroke-width:1;"/><path d="M346.4887,77.4035 Q346.1127,77.5969 345.6991,77.6936 Q345.2855,77.7903 344.829,77.7903 Q343.2069,77.7903 342.3529,76.7214 Q341.4989,75.6526 341.4989,73.633 Q341.4989,71.6081 342.3529,70.5393 Q343.2069,69.4704 344.829,69.4704 Q345.2855,69.4704 345.7045,69.5671 Q346.1234,69.6638 346.4887,69.8571 L346.4887,71.6189 Q346.0805,71.2429 345.6964,71.0683 Q345.3124,70.8938 344.9042,70.8938 Q344.0341,70.8938 343.591,71.584 Q343.1478,72.2741 343.1478,73.633 Q343.1478,74.9865 343.591,75.6767 Q344.0341,76.3669 344.9042,76.3669 Q345.3124,76.3669 345.6964,76.1924 Q346.0805,76.0178 346.4887,75.6418 Z " fill="#000000"/><text fill="#000000" font-family="sans-serif" font-size="11" font-style="italic" lengthAdjust="spacing" textLength="55.2256" x="357.2986" y="71.903">&#171;external&#187;</text><text fill="#455A64" font-family="sans-serif" font-size="10" lengthAdjust="spacing" textLength="21.6895" x="374.0667" y="83.8913">User</text><line style="stroke:#607D8B;stroke-width:0.5;" x1="323.66" x2="422.0467" y1="91.0007" y2="91.0007"/><g data-visibility-modifier="PUBLIC_FIELD"><ellipse cx="333.66" cy="102.3894" fill="none" rx="3" ry="3" style="stroke:#038048;stroke-width:1;"/></g><text fill="#455A64" font-family="sans-serif" font-size="10" lengthAdjust="spacing" textLength="76.3867" x="340.66" y="104.6687">id: BigAutoField</text><g data-visibility-modifier="PUBLIC_FIELD"><ellipse cx="333.66" cy="114.1667" fill="none" rx="3" ry="3" style="stroke:#038048;stroke-width:1;"/></g><text fill="#455A64" font-family="sans-serif" font-size="10" lengthAdjust="spacing" textLength="45.4688" x="340.66" y="116.446">email: str</text><line style="stroke:#607D8B;stroke-width:0.5;" x1="323.66" x2="422.0467" y1="122.5554" y2="122.5554"/></g><!--class SubscriptionPlan--><g class="entity" data-qualified-name="SubscriptionPlan" data-source-line="31" id="ent0003"><rect fill="#C8E6C9" height="97.8418" rx="2.5" ry="2.5" style="stroke:#388E3C;stroke-width:0.5;" width="127.4912" x="620.11" y="44.4883"/><ellipse cx="641.6525" cy="61.8545" fill="#ADD1B2" rx="9" ry="9" style="stroke:#181818;stroke-width:1;"/><path d="M642.9587,65.6235 Q642.5827,65.8169 642.1691,65.9136 Q641.7556,66.0103 641.299,66.0103 Q639.6769,66.0103 638.8229,64.9414 Q637.9689,63.8726 637.9689,61.853 Q637.9689,59.8281 638.8229,58.7593 Q639.6769,57.6904 641.299,57.6904 Q641.7556,57.6904 642.1745,57.7871 Q642.5934,57.8838 642.9587,58.0771 L642.9587,59.8389 Q642.5505,59.4629 642.1664,59.2883 Q641.7824,59.1138 641.3742,59.1138 Q640.5041,59.1138 640.061,59.804 Q639.6179,60.4941 639.6179,61.853 Q639.6179,63.2065 640.061,63.8967 Q640.5041,64.5869 641.3742,64.5869 Q641.7824,64.5869 642.1664,64.4124 Q642.5505,64.2378 642.9587,63.8618 Z " fill="#000000"/><text fill="#000000" font-family="sans-serif" font-size="11" font-style="italic" lengthAdjust="spacing" textLength="42.9473" x="674.3311" y="60.123">&#171;policy&#187;</text><text fill="#455A64" font-family="sans-serif" font-size="10" lengthAdjust="spacing" textLength="80.5078" x="655.5509" y="72.1113">SubscriptionPlan</text><line style="stroke:#388E3C;stroke-width:0.5;" x1="621.11" x2="746.6012" y1="79.2207" y2="79.2207"/><g data-visibility-modifier="PUBLIC_FIELD"><ellipse cx="631.11" cy="90.6094" fill="none" rx="3" ry="3" style="stroke:#038048;stroke-width:1;"/></g><text fill="#455A64" font-family="sans-serif" font-size="10" lengthAdjust="spacing" textLength="43.1348" x="638.11" y="92.8887">price: int</text><g data-visibility-modifier="PUBLIC_FIELD"><ellipse cx="631.11" cy="102.3867" fill="none" rx="3" ry="3" style="stroke:#038048;stroke-width:1;"/></g><text fill="#455A64" font-family="sans-serif" font-size="10" lengthAdjust="spacing" textLength="69.458" x="638.11" y="104.666">features: JSON</text><line style="stroke:#388E3C;stroke-width:0.5;" x1="621.11" x2="746.6012" y1="110.7754" y2="110.7754"/><g data-visibility-modifier="PUBLIC_METHOD"><ellipse cx="631.11" cy="122.1641" fill="#84BE84" rx="3" ry="3" style="stroke:#038048;stroke-width:1;"/></g><text fill="#455A64" font-family="sans-serif" font-size="10" lengthAdjust="spacing" textLength="98.1104" x="638.11" y="124.4434">id: BigAutoField (PK)</text><g data-visibility-modifier="PUBLIC_METHOD"><ellipse cx="631.11" cy="133.9414" fill="#84BE84" rx="3" ry="3" style="stroke:#038048;stroke-width:1;"/></g><text fill="#455A64" font-family="sans-serif" font-size="10" lengthAdjust="spacing" textLength="103.4912" x="638.11" y="136.2207">name: str (Free / Pro)</text></g><!--class UserSubscription--><g class="entity" data-qualified-name="UserSubscription" data-source-line="38" id="ent0004"><rect fill="#FFF9C4" height="121.3965" rx="2.5" ry="2.5" style="stroke:#FBC02D;stroke-width:0.5;" width="214.2979" x="425.71" y="208.2183"/><ellipse cx="488.0835" cy="225.5845" fill="#ADD1B2" rx="9" ry="9" style="stroke:#181818;stroke-width:1;"/><path d="M489.3897,229.3535 Q489.0137,229.5469 488.6001,229.6436 Q488.1866,229.7403 487.73,229.7403 Q486.1079,229.7403 485.2539,228.6714 Q484.3999,227.6026 484.3999,225.583 Q484.3999,223.5581 485.2539,222.4893 Q486.1079,221.4204 487.73,221.4204 Q488.1866,221.4204 488.6055,221.5171 Q489.0245,221.6138 489.3897,221.8071 L489.3897,223.5689 Q488.9815,223.1929 488.5975,223.0183 Q488.2134,222.8438 487.8052,222.8438 Q486.9351,222.8438 486.492,223.534 Q486.0489,224.2241 486.0489,225.583 Q486.0489,226.9365 486.492,227.6267 Q486.9351,228.3169 487.8052,228.3169 Q488.2134,228.3169 488.5975,228.1424 Q488.9815,227.9678 489.3897,227.5918 Z " fill="#000000"/><text fill="#000000" font-family="sans-serif" font-size="11" font-style="italic" lengthAdjust="spacing" textLength="65.1245" x="514.0467" y="223.853">&#171;aggregate&#187;</text><text fill="#455A64" font-family="sans-serif" font-size="10" lengthAdjust="spacing" textLength="82.0508" x="505.5835" y="235.8413">UserSubscription</text><line style="stroke:#FBC02D;stroke-width:0.5;" x1="426.71" x2="639.0079" y1="242.9507" y2="242.9507"/><g data-visibility-modifier="PUBLIC_FIELD"><ellipse cx="436.71" cy="254.3394" fill="none" rx="3" ry="3" style="stroke:#038048;stroke-width:1;"/></g><text fill="#455A64" font-family="sans-serif" font-size="10" lengthAdjust="spacing" textLength="53.3691" x="443.71" y="256.6187">user_id: FK</text><g data-visibility-modifier="PUBLIC_FIELD"><ellipse cx="436.71" cy="266.1167" fill="none" rx="3" ry="3" style="stroke:#038048;stroke-width:1;"/></g><text fill="#455A64" font-family="sans-serif" font-size="10" lengthAdjust="spacing" textLength="53.3154" x="443.71" y="268.396">plan_id: FK</text><g data-visibility-modifier="PUBLIC_FIELD"><ellipse cx="436.71" cy="277.8941" fill="none" rx="3" ry="3" style="stroke:#038048;stroke-width:1;"/></g><text fill="#455A64" font-family="sans-serif" font-size="10" lengthAdjust="spacing" textLength="97.3145" x="443.71" y="280.1734">started_at: datetime</text><g data-visibility-modifier="PUBLIC_FIELD"><ellipse cx="436.71" cy="289.6714" fill="none" rx="3" ry="3" style="stroke:#038048;stroke-width:1;"/></g><text fill="#455A64" font-family="sans-serif" font-size="10" lengthAdjust="spacing" textLength="97.4121" x="443.71" y="291.9507">ended_at: datetime?</text><g data-visibility-modifier="PUBLIC_FIELD"><ellipse cx="436.71" cy="301.4488" fill="none" rx="3" ry="3" style="stroke:#038048;stroke-width:1;"/></g><text fill="#455A64" font-family="sans-serif" font-size="10" lengthAdjust="spacing" textLength="190.2979" x="443.71" y="303.728">status: ACTIVE / EXPIRED / CANCELLED</text><line style="stroke:#FBC02D;stroke-width:0.5;" x1="426.71" x2="639.0079" y1="309.8374" y2="309.8374"/><g data-visibility-modifier="PUBLIC_METHOD"><ellipse cx="436.71" cy="321.2261" fill="#84BE84" rx="3" ry="3" style="stroke:#038048;stroke-width:1;"/></g><text fill="#455A64" font-family="sans-serif" font-size="10" lengthAdjust="spacing" textLength="98.1104" x="443.71" y="323.5054">id: BigAutoField (PK)</text></g><!--class SubscriptionPlanTicketPolicy--><g class="entity" data-qualified-name="SubscriptionPlanTicketPolicy" data-source-line="47" id="ent0005"><rect fill="#C8E6C9" height="109.6191" rx="2.5" ry="2.5" style="stroke:#388E3C;stroke-width:0.5;" width="321.2705" x="675.22" y="214.1083"/><ellipse cx="763.2063" cy="231.4745" fill="#ADD1B2" rx="9" ry="9" style="stroke:#181818;stroke-width:1;"/><path d="M764.5125,235.2435 Q764.1365,235.4369 763.7229,235.5336 Q763.3094,235.6303 762.8528,235.6303 Q761.2307,235.6303 760.3767,234.5614 Q759.5227,233.4926 759.5227,231.473 Q759.5227,229.4481 760.3767,228.3793 Q761.2307,227.3104 762.8528,227.3104 Q763.3094,227.3104 763.7283,227.4071 Q764.1472,227.5038 764.5125,227.6971 L764.5125,229.4589 Q764.1043,229.0829 763.7202,228.9083 Q763.3362,228.7338 762.928,228.7338 Q762.0579,228.7338 761.6148,229.424 Q761.1717,230.1141 761.1717,231.473 Q761.1717,232.8265 761.6148,233.5167 Q762.0579,234.2069 762.928,234.2069 Q763.3362,234.2069 763.7202,234.0324 Q764.1043,233.8578 764.5125,233.4818 Z " fill="#000000"/><text fill="#000000" font-family="sans-serif" font-size="11" font-style="italic" lengthAdjust="spacing" textLength="42.9473" x="828.1316" y="229.743">&#171;policy&#187;</text><text fill="#455A64" font-family="sans-serif" font-size="10" lengthAdjust="spacing" textLength="137.7979" x="780.7063" y="241.7313">SubscriptionPlanTicketPolicy</text><line style="stroke:#388E3C;stroke-width:0.5;" x1="676.22" x2="995.4905" y1="248.8407" y2="248.8407"/><g data-visibility-modifier="PUBLIC_METHOD"><ellipse cx="686.22" cy="260.2294" fill="#84BE84" rx="3" ry="3" style="stroke:#038048;stroke-width:1;"/></g><text fill="#455A64" font-family="sans-serif" font-size="10" lengthAdjust="spacing" textLength="98.1104" x="693.22" y="262.5087">id: BigAutoField (PK)</text><g data-visibility-modifier="PUBLIC_FIELD"><ellipse cx="686.22" cy="272.0067" fill="none" rx="3" ry="3" style="stroke:#038048;stroke-width:1;"/></g><text fill="#455A64" font-family="sans-serif" font-size="10" lengthAdjust="spacing" textLength="53.3154" x="693.22" y="274.286">plan_id: FK</text><g data-visibility-modifier="PUBLIC_FIELD"><ellipse cx="686.22" cy="283.7841" fill="none" rx="3" ry="3" style="stroke:#038048;stroke-width:1;"/></g><text fill="#455A64" font-family="sans-serif" font-size="10" lengthAdjust="spacing" textLength="297.2705" x="693.22" y="286.0634">action_type: FOLLOWUP / FULL_PROCESS / ANALYSIS_REPORT</text><g data-visibility-modifier="PUBLIC_FIELD"><ellipse cx="686.22" cy="295.5614" fill="none" rx="3" ry="3" style="stroke:#038048;stroke-width:1;"/></g><text fill="#455A64" font-family="sans-serif" font-size="10" lengthAdjust="spacing" textLength="71.1768" x="693.22" y="297.8407">ticket_cost: int</text><line style="stroke:#388E3C;stroke-width:1;" x1="676.22" x2="995.4905" y1="303.9501" y2="303.9501"/><text fill="#455A64" font-family="sans-serif" font-size="10" lengthAdjust="spacing" textLength="164.4531" x="681.22" y="317.618">FOLLOWUP=5, FULL_PROCESS=10</text></g><!--class UserTicket--><g class="entity" data-qualified-name="UserTicket" data-source-line="56" id="ent0006"><rect fill="#FFF9C4" height="133.1738" rx="2.5" ry="2.5" style="stroke:#FBC02D;stroke-width:0.5;" width="139.7129" x="7" y="202.3283"/><ellipse cx="42.7648" cy="219.6945" fill="#ADD1B2" rx="9" ry="9" style="stroke:#181818;stroke-width:1;"/><path d="M44.0709,223.4635 Q43.6949,223.6569 43.2814,223.7536 Q42.8678,223.8503 42.4113,223.8503 Q40.7892,223.8503 39.9352,222.7814 Q39.0812,221.7126 39.0812,219.693 Q39.0812,217.6681 39.9352,216.5993 Q40.7892,215.5304 42.4113,215.5304 Q42.8678,215.5304 43.2867,215.6271 Q43.7057,215.7238 44.0709,215.9171 L44.0709,217.6789 Q43.6627,217.3029 43.2787,217.1283 Q42.8947,216.9538 42.4865,216.9538 Q41.6163,216.9538 41.1732,217.644 Q40.7301,218.3341 40.7301,219.693 Q40.7301,221.0465 41.1732,221.7367 Q41.6163,222.4269 42.4865,222.4269 Q42.8947,222.4269 43.2787,222.2524 Q43.6627,222.0778 44.0709,221.7018 Z " fill="#000000"/><text fill="#000000" font-family="sans-serif" font-size="11" font-style="italic" lengthAdjust="spacing" textLength="65.1245" x="57.8236" y="217.963">&#171;aggregate&#187;</text><text fill="#455A64" font-family="sans-serif" font-size="10" lengthAdjust="spacing" textLength="51.1816" x="64.795" y="229.9513">UserTicket</text><line style="stroke:#FBC02D;stroke-width:0.5;" x1="8" x2="145.7129" y1="237.0607" y2="237.0607"/><g data-visibility-modifier="PUBLIC_METHOD"><ellipse cx="18" cy="248.4494" fill="#84BE84" rx="3" ry="3" style="stroke:#038048;stroke-width:1;"/></g><text fill="#455A64" font-family="sans-serif" font-size="10" lengthAdjust="spacing" textLength="98.1104" x="25" y="250.7287">id: BigAutoField (PK)</text><g data-visibility-modifier="PUBLIC_METHOD"><ellipse cx="18" cy="260.2267" fill="#84BE84" rx="3" ry="3" style="stroke:#038048;stroke-width:1;"/></g><text fill="#455A64" font-family="sans-serif" font-size="10" lengthAdjust="spacing" textLength="78.8477" x="25" y="262.506">user_id: FK (1:1)</text><g data-visibility-modifier="PUBLIC_FIELD"><ellipse cx="18" cy="272.0041" fill="none" rx="3" ry="3" style="stroke:#038048;stroke-width:1;"/></g><text fill="#455A64" font-family="sans-serif" font-size="10" lengthAdjust="spacing" textLength="56.2939" x="25" y="274.2834">balance: int</text><line style="stroke:#FBC02D;stroke-width:1;" x1="8" x2="145.7129" y1="280.3927" y2="280.3927"/><g data-visibility-modifier="PUBLIC_METHOD"><ellipse cx="18" cy="291.7814" fill="#84BE84" rx="3" ry="3" style="stroke:#038048;stroke-width:1;"/></g><text fill="#455A64" font-family="sans-serif" font-size="10" lengthAdjust="spacing" textLength="108.0127" x="25" y="294.0607">grant(amount, source)</text><g data-visibility-modifier="PUBLIC_METHOD"><ellipse cx="18" cy="303.5588" fill="#84BE84" rx="3" ry="3" style="stroke:#038048;stroke-width:1;"/></g><text fill="#455A64" font-family="sans-serif" font-size="10" lengthAdjust="spacing" textLength="100.542" x="25" y="305.838">use(amount, related)</text><g data-visibility-modifier="PUBLIC_METHOD"><ellipse cx="18" cy="315.3361" fill="#84BE84" rx="3" ry="3" style="stroke:#038048;stroke-width:1;"/></g><text fill="#455A64" font-family="sans-serif" font-size="10" lengthAdjust="spacing" textLength="115.7129" x="25" y="317.6154">refund(amount, related)</text><g data-visibility-modifier="PUBLIC_METHOD"><ellipse cx="18" cy="327.1134" fill="#84BE84" rx="3" ry="3" style="stroke:#038048;stroke-width:1;"/></g><text fill="#455A64" font-family="sans-serif" font-size="10" lengthAdjust="spacing" textLength="74.209" x="25" y="329.3927">expire(amount)</text></g><!--class TicketLog--><g class="entity" data-qualified-name="TicketLog" data-source-line="67" id="ent0007"><rect fill="#E8F4FD" height="138.2188" rx="2.5" ry="2.5" style="stroke:#2196F3;stroke-width:0.5;" width="308.126" x="70.79" y="395.5083"/><ellipse cx="197.5019" cy="409.5083" fill="#ADD1B2" rx="9" ry="9" style="stroke:#181818;stroke-width:1;"/><path d="M198.8081,413.2773 Q198.4321,413.4707 198.0185,413.5674 Q197.6049,413.664 197.1484,413.664 Q195.5263,413.664 194.6723,412.5952 Q193.8183,411.5263 193.8183,409.5068 Q193.8183,407.4819 194.6723,406.4131 Q195.5263,405.3442 197.1484,405.3442 Q197.6049,405.3442 198.0239,405.4409 Q198.4428,405.5376 198.8081,405.7309 L198.8081,407.4927 Q198.3999,407.1167 198.0158,406.9421 Q197.6318,406.7676 197.2236,406.7676 Q196.3535,406.7676 195.9104,407.4577 Q195.4672,408.1479 195.4672,409.5068 Q195.4672,410.8603 195.9104,411.5505 Q196.3535,412.2407 197.2236,412.2407 Q197.6318,412.2407 198.0158,412.0661 Q198.3999,411.8916 198.8081,411.5156 Z " fill="#000000"/><text fill="#455A64" font-family="sans-serif" font-size="10" lengthAdjust="spacing" textLength="47.2021" x="215.0019" y="413.2876">TicketLog</text><line style="stroke:#2196F3;stroke-width:0.5;" x1="71.79" x2="377.916" y1="423.5083" y2="423.5083"/><g data-visibility-modifier="PUBLIC_FIELD"><ellipse cx="81.79" cy="434.897" fill="none" rx="3" ry="3" style="stroke:#038048;stroke-width:1;"/></g><text fill="#455A64" font-family="sans-serif" font-size="10" lengthAdjust="spacing" textLength="53.3691" x="88.79" y="437.1763">user_id: FK</text><g data-visibility-modifier="PUBLIC_FIELD"><ellipse cx="81.79" cy="446.6743" fill="none" rx="3" ry="3" style="stroke:#038048;stroke-width:1;"/></g><text fill="#455A64" font-family="sans-serif" font-size="10" lengthAdjust="spacing" textLength="193.3057" x="88.79" y="448.9536">action: GRANT / USE / REFUND / EXPIRE</text><g data-visibility-modifier="PUBLIC_FIELD"><ellipse cx="81.79" cy="458.4516" fill="none" rx="3" ry="3" style="stroke:#038048;stroke-width:1;"/></g><text fill="#455A64" font-family="sans-serif" font-size="10" lengthAdjust="spacing" textLength="284.126" x="88.79" y="460.7309">source: SUBSCRIPTION / STREAK / ACHIEVEMENT / SIGNUP</text><g data-visibility-modifier="PUBLIC_FIELD"><ellipse cx="81.79" cy="470.229" fill="none" rx="3" ry="3" style="stroke:#038048;stroke-width:1;"/></g><text fill="#455A64" font-family="sans-serif" font-size="10" lengthAdjust="spacing" textLength="56.3184" x="88.79" y="472.5083">amount: int</text><g data-visibility-modifier="PUBLIC_FIELD"><ellipse cx="81.79" cy="482.0063" fill="none" rx="3" ry="3" style="stroke:#038048;stroke-width:1;"/></g><text fill="#455A64" font-family="sans-serif" font-size="10" lengthAdjust="spacing" textLength="106.1621" x="88.79" y="484.2856">related_object_id: int?</text><g data-visibility-modifier="PUBLIC_FIELD"><ellipse cx="81.79" cy="493.7837" fill="none" rx="3" ry="3" style="stroke:#038048;stroke-width:1;"/></g><text fill="#455A64" font-family="sans-serif" font-size="10" lengthAdjust="spacing" textLength="166.9092" x="88.79" y="496.063">related_object_type: ContentType?</text><g data-visibility-modifier="PUBLIC_FIELD"><ellipse cx="81.79" cy="505.561" fill="none" rx="3" ry="3" style="stroke:#038048;stroke-width:1;"/></g><text fill="#455A64" font-family="sans-serif" font-size="10" lengthAdjust="spacing" textLength="99.1699" x="88.79" y="507.8403">created_at: datetime</text><line style="stroke:#2196F3;stroke-width:0.5;" x1="71.79" x2="377.916" y1="513.9497" y2="513.9497"/><g data-visibility-modifier="PUBLIC_METHOD"><ellipse cx="81.79" cy="525.3384" fill="#84BE84" rx="3" ry="3" style="stroke:#038048;stroke-width:1;"/></g><text fill="#455A64" font-family="sans-serif" font-size="10" lengthAdjust="spacing" textLength="98.1104" x="88.79" y="527.6177">id: BigAutoField (PK)</text></g><g class="entity" data-qualified-name="GMN14" data-source-line="86" id="ent0015"><path d="M181.7,244.4883 L181.7,264.4983 L147.13,268.4983 L181.7,272.4983 L181.7,293.3535 A0,0 0 0 0 181.7,293.3535 L320.0103,293.3535 A0,0 0 0 0 320.0103,293.3535 L320.0103,254.4883 L310.0103,244.4883 L181.7,244.4883 A0,0 0 0 0 181.7,244.4883" fill="#FEFFDD" style="stroke:#181818;stroke-width:0.5;"/><path d="M310.0103,244.4883 L310.0103,254.4883 L320.0103,254.4883 L310.0103,244.4883" fill="#FEFFDD" style="stroke:#181818;stroke-width:0.5;"/><text fill="#000000" font-family="sans-serif" font-size="11" lengthAdjust="spacing" textLength="54.5359" x="187.7" y="260.123">&#46041;&#49884;&#49457; &#51228;&#50612;:</text><text fill="#000000" font-family="sans-serif" font-size="11" lengthAdjust="spacing" textLength="101.2397" x="187.7" y="273.0781">select_for_update()</text><text fill="#000000" font-family="sans-serif" font-size="11" lengthAdjust="spacing" textLength="117.3103" x="187.7" y="286.0332">for race condition &#48169;&#51648;</text></g><g class="entity" data-qualified-name="GMN17" data-source-line="92" id="ent0018"><path d="M142.35,593.7183 L142.35,668.4937 A0,0 0 0 0 142.35,668.4937 L307.3548,668.4937 A0,0 0 0 0 307.3548,668.4937 L307.3548,603.7183 L297.3548,593.7183 L228.86,593.7183 L224.86,533.7783 L220.86,593.7183 L142.35,593.7183 A0,0 0 0 0 142.35,593.7183" fill="#FEFFDD" style="stroke:#181818;stroke-width:0.5;"/><path d="M297.3548,593.7183 L297.3548,603.7183 L307.3548,603.7183 L297.3548,593.7183" fill="#FEFFDD" style="stroke:#181818;stroke-width:0.5;"/><text fill="#000000" font-family="sans-serif" font-size="11" lengthAdjust="spacing" textLength="61.7624" x="148.35" y="609.353">Source &#48516;&#44592;:</text><text fill="#000000" font-family="sans-serif" font-size="11" lengthAdjust="spacing" textLength="144.0048" x="148.35" y="622.3081">- SUBSCRIPTION: &#44032;&#51077; / &#44208;&#51228;</text><text fill="#000000" font-family="sans-serif" font-size="11" lengthAdjust="spacing" textLength="121.425" x="148.35" y="635.2632">- STREAK: &#50672;&#49549; &#54617;&#49845; &#48372;&#49345;</text><text fill="#000000" font-family="sans-serif" font-size="11" lengthAdjust="spacing" textLength="134.4335" x="148.35" y="648.2183">- ACHIEVEMENT: &#50629;&#51201; &#52397;&#44396;</text><text fill="#000000" font-family="sans-serif" font-size="11" lengthAdjust="spacing" textLength="97.2172" x="148.35" y="661.1734">- SIGNUP: &#52488;&#44592; &#48156;&#44553;</text></g><!--link User to UserSubscription--><g class="link" data-entity-1="ent0002" data-entity-2="ent0004" data-link-type="association" data-source-line="78" id="lnk8"><path codeLine="78" d="M400.98,131.0483 C400.98,172.2383 400.98,232.4983 400.98,232.4983 C400.98,232.4983 410.99,232.4983 425.48,232.4983" fill="none" id="User-UserSubscription" style="stroke:#555555;stroke-width:1;"/><text fill="#000000" font-family="sans-serif" font-size="11" lengthAdjust="spacing" textLength="18.5088" x="381.98" y="191.653">has</text><text fill="#000000" font-family="sans-serif" font-size="11" lengthAdjust="spacing" textLength="6.9556" x="399.3808" y="149.2651">1</text><text fill="#000000" font-family="sans-serif" font-size="11" lengthAdjust="spacing" textLength="5.3013" x="412.4218" y="228.053">*</text></g><!--link SubscriptionPlan to UserSubscription--><g class="link" data-entity-1="ent0003" data-entity-2="ent0004" data-link-type="association" data-source-line="79" id="lnk9"><path codeLine="79" d="M630.06,142.7683 C630.06,162.9383 630.06,186.4883 630.06,207.7483" fill="none" id="SubscriptionPlan-UserSubscription" style="stroke:#555555;stroke-width:1;"/><text fill="#000000" font-family="sans-serif" font-size="11" lengthAdjust="spacing" textLength="59.9951" x="570.06" y="172.893">selected by</text><text fill="#000000" font-family="sans-serif" font-size="11" lengthAdjust="spacing" textLength="6.9556" x="616.4923" y="160.9061">1</text><text fill="#000000" font-family="sans-serif" font-size="11" lengthAdjust="spacing" textLength="5.3013" x="637.2129" y="197.8383">*</text></g><!--link SubscriptionPlan to SubscriptionPlanTicketPolicy--><g class="link" data-entity-1="ent0003" data-entity-2="ent0005" data-link-type="association" data-source-line="80" id="lnk10"><path codeLine="80" d="M711.41,142.7683 C711.41,164.8683 711.41,191.0183 711.41,213.7683" fill="none" id="SubscriptionPlan-SubscriptionPlanTicketPolicy" style="stroke:#555555;stroke-width:1;"/><text fill="#000000" font-family="sans-serif" font-size="11" lengthAdjust="spacing" textLength="38.8384" x="672.41" y="175.903">defines</text><text fill="#000000" font-family="sans-serif" font-size="11" lengthAdjust="spacing" textLength="6.9556" x="708.7737" y="160.9061">1</text><text fill="#000000" font-family="sans-serif" font-size="11" lengthAdjust="spacing" textLength="5.3013" x="688.5795" y="203.871">*</text></g><!--link User to UserTicket--><g class="link" data-entity-1="ent0002" data-entity-2="ent0006" data-link-type="association" data-source-line="81" id="lnk11"><path codeLine="81" d="M341.42,130.8483 C341.42,168.3383 341.42,220.4983 341.42,220.4983 C341.42,220.4983 225.44,220.4983 147.06,220.4983" fill="none" id="User-UserTicket" style="stroke:#555555;stroke-width:1;"/><text fill="#000000" font-family="sans-serif" font-size="11" lengthAdjust="spacing" textLength="27.6665" x="261.06" y="218.133">owns</text><text fill="#000000" font-family="sans-serif" font-size="11" lengthAdjust="spacing" textLength="6.9556" x="329.3717" y="149.3052">1</text><text fill="#000000" font-family="sans-serif" font-size="11" lengthAdjust="spacing" textLength="6.9556" x="154.6584" y="213.5705">1</text></g><!--link User to TicketLog--><g class="link" data-entity-1="ent0002" data-entity-2="ent0007" data-link-type="association" data-source-line="82" id="lnk12"><path codeLine="82" d="M360.17,131.0483 C360.17,192.8883 360.17,316.9083 360.17,395.0683" fill="none" id="User-TicketLog" style="stroke:#555555;stroke-width:1;"/><text fill="#000000" font-family="sans-serif" font-size="11" lengthAdjust="spacing" textLength="58.7222" x="361.17" y="260.693">has history</text><text fill="#000000" font-family="sans-serif" font-size="11" lengthAdjust="spacing" textLength="6.9556" x="351.5565" y="149.2651">1</text><text fill="#000000" font-family="sans-serif" font-size="11" lengthAdjust="spacing" textLength="5.3013" x="370.5444" y="385.0229">*</text></g><!--link UserTicket to TicketLog--><g class="link" data-entity-1="ent0006" data-entity-2="ent0007" data-link-type="association" data-source-line="83" id="lnk13"><path codeLine="83" d="M108.75,335.9883 C108.75,355.1283 108.75,376.0283 108.75,395.2983" fill="none" id="UserTicket-TicketLog" style="stroke:#555555;stroke-width:1;"/><text fill="#000000" font-family="sans-serif" font-size="11" lengthAdjust="spacing" textLength="50.7891" x="57.75" y="363.283">tracks via</text><text fill="#000000" font-family="sans-serif" font-size="11" lengthAdjust="spacing" textLength="5.3013" x="90.0539" y="385.2795">*</text></g><g class="footer" data-source-line="99"><text fill="#888888" font-family="sans-serif" font-size="10" lengthAdjust="spacing" textLength="242.5684" x="373.4611" y="684.1616">MeFit - backend/webapp/{tickets, subscriptions}/</text></g><?plantuml-src dLPjRnf74Fv-ls94lv0cbatyKdpAY-2uIua980xIzXDQxXQyzN6BzfOwJXGfLfsgJLJvIzCsacFbGwGsKglIbBJ-JN3-3vrRi3bURAK52TYPdMUUcNrc3ycaHs7unydfYqDOWYfpTgY4PR2xZS0Hh2CPzs5uU31y-qFuwWHEz_l3uv_3PszW-FnD-AeV_jWV_7CoFFvLqu8TvdU886re46Ud9NZNTmtkSG4VMMRqZkrmQPDqFMbnNzhi8OLKAkRqc4_bNeS25tARnnoEHu807ca0sTaCPjfQitAHXmkNYh7rUcfpmrf5QqO8lZishgjNP9HIi4PNqWcDbLdpE6PjVJspiQOzdYLpumPfjGHj4KbltLhCpBAiJMDjbfcLDLQkvnO1ThZ7dBsBq8oqkM5ipgAjfjFcgh48ZJwGLFZ4kmZFD4pBIitYRQnyaajd4KyRjRmMK05pO5UPgqEMjJ9ToIr6FJUoqJPXdWw159Fmk9RA7l5Xfiev84YMjwv43f-qgGA3f2KeHLsM1LUUZc0EkfWlerMJ4jaLDD3XhbqgJXEVKlByWLsSl8l1zSXhRQcCo3os32GHahfr8dLm4KwoDbKDyDqPw-tnTjb5VXcZchzlOY7cv-LynSpXBoDJDCn2mSnTtB7HM9PLqpwyUpECYHF1rQFHGbEfK2XzLYjZVgjMADJBbP9XsZOkCyLCuGixRzShPhbKgKQHKgMlEpoGPorVMiAFCv2RwzUcK6xY84sTmVXQ-P_TXsHAJobZWs19atDN9Aws1F5bahHHrl8Q1Bmh77e6SMuMrCEihh8BsiG9MEYY3pfCd4LTcHGnAg30M_zDCwEMwt2daYbMiRSrEphwYcdLYhbp3IXvADOwsBMiRLJovMg-L8nkuMh5p6n5Xs9ycZVlc_TC1MFdxnHhPPL04JsVWt4fTTxuaZfI4K7FxGMkaGeClEAeBwkuK9iSGScSgB49wW98f1BOSKXyd9YVAnssIQ3D3Vhb8G7ra0freR5tQUYbqw173nDyOWJJ95E9kF1quBj-C5V6v5GLVzXcWUHYJuj5BjWf1TwY0Np5YARvN58GhBKjWJTZ6R6PmyENuVEZyE1F25yVuNDIHzkeudgJYtgt4pKu6Qa6bu2O51pkkspqnEsz3Nzvek5b0b6ASQ86bvAteqpdV33SLjg1uTy7WvDUb6LfIaOw37fFmkEdg9l1knvo6UrGoj8X_AaNVlCzdBvu6Jvx3yE_-k7N-sf3J77HhgVXwtq8t_q-UF_RA5v943tzRp4hyZqQd7mNuzla-2NW7hKODb7z9K3dyYvja4vd-T7eHWbmN6Dd6pnU_XS0?></g></svg>