<?plantuml 1.2026.1?><svg xmlns="http://www.w3.org/2000/svg" xmlns:xlink="http://www.w3.org/1999/xlink" contentStyleType="text/css" data-diagram-type="ACTIVITY" height="2097px" preserveAspectRatio="none" style="width:1476px;height:2097px;background:#FEFEFE;" version="1.1" viewBox="0 0 1476 2097" width="1476px" zoomAndPan="magnify"><title>MeFit &#49324;&#50857;&#51088; &#51064;&#51613; &#55120;&#47492;
(&#47196;&#44536;&#51064; / &#54924;&#50896;&#44032;&#51077; / &#51060;&#47700;&#51068; &#51064;&#51613; / &#50728;&#48372;&#46377;)</title><defs/><g><rect fill="#FEFEFE" height="2097" style="stroke:none;stroke-width:1;" width="1476" x="0" y="0"/><g class="title" data-source-line="1"><text fill="#000000" font-family="sans-serif" font-size="14" font-weight="bold" lengthAdjust="spacing" textLength="137.7895" x="667.6829" y="33.5352">MeFit &#49324;&#50857;&#51088; &#51064;&#51613; &#55120;&#47492;</text><text fill="#000000" font-family="sans-serif" font-size="14" font-weight="bold" lengthAdjust="spacing" textLength="248.0748" x="612.5402" y="50.0234">(&#47196;&#44536;&#51064; / &#54924;&#50896;&#44032;&#51077; / &#51060;&#47700;&#51068; &#51064;&#51613; / &#50728;&#48372;&#46377;)</text></g><rect fill="none" height="12.9551" style="stroke:none;stroke-width:1;" width="1443.1552" x="15" y="64.9766"/><rect fill="#E3F2FD" height="1864.0459" style="stroke:#E3F2FD;stroke-width:1;" width="378.5762" x="15" y="64.9766"/><ellipse cx="222.171" cy="92.9316" fill="#222222" rx="10" ry="10" style="stroke:#222222;stroke-width:1;"/><rect fill="#E8F4FD" height="32.9551" rx="12.5" ry="12.5" style="stroke:#2196F3;stroke-width:0.5;" width="117.0911" x="163.6254" y="122.9316"/><text fill="#000000" font-family="sans-serif" font-size="11" lengthAdjust="spacing" textLength="97.0911" x="173.6254" y="143.5664">Landing &#54168;&#51060;&#51648; &#51217;&#49549;</text><polygon fill="#E8F4FD" points="177.4388,422.2295,266.9031,422.2295,278.9031,434.2295,266.9031,446.2295,177.4388,446.2295,165.4388,434.2295,177.4388,422.2295" style="stroke:#2196F3;stroke-width:0.5;"/><text fill="#000000" font-family="sans-serif" font-size="11" lengthAdjust="spacing" textLength="89.4644" x="177.4388" y="438.3867">&#47196;&#44536;&#51064; or &#54924;&#50896;&#44032;&#51077;?</text><text fill="#000000" font-family="sans-serif" font-size="11" lengthAdjust="spacing" textLength="38.06" x="127.3788" y="431.9092">&#54924;&#50896;&#44032;&#51077;</text><text fill="#000000" font-family="sans-serif" font-size="11" lengthAdjust="spacing" textLength="28.545" x="278.9031" y="431.9092">&#47196;&#44536;&#51064;</text><rect fill="#E8F4FD" height="45.9102" rx="12.5" ry="12.5" style="stroke:#2196F3;stroke-width:0.5;" width="183.6078" x="21" y="466.2295"/><text fill="#000000" font-family="sans-serif" font-size="11" lengthAdjust="spacing" textLength="82.4248" x="31" y="486.8643">SignUpPage.tsx</text><text fill="#000000" font-family="sans-serif" font-size="11" lengthAdjust="spacing" textLength="163.6078" x="31" y="499.8193">&#51060;&#47700;&#51068;, &#48708;&#48128;&#48264;&#54840;, &#48708;&#48128;&#48264;&#54840; &#54869;&#51064; &#51077;&#47141;</text><rect fill="#E8F4FD" height="45.9102" rx="12.5" ry="12.5" style="stroke:#2196F3;stroke-width:0.5;" width="116.0764" x="273.4998" y="466.2295"/><text fill="#000000" font-family="sans-serif" font-size="11" lengthAdjust="spacing" textLength="74.5776" x="283.4998" y="486.8643">LoginPage.tsx</text><text fill="#000000" font-family="sans-serif" font-size="11" lengthAdjust="spacing" textLength="96.0764" x="283.4998" y="499.8193">&#51060;&#47700;&#51068;, &#48708;&#48128;&#48264;&#54840; &#51077;&#47141;</text><polygon fill="#E8F4FD" points="222.171,951.7354,234.171,963.7354,222.171,975.7354,210.171,963.7354,222.171,951.7354" style="stroke:#2196F3;stroke-width:0.5;"/><rect fill="#E8F4FD" height="45.9102" rx="12.5" ry="12.5" style="stroke:#2196F3;stroke-width:0.5;" width="135.1064" x="154.6178" y="1074.6006"/><text fill="#000000" font-family="sans-serif" font-size="11" lengthAdjust="spacing" textLength="115.1064" x="164.6178" y="1095.2354">&#51060;&#47700;&#51068;&#50640;&#49436; &#51064;&#51613; &#53076;&#46300; &#54869;&#51064;</text><text fill="#000000" font-family="sans-serif" font-size="11" lengthAdjust="spacing" textLength="71.0065" x="164.6178" y="1108.1904">6&#51088;&#47532; &#53076;&#46300; &#51077;&#47141;</text><rect fill="#E8F4FD" height="45.9102" rx="12.5" ry="12.5" style="stroke:#2196F3;stroke-width:0.5;" width="103.0809" x="170.6305" y="1538.6064"/><text fill="#000000" font-family="sans-serif" font-size="11" lengthAdjust="spacing" textLength="83.0809" x="180.6305" y="1559.2412">&#51649;&#47924; &#52852;&#53580;&#44256;&#47532; &#49440;&#53469;</text><text fill="#000000" font-family="sans-serif" font-size="11" lengthAdjust="spacing" textLength="64.0509" x="180.6305" y="1572.1963">&#44221;&#47141; &#45800;&#44228; &#49440;&#53469;</text><rect fill="#E8F4FD" height="71.8203" rx="12.5" ry="12.5" style="stroke:#2196F3;stroke-width:0.5;" width="125.9216" x="159.2102" y="1815.2021"/><text fill="#000000" font-family="sans-serif" font-size="11" lengthAdjust="spacing" textLength="73.5659" x="169.2102" y="1835.8369">&#54856; &#45824;&#49884;&#48372;&#46300; &#46020;&#52265;</text><text fill="#000000" font-family="sans-serif" font-size="11" lengthAdjust="spacing" textLength="73.8961" x="169.2102" y="1848.792">- &#47732;&#51217; &#53685;&#44228; &#54869;&#51064;</text><text fill="#000000" font-family="sans-serif" font-size="11" lengthAdjust="spacing" textLength="105.9216" x="169.2102" y="1861.7471">- &#51060;&#47141;&#49436;, &#52292;&#50857;&#44277;&#44256; &#44288;&#47532;</text><text fill="#000000" font-family="sans-serif" font-size="11" lengthAdjust="spacing" textLength="73.8961" x="169.2102" y="1874.7021">- &#47732;&#51217; &#49884;&#51089; &#44032;&#45733;</text><ellipse cx="222.171" cy="1918.0225" fill="none" rx="11" ry="11" style="stroke:#222222;stroke-width:1;"/><ellipse cx="222.171" cy="1918.0225" fill="#222222" rx="6" ry="6" style="stroke:#222222;stroke-width:1;"/><line style="stroke:#000000;stroke-width:1.5;" x1="15" x2="15" y1="64.9766" y2="1929.0225"/><rect fill="#E8F5E9" height="1864.0459" style="stroke:#E8F5E9;stroke-width:1;" width="434.5652" x="393.5762" y="64.9766"/><rect fill="#E8F4FD" height="45.9102" rx="12.5" ry="12.5" style="stroke:#2196F3;stroke-width:0.5;" width="171.8711" x="528.6105" y="175.8867"/><text fill="#000000" font-family="sans-serif" font-size="11" lengthAdjust="spacing" textLength="119.671" x="538.6105" y="196.5215">LandingPage.tsx &#47116;&#45908;&#47553;</text><text fill="#000000" font-family="sans-serif" font-size="11" lengthAdjust="spacing" textLength="151.8711" x="538.6105" y="209.4766">useAuthStore &#47196; &#51064;&#51613; &#49345;&#53468; &#54869;&#51064;</text><rect fill="#E8F4FD" height="32.9551" rx="12.5" ry="12.5" style="stroke:#2196F3;stroke-width:0.5;" width="103.0809" x="563.0056" y="290.2744"/><text fill="#000000" font-family="sans-serif" font-size="11" lengthAdjust="spacing" textLength="83.0809" x="573.0056" y="310.9092">&#54856; &#45824;&#49884;&#48372;&#46300;&#47196; &#51060;&#46041;</text><ellipse cx="614.546" cy="369.2295" fill="none" rx="11" ry="11" style="stroke:#222222;stroke-width:1;"/><ellipse cx="614.546" cy="369.2295" fill="#222222" rx="6" ry="6" style="stroke:#222222;stroke-width:1;"/><polygon fill="#E8F4FD" points="535.9502,241.7969,693.1419,241.7969,705.1419,253.7969,693.1419,265.7969,535.9502,265.7969,523.9502,253.7969,535.9502,241.7969" style="stroke:#2196F3;stroke-width:0.5;"/><text fill="#000000" font-family="sans-serif" font-size="11" lengthAdjust="spacing" textLength="17.4829" x="618.546" y="276.4316">yes</text><text fill="#000000" font-family="sans-serif" font-size="11" lengthAdjust="spacing" textLength="157.1917" x="535.9502" y="257.9541">&#47196;&#44536;&#51064; + &#51064;&#51613; + &#54532;&#47196;&#54596; &#47784;&#46160; &#50756;&#47308;?</text><text fill="#000000" font-family="sans-serif" font-size="11" lengthAdjust="spacing" textLength="13.5835" x="705.1419" y="251.4766">no</text><rect fill="#E8F4FD" height="45.9102" rx="12.5" ry="12.5" style="stroke:#2196F3;stroke-width:0.5;" width="211.2056" x="399.5762" y="532.1396"/><text fill="#000000" font-family="sans-serif" font-size="11" lengthAdjust="spacing" textLength="159.9136" x="409.5762" y="552.7744">POST /api/v1/users/sign-up/</text><text fill="#000000" font-family="sans-serif" font-size="11" lengthAdjust="spacing" textLength="191.2056" x="409.5762" y="565.7295">email, password, password_confirm</text><rect fill="#E8F4FD" height="45.9102" rx="12.5" ry="12.5" style="stroke:#2196F3;stroke-width:0.5;" width="150.582" x="429.888" y="892.6006"/><text fill="#000000" font-family="sans-serif" font-size="11" lengthAdjust="spacing" textLength="87.3185" x="439.888" y="913.2354">JWT &#53664;&#53360; &#53216;&#53412; &#51200;&#51109;</text><text fill="#000000" font-family="sans-serif" font-size="11" lengthAdjust="spacing" textLength="130.582" x="439.888" y="926.1904">navigate("/verify-email")</text><rect fill="#E8F4FD" height="45.9102" rx="12.5" ry="12.5" style="stroke:#2196F3;stroke-width:0.5;" width="176.1699" x="635.8281" y="532.1396"/><text fill="#000000" font-family="sans-serif" font-size="11" lengthAdjust="spacing" textLength="156.1699" x="645.8281" y="552.7744">POST /api/v1/users/sign-in/</text><text fill="#000000" font-family="sans-serif" font-size="11" lengthAdjust="spacing" textLength="86.6626" x="645.8281" y="565.7295">email, password</text><rect fill="#E8F4FD" height="32.9551" rx="12.5" ry="12.5" style="stroke:#2196F3;stroke-width:0.5;" width="107.3185" x="670.2538" y="704.8701"/><text fill="#000000" font-family="sans-serif" font-size="11" lengthAdjust="spacing" textLength="87.3185" x="680.2538" y="725.5049">JWT &#53664;&#53360; &#53216;&#53412; &#51200;&#51109;</text><rect fill="#E8F4FD" height="32.9551" rx="12.5" ry="12.5" style="stroke:#2196F3;stroke-width:0.5;" width="103.0809" x="672.3726" y="821.3027"/><text fill="#000000" font-family="sans-serif" font-size="11" lengthAdjust="spacing" textLength="83.0809" x="682.3726" y="841.9375">&#54856; &#45824;&#49884;&#48372;&#46300;&#47196; &#51060;&#46041;</text><ellipse cx="723.9131" cy="900.2578" fill="none" rx="11" ry="11" style="stroke:#222222;stroke-width:1;"/><ellipse cx="723.9131" cy="900.2578" fill="#222222" rx="6" ry="6" style="stroke:#222222;stroke-width:1;"/><polygon fill="#E8F4FD" points="662.6848,772.8252,785.1414,772.8252,797.1414,784.8252,785.1414,796.8252,662.6848,796.8252,650.6848,784.8252,662.6848,772.8252" style="stroke:#2196F3;stroke-width:0.5;"/><text fill="#000000" font-family="sans-serif" font-size="11" lengthAdjust="spacing" textLength="17.4829" x="727.9131" y="807.46">yes</text><text fill="#000000" font-family="sans-serif" font-size="11" lengthAdjust="spacing" textLength="122.4566" x="662.6848" y="788.9824">&#51060;&#47700;&#51068; &#51064;&#51613; + &#54532;&#47196;&#54596; &#50756;&#49457;?</text><text fill="#000000" font-family="sans-serif" font-size="11" lengthAdjust="spacing" textLength="13.5835" x="797.1414" y="782.5049">no</text><rect fill="#E0FFFF" height="58.8652" rx="12.5" ry="12.5" style="stroke:#2196F3;stroke-width:0.5;" width="129.0719" x="550.0101" y="995.7354"/><text fill="#000000" font-family="sans-serif" font-size="11" lengthAdjust="spacing" textLength="104.5483" x="560.0101" y="1016.3701">VerifyEmailPage.tsx</text><text fill="#000000" font-family="sans-serif" font-size="11" lengthAdjust="spacing" textLength="109.0719" x="560.0101" y="1029.3252">&#51064;&#51613; &#53076;&#46300; &#51077;&#47141; &#54868;&#47732; &#54364;&#49884;</text><text fill="#000000" font-family="sans-serif" font-size="11" lengthAdjust="spacing" textLength="107.1161" x="560.0101" y="1042.2803">(full-screen &#47112;&#51060;&#50500;&#50883;)</text><rect fill="#E8F4FD" height="45.9102" rx="12.5" ry="12.5" style="stroke:#2196F3;stroke-width:0.5;" width="201.8169" x="513.6376" y="1140.5107"/><text fill="#000000" font-family="sans-serif" font-size="11" lengthAdjust="spacing" textLength="181.8169" x="523.6376" y="1161.1455">POST /api/v1/users/verify-email/</text><text fill="#000000" font-family="sans-serif" font-size="11" lengthAdjust="spacing" textLength="25.4429" x="523.6376" y="1174.1006">code</text><rect fill="#E8F4FD" height="32.9551" rx="12.5" ry="12.5" style="stroke:#2196F3;stroke-width:0.5;" width="103.0809" x="563.0056" y="1333.7637"/><text fill="#000000" font-family="sans-serif" font-size="11" lengthAdjust="spacing" textLength="83.0809" x="573.0056" y="1354.3984">&#54856; &#45824;&#49884;&#48372;&#46300;&#47196; &#51060;&#46041;</text><ellipse cx="614.546" cy="1406.7412" fill="none" rx="11" ry="11" style="stroke:#222222;stroke-width:1;"/><ellipse cx="614.546" cy="1406.7412" fill="#222222" rx="6" ry="6" style="stroke:#222222;stroke-width:1;"/><polygon fill="#E8F4FD" points="586.698,1285.2861,642.3941,1285.2861,654.3941,1297.2861,642.3941,1309.2861,586.698,1309.2861,574.698,1297.2861,586.698,1285.2861" style="stroke:#2196F3;stroke-width:0.5;"/><text fill="#000000" font-family="sans-serif" font-size="11" lengthAdjust="spacing" textLength="19.03" x="618.546" y="1319.9209">&#50756;&#47308;</text><text fill="#000000" font-family="sans-serif" font-size="11" lengthAdjust="spacing" textLength="55.6961" x="586.698" y="1301.4434">&#54532;&#47196;&#54596; &#50756;&#49457;?</text><text fill="#000000" font-family="sans-serif" font-size="11" lengthAdjust="spacing" textLength="28.545" x="654.3941" y="1294.9658">&#48120;&#50756;&#49457;</text><rect fill="#E0FFFF" height="58.8652" rx="12.5" ry="12.5" style="stroke:#2196F3;stroke-width:0.5;" width="128.5068" x="550.2926" y="1459.7412"/><text fill="#000000" font-family="sans-serif" font-size="11" lengthAdjust="spacing" textLength="108.5068" x="560.2926" y="1480.376">OnboardingPage.tsx</text><text fill="#000000" font-family="sans-serif" font-size="11" lengthAdjust="spacing" textLength="86.5614" x="560.2926" y="1493.3311">&#54532;&#47196;&#54596; &#50756;&#49457; &#54268; &#54364;&#49884;</text><text fill="#000000" font-family="sans-serif" font-size="11" lengthAdjust="spacing" textLength="107.1161" x="560.2926" y="1506.2861">(full-screen &#47112;&#51060;&#50500;&#50883;)</text><rect fill="#E8F4FD" height="45.9102" rx="12.5" ry="12.5" style="stroke:#2196F3;stroke-width:0.5;" width="178.1572" x="525.4674" y="1604.5166"/><text fill="#000000" font-family="sans-serif" font-size="11" lengthAdjust="spacing" textLength="138.5259" x="535.4674" y="1625.1514">PUT /api/v1/profiles/me/</text><text fill="#000000" font-family="sans-serif" font-size="11" lengthAdjust="spacing" textLength="158.1572" x="535.4674" y="1638.1064">job_category_id, career_stage</text><rect fill="#E8F4FD" height="45.9102" rx="12.5" ry="12.5" style="stroke:#2196F3;stroke-width:0.5;" width="103.0809" x="563.0056" y="1749.292"/><text fill="#000000" font-family="sans-serif" font-size="11" lengthAdjust="spacing" textLength="66.0913" x="573.0056" y="1769.9268">navigate("/")</text><text fill="#000000" font-family="sans-serif" font-size="11" lengthAdjust="spacing" textLength="83.0809" x="573.0056" y="1782.8818">&#54856; &#45824;&#49884;&#48372;&#46300;&#47196; &#51060;&#46041;</text><line style="stroke:#000000;stroke-width:1.5;" x1="393.5762" x2="393.5762" y1="64.9766" y2="1929.0225"/><rect fill="#FFF8E1" height="1864.0459" style="stroke:#FFF8E1;stroke-width:1;" width="414.9967" x="828.1414" y="64.9766"/><rect fill="#E8F4FD" height="97.7305" rx="12.5" ry="12.5" style="stroke:#2196F3;stroke-width:0.5;" width="186.2626" x="834.1414" y="598.0498"/><text fill="#000000" font-family="sans-serif" font-size="11" lengthAdjust="spacing" textLength="126.8652" x="844.1414" y="618.6846">SignUpService.execute()</text><text fill="#000000" font-family="sans-serif" font-size="11" lengthAdjust="spacing" textLength="83.4111" x="844.1414" y="631.6396">- &#51060;&#47700;&#51068; &#54805;&#49885; &#44160;&#51613;</text><text fill="#000000" font-family="sans-serif" font-size="11" lengthAdjust="spacing" textLength="92.9261" x="844.1414" y="644.5947">- &#48708;&#48128;&#48264;&#54840; &#44053;&#46020; &#44160;&#51613;</text><text fill="#000000" font-family="sans-serif" font-size="11" lengthAdjust="spacing" textLength="83.4111" x="844.1414" y="657.5498">- &#51060;&#47700;&#51068; &#51473;&#48373; &#54869;&#51064;</text><text fill="#000000" font-family="sans-serif" font-size="11" lengthAdjust="spacing" textLength="56.2141" x="844.1414" y="670.5049">- User &#49373;&#49457;</text><text fill="#000000" font-family="sans-serif" font-size="11" lengthAdjust="spacing" textLength="166.2626" x="844.1414" y="683.46">- JWT access + refresh &#53664;&#53360; &#48156;&#44553;</text><rect fill="#E8F4FD" height="71.8203" rx="12.5" ry="12.5" style="stroke:#2196F3;stroke-width:0.5;" width="186.2626" x="1052.8755" y="598.0498"/><text fill="#000000" font-family="sans-serif" font-size="11" lengthAdjust="spacing" textLength="122.3159" x="1062.8755" y="618.6846">SignInService.execute()</text><text fill="#000000" font-family="sans-serif" font-size="11" lengthAdjust="spacing" textLength="97.7545" x="1062.8755" y="631.6396">- &#51060;&#47700;&#51068;&#47196; User &#51312;&#54924;</text><text fill="#000000" font-family="sans-serif" font-size="11" lengthAdjust="spacing" textLength="114.8937" x="1062.8755" y="644.5947">- &#48708;&#48128;&#48264;&#54840; &#44160;&#51613; (bcrypt)</text><text fill="#000000" font-family="sans-serif" font-size="11" lengthAdjust="spacing" textLength="166.2626" x="1062.8755" y="657.5498">- JWT access + refresh &#53664;&#53360; &#48156;&#44553;</text><rect fill="#E8F4FD" height="58.8652" rx="12.5" ry="12.5" style="stroke:#2196F3;stroke-width:0.5;" width="171.4111" x="950.9342" y="1206.4209"/><text fill="#000000" font-family="sans-serif" font-size="11" lengthAdjust="spacing" textLength="148.9888" x="960.9342" y="1227.0557">VerifyEmailService.execute()</text><text fill="#000000" font-family="sans-serif" font-size="11" lengthAdjust="spacing" textLength="135.5864" x="960.9342" y="1240.0107">- &#53076;&#46300; &#50976;&#54952;&#49457; &#44160;&#51613; (&#47564;&#47308; &#54869;&#51064;)</text><text fill="#000000" font-family="sans-serif" font-size="11" lengthAdjust="spacing" textLength="151.4111" x="960.9342" y="1252.9658">- User.email_verified = True</text><rect fill="#E8F4FD" height="58.8652" rx="12.5" ry="12.5" style="stroke:#2196F3;stroke-width:0.5;" width="180.5205" x="946.3795" y="1670.4268"/><text fill="#000000" font-family="sans-serif" font-size="11" lengthAdjust="spacing" textLength="102.9478" x="956.3795" y="1691.0615">ProfileMeView.put()</text><text fill="#000000" font-family="sans-serif" font-size="11" lengthAdjust="spacing" textLength="85.2558" x="956.3795" y="1704.0166">- Profile &#50629;&#45936;&#51060;&#53944;</text><text fill="#000000" font-family="sans-serif" font-size="11" lengthAdjust="spacing" textLength="160.5205" x="956.3795" y="1716.9717">- is_profile_completed = True</text><line style="stroke:#000000;stroke-width:1.5;" x1="828.1414" x2="828.1414" y1="64.9766" y2="1929.0225"/><rect fill="#F3E5F5" height="1864.0459" style="stroke:#F3E5F5;stroke-width:1;" width="214.2769" x="1243.1381" y="64.9766"/><rect fill="#E8F4FD" height="45.9102" rx="12.5" ry="12.5" style="stroke:#2196F3;stroke-width:0.5;" width="204.2769" x="1249.1381" y="730.7803"/><text fill="#000000" font-family="sans-serif" font-size="11" lengthAdjust="spacing" textLength="184.2769" x="1259.1381" y="751.415">SendVerificationEmailTask (Celery)</text><text fill="#000000" font-family="sans-serif" font-size="11" lengthAdjust="spacing" textLength="96.0764" x="1259.1381" y="764.3701">&#51064;&#51613; &#53076;&#46300; &#51060;&#47700;&#51068; &#48156;&#49569;</text><rect fill="#E8F4FD" height="45.9102" rx="12.5" ry="12.5" style="stroke:#2196F3;stroke-width:0.5;" width="180.8589" x="1260.8471" y="811.6904"/><text fill="#000000" font-family="sans-serif" font-size="11" lengthAdjust="spacing" textLength="160.8589" x="1270.8471" y="832.3252">SendSignUpEventTask (Celery)</text><text fill="#000000" font-family="sans-serif" font-size="11" lengthAdjust="spacing" textLength="92.5959" x="1270.8471" y="845.2803">&#54924;&#50896;&#44032;&#51077; &#51060;&#48292;&#53944; &#52376;&#47532;</text><line style="stroke:#000000;stroke-width:1.5;" x1="1243.1381" x2="1243.1381" y1="64.9766" y2="1929.0225"/><line style="stroke:#000000;stroke-width:1.5;" x1="1457.415" x2="1457.415" y1="64.9766" y2="1929.0225"/><line style="stroke:#555555;stroke-width:1;" x1="222.171" x2="222.171" y1="102.9316" y2="122.9316"/><polygon fill="#555555" points="218.171,112.9316,222.171,122.9316,226.171,112.9316,222.171,116.9316" style="stroke:#555555;stroke-width:1;"/><line style="stroke:#555555;stroke-width:1;" x1="165.4388" x2="112.8039" y1="434.2295" y2="434.2295"/><line style="stroke:#555555;stroke-width:1;" x1="112.8039" x2="112.8039" y1="434.2295" y2="466.2295"/><polygon fill="#555555" points="108.8039,456.2295,112.8039,466.2295,116.8039,456.2295,112.8039,460.2295" style="stroke:#555555;stroke-width:1;"/><line style="stroke:#555555;stroke-width:1;" x1="278.9031" x2="331.538" y1="434.2295" y2="434.2295"/><line style="stroke:#555555;stroke-width:1;" x1="331.538" x2="331.538" y1="434.2295" y2="466.2295"/><polygon fill="#555555" points="327.538,456.2295,331.538,466.2295,335.538,456.2295,331.538,460.2295" style="stroke:#555555;stroke-width:1;"/><line style="stroke:#555555;stroke-width:1;" x1="222.171" x2="222.171" y1="1887.0225" y2="1907.0225"/><polygon fill="#555555" points="218.171,1897.0225,222.171,1907.0225,226.171,1897.0225,222.171,1901.0225" style="stroke:#555555;stroke-width:1;"/><line style="stroke:#555555;stroke-width:1;" x1="614.546" x2="614.546" y1="323.2295" y2="358.2295"/><polygon fill="#555555" points="610.546,348.2295,614.546,358.2295,618.546,348.2295,614.546,352.2295" style="stroke:#555555;stroke-width:1;"/><line style="stroke:#555555;stroke-width:1;" x1="614.546" x2="614.546" y1="265.7969" y2="290.2744"/><polygon fill="#555555" points="610.546,280.2744,614.546,290.2744,618.546,280.2744,614.546,284.2744" style="stroke:#555555;stroke-width:1;"/><line style="stroke:#555555;stroke-width:1;" x1="705.1419" x2="717.1419" y1="253.7969" y2="253.7969"/><polygon fill="#555555" points="713.1419,331.002,717.1419,341.002,721.1419,331.002,717.1419,335.002" style="stroke:#555555;stroke-width:1;"/><line style="stroke:#555555;stroke-width:1;" x1="717.1419" x2="717.1419" y1="253.7969" y2="407.2295"/><line style="stroke:#555555;stroke-width:1;" x1="717.1419" x2="222.171" y1="407.2295" y2="407.2295"/><line style="stroke:#555555;stroke-width:1;" x1="222.171" x2="222.171" y1="407.2295" y2="422.2295"/><polygon fill="#555555" points="218.171,412.2295,222.171,422.2295,226.171,412.2295,222.171,416.2295" style="stroke:#555555;stroke-width:1;"/><line style="stroke:#555555;stroke-width:1;" x1="614.546" x2="614.546" y1="221.7969" y2="241.7969"/><polygon fill="#555555" points="610.546,231.7969,614.546,241.7969,618.546,231.7969,614.546,235.7969" style="stroke:#555555;stroke-width:1;"/><line style="stroke:#555555;stroke-width:1;" x1="723.9131" x2="723.9131" y1="854.2578" y2="889.2578"/><polygon fill="#555555" points="719.9131,879.2578,723.9131,889.2578,727.9131,879.2578,723.9131,883.2578" style="stroke:#555555;stroke-width:1;"/><line style="stroke:#555555;stroke-width:1;" x1="723.9131" x2="723.9131" y1="796.8252" y2="821.3027"/><polygon fill="#555555" points="719.9131,811.3027,723.9131,821.3027,727.9131,811.3027,723.9131,815.3027" style="stroke:#555555;stroke-width:1;"/><line style="stroke:#555555;stroke-width:1;" x1="797.1414" x2="809.1414" y1="784.8252" y2="784.8252"/><polygon fill="#555555" points="805.1414,864.2803,809.1414,874.2803,813.1414,864.2803,809.1414,868.2803" style="stroke:#555555;stroke-width:1;"/><line style="stroke:#555555;stroke-width:1;" x1="809.1414" x2="809.1414" y1="784.8252" y2="963.7354"/><line style="stroke:#555555;stroke-width:1;" x1="809.1414" x2="234.171" y1="963.7354" y2="963.7354"/><polygon fill="#555555" points="244.171,959.7354,234.171,963.7354,244.171,967.7354,240.171,963.7354" style="stroke:#555555;stroke-width:1;"/><line style="stroke:#555555;stroke-width:1;" x1="723.9131" x2="723.9131" y1="737.8252" y2="772.8252"/><polygon fill="#555555" points="719.9131,762.8252,723.9131,772.8252,727.9131,762.8252,723.9131,766.8252" style="stroke:#555555;stroke-width:1;"/><line style="stroke:#555555;stroke-width:1;" x1="614.546" x2="614.546" y1="1366.7188" y2="1395.7412"/><polygon fill="#555555" points="610.546,1385.7412,614.546,1395.7412,618.546,1385.7412,614.546,1389.7412" style="stroke:#555555;stroke-width:1;"/><line style="stroke:#555555;stroke-width:1;" x1="614.546" x2="614.546" y1="1309.2861" y2="1333.7637"/><polygon fill="#555555" points="610.546,1323.7637,614.546,1333.7637,618.546,1323.7637,614.546,1327.7637" style="stroke:#555555;stroke-width:1;"/><line style="stroke:#555555;stroke-width:1;" x1="654.3941" x2="676.0865" y1="1297.2861" y2="1297.2861"/><polygon fill="#555555" points="672.0865,1365.7412,676.0865,1375.7412,680.0865,1365.7412,676.0865,1369.7412" style="stroke:#555555;stroke-width:1;"/><line style="stroke:#555555;stroke-width:1;" x1="676.0865" x2="676.0865" y1="1297.2861" y2="1439.7412"/><line style="stroke:#555555;stroke-width:1;" x1="676.0865" x2="614.546" y1="1439.7412" y2="1439.7412"/><line style="stroke:#555555;stroke-width:1;" x1="614.546" x2="614.546" y1="1439.7412" y2="1459.7412"/><polygon fill="#555555" points="610.546,1449.7412,614.546,1459.7412,618.546,1449.7412,614.546,1453.7412" style="stroke:#555555;stroke-width:1;"/><line style="stroke:#555555;stroke-width:1;" x1="1351.2766" x2="1351.2766" y1="776.6904" y2="811.6904"/><polygon fill="#555555" points="1347.2766,801.6904,1351.2766,811.6904,1355.2766,801.6904,1351.2766,805.6904" style="stroke:#555555;stroke-width:1;"/><line style="stroke:#555555;stroke-width:1;" x1="222.171" x2="222.171" y1="155.8867" y2="160.8867"/><line style="stroke:#555555;stroke-width:1;" x1="222.171" x2="614.546" y1="160.8867" y2="160.8867"/><line style="stroke:#555555;stroke-width:1;" x1="614.546" x2="614.546" y1="160.8867" y2="175.8867"/><polygon fill="#555555" points="610.546,165.8867,614.546,175.8867,618.546,165.8867,614.546,169.8867" style="stroke:#555555;stroke-width:1;"/><line style="stroke:#555555;stroke-width:1;" x1="112.8039" x2="112.8039" y1="512.1396" y2="517.1396"/><line style="stroke:#555555;stroke-width:1;" x1="112.8039" x2="505.179" y1="517.1396" y2="517.1396"/><line style="stroke:#555555;stroke-width:1;" x1="505.179" x2="505.179" y1="517.1396" y2="532.1396"/><polygon fill="#555555" points="501.179,522.1396,505.179,532.1396,509.179,522.1396,505.179,526.1396" style="stroke:#555555;stroke-width:1;"/><line style="stroke:#555555;stroke-width:1;" x1="505.179" x2="505.179" y1="578.0498" y2="583.0498"/><line style="stroke:#555555;stroke-width:1;" x1="505.179" x2="927.2727" y1="583.0498" y2="583.0498"/><line style="stroke:#555555;stroke-width:1;" x1="927.2727" x2="927.2727" y1="583.0498" y2="598.0498"/><polygon fill="#555555" points="923.2727,588.0498,927.2727,598.0498,931.2727,588.0498,927.2727,592.0498" style="stroke:#555555;stroke-width:1;"/><line style="stroke:#555555;stroke-width:1;" x1="927.2727" x2="927.2727" y1="695.7803" y2="713.2803"/><line style="stroke:#555555;stroke-width:1;" x1="927.2727" x2="1351.2766" y1="713.2803" y2="713.2803"/><line style="stroke:#555555;stroke-width:1;" x1="1351.2766" x2="1351.2766" y1="713.2803" y2="730.7803"/><polygon fill="#555555" points="1347.2766,720.7803,1351.2766,730.7803,1355.2766,720.7803,1351.2766,724.7803" style="stroke:#555555;stroke-width:1;"/><line style="stroke:#555555;stroke-width:1;" x1="1351.2766" x2="1351.2766" y1="857.6006" y2="875.1006"/><line style="stroke:#555555;stroke-width:1;" x1="1351.2766" x2="505.179" y1="875.1006" y2="875.1006"/><line style="stroke:#555555;stroke-width:1;" x1="505.179" x2="505.179" y1="875.1006" y2="892.6006"/><polygon fill="#555555" points="501.179,882.6006,505.179,892.6006,509.179,882.6006,505.179,886.6006" style="stroke:#555555;stroke-width:1;"/><line style="stroke:#555555;stroke-width:1;" x1="331.538" x2="331.538" y1="512.1396" y2="517.1396"/><line style="stroke:#555555;stroke-width:1;" x1="331.538" x2="723.9131" y1="517.1396" y2="517.1396"/><line style="stroke:#555555;stroke-width:1;" x1="723.9131" x2="723.9131" y1="517.1396" y2="532.1396"/><polygon fill="#555555" points="719.9131,522.1396,723.9131,532.1396,727.9131,522.1396,723.9131,526.1396" style="stroke:#555555;stroke-width:1;"/><line style="stroke:#555555;stroke-width:1;" x1="723.9131" x2="723.9131" y1="578.0498" y2="583.0498"/><line style="stroke:#555555;stroke-width:1;" x1="723.9131" x2="1146.0068" y1="583.0498" y2="583.0498"/><line style="stroke:#555555;stroke-width:1;" x1="1146.0068" x2="1146.0068" y1="583.0498" y2="598.0498"/><polygon fill="#555555" points="1142.0068,588.0498,1146.0068,598.0498,1150.0068,588.0498,1146.0068,592.0498" style="stroke:#555555;stroke-width:1;"/><line style="stroke:#555555;stroke-width:1;" x1="1146.0068" x2="1146.0068" y1="669.8701" y2="687.3701"/><line style="stroke:#555555;stroke-width:1;" x1="1146.0068" x2="723.9131" y1="687.3701" y2="687.3701"/><line style="stroke:#555555;stroke-width:1;" x1="723.9131" x2="723.9131" y1="687.3701" y2="704.8701"/><polygon fill="#555555" points="719.9131,694.8701,723.9131,704.8701,727.9131,694.8701,723.9131,698.8701" style="stroke:#555555;stroke-width:1;"/><line style="stroke:#555555;stroke-width:1;" x1="505.179" x2="505.179" y1="938.5107" y2="945.7354"/><line style="stroke:#555555;stroke-width:1;" x1="505.179" x2="192.171" y1="945.7354" y2="945.7354"/><line style="stroke:#555555;stroke-width:1;" x1="192.171" x2="192.171" y1="945.7354" y2="963.7354"/><line style="stroke:#555555;stroke-width:1;" x1="192.171" x2="210.171" y1="963.7354" y2="963.7354"/><polygon fill="#555555" points="200.171,959.7354,210.171,963.7354,200.171,967.7354,204.171,963.7354" style="stroke:#555555;stroke-width:1;"/><line style="stroke:#555555;stroke-width:1;" x1="222.171" x2="222.171" y1="975.7354" y2="980.7354"/><line style="stroke:#555555;stroke-width:1;" x1="222.171" x2="614.546" y1="980.7354" y2="980.7354"/><line style="stroke:#555555;stroke-width:1;" x1="614.546" x2="614.546" y1="980.7354" y2="995.7354"/><polygon fill="#555555" points="610.546,985.7354,614.546,995.7354,618.546,985.7354,614.546,989.7354" style="stroke:#555555;stroke-width:1;"/><line style="stroke:#555555;stroke-width:1;" x1="614.546" x2="614.546" y1="1054.6006" y2="1059.6006"/><line style="stroke:#555555;stroke-width:1;" x1="614.546" x2="222.171" y1="1059.6006" y2="1059.6006"/><line style="stroke:#555555;stroke-width:1;" x1="222.171" x2="222.171" y1="1059.6006" y2="1074.6006"/><polygon fill="#555555" points="218.171,1064.6006,222.171,1074.6006,226.171,1064.6006,222.171,1068.6006" style="stroke:#555555;stroke-width:1;"/><line style="stroke:#555555;stroke-width:1;" x1="222.171" x2="222.171" y1="1120.5107" y2="1125.5107"/><line style="stroke:#555555;stroke-width:1;" x1="222.171" x2="614.546" y1="1125.5107" y2="1125.5107"/><line style="stroke:#555555;stroke-width:1;" x1="614.546" x2="614.546" y1="1125.5107" y2="1140.5107"/><polygon fill="#555555" points="610.546,1130.5107,614.546,1140.5107,618.546,1130.5107,614.546,1134.5107" style="stroke:#555555;stroke-width:1;"/><line style="stroke:#555555;stroke-width:1;" x1="614.546" x2="614.546" y1="1186.4209" y2="1191.4209"/><line style="stroke:#555555;stroke-width:1;" x1="614.546" x2="1036.6398" y1="1191.4209" y2="1191.4209"/><line style="stroke:#555555;stroke-width:1;" x1="1036.6398" x2="1036.6398" y1="1191.4209" y2="1206.4209"/><polygon fill="#555555" points="1032.6398,1196.4209,1036.6398,1206.4209,1040.6398,1196.4209,1036.6398,1200.4209" style="stroke:#555555;stroke-width:1;"/><line style="stroke:#555555;stroke-width:1;" x1="1036.6398" x2="1036.6398" y1="1265.2861" y2="1270.2861"/><line style="stroke:#555555;stroke-width:1;" x1="1036.6398" x2="614.546" y1="1270.2861" y2="1270.2861"/><line style="stroke:#555555;stroke-width:1;" x1="614.546" x2="614.546" y1="1270.2861" y2="1285.2861"/><polygon fill="#555555" points="610.546,1275.2861,614.546,1285.2861,618.546,1275.2861,614.546,1279.2861" style="stroke:#555555;stroke-width:1;"/><line style="stroke:#555555;stroke-width:1;" x1="614.546" x2="614.546" y1="1518.6064" y2="1523.6064"/><line style="stroke:#555555;stroke-width:1;" x1="614.546" x2="222.171" y1="1523.6064" y2="1523.6064"/><line style="stroke:#555555;stroke-width:1;" x1="222.171" x2="222.171" y1="1523.6064" y2="1538.6064"/><polygon fill="#555555" points="218.171,1528.6064,222.171,1538.6064,226.171,1528.6064,222.171,1532.6064" style="stroke:#555555;stroke-width:1;"/><line style="stroke:#555555;stroke-width:1;" x1="222.171" x2="222.171" y1="1584.5166" y2="1589.5166"/><line style="stroke:#555555;stroke-width:1;" x1="222.171" x2="614.546" y1="1589.5166" y2="1589.5166"/><line style="stroke:#555555;stroke-width:1;" x1="614.546" x2="614.546" y1="1589.5166" y2="1604.5166"/><polygon fill="#555555" points="610.546,1594.5166,614.546,1604.5166,618.546,1594.5166,614.546,1598.5166" style="stroke:#555555;stroke-width:1;"/><line style="stroke:#555555;stroke-width:1;" x1="614.546" x2="614.546" y1="1650.4268" y2="1655.4268"/><line style="stroke:#555555;stroke-width:1;" x1="614.546" x2="1036.6398" y1="1655.4268" y2="1655.4268"/><line style="stroke:#555555;stroke-width:1;" x1="1036.6398" x2="1036.6398" y1="1655.4268" y2="1670.4268"/><polygon fill="#555555" points="1032.6398,1660.4268,1036.6398,1670.4268,1040.6398,1660.4268,1036.6398,1664.4268" style="stroke:#555555;stroke-width:1;"/><line style="stroke:#555555;stroke-width:1;" x1="1036.6398" x2="1036.6398" y1="1729.292" y2="1734.292"/><line style="stroke:#555555;stroke-width:1;" x1="1036.6398" x2="614.546" y1="1734.292" y2="1734.292"/><line style="stroke:#555555;stroke-width:1;" x1="614.546" x2="614.546" y1="1734.292" y2="1749.292"/><polygon fill="#555555" points="610.546,1739.292,614.546,1749.292,618.546,1739.292,614.546,1743.292" style="stroke:#555555;stroke-width:1;"/><line style="stroke:#555555;stroke-width:1;" x1="614.546" x2="614.546" y1="1795.2021" y2="1800.2021"/><line style="stroke:#555555;stroke-width:1;" x1="614.546" x2="222.171" y1="1800.2021" y2="1800.2021"/><line style="stroke:#555555;stroke-width:1;" x1="222.171" x2="222.171" y1="1800.2021" y2="1815.2021"/><polygon fill="#555555" points="218.171,1805.2021,222.171,1815.2021,226.171,1805.2021,222.171,1809.2021" style="stroke:#555555;stroke-width:1;"/><text fill="#000000" font-family="sans-serif" font-size="11" lengthAdjust="spacing" textLength="28.545" x="190.0156" y="75.6113">&#49324;&#50857;&#51088;</text><text fill="#000000" font-family="sans-serif" font-size="11" lengthAdjust="spacing" textLength="47.9746" x="586.8715" y="75.6113">Frontend</text><text fill="#000000" font-family="sans-serif" font-size="11" lengthAdjust="spacing" textLength="64.6626" x="1003.3085" y="75.6113">Backend API</text><text fill="#000000" font-family="sans-serif" font-size="11" lengthAdjust="spacing" textLength="51.0555" x="1324.7488" y="75.6113">&#48708;&#46041;&#44592; &#52376;&#47532;</text><g class="legend" data-source-line="110"><rect fill="none" height="118.9297" rx="7.5" ry="7.5" style="stroke:#000000;stroke-width:1;" width="223.2337" x="1227.9216" y="1941.0225"/><text fill="#000000" font-family="sans-serif" font-size="14" lengthAdjust="spacing" textLength="52.8697" x="1232.9216" y="1959.5576">&#49353;&#49345; &#48276;&#47168;</text><line style="stroke:#000000;stroke-width:1;stroke-dasharray:1,2;" x1="1227.9216" x2="1451.1552" y1="1967.5107" y2="1967.5107"/><text fill="#000000" font-family="sans-serif" font-size="14" lengthAdjust="spacing" textLength="121.298" x="1232.9216" y="1986.0459">&#49324;&#50857;&#51088; = &#49324;&#50857;&#51088; &#50529;&#49496;</text><text fill="#000000" font-family="sans-serif" font-size="14" lengthAdjust="spacing" textLength="170.7552" x="1232.9216" y="2002.5342">Frontend = Frontend &#52376;&#47532;</text><text fill="#000000" font-family="sans-serif" font-size="14" lengthAdjust="spacing" textLength="213.2337" x="1232.9216" y="2019.0225">Backend API = Backend API &#54840;&#52636;</text><text fill="#000000" font-family="sans-serif" font-size="14" lengthAdjust="spacing" textLength="208.8633" x="1232.9216" y="2035.5107">&#48708;&#46041;&#44592; &#52376;&#47532; = Celery &#48708;&#46041;&#44592; &#53468;&#49828;&#53356;</text><text fill="#000000" font-family="sans-serif" font-size="14" lengthAdjust="spacing" textLength="205.0478" x="1232.9216" y="2051.999">LightCyan = Full-screen &#54168;&#51060;&#51648;</text></g><g class="footer" data-source-line="120"><text fill="#888888" font-family="sans-serif" font-size="10" lengthAdjust="spacing" textLength="207.5736" x="632.7908" y="2082.6201">MeFit &#53076;&#46300; &#44592;&#48152; Activity Diagram - auth flow</text></g><?plantuml-src dLPVJnDP57_lfpZH5ng5BYf68MQ3q4aq64b0zuM43ErjkMkvqzoPWjtqeKWn_i4LiYKMR4d9ei36P2lKtPfezllqtlaEU-xCjBqjLTTjNsREENF-_kxlN8SwAG9tY44Ta8_UoTrZkRS9ijAGRolWLZR5sy8S6n3xvURV3PH21DpT3VbwirdBoxrrV9MLkZWkoigdraSeAXs9qxee7eT38Vi1PMcJcqkmOCOU9BcLOV49AsLnE6z4rL-pY9E4cKavXiMS6VeBWU5XJJaUS-WoTR8tUzr4hnbNZCb-bXQF4nvONHg-VjMuh5jnRgq4oX7lfoadgRbaiVYPM8PXN9-uqiTG3sNSdFZXqcGeb3iVlMnSCYPpxRxcbEoQCHAzdZCuLabON8dGwxNeS4v5GmcCJz_of9UZ8yP8JdmiY9SxpKODv4b9l7sNGyUQGzinkHCQdJ9PdB8akB-MS23oC0-okYKVlnX3wqwebjcqcIH3ZlqGH7L3l2YAmzKvbh79UCPPd74iJW3dtHgdN5jrryhWxcoZ0DtH16XmkD0okm1kiO1oTxi0ueyZiOKWsYc8tpT-38EpI1WCP8aT3W6CkZjFG6pavVEo0iblPJzM7OiSGxNjMEaGITa41fWL3c7QDD5TSNS2s70TaErekX1X2A2xm2ncQ9BTIxSQCSVQCBu8gkErl3XvufOQtMz15m1zYkgRCSzjfxleTVhkp2n4p3IDB0z7iAFSZjWOQ32JZimnicJIr4L8cxQzWdZfFCt7B9QWVCbts0M3TgOpX2_J61aY3qaiuv21y1mRrCwUMzgMpolGFCdZC9IgA-rcRLkyB6XQxT0UR8dJ3q5XIdKFiyQXLsJXlNgz_TCicB4OiMqSCIS9Jkn5S1zNtTKQY5gvsNZgPtqMfYfrhEC-uJH1OwP3BHPL7PWrxGSmC45IX6V3gl4-p3uN4GjQOkXSFjxtd7j-_3P4bmbpUZnq4P9oS7BWFci4UVGPaYefg43-KtKV7U1PmM_Vp35cBjEaYTqz5rbMQMS7lPcT2wCN7vDjuFN3r9ILfEoRaFf-z51s5ZrVniejzdMigFFc3tc_Xgqx2nOF9J2m4EFPj1F-7X3yfpPxfkeGdzaSEeSWUI02UydZc_GH40X0XqBmsIUH5fTqiZm_HPEBpaJMPACUJBCUGFK9Tc7JcniUbQ8uheExLSOSS3ScCgdKe1tZ1FCKrIUAVhSBylMQ0eqEaD5slVBLfYnq2DRttZg1Lz4OSTiTj8V6-m15nokY9MR5YVge2o1waVqn4iGiLztT8sn_6mlYS0EfFCWntAA98I_Ql1UQaZZSW5cU8Tsvga5_SQh-XlY-hI3-RFXUmbyVw5ssO9bSttR853s9WFloq_yPvE6gU5S7-R7khcyqJwlUk0fLTmsvjNdoMO54F3zgdXO2QU_qxdM6b-PMWgQ87LaYEBMVhOLvP4gIj7XsdkA6Y9cO3P_79P_iCyvf_-Cxv3ubAqFfZEDFCH23VBKkNjIm36H39QVsV10E5yvIEaMSByniLEF1SufWlpARxixqMWAk7LaxzZZck8vN4cI43wendNsZ75NVu7cu2F9z0JqrJz6Y2irw7lkgVObEvTuMxhAyUAOEX8U9K8eaLKEucZi2HQuznGiBY9EYsC_Z-n3-bBXzixsXttAtz-Lw2TMjqb7RVlJN1ogrdgDUVqEsb7-LqQHt-Q6Tlvqq3LwYvBC3TrMvRADK1THGrxwzAMY3NreebB0i1-awkAFxHnGzYbgfVTLLzz2akeyEWecNE4Yah9L_0G00?></g></svg>