<?plantuml 1.2026.1?><svg xmlns="http://www.w3.org/2000/svg" xmlns:xlink="http://www.w3.org/1999/xlink" contentStyleType="text/css" data-diagram-type="ACTIVITY" height="1986px" preserveAspectRatio="none" style="width:1847px;height:1986px;background:#FEFEFE;" version="1.1" viewBox="0 0 1847 1986" width="1847px" zoomAndPan="magnify"><title>MeFit &#52292;&#50857;&#44277;&#44256; &#44288;&#47532; &#55120;&#47492;
(&#46321;&#47197; / &#49828;&#53356;&#47000;&#54609; / &#54200;&#51665;)</title><defs/><g><rect fill="#FEFEFE" height="1986" style="stroke:none;stroke-width:1;" width="1847" x="0" y="0"/><g class="title" data-source-line="1"><text fill="#000000" font-family="sans-serif" font-size="14" font-weight="bold" lengthAdjust="spacing" textLength="149.8995" x="847.4903" y="33.5352">MeFit &#52292;&#50857;&#44277;&#44256; &#44288;&#47532; &#55120;&#47492;</text><text fill="#000000" font-family="sans-serif" font-size="14" font-weight="bold" lengthAdjust="spacing" textLength="141.546" x="851.6671" y="50.0234">(&#46321;&#47197; / &#49828;&#53356;&#47000;&#54609; / &#54200;&#51665;)</text></g><rect fill="none" height="12.9551" style="stroke:none;stroke-width:1;" width="1814.8802" x="15" y="64.9766"/><rect fill="#E3F2FD" height="1709.9844" style="stroke:#E3F2FD;stroke-width:1;" width="488.6478" x="15" y="64.9766"/><ellipse cx="263.4455" cy="92.9316" fill="#222222" rx="10" ry="10" style="stroke:#222222;stroke-width:1;"/><rect fill="#E8F4FD" height="32.9551" rx="12.5" ry="12.5" style="stroke:#2196F3;stroke-width:0.5;" width="208.1827" x="159.3541" y="122.9316"/><text fill="#000000" font-family="sans-serif" font-size="11" lengthAdjust="spacing" textLength="188.1827" x="169.3541" y="143.5664">HomeSidebar &#50640;&#49436; "&#52292;&#50857;&#44277;&#44256;" &#47700;&#45684; &#53364;&#47533;</text><polygon fill="#E8F4FD" points="235.5974,280.6621,291.2935,280.6621,303.2935,292.6621,291.2935,304.6621,235.5974,304.6621,223.5974,292.6621,235.5974,280.6621" style="stroke:#2196F3;stroke-width:0.5;"/><text fill="#000000" font-family="sans-serif" font-size="11" lengthAdjust="spacing" textLength="55.6961" x="235.5974" y="296.8193">&#49352; &#52292;&#50857;&#44277;&#44256;?</text><text fill="#000000" font-family="sans-serif" font-size="11" lengthAdjust="spacing" textLength="19.03" x="204.5674" y="290.3418">&#46321;&#47197;</text><text fill="#000000" font-family="sans-serif" font-size="11" lengthAdjust="spacing" textLength="60.5705" x="303.2935" y="290.3418">&#44592;&#51316; &#52292;&#50857;&#44277;&#44256;</text><rect fill="#E8F4FD" height="45.9102" rx="12.5" ry="12.5" style="stroke:#2196F3;stroke-width:0.5;" width="133.8092" x="21" y="324.6621"/><text fill="#000000" font-family="sans-serif" font-size="11" lengthAdjust="spacing" textLength="113.8092" x="31" y="345.2969">"&#52292;&#50857;&#44277;&#44256; &#52628;&#44032;" &#48260;&#53948; &#53364;&#47533;</text><text fill="#000000" font-family="sans-serif" font-size="11" lengthAdjust="spacing" textLength="76.8711" x="31" y="358.252">JdAddPage.tsx</text><rect fill="#E8F4FD" height="71.8203" rx="12.5" ry="12.5" style="stroke:#2196F3;stroke-width:0.5;" width="132.5523" x="21.6284" y="403.5273"/><text fill="#000000" font-family="sans-serif" font-size="11" lengthAdjust="spacing" textLength="84.4933" x="31.6284" y="424.1621">&#52292;&#50857;&#44277;&#44256; URL &#51077;&#47141;</text><text fill="#000000" font-family="sans-serif" font-size="11" lengthAdjust="spacing" textLength="112.5523" x="31.6284" y="437.1172">&#49324;&#46988;&#51064;, &#51105;&#53076;&#47532;&#50500;, &#50896;&#54000;&#46300;,</text><text fill="#000000" font-family="sans-serif" font-size="11" lengthAdjust="spacing" textLength="96.0764" x="31.6284" y="450.0723">&#51105;&#54540;&#47000;&#45787;, &#47553;&#53356;&#46300;&#51064; &#46321;</text><text fill="#000000" font-family="sans-serif" font-size="11" lengthAdjust="spacing" textLength="64.0509" x="31.6284" y="463.0273">&#46608;&#45716; &#51649;&#51217; &#51077;&#47141;</text><rect fill="#E8F4FD" height="32.9551" rx="12.5" ry="12.5" style="stroke:#2196F3;stroke-width:0.5;" width="122.1109" x="377.5368" y="324.6621"/><text fill="#000000" font-family="sans-serif" font-size="11" lengthAdjust="spacing" textLength="102.1109" x="387.5368" y="345.2969">&#52292;&#50857;&#44277;&#44256; &#47785;&#47197;&#50640;&#49436; &#49440;&#53469;</text><polygon fill="#E8F4FD" points="263.4455,1048.3594,275.4455,1060.3594,263.4455,1072.3594,251.4455,1060.3594,263.4455,1048.3594" style="stroke:#2196F3;stroke-width:0.5;"/><rect fill="#E8F4FD" height="110.6855" rx="12.5" ry="12.5" style="stroke:#2196F3;stroke-width:0.5;" width="103.0809" x="211.905" y="1092.3594"/><text fill="#000000" font-family="sans-serif" font-size="11" lengthAdjust="spacing" textLength="83.0809" x="221.905" y="1112.9941">&#52292;&#50857;&#44277;&#44256; &#51221;&#48372; &#49688;&#51221;</text><text fill="#000000" font-family="sans-serif" font-size="11" lengthAdjust="spacing" textLength="28.8752" x="221.905" y="1125.9492">- &#51228;&#47785;</text><text fill="#000000" font-family="sans-serif" font-size="11" lengthAdjust="spacing" textLength="38.3902" x="221.905" y="1138.9043">- &#54924;&#49324;&#47749;</text><text fill="#000000" font-family="sans-serif" font-size="11" lengthAdjust="spacing" textLength="70.4157" x="221.905" y="1151.8594">- &#51649;&#47924; &#50836;&#44396;&#49324;&#54637;</text><text fill="#000000" font-family="sans-serif" font-size="11" lengthAdjust="spacing" textLength="51.3857" x="221.905" y="1164.8145">- &#50864;&#45824; &#49324;&#54637;</text><text fill="#000000" font-family="sans-serif" font-size="11" lengthAdjust="spacing" textLength="51.3857" x="221.905" y="1177.7695">- &#44592;&#49696; &#49828;&#53469;</text><text fill="#000000" font-family="sans-serif" font-size="11" lengthAdjust="spacing" textLength="51.3857" x="221.905" y="1190.7246">- &#44540;&#47924; &#51312;&#44148;</text><polygon fill="#E8F4FD" points="251.4455,1367.8203,275.4455,1367.8203,287.4455,1379.8203,275.4455,1391.8203,251.4455,1391.8203,239.4455,1379.8203,251.4455,1367.8203" style="stroke:#2196F3;stroke-width:0.5;"/><text fill="#000000" font-family="sans-serif" font-size="11" lengthAdjust="spacing" textLength="17.4829" x="267.4455" y="1402.4551">yes</text><text fill="#000000" font-family="sans-serif" font-size="11" lengthAdjust="spacing" textLength="23.6706" x="251.6101" y="1383.9775">&#49325;&#51228;?</text><text fill="#000000" font-family="sans-serif" font-size="11" lengthAdjust="spacing" textLength="13.5835" x="287.4455" y="1377.5">no</text><rect fill="#E8F4FD" height="58.8652" rx="12.5" ry="12.5" style="stroke:#2196F3;stroke-width:0.5;" width="154.4666" x="186.2122" y="1674.0957"/><text fill="#000000" font-family="sans-serif" font-size="11" lengthAdjust="spacing" textLength="83.0809" x="196.2122" y="1694.7305">&#52292;&#50857;&#44277;&#44256; &#46321;&#47197; &#50756;&#47308;</text><text fill="#000000" font-family="sans-serif" font-size="11" lengthAdjust="spacing" textLength="115.4366" x="196.2122" y="1707.6855">- &#47732;&#51217; &#51456;&#48708;&#50640;&#49436; &#49440;&#53469; &#44032;&#45733;</text><text fill="#000000" font-family="sans-serif" font-size="11" lengthAdjust="spacing" textLength="134.4666" x="196.2122" y="1720.6406">- &#51060;&#47141;&#49436;&#50752; &#47588;&#52845;&#54616;&#50668; &#47732;&#51217; &#49373;&#49457;</text><ellipse cx="263.4455" cy="1763.9609" fill="none" rx="11" ry="11" style="stroke:#222222;stroke-width:1;"/><ellipse cx="263.4455" cy="1763.9609" fill="#222222" rx="6" ry="6" style="stroke:#222222;stroke-width:1;"/><line style="stroke:#000000;stroke-width:1.5;" x1="15" x2="15" y1="64.9766" y2="1774.9609"/><rect fill="#E8F5E9" height="1709.9844" style="stroke:#E8F5E9;stroke-width:1;" width="726.2089" x="503.6478" y="64.9766"/><rect fill="#E8F4FD" height="84.7754" rx="12.5" ry="12.5" style="stroke:#2196F3;stroke-width:0.5;" width="214.4497" x="821.1036" y="175.8867"/><text fill="#000000" font-family="sans-serif" font-size="11" lengthAdjust="spacing" textLength="74.2017" x="831.1036" y="196.5215">JdListPage.tsx</text><text fill="#000000" font-family="sans-serif" font-size="11" lengthAdjust="spacing" textLength="194.4497" x="831.1036" y="209.4766">GET /api/v1/user-job-descriptions/</text><text fill="#000000" font-family="sans-serif" font-size="11" lengthAdjust="spacing" textLength="83.0809" x="831.1036" y="222.4316">&#52292;&#50857;&#44277;&#44256; &#47785;&#47197; &#51312;&#54924;</text><text fill="#000000" font-family="sans-serif" font-size="11" lengthAdjust="spacing" textLength="112.5523" x="831.1036" y="235.3867">&#54596;&#53552;&#47553;: &#49345;&#53468;, &#53412;&#50892;&#46300; &#44160;&#49353;</text><text fill="#000000" font-family="sans-serif" font-size="11" lengthAdjust="spacing" textLength="146.8388" x="831.1036" y="248.3418">SSE &#50672;&#44208;: &#49688;&#51665; &#51473; &#44277;&#44256; &#49345;&#53468; &#54364;&#49884;</text><rect fill="#E8F4FD" height="45.9102" rx="12.5" ry="12.5" style="stroke:#2196F3;stroke-width:0.5;" width="221.0884" x="642.2434" y="495.3477"/><text fill="#000000" font-family="sans-serif" font-size="11" lengthAdjust="spacing" textLength="201.0884" x="652.2434" y="515.9824">POST /api/v1/user-job-descriptions/</text><text fill="#000000" font-family="sans-serif" font-size="11" lengthAdjust="spacing" textLength="129.4034" x="652.2434" y="528.9375">url &#46608;&#45716; title, company &#46321;</text><rect fill="#E8F4FD" height="71.8203" rx="12.5" ry="12.5" style="stroke:#2196F3;stroke-width:0.5;" width="255.1626" x="509.6478" y="866.6289"/><text fill="#000000" font-family="sans-serif" font-size="11" lengthAdjust="spacing" textLength="111.3911" x="519.6478" y="887.2637">SSE collection-status</text><text fill="#000000" font-family="sans-serif" font-size="11" lengthAdjust="spacing" textLength="235.1626" x="519.6478" y="900.2188">UserJobDescriptionScrapingStatusConsumer</text><text fill="#000000" font-family="sans-serif" font-size="11" lengthAdjust="spacing" textLength="89.9744" x="519.6478" y="913.1738">1.5&#52488; &#44036;&#44201; DB &#54260;&#47553;</text><text fill="#000000" font-family="sans-serif" font-size="11" lengthAdjust="spacing" textLength="200.8471" x="519.6478" y="926.1289">&#49345;&#53468; &#48320;&#54868;: COLLECTING -&gt; COLLECTED</text><rect fill="#E8F4FD" height="45.9102" rx="12.5" ry="12.5" style="stroke:#2196F3;stroke-width:0.5;" width="138.3765" x="568.0408" y="958.4492"/><text fill="#000000" font-family="sans-serif" font-size="11" lengthAdjust="spacing" textLength="83.0809" x="578.0408" y="979.084">&#49828;&#53356;&#47000;&#54609; &#50756;&#47308; &#50508;&#47548;</text><text fill="#000000" font-family="sans-serif" font-size="11" lengthAdjust="spacing" textLength="118.3765" x="578.0408" y="992.0391">JdDetailPage.tsx&#47196; &#51060;&#46041;</text><rect fill="#E8F4FD" height="32.9551" rx="12.5" ry="12.5" style="stroke:#2196F3;stroke-width:0.5;" width="138.3765" x="799.1579" y="790.9434"/><text fill="#000000" font-family="sans-serif" font-size="11" lengthAdjust="spacing" textLength="118.3765" x="809.1579" y="811.5781">JdDetailPage.tsx&#47196; &#51060;&#46041;</text><rect fill="#E8F4FD" height="58.8652" rx="12.5" ry="12.5" style="stroke:#2196F3;stroke-width:0.5;" width="243.9746" x="981.8821" y="390.5723"/><text fill="#000000" font-family="sans-serif" font-size="11" lengthAdjust="spacing" textLength="223.9746" x="991.8821" y="411.207">GET /api/v1/user-job-descriptions/uuid/</text><text fill="#000000" font-family="sans-serif" font-size="11" lengthAdjust="spacing" textLength="86.3511" x="991.8821" y="424.1621">JdDetailPage.tsx</text><text fill="#000000" font-family="sans-serif" font-size="11" lengthAdjust="spacing" textLength="105.5914" x="991.8821" y="437.1172">&#52292;&#50857;&#44277;&#44256; &#49345;&#49464; &#51221;&#48372; &#54364;&#49884;</text><rect fill="#E8F4FD" height="58.8652" rx="12.5" ry="12.5" style="stroke:#2196F3;stroke-width:0.5;" width="243.7651" x="806.4459" y="1223.0449"/><text fill="#000000" font-family="sans-serif" font-size="11" lengthAdjust="spacing" textLength="223.7651" x="816.4459" y="1243.6797">PUT /api/v1/user-job-descriptions/uuid/</text><text fill="#000000" font-family="sans-serif" font-size="11" lengthAdjust="spacing" textLength="157.4858" x="816.4459" y="1256.6348">title, company, requirements,</text><text fill="#000000" font-family="sans-serif" font-size="11" lengthAdjust="spacing" textLength="125.7992" x="816.4459" y="1269.5898">preferred, tech_stack &#46321;</text><rect fill="#E8F4FD" height="32.9551" rx="12.5" ry="12.5" style="stroke:#2196F3;stroke-width:0.5;" width="262.0537" x="797.3016" y="1416.2979"/><text fill="#000000" font-family="sans-serif" font-size="11" lengthAdjust="spacing" textLength="242.0537" x="807.3016" y="1436.9326">DELETE /api/v1/user-job-descriptions/uuid/</text><rect fill="#E8F4FD" height="45.9102" rx="12.5" ry="12.5" style="stroke:#2196F3;stroke-width:0.5;" width="122.1109" x="867.273" y="1544.1855"/><text fill="#000000" font-family="sans-serif" font-size="11" lengthAdjust="spacing" textLength="76.3608" x="877.273" y="1564.8203">navigate("/jd")</text><text fill="#000000" font-family="sans-serif" font-size="11" lengthAdjust="spacing" textLength="102.1109" x="877.273" y="1577.7754">&#52292;&#50857;&#44277;&#44256; &#47785;&#47197;&#51004;&#47196; &#48373;&#44480;</text><ellipse cx="928.3285" cy="1621.0957" fill="none" rx="11" ry="11" style="stroke:#222222;stroke-width:1;"/><ellipse cx="928.3285" cy="1621.0957" fill="#222222" rx="6" ry="6" style="stroke:#222222;stroke-width:1;"/><line style="stroke:#000000;stroke-width:1.5;" x1="503.6478" x2="503.6478" y1="64.9766" y2="1774.9609"/><rect fill="#FFF8E1" height="1709.9844" style="stroke:#FFF8E1;stroke-width:1;" width="433.294" x="1229.8567" y="64.9766"/><rect fill="#E8F4FD" height="84.7754" rx="12.5" ry="12.5" style="stroke:#2196F3;stroke-width:0.5;" width="246.1392" x="1235.8567" y="561.2578"/><text fill="#000000" font-family="sans-serif" font-size="11" lengthAdjust="spacing" textLength="226.1392" x="1245.8567" y="581.8926">CreateUserJobDescriptionService.execute()</text><text fill="#000000" font-family="sans-serif" font-size="11" lengthAdjust="spacing" textLength="134.4065" x="1245.8567" y="594.8477">- UserJobDescription &#49373;&#49457;</text><text fill="#000000" font-family="sans-serif" font-size="11" lengthAdjust="spacing" textLength="106.9653" x="1252.8176" y="607.8027">status: COLLECTING</text><text fill="#000000" font-family="sans-serif" font-size="11" lengthAdjust="spacing" textLength="69.274" x="1245.8567" y="620.7578">- URL &#51228;&#44277; &#49884;:</text><text fill="#000000" font-family="sans-serif" font-size="11" lengthAdjust="spacing" textLength="170.2108" x="1252.8176" y="633.7129">Scraping Worker&#50640; &#53468;&#49828;&#53356; &#46356;&#49828;&#54056;&#52824;</text><polygon fill="#E8F4FD" points="1325.6145,666.0332,1392.238,666.0332,1404.238,678.0332,1392.238,690.0332,1325.6145,690.0332,1313.6145,678.0332,1325.6145,666.0332" style="stroke:#2196F3;stroke-width:0.5;"/><text fill="#000000" font-family="sans-serif" font-size="11" lengthAdjust="spacing" textLength="66.6235" x="1325.6145" y="682.1904">URL &#49828;&#53356;&#47000;&#54609;?</text><text fill="#000000" font-family="sans-serif" font-size="11" lengthAdjust="spacing" textLength="17.4829" x="1296.1316" y="675.7129">yes</text><text fill="#000000" font-family="sans-serif" font-size="11" lengthAdjust="spacing" textLength="41.5405" x="1404.238" y="675.7129">&#51649;&#51217; &#51077;&#47141;</text><rect fill="#E8F4FD" height="45.9102" rx="12.5" ry="12.5" style="stroke:#2196F3;stroke-width:0.5;" width="167.0717" x="1390.949" y="710.0332"/><text fill="#000000" font-family="sans-serif" font-size="11" lengthAdjust="spacing" textLength="147.0717" x="1400.949" y="730.668">UserJobDescription &#48148;&#47196; &#49373;&#49457;</text><text fill="#000000" font-family="sans-serif" font-size="11" lengthAdjust="spacing" textLength="101.9219" x="1400.949" y="743.623">status: COLLECTED</text><polygon fill="#E8F4FD" points="1358.9263,1014.3594,1370.9263,1026.3594,1358.9263,1038.3594,1346.9263,1026.3594,1358.9263,1014.3594" style="stroke:#2196F3;stroke-width:0.5;"/><rect fill="#E8F4FD" height="45.9102" rx="12.5" ry="12.5" style="stroke:#2196F3;stroke-width:0.5;" width="249.3672" x="1409.7835" y="1301.9102"/><text fill="#000000" font-family="sans-serif" font-size="11" lengthAdjust="spacing" textLength="229.3672" x="1419.7835" y="1322.5449">UpdateUserJobDescriptionService.execute()</text><text fill="#000000" font-family="sans-serif" font-size="11" lengthAdjust="spacing" textLength="153.4365" x="1419.7835" y="1335.5">- UserJobDescription &#50629;&#45936;&#51060;&#53944;</text><rect fill="#E8F4FD" height="45.9102" rx="12.5" ry="12.5" style="stroke:#2196F3;stroke-width:0.5;" width="245.5" x="1411.7171" y="1469.2529"/><text fill="#000000" font-family="sans-serif" font-size="11" lengthAdjust="spacing" textLength="225.5" x="1421.7171" y="1489.8877">DeleteUserJobDescriptionService.execute()</text><text fill="#000000" font-family="sans-serif" font-size="11" lengthAdjust="spacing" textLength="60.9007" x="1421.7171" y="1502.8428">- &#49548;&#54532;&#53944; &#49325;&#51228;</text><line style="stroke:#000000;stroke-width:1.5;" x1="1229.8567" x2="1229.8567" y1="64.9766" y2="1774.9609"/><rect fill="#F3E5F5" height="1709.9844" style="stroke:#F3E5F5;stroke-width:1;" width="165.9892" x="1663.1507" y="64.9766"/><rect fill="#DCEDC8" height="136.5957" rx="12.5" ry="12.5" style="stroke:#2196F3;stroke-width:0.5;" width="155.9892" x="1669.1507" y="710.0332"/><text fill="#000000" font-family="sans-serif" font-size="11" lengthAdjust="spacing" textLength="131.0601" x="1679.1507" y="730.668">Scraping Worker (Celery)</text><text fill="#000000" font-family="sans-serif" font-size="11" lengthAdjust="spacing" textLength="83.4111" x="1679.1507" y="743.623">- &#52292;&#50857; &#49324;&#51060;&#53944; &#51217;&#49549;</text><text fill="#000000" font-family="sans-serif" font-size="11" lengthAdjust="spacing" textLength="62.7346" x="1679.1507" y="756.5781">- HTML &#54028;&#49905;</text><text fill="#000000" font-family="sans-serif" font-size="11" lengthAdjust="spacing" textLength="54.8661" x="1679.1507" y="769.5332">- &#51221;&#48372; &#52628;&#52636;:</text><text fill="#000000" font-family="sans-serif" font-size="11" lengthAdjust="spacing" textLength="129.0283" x="1686.1117" y="782.4883">&#44277;&#44256; &#51228;&#47785;, &#54924;&#49324;&#47749;, &#51649;&#47924; &#49444;&#47749;,</text><text fill="#000000" font-family="sans-serif" font-size="11" lengthAdjust="spacing" textLength="93.5223" x="1686.1117" y="795.4434">&#51088;&#44201; &#50836;&#44148;, &#50864;&#45824; &#49324;&#54637;,</text><text fill="#000000" font-family="sans-serif" font-size="11" lengthAdjust="spacing" textLength="90.0419" x="1686.1117" y="808.3984">&#44540;&#47924; &#51312;&#44148;, &#44592;&#49696; &#49828;&#53469;</text><text fill="#000000" font-family="sans-serif" font-size="11" lengthAdjust="spacing" textLength="51.3857" x="1679.1507" y="821.3535">- &#44208;&#44284; &#51200;&#51109;</text><text fill="#000000" font-family="sans-serif" font-size="11" lengthAdjust="spacing" textLength="126.876" x="1679.1507" y="834.3086">- status -&gt; COLLECTED</text><line style="stroke:#000000;stroke-width:1.5;" x1="1663.1507" x2="1663.1507" y1="64.9766" y2="1774.9609"/><line style="stroke:#000000;stroke-width:1.5;" x1="1829.1399" x2="1829.1399" y1="64.9766" y2="1774.9609"/><line style="stroke:#555555;stroke-width:1;" x1="263.4455" x2="263.4455" y1="102.9316" y2="122.9316"/><polygon fill="#555555" points="259.4455,112.9316,263.4455,122.9316,267.4455,112.9316,263.4455,116.9316" style="stroke:#555555;stroke-width:1;"/><line style="stroke:#555555;stroke-width:1;" x1="87.9046" x2="87.9046" y1="370.5723" y2="403.5273"/><polygon fill="#555555" points="83.9046,393.5273,87.9046,403.5273,91.9046,393.5273,87.9046,397.5273" style="stroke:#555555;stroke-width:1;"/><line style="stroke:#555555;stroke-width:1;" x1="223.5974" x2="87.9046" y1="292.6621" y2="292.6621"/><line style="stroke:#555555;stroke-width:1;" x1="87.9046" x2="87.9046" y1="292.6621" y2="324.6621"/><polygon fill="#555555" points="83.9046,314.6621,87.9046,324.6621,91.9046,314.6621,87.9046,318.6621" style="stroke:#555555;stroke-width:1;"/><line style="stroke:#555555;stroke-width:1;" x1="303.2935" x2="438.5923" y1="292.6621" y2="292.6621"/><line style="stroke:#555555;stroke-width:1;" x1="438.5923" x2="438.5923" y1="292.6621" y2="324.6621"/><polygon fill="#555555" points="434.5923,314.6621,438.5923,324.6621,442.5923,314.6621,438.5923,318.6621" style="stroke:#555555;stroke-width:1;"/><line style="stroke:#555555;stroke-width:1;" x1="263.4455" x2="263.4455" y1="1072.3594" y2="1092.3594"/><polygon fill="#555555" points="259.4455,1082.3594,263.4455,1092.3594,267.4455,1082.3594,263.4455,1086.3594" style="stroke:#555555;stroke-width:1;"/><line style="stroke:#555555;stroke-width:1;" x1="287.4455" x2="404.0783" y1="1379.8203" y2="1379.8203"/><polygon fill="#555555" points="400.0783,1514.1855,404.0783,1524.1855,408.0783,1514.1855,404.0783,1518.1855" style="stroke:#555555;stroke-width:1;"/><line style="stroke:#555555;stroke-width:1;" x1="404.0783" x2="404.0783" y1="1379.8203" y2="1654.0957"/><line style="stroke:#555555;stroke-width:1;" x1="404.0783" x2="263.4455" y1="1654.0957" y2="1654.0957"/><line style="stroke:#555555;stroke-width:1;" x1="263.4455" x2="263.4455" y1="1654.0957" y2="1674.0957"/><polygon fill="#555555" points="259.4455,1664.0957,263.4455,1674.0957,267.4455,1664.0957,263.4455,1668.0957" style="stroke:#555555;stroke-width:1;"/><line style="stroke:#555555;stroke-width:1;" x1="263.4455" x2="263.4455" y1="1732.9609" y2="1752.9609"/><polygon fill="#555555" points="259.4455,1742.9609,263.4455,1752.9609,267.4455,1742.9609,263.4455,1746.9609" style="stroke:#555555;stroke-width:1;"/><line style="stroke:#555555;stroke-width:1;" x1="637.2291" x2="637.2291" y1="938.4492" y2="958.4492"/><polygon fill="#555555" points="633.2291,948.4492,637.2291,958.4492,641.2291,948.4492,637.2291,952.4492" style="stroke:#555555;stroke-width:1;"/><line style="stroke:#555555;stroke-width:1;" x1="928.3285" x2="928.3285" y1="1590.0957" y2="1610.0957"/><polygon fill="#555555" points="924.3285,1600.0957,928.3285,1610.0957,932.3285,1600.0957,928.3285,1604.0957" style="stroke:#555555;stroke-width:1;"/><line style="stroke:#555555;stroke-width:1;" x1="1404.238" x2="1474.4848" y1="678.0332" y2="678.0332"/><line style="stroke:#555555;stroke-width:1;" x1="1474.4848" x2="1474.4848" y1="678.0332" y2="710.0332"/><polygon fill="#555555" points="1470.4848,700.0332,1474.4848,710.0332,1478.4848,700.0332,1474.4848,704.0332" style="stroke:#555555;stroke-width:1;"/><line style="stroke:#555555;stroke-width:1;" x1="1358.9263" x2="1358.9263" y1="646.0332" y2="666.0332"/><polygon fill="#555555" points="1354.9263,656.0332,1358.9263,666.0332,1362.9263,656.0332,1358.9263,660.0332" style="stroke:#555555;stroke-width:1;"/><line style="stroke:#555555;stroke-width:1;" x1="263.4455" x2="263.4455" y1="155.8867" y2="160.8867"/><line style="stroke:#555555;stroke-width:1;" x1="263.4455" x2="928.3285" y1="160.8867" y2="160.8867"/><line style="stroke:#555555;stroke-width:1;" x1="928.3285" x2="928.3285" y1="160.8867" y2="175.8867"/><polygon fill="#555555" points="924.3285,165.8867,928.3285,175.8867,932.3285,165.8867,928.3285,169.8867" style="stroke:#555555;stroke-width:1;"/><line style="stroke:#555555;stroke-width:1;" x1="87.9046" x2="87.9046" y1="475.3477" y2="480.3477"/><line style="stroke:#555555;stroke-width:1;" x1="87.9046" x2="752.7876" y1="480.3477" y2="480.3477"/><line style="stroke:#555555;stroke-width:1;" x1="752.7876" x2="752.7876" y1="480.3477" y2="495.3477"/><polygon fill="#555555" points="748.7876,485.3477,752.7876,495.3477,756.7876,485.3477,752.7876,489.3477" style="stroke:#555555;stroke-width:1;"/><line style="stroke:#555555;stroke-width:1;" x1="752.7876" x2="752.7876" y1="541.2578" y2="546.2578"/><line style="stroke:#555555;stroke-width:1;" x1="752.7876" x2="1358.9263" y1="546.2578" y2="546.2578"/><line style="stroke:#555555;stroke-width:1;" x1="1358.9263" x2="1358.9263" y1="546.2578" y2="561.2578"/><polygon fill="#555555" points="1354.9263,551.2578,1358.9263,561.2578,1362.9263,551.2578,1358.9263,555.2578" style="stroke:#555555;stroke-width:1;"/><line style="stroke:#555555;stroke-width:1;" x1="1747.1453" x2="1747.1453" y1="846.6289" y2="851.6289"/><line style="stroke:#555555;stroke-width:1;" x1="1747.1453" x2="637.2291" y1="851.6289" y2="851.6289"/><line style="stroke:#555555;stroke-width:1;" x1="637.2291" x2="637.2291" y1="851.6289" y2="866.6289"/><polygon fill="#555555" points="633.2291,856.6289,637.2291,866.6289,641.2291,856.6289,637.2291,860.6289" style="stroke:#555555;stroke-width:1;"/><line style="stroke:#555555;stroke-width:1;" x1="1474.4848" x2="1474.4848" y1="755.9434" y2="773.4434"/><line style="stroke:#555555;stroke-width:1;" x1="1474.4848" x2="868.3462" y1="773.4434" y2="773.4434"/><line style="stroke:#555555;stroke-width:1;" x1="868.3462" x2="868.3462" y1="773.4434" y2="790.9434"/><polygon fill="#555555" points="864.3462,780.9434,868.3462,790.9434,872.3462,780.9434,868.3462,784.9434" style="stroke:#555555;stroke-width:1;"/><line style="stroke:#555555;stroke-width:1;" x1="1313.6145" x2="1301.6145" y1="678.0332" y2="678.0332"/><line style="stroke:#555555;stroke-width:1;" x1="1301.6145" x2="1301.6145" y1="678.0332" y2="696.0332"/><line style="stroke:#555555;stroke-width:1;" x1="1301.6145" x2="1747.1453" y1="696.0332" y2="696.0332"/><line style="stroke:#555555;stroke-width:1;" x1="1747.1453" x2="1747.1453" y1="696.0332" y2="710.0332"/><polygon fill="#555555" points="1743.1453,700.0332,1747.1453,710.0332,1751.1453,700.0332,1747.1453,704.0332" style="stroke:#555555;stroke-width:1;"/><line style="stroke:#555555;stroke-width:1;" x1="637.2291" x2="637.2291" y1="1004.3594" y2="1026.3594"/><line style="stroke:#555555;stroke-width:1;" x1="637.2291" x2="1346.9263" y1="1026.3594" y2="1026.3594"/><polygon fill="#555555" points="1336.9263,1022.3594,1346.9263,1026.3594,1336.9263,1030.3594,1340.9263,1026.3594" style="stroke:#555555;stroke-width:1;"/><line style="stroke:#555555;stroke-width:1;" x1="868.3462" x2="868.3462" y1="823.8984" y2="1008.3594"/><line style="stroke:#555555;stroke-width:1;" x1="868.3462" x2="1388.9263" y1="1008.3594" y2="1008.3594"/><line style="stroke:#555555;stroke-width:1;" x1="1388.9263" x2="1388.9263" y1="1008.3594" y2="1026.3594"/><line style="stroke:#555555;stroke-width:1;" x1="1388.9263" x2="1370.9263" y1="1026.3594" y2="1026.3594"/><polygon fill="#555555" points="1380.9263,1022.3594,1370.9263,1026.3594,1380.9263,1030.3594,1376.9263,1026.3594" style="stroke:#555555;stroke-width:1;"/><line style="stroke:#555555;stroke-width:1;" x1="438.5923" x2="438.5923" y1="357.6172" y2="375.1172"/><line style="stroke:#555555;stroke-width:1;" x1="438.5923" x2="1103.8694" y1="375.1172" y2="375.1172"/><line style="stroke:#555555;stroke-width:1;" x1="1103.8694" x2="1103.8694" y1="375.1172" y2="390.5723"/><polygon fill="#555555" points="1099.8694,380.5723,1103.8694,390.5723,1107.8694,380.5723,1103.8694,384.5723" style="stroke:#555555;stroke-width:1;"/><line style="stroke:#555555;stroke-width:1;" x1="1358.9263" x2="1358.9263" y1="1038.3594" y2="1042.3594"/><line style="stroke:#555555;stroke-width:1;" x1="1358.9263" x2="233.4455" y1="1042.3594" y2="1042.3594"/><line style="stroke:#555555;stroke-width:1;" x1="233.4455" x2="233.4455" y1="1042.3594" y2="1060.3594"/><line style="stroke:#555555;stroke-width:1;" x1="233.4455" x2="251.4455" y1="1060.3594" y2="1060.3594"/><polygon fill="#555555" points="241.4455,1056.3594,251.4455,1060.3594,241.4455,1064.3594,245.4455,1060.3594" style="stroke:#555555;stroke-width:1;"/><line style="stroke:#555555;stroke-width:1;" x1="1103.8694" x2="1103.8694" y1="449.4375" y2="1060.3594"/><line style="stroke:#555555;stroke-width:1;" x1="1103.8694" x2="275.4455" y1="1060.3594" y2="1060.3594"/><polygon fill="#555555" points="285.4455,1056.3594,275.4455,1060.3594,285.4455,1064.3594,281.4455,1060.3594" style="stroke:#555555;stroke-width:1;"/><line style="stroke:#555555;stroke-width:1;" x1="928.3285" x2="928.3285" y1="260.6621" y2="265.6621"/><line style="stroke:#555555;stroke-width:1;" x1="928.3285" x2="263.4455" y1="265.6621" y2="265.6621"/><line style="stroke:#555555;stroke-width:1;" x1="263.4455" x2="263.4455" y1="265.6621" y2="280.6621"/><polygon fill="#555555" points="259.4455,270.6621,263.4455,280.6621,267.4455,270.6621,263.4455,274.6621" style="stroke:#555555;stroke-width:1;"/><line style="stroke:#555555;stroke-width:1;" x1="263.4455" x2="263.4455" y1="1203.0449" y2="1208.0449"/><line style="stroke:#555555;stroke-width:1;" x1="263.4455" x2="928.3285" y1="1208.0449" y2="1208.0449"/><line style="stroke:#555555;stroke-width:1;" x1="928.3285" x2="928.3285" y1="1208.0449" y2="1223.0449"/><polygon fill="#555555" points="924.3285,1213.0449,928.3285,1223.0449,932.3285,1213.0449,928.3285,1217.0449" style="stroke:#555555;stroke-width:1;"/><line style="stroke:#555555;stroke-width:1;" x1="928.3285" x2="928.3285" y1="1281.9102" y2="1286.9102"/><line style="stroke:#555555;stroke-width:1;" x1="928.3285" x2="1534.4671" y1="1286.9102" y2="1286.9102"/><line style="stroke:#555555;stroke-width:1;" x1="1534.4671" x2="1534.4671" y1="1286.9102" y2="1301.9102"/><polygon fill="#555555" points="1530.4671,1291.9102,1534.4671,1301.9102,1538.4671,1291.9102,1534.4671,1295.9102" style="stroke:#555555;stroke-width:1;"/><line style="stroke:#555555;stroke-width:1;" x1="928.3285" x2="928.3285" y1="1449.2529" y2="1454.2529"/><line style="stroke:#555555;stroke-width:1;" x1="928.3285" x2="1534.4671" y1="1454.2529" y2="1454.2529"/><line style="stroke:#555555;stroke-width:1;" x1="1534.4671" x2="1534.4671" y1="1454.2529" y2="1469.2529"/><polygon fill="#555555" points="1530.4671,1459.2529,1534.4671,1469.2529,1538.4671,1459.2529,1534.4671,1463.2529" style="stroke:#555555;stroke-width:1;"/><line style="stroke:#555555;stroke-width:1;" x1="1534.4671" x2="1534.4671" y1="1515.1631" y2="1529.1855"/><line style="stroke:#555555;stroke-width:1;" x1="1534.4671" x2="928.3285" y1="1529.1855" y2="1529.1855"/><line style="stroke:#555555;stroke-width:1;" x1="928.3285" x2="928.3285" y1="1529.1855" y2="1544.1855"/><polygon fill="#555555" points="924.3285,1534.1855,928.3285,1544.1855,932.3285,1534.1855,928.3285,1538.1855" style="stroke:#555555;stroke-width:1;"/><line style="stroke:#555555;stroke-width:1;" x1="263.4455" x2="263.4455" y1="1391.8203" y2="1404.0591"/><line style="stroke:#555555;stroke-width:1;" x1="263.4455" x2="928.3285" y1="1404.0591" y2="1404.0591"/><line style="stroke:#555555;stroke-width:1;" x1="928.3285" x2="928.3285" y1="1404.0591" y2="1416.2979"/><polygon fill="#555555" points="924.3285,1406.2979,928.3285,1416.2979,932.3285,1406.2979,928.3285,1410.2979" style="stroke:#555555;stroke-width:1;"/><line style="stroke:#555555;stroke-width:1;" x1="1534.4671" x2="1534.4671" y1="1347.8203" y2="1352.8203"/><line style="stroke:#555555;stroke-width:1;" x1="1534.4671" x2="263.4455" y1="1352.8203" y2="1352.8203"/><line style="stroke:#555555;stroke-width:1;" x1="263.4455" x2="263.4455" y1="1352.8203" y2="1367.8203"/><polygon fill="#555555" points="259.4455,1357.8203,263.4455,1367.8203,267.4455,1357.8203,263.4455,1361.8203" style="stroke:#555555;stroke-width:1;"/><text fill="#000000" font-family="sans-serif" font-size="11" lengthAdjust="spacing" textLength="28.545" x="245.0514" y="75.6113">&#49324;&#50857;&#51088;</text><text fill="#000000" font-family="sans-serif" font-size="11" lengthAdjust="spacing" textLength="47.9746" x="842.7649" y="75.6113">Frontend</text><text fill="#000000" font-family="sans-serif" font-size="11" lengthAdjust="spacing" textLength="64.6626" x="1414.1724" y="75.6113">Backend API</text><text fill="#000000" font-family="sans-serif" font-size="11" lengthAdjust="spacing" textLength="51.0555" x="1720.6176" y="75.6113">&#48708;&#46041;&#44592; &#52376;&#47532;</text><g class="legend" data-source-line="94"><rect fill="none" height="161.9063" rx="7.5" ry="7.5" style="stroke:#000000;stroke-width:1;" width="223.2337" x="1599.6465" y="1786.9609"/><text fill="#000000" font-family="sans-serif" font-size="14" lengthAdjust="spacing" textLength="52.8697" x="1604.6465" y="1805.4961">&#49353;&#49345; &#48276;&#47168;</text><line style="stroke:#000000;stroke-width:1;stroke-dasharray:1,2;" x1="1599.6465" x2="1822.8802" y1="1813.4492" y2="1813.4492"/><text fill="#000000" font-family="sans-serif" font-size="14" lengthAdjust="spacing" textLength="121.298" x="1604.6465" y="1831.9844">&#49324;&#50857;&#51088; = &#49324;&#50857;&#51088; &#50529;&#49496;</text><text fill="#000000" font-family="sans-serif" font-size="14" lengthAdjust="spacing" textLength="170.7552" x="1604.6465" y="1848.4727">Frontend = Frontend &#52376;&#47532;</text><text fill="#000000" font-family="sans-serif" font-size="14" lengthAdjust="spacing" textLength="213.2337" x="1604.6465" y="1864.9609">Backend API = Backend API &#54840;&#52636;</text><text fill="#000000" font-family="sans-serif" font-size="14" lengthAdjust="spacing" textLength="208.8633" x="1604.6465" y="1881.4492">&#48708;&#46041;&#44592; &#52376;&#47532; = Celery &#48708;&#46041;&#44592; &#53468;&#49828;&#53356;</text><text fill="#000000" font-family="sans-serif" font-size="14" lengthAdjust="spacing" textLength="187.667" x="1604.6465" y="1897.9375">DCEDC8 = Scraping Worker</text><line style="stroke:#000000;stroke-width:1;stroke-dasharray:1,2;" x1="1599.6465" x2="1822.8802" y1="1905.8906" y2="1905.8906"/><text fill="#000000" font-family="sans-serif" font-size="14" lengthAdjust="spacing" textLength="122.2791" x="1604.6465" y="1924.4258">&#51648;&#50896; &#49828;&#53356;&#47000;&#54609; &#49324;&#51060;&#53944;:</text><text fill="#000000" font-family="sans-serif" font-size="14" lengthAdjust="spacing" textLength="212.6578" x="1604.6465" y="1940.9141">&#49324;&#46988;&#51064;, &#51105;&#53076;&#47532;&#50500;, &#50896;&#54000;&#46300;, &#51105;&#54540;&#47000;&#45787; &#46321;</text></g><g class="footer" data-source-line="107"><text fill="#888888" font-family="sans-serif" font-size="10" lengthAdjust="spacing" textLength="258.8822" x="792.999" y="1971.5352">MeFit &#53076;&#46300; &#44592;&#48152; Activity Diagram - job description flow</text></g><?plantuml-src fLTVJnj747_tfnYHXsB9u9A4YXYrLMBVvOz8WsfGNonLnhSu5yoTUpwJKFd1m14HS1fGRCKGWsoLG8b0Ei1978b-8U_UT-ZitTcvCuw8LFDokpixEtz-yvj1b_KCWOT4b7LWfmRREMgVVsYVrw7TBDA3Ox1sD-c1aL06wUjJsjY5CB3rVMlfcEvLhSeMBgs_MknmAnW8vEPa9PlKalCmaqpDfJKrhqXHDQDgS4qK-9z7GYApoNn65rL5Zyj_4XWPyHpUJkdoWgmltkbL8uo9DyLOFqbLauZcIbqVkVM3UCChfMdgK_TmrFvv3cDoSbvLf4jlYQ9uAtgpZw3tAV5EzFlhiK2WS4su8LuNOmMsV8mHP7kR1Rut9euAjmgYXbuIHU9Rg7LC62dmrt07Ra_UjtTl2AFYQ85-DkYhxNRB17PMnTWNKB57OKvFQdeWSa-T9t5P8ZD93TYRJMRKOC2Rk06WHsNweWdMKfCUd8oZaYyMH1v84t9EdqocoR2UUvPGxWfJ44vcvV32I3YV8zhG4tLcI2Avb2PdTLbLSk64ueC5VN_4OS0QfhLJIYXMnR0CanukHO2jB5ahjH1Oo_liROc-ha7xhCXMNYIKU5n0KytscObIQrM42x3zBN0rElV0sggnZTgutsTv5WRPofeFcJy7GNzC570HYSW3YFX20EnZkMqMCH9dXhL-uKOYeJoGRajIn_TnVi_x5chnAPd-TGBOtYgjlyCGB2FWIsot5SAj1lktZEbX5GDNRpUj3HET3Q7GNiCgbx0mwCRR461CU9cyhk4jG5CJ2grkqlKoiCCbLjzoLJjMV4aG6Z7vA7vrJl9Q1bnzEg_W4AJK-MnIMUHFEKfz84EzKOqaTJAD2X-eCx4lwk94Mv1JP9Wy8wcyJWQ32MK8BejXddQPWMu081BrV2u2qKSJ4q9qwlulT-qhF5xr6aOFC94HBXXFQUY7aeRVL6sEQ0XNm5Gx10AqNEPVfN_OvwfjCK-shSH3CDraBv9S46NGhyjbmhUlnQ92B3eMwNaI1gCaGxH5soadlS1pljkqrbjexXPx_f8VtPjwE05MgSGsJct9UeMUDpcEs4V7bGwowZMi00JvJebZulrgYEUJ7gEiiS-NN1RXr3x3TtRAxTCc2koOj5JaprgL4rkW_Ud2lj8mRG7qXQtLRRzNTldpM2djymjyhCZstl4D9-8mz5CdvaBC3baFTZ3BlDPIQYP3KZnfGyx5XD8dxMwWuhP4566LdoTQGXaP7cNDDMYR1lSXTWUiLqt4CiBRgLDwNhIsozxazpChukiIRDkWVvU0LKhqu8BNOOpeIJdJAKNQg05c1BCwZfT99aUmwhrLucQ-1z7uIX-OKhDiwtFHseFLhyRj2fiKIPuD11pJUBeQJHyd1Q_W4eSrNRfcHXtptAVohoRZV5wMmfS3sCFHc2bcj3eWxX2hwyDt_ZRlj6y_w_fjxzG24dUzuXG7hm7-rQq2Uzkj0qJzXsC7xFQs5_qsk2-XtLiDFVrgSleRG-9dmH1ev8-yh95vekWvhBciHcQ9fX4f13f9FVuTOP6QSxdIZwl8T5RwVppvPfM-D1s6wTVEbaymW7vUkuI4c30XJ0dVudb_heyXwNsp3-nvoIeRDX_QjlL1ff9SaDCObS61y1Df8DXt9c2r2ruq5FS-5MqTELtDTef6KOCT17uTQkwCwT05DuqUDMqMs2yYw_lA1mcgIDTjSkHbMd-7HsoxY6rtdtq-iIfLzkQuUztc0ZJ9CIX3qZnMcfn-hAELEA9WmU2iWBnHnFKm_lXsnqZuqVFDAWssMiNZJdZmjFlfz2CyzAG3pxqhgzh2Ze8YlLqCvPnEvJdfzagKTzeRIlKqE8_1XqMSHlpZURVLHHoFhXfYm3l3y7Jmd84Ji41WLbLrRAdkFmjudyzuBPEQrUuapiVaD1-NXm3n2Xwymcn6VVeV?></g></svg>