<?plantuml 1.2026.1?><svg xmlns="http://www.w3.org/2000/svg" xmlns:xlink="http://www.w3.org/1999/xlink" contentStyleType="text/css" data-diagram-type="STATE" height="1484px" preserveAspectRatio="none" style="width:1141px;height:1484px;background:#FEFEFE;" version="1.1" viewBox="0 0 1141 1484" width="1141px" zoomAndPan="magnify"><title>&#48120;&#54607; &#51064;&#53552;&#48624; &#49345;&#53468; &#47672;&#49888;</title><defs/><g><rect fill="#FEFEFE" height="1484" style="stroke:none;stroke-width:1;" width="1141" x="0" y="0"/><g class="title" data-source-line="1"><text fill="#000000" font-family="sans-serif" font-size="14" font-weight="bold" lengthAdjust="spacing" textLength="122.8328" x="502.3812" y="23.5352">&#48120;&#54607; &#51064;&#53552;&#48624; &#49345;&#53468; &#47672;&#49888;</text></g><g><rect fill="#E8F4FD" height="55.332" rx="12.5" ry="12.5" style="stroke:#2196F3;stroke-width:0.5;" width="122.7473" x="545.22" y="123.4883"/><line style="stroke:#2196F3;stroke-width:0.5;" x1="545.22" x2="667.9673" y1="145.2656" y2="145.2656"/><text fill="#455A64" font-family="sans-serif" font-size="10" lengthAdjust="spacing" textLength="17.6465" x="597.7704" y="138.1563">idle</text><text fill="#455A64" font-family="sans-serif" font-size="10" lengthAdjust="spacing" textLength="75.5281" x="550.22" y="159.9336">&#54168;&#51060;&#51648; &#47560;&#50868;&#53944; &#51649;&#54980;</text><text fill="#455A64" font-family="sans-serif" font-size="10" lengthAdjust="spacing" textLength="102.7473" x="550.22" y="171.7109">&#49464;&#49496;/&#48120;&#46356;&#50612; device &#45824;&#44592;</text></g><g><rect fill="#E8F4FD" height="55.332" rx="12.5" ry="12.5" style="stroke:#2196F3;stroke-width:0.5;" width="96.2822" x="508.46" y="238.8283"/><line style="stroke:#2196F3;stroke-width:0.5;" x1="508.46" x2="604.7422" y1="260.6056" y2="260.6056"/><text fill="#455A64" font-family="sans-serif" font-size="10" lengthAdjust="spacing" textLength="26.7041" x="543.2491" y="253.4962">ready</text><text fill="#455A64" font-family="sans-serif" font-size="10" lengthAdjust="spacing" textLength="76.2822" x="513.46" y="275.2736">&#48120;&#46356;&#50612; ready &#50756;&#47308;</text><text fill="#455A64" font-family="sans-serif" font-size="10" lengthAdjust="spacing" textLength="63.4086" x="513.46" y="287.0509">Start &#48260;&#53948; &#54876;&#49457;</text></g><g><rect fill="#E8F4FD" height="67.1094" rx="12.5" ry="12.5" style="stroke:#2196F3;stroke-width:0.5;" width="152.3682" x="466.41" y="354.1583"/><line style="stroke:#2196F3;stroke-width:0.5;" x1="466.41" x2="618.7782" y1="375.9356" y2="375.9356"/><text fill="#455A64" font-family="sans-serif" font-size="10" lengthAdjust="spacing" textLength="37.5244" x="523.8319" y="368.8262">starting</text><text fill="#455A64" font-family="sans-serif" font-size="10" lengthAdjust="spacing" textLength="128.1836" x="471.41" y="390.6036">startInterview API in-flight</text><text fill="#455A64" font-family="sans-serif" font-size="10" lengthAdjust="spacing" textLength="132.3682" x="471.41" y="402.3809">entry / startVideoAnalysis()</text><text fill="#455A64" font-family="sans-serif" font-size="10" lengthAdjust="spacing" textLength="111.7871" x="471.41" y="414.1583">entry / resetWarnings()</text></g><g><rect fill="#E8F4FD" height="90.6641" rx="12.5" ry="12.5" style="stroke:#2196F3;stroke-width:0.5;" width="178.6426" x="517.28" y="481.2683"/><line style="stroke:#2196F3;stroke-width:0.5;" x1="517.28" x2="695.9226" y1="503.0456" y2="503.0456"/><text fill="#455A64" font-family="sans-serif" font-size="10" lengthAdjust="spacing" textLength="52.8418" x="580.1804" y="495.9362">tts_playing</text><text fill="#455A64" font-family="sans-serif" font-size="10" lengthAdjust="spacing" textLength="119.6518" x="522.28" y="517.7136">&#51656;&#47928; TTS &#51116;&#49373; + &#50500;&#48148;&#53440; &#48156;&#54868;</text><text fill="#455A64" font-family="sans-serif" font-size="10" lengthAdjust="spacing" textLength="88.75" x="522.28" y="529.4909">entry / resetText()</text><text fill="#455A64" font-family="sans-serif" font-size="10" lengthAdjust="spacing" textLength="143.252" x="522.28" y="541.2683">entry / avatarSpeak(question)</text><text fill="#455A64" font-family="sans-serif" font-size="10" lengthAdjust="spacing" textLength="141.9189" x="522.28" y="553.0456">entry / playTtsText(question)</text><text fill="#455A64" font-family="sans-serif" font-size="10" lengthAdjust="spacing" textLength="158.6426" x="522.28" y="564.823">entry / prepareRecording(turnId)</text></g><g><rect fill="#E8F4FD" height="50" rx="12.5" ry="12.5" style="stroke:#2196F3;stroke-width:0.5;" width="152.1666" x="466.51" y="631.9283"/><line style="stroke:#2196F3;stroke-width:0.5;" x1="466.51" x2="618.6766" y1="653.7056" y2="653.7056"/><text fill="#455A64" font-family="sans-serif" font-size="10" lengthAdjust="spacing" textLength="83.5107" x="500.8379" y="646.5962">preparing_record</text><text fill="#455A64" font-family="sans-serif" font-size="10" lengthAdjust="spacing" textLength="132.1666" x="471.51" y="668.3736">TTS &#51333;&#47308; &#54980; &#45433;&#54868; &#51456;&#48708; &#50756;&#47308; &#45824;&#44592;</text></g><g class="entity" data-qualified-name="mode_choice" id="ent0007"><polygon fill="#F1F1F1" points="531.6,741.9283,543.6,753.9283,531.6,765.9283,519.6,753.9283,531.6,741.9283" style="stroke:#181818;stroke-width:0.5;"/></g><g><rect fill="#E8F4FD" height="55.332" rx="12.5" ry="12.5" style="stroke:#2196F3;stroke-width:0.5;" width="243.1934" x="139" y="825.9283"/><line style="stroke:#2196F3;stroke-width:0.5;" x1="139" x2="382.1934" y1="847.7056" y2="847.7056"/><text fill="#455A64" font-family="sans-serif" font-size="10" lengthAdjust="spacing" textLength="53.7646" x="233.7144" y="840.5962">countdown</text><text fill="#455A64" font-family="sans-serif" font-size="10" lengthAdjust="spacing" textLength="159.0731" x="144" y="862.3736">5~30&#52488; &#47004;&#45924; &#52852;&#50868;&#53944;&#45796;&#50868; (real mode)</text><text fill="#455A64" font-family="sans-serif" font-size="10" lengthAdjust="spacing" textLength="223.1934" x="144" y="874.1509">entry / setTimeout(1s) -&gt; COUNTDOWN_TICK</text></g><g><rect fill="#E8F4FD" height="50" rx="12.5" ry="12.5" style="stroke:#2196F3;stroke-width:0.5;" width="193.3432" x="434.93" y="828.5983"/><line style="stroke:#2196F3;stroke-width:0.5;" x1="434.93" x2="628.2732" y1="850.3756" y2="850.3756"/><text fill="#455A64" font-family="sans-serif" font-size="10" lengthAdjust="spacing" textLength="67.9053" x="497.6489" y="843.2662">awaiting_start</text><text fill="#455A64" font-family="sans-serif" font-size="10" lengthAdjust="spacing" textLength="173.3432" x="439.93" y="865.0436">"&#47568;&#54616;&#44592; &#49884;&#51089;" &#53364;&#47533; &#45824;&#44592; (practice mode)</text></g><g><rect fill="#E8F4FD" height="78.8867" rx="12.5" ry="12.5" style="stroke:#2196F3;stroke-width:0.5;" width="163.3984" x="449.9" y="941.2583"/><line style="stroke:#2196F3;stroke-width:0.5;" x1="449.9" x2="613.2984" y1="963.0356" y2="963.0356"/><text fill="#455A64" font-family="sans-serif" font-size="10" lengthAdjust="spacing" textLength="43.6621" x="509.7682" y="955.9262">speaking</text><text fill="#455A64" font-family="sans-serif" font-size="10" lengthAdjust="spacing" textLength="132.8451" x="454.9" y="977.7036">STT + &#45433;&#54868; + &#49884;&#49440;/&#44256;&#44060; &#52852;&#50868;&#54021;</text><text fill="#455A64" font-family="sans-serif" font-size="10" lengthAdjust="spacing" textLength="77.9688" x="454.9" y="989.4809">entry / startStt()</text><text fill="#455A64" font-family="sans-serif" font-size="10" lengthAdjust="spacing" textLength="132.4756" x="454.9" y="1001.2583">entry / startTurnCounting()</text><text fill="#455A64" font-family="sans-serif" font-size="10" lengthAdjust="spacing" textLength="143.3984" x="454.9" y="1013.0356">entry / startRecording(turnId)</text></g><g><rect fill="#E8F4FD" height="90.6641" rx="12.5" ry="12.5" style="stroke:#2196F3;stroke-width:0.5;" width="197.3193" x="507.94" y="1080.1483"/><line style="stroke:#2196F3;stroke-width:0.5;" x1="507.94" x2="705.2593" y1="1101.9256" y2="1101.9256"/><text fill="#455A64" font-family="sans-serif" font-size="10" lengthAdjust="spacing" textLength="52.6367" x="580.2813" y="1094.8162">submitting</text><text fill="#455A64" font-family="sans-serif" font-size="10" lengthAdjust="spacing" textLength="98.4555" x="512.94" y="1116.5936">&#45813;&#48320; &#51228;&#52636; + &#48177;&#50644;&#46300; &#52376;&#47532;</text><text fill="#455A64" font-family="sans-serif" font-size="10" lengthAdjust="spacing" textLength="88.999" x="512.94" y="1128.3709">handler / stopStt()</text><text fill="#455A64" font-family="sans-serif" font-size="10" lengthAdjust="spacing" textLength="143.5059" x="512.94" y="1140.1483">handler / stopTurnCounting()</text><text fill="#455A64" font-family="sans-serif" font-size="10" lengthAdjust="spacing" textLength="125.0098" x="512.94" y="1151.9256">handler / stopRecording()</text><text fill="#455A64" font-family="sans-serif" font-size="10" lengthAdjust="spacing" textLength="177.3193" x="512.94" y="1163.703">handler / submitInterviewAnswer(...)</text></g><g><rect fill="#C8E6C9" height="67.1094" rx="12.5" ry="12.5" style="stroke:#2E7D32;stroke-width:0.5;" width="198.2715" x="507.46" y="1230.8183"/><line style="stroke:#2E7D32;stroke-width:0.5;" x1="507.46" x2="705.7315" y1="1252.5956" y2="1252.5956"/><text fill="#455A64" font-family="sans-serif" font-size="10" lengthAdjust="spacing" textLength="38.833" x="587.1792" y="1245.4863">finished</text><text fill="#455A64" font-family="sans-serif" font-size="10" lengthAdjust="spacing" textLength="37.7641" x="512.46" y="1267.2636">&#47732;&#51217; &#50756;&#47308;</text><text fill="#455A64" font-family="sans-serif" font-size="10" lengthAdjust="spacing" textLength="162.5195" x="512.46" y="1279.0409">entry / cleanup all media+stt+tts</text><text fill="#455A64" font-family="sans-serif" font-size="10" lengthAdjust="spacing" textLength="178.2715" x="512.46" y="1290.8183">entry / navigate("/interview/results")</text></g><g><rect fill="#FFCDD2" height="50" rx="12.5" ry="12.5" style="stroke:#C62828;stroke-width:0.5;" width="95.5281" x="792.83" y="1239.3683"/><line style="stroke:#C62828;stroke-width:0.5;" x1="792.83" x2="888.3581" y1="1261.1456" y2="1261.1456"/><text fill="#455A64" font-family="sans-serif" font-size="10" lengthAdjust="spacing" textLength="23.9893" x="828.5994" y="1254.0362">error</text><text fill="#455A64" font-family="sans-serif" font-size="10" lengthAdjust="spacing" textLength="75.5281" x="797.83" y="1275.8136">&#48373;&#44396; &#48520;&#44032;&#45733;&#54620; &#50724;&#47448;</text></g><ellipse cx="606.6" cy="53.4883" fill="#222222" rx="10" ry="10" style="stroke:#222222;stroke-width:1;"/><ellipse cx="606.6" cy="1408.2683" fill="none" rx="11" ry="11" style="stroke:#222222;stroke-width:1;"/><ellipse cx="606.6" cy="1408.2683" fill="#222222" rx="6" ry="6" style="stroke:#222222;stroke-width:1;"/><g class="entity" data-qualified-name="GMN2" data-source-line="105" id="ent0003"><path d="M652.59,1357.9183 L652.59,1458.6038 A0,0 0 0 0 652.59,1458.6038 L1134.5952,1458.6038 A0,0 0 0 0 1134.5952,1458.6038 L1134.5952,1367.9183 L1124.5952,1357.9183 L860.52,1357.9183 L856.52,1289.7583 L852.52,1357.9183 L652.59,1357.9183 A0,0 0 0 0 652.59,1357.9183" fill="#FEFFDD" style="stroke:#181818;stroke-width:0.5;"/><path d="M1124.5952,1357.9183 L1124.5952,1367.9183 L1134.5952,1367.9183 L1124.5952,1357.9183" fill="#FEFFDD" style="stroke:#181818;stroke-width:0.5;"/><text fill="#000000" font-family="sans-serif" font-size="11" lengthAdjust="spacing" textLength="191.1476" x="658.59" y="1373.553">&#9733; &#51068;&#49884;&#51473;&#51648;(Pause/Resume)&#45716; &#51060; &#47672;&#49888;&#44284;</text><text fill="#000000" font-family="sans-serif" font-size="11" font-weight="bold" lengthAdjust="spacing" textLength="62.2832" x="853.218" y="1373.553">orthogonal</text><text fill="#000000" font-family="sans-serif" font-size="11" lengthAdjust="spacing" textLength="41.5405" x="918.9817" y="1373.553">&#54633;&#45768;&#45796; &#9733;</text><text fill="#000000" font-family="sans-serif" font-size="11" lengthAdjust="spacing" textLength="416.5129" x="658.59" y="1386.5081">&#8226; Zustand store `useInterviewSessionStore.isPaused` &#50640;&#49436; &#48324;&#46020; &#44288;&#47532; (Machine B)</text><text fill="#000000" font-family="sans-serif" font-size="11" lengthAdjust="spacing" textLength="372.707" x="658.59" y="1399.4632">&#8226; speaking / tts_playing / submitting &#46321; &#50612;&#46500; &#49345;&#53468;&#50640;&#49436;&#46020; paused &#54876;&#49457; &#44032;&#45733;</text><text fill="#000000" font-family="sans-serif" font-size="11" lengthAdjust="spacing" textLength="385.1275" x="658.59" y="1412.4183">&#8226; &#45433;&#54868;(MediaRecorder)&#45716; paused &#49884; MediaRecorder.pause() &#47196; &#54632;&#44760; &#51473;&#45800;&#46104;&#44256;,</text><text fill="#000000" font-family="sans-serif" font-size="11" lengthAdjust="spacing" textLength="454.0443" x="665.5509" y="1425.3734">resume &#49884; MediaRecorder.resume() &#51004;&#47196; &#44057;&#51008; instance &#50640;&#49436; &#51060;&#50612;&#49436; &#45433;&#54868;&#46120; (FR-INT-17~19)</text><text fill="#000000" font-family="sans-serif" font-size="11" lengthAdjust="spacing" textLength="296.5473" x="658.59" y="1438.3284">&#8226; &#51088;&#49464;&#54620; &#47588;&#53944;&#47533;&#49828; + &#49444;&#44228; &#51032;&#46020;: state-interview-machine.md</text><text fill="#000000" font-family="sans-serif" font-size="11" lengthAdjust="spacing" textLength="349.8228" x="658.59" y="1451.2835">&#8226; &#49884;&#44033;&#54868;: state-interview-pause-resume.puml (Machine B &#51649;&#44368; &#47672;&#49888;)</text></g><!--link *start* to idle--><g class="link" data-entity-1="ent0002" data-entity-2="ent0002" data-link-type="dependency" data-source-line="27" id="lnk3"><path d="M606.6,63.9483 C606.6,78.0183 606.6,97.5783 606.6,117.4083" fill="none" id="*start*-to-idle" style="stroke:#555555;stroke-width:1;"/><polygon fill="#555555" points="606.6,123.4083,610.6,114.4083,606.6,118.4083,602.6,114.4083,606.6,123.4083" style="stroke:#555555;stroke-width:1;"/></g><!--link idle to ready--><g class="link" data-entity-1="ent0002" data-entity-2="ent0003" data-link-type="dependency" data-source-line="82" id="lnk4"><path d="M574.98,179.0783 C574.98,197.0783 574.98,214.3983 574.98,232.4283" fill="none" id="idle-to-ready" style="stroke:#555555;stroke-width:1;"/><polygon fill="#555555" points="574.98,238.4283,578.98,229.4283,574.98,233.4283,570.98,229.4283,574.98,238.4283" style="stroke:#555555;stroke-width:1;"/><text fill="#000000" font-family="sans-serif" font-size="11" lengthAdjust="spacing" textLength="75.5337" x="498.98" y="206.393">MEDIA_READY</text></g><!--link idle to tts--><g class="link" data-entity-1="ent0002" data-entity-2="ent0005" data-link-type="dependency" data-source-line="83" id="lnk5"><path d="M643.38,179.0683 C643.38,243.3083 643.38,396.1183 643.38,474.8483" fill="none" id="idle-to-tts" style="stroke:#555555;stroke-width:1;"/><polygon fill="#555555" points="643.38,480.8483,647.38,471.8483,643.38,475.8483,639.38,471.8483,643.38,480.8483" style="stroke:#555555;stroke-width:1;"/><text fill="#000000" font-family="sans-serif" font-size="11" lengthAdjust="spacing" textLength="134.7393" x="508.38" y="341.593">RESUME(turnId, question)</text></g><!--link ready to starting--><g class="link" data-entity-1="ent0003" data-entity-2="ent0004" data-link-type="dependency" data-source-line="85" id="lnk6"><path d="M556.6,294.6083 C556.6,312.2283 556.6,329.0583 556.6,347.7083" fill="none" id="ready-to-starting" style="stroke:#555555;stroke-width:1;"/><polygon fill="#555555" points="556.6,353.7083,560.6,344.7083,556.6,348.7083,552.6,344.7083,556.6,353.7083" style="stroke:#555555;stroke-width:1;"/><text fill="#000000" font-family="sans-serif" font-size="11" lengthAdjust="spacing" textLength="34.3804" x="521.6" y="321.793">START</text></g><!--link starting to tts--><g class="link" data-entity-1="ent0004" data-entity-2="ent0005" data-link-type="dependency" data-source-line="86" id="lnk7"><path d="M568.03,421.6883 C568.03,439.5183 568.03,455.6083 568.03,474.9083" fill="none" id="starting-to-tts" style="stroke:#555555;stroke-width:1;"/><polygon fill="#555555" points="568.03,480.9083,572.03,471.9083,568.03,475.9083,564.03,471.9083,568.03,480.9083" style="stroke:#555555;stroke-width:1;"/><text fill="#000000" font-family="sans-serif" font-size="11" lengthAdjust="spacing" textLength="106.4121" x="461.03" y="448.933">QUESTION_ARRIVED</text></g><!--link tts to prep--><g class="link" data-entity-1="ent0005" data-entity-2="ent0006" data-link-type="dependency" data-source-line="87" id="lnk8"><path d="M567.98,572.1783 C567.98,592.1483 567.98,608.8183 567.98,625.6883" fill="none" id="tts-to-prep" style="stroke:#555555;stroke-width:1;"/><polygon fill="#555555" points="567.98,631.6883,571.98,622.6883,567.98,626.6883,563.98,622.6883,567.98,631.6883" style="stroke:#555555;stroke-width:1;"/><text fill="#000000" font-family="sans-serif" font-size="11" lengthAdjust="spacing" textLength="56.2085" x="510.98" y="599.573">TTS_DONE</text></g><!--link prep to mode_choice--><g class="link" data-entity-1="ent0006" data-entity-2="ent0007" data-link-type="dependency" data-source-line="88" id="lnk9"><path d="M531.6,682.4183 C531.6,701.3883 531.6,720.4783 531.6,735.3383" fill="none" id="prep-to-mode_choice" style="stroke:#555555;stroke-width:1;"/><polygon fill="#555555" points="531.6,741.3383,535.6,732.3383,531.6,736.3383,527.6,732.3383,531.6,741.3383" style="stroke:#555555;stroke-width:1;"/><text fill="#000000" font-family="sans-serif" font-size="11" lengthAdjust="spacing" textLength="104.6128" x="426.6" y="709.513">RECORDING_READY</text></g><!--link mode_choice to cd--><g class="link" data-entity-1="ent0007" data-entity-2="ent0008" data-link-type="dependency" data-source-line="90" id="lnk10"><path d="M519.53,753.6083 C472.11,753.6083 301.13,753.6083 301.13,753.6083 C301.13,753.6083 301.13,789.9083 301.13,819.4783" fill="none" id="mode_choice-to-cd" style="stroke:#555555;stroke-width:1;"/><polygon fill="#555555" points="301.13,825.4783,305.13,816.4783,301.13,820.4783,297.13,816.4783,301.13,825.4783" style="stroke:#555555;stroke-width:1;"/><text fill="#000000" font-family="sans-serif" font-size="11" lengthAdjust="spacing" textLength="67.563" x="306.39" y="751.243">[isRealMode]</text></g><!--link mode_choice to await_start--><g class="link" data-entity-1="ent0007" data-entity-2="ent0009" data-link-type="dependency" data-source-line="91" id="lnk11"><path d="M531.6,766.5583 C531.6,782.0583 531.6,802.7283 531.6,822.4683" fill="none" id="mode_choice-to-await_start" style="stroke:#555555;stroke-width:1;"/><polygon fill="#555555" points="531.6,828.4683,535.6,819.4683,531.6,823.4683,527.6,819.4683,531.6,828.4683" style="stroke:#555555;stroke-width:1;"/><text fill="#000000" font-family="sans-serif" font-size="11" lengthAdjust="spacing" textLength="71.0435" x="459.6" y="795.143">[!isRealMode]</text></g><!--link cd to cd--><g class="link" data-entity-1="ent0008" data-entity-2="ent0008" data-link-type="dependency" data-source-line="93" id="lnk12"><path d="M220.06,825.6183 C220.06,810.7883 220.06,795.6083 220.06,795.6083 C220.06,795.6083 121,795.6083 121,795.6083 C121,795.6083 121,911.6083 121,911.6083 C121,911.6083 301.13,911.6083 301.13,911.6083 C301.13,911.6083 301.13,902.4183 301.13,887.5783" fill="none" id="cd-to-cd" style="stroke:#555555;stroke-width:1;"/><polygon fill="#555555" points="301.13,881.5783,297.13,890.5783,301.13,886.5783,305.13,890.5783,301.13,881.5783" style="stroke:#555555;stroke-width:1;"/><text fill="#000000" font-family="sans-serif" font-size="11" lengthAdjust="spacing" textLength="103.5977" x="12" y="873.783">COUNTDOWN_TICK</text><text fill="#000000" font-family="sans-serif" font-size="11" lengthAdjust="spacing" textLength="53.6304" x="36.9836" y="886.7381">[next &gt; 0]</text></g><!--link cd to speak--><g class="link" data-entity-1="ent0008" data-entity-2="ent0010" data-link-type="dependency" data-source-line="94" id="lnk13"><path d="M220.06,881.4683 C220.06,918.8583 220.06,980.6083 220.06,980.6083 C220.06,980.6083 351.44,980.6083 443.75,980.6083" fill="none" id="cd-to-speak" style="stroke:#555555;stroke-width:1;"/><polygon fill="#555555" points="449.75,980.6083,440.75,976.6083,444.75,980.6083,440.75,984.6083,449.75,980.6083" style="stroke:#555555;stroke-width:1;"/><text fill="#000000" font-family="sans-serif" font-size="11" lengthAdjust="spacing" textLength="103.5977" x="181.34" y="965.243">COUNTDOWN_TICK</text><text fill="#000000" font-family="sans-serif" font-size="11" lengthAdjust="spacing" textLength="62.3745" x="201.9516" y="978.1981">[next &lt;= 0]</text></g><!--link await_start to speak--><g class="link" data-entity-1="ent0009" data-entity-2="ent0010" data-link-type="dependency" data-source-line="96" id="lnk14"><path d="M531.6,879.0183 C531.6,896.6883 531.6,914.6183 531.6,934.8183" fill="none" id="await_start-to-speak" style="stroke:#555555;stroke-width:1;"/><polygon fill="#555555" points="531.6,940.8183,535.6,931.8183,531.6,935.8183,527.6,931.8183,531.6,940.8183" style="stroke:#555555;stroke-width:1;"/><text fill="#000000" font-family="sans-serif" font-size="11" lengthAdjust="spacing" textLength="91.8135" x="439.6" y="907.553">PRACTICE_START</text></g><!--link speak to submit--><g class="link" data-entity-1="ent0010" data-entity-2="ent0011" data-link-type="dependency" data-source-line="97" id="lnk15"><path d="M560.62,1020.2683 C560.62,1038.6883 560.62,1054.6983 560.62,1073.8183" fill="none" id="speak-to-submit" style="stroke:#555555;stroke-width:1;"/><polygon fill="#555555" points="560.62,1079.8183,564.62,1070.8183,560.62,1074.8183,556.62,1070.8183,560.62,1079.8183" style="stroke:#555555;stroke-width:1;"/><text fill="#000000" font-family="sans-serif" font-size="11" lengthAdjust="spacing" textLength="39.4722" x="520.62" y="1047.683">SUBMIT</text></g><!--link submit to tts--><g class="link" data-entity-1="ent0011" data-entity-2="ent0005" data-link-type="dependency" data-source-line="98" id="lnk16"><path d="M662.09,1079.9783 C662.09,968.6083 662.09,689.3283 662.09,578.0383" fill="none" id="submit-to-tts" style="stroke:#555555;stroke-width:1;"/><polygon fill="#555555" points="662.09,572.0383,658.09,581.0383,662.09,577.0383,666.09,581.0383,662.09,572.0383" style="stroke:#555555;stroke-width:1;"/><text fill="#000000" font-family="sans-serif" font-size="11" lengthAdjust="spacing" textLength="105.4775" x="556.09" y="823.643">ANSWER_ACCEPTED</text></g><!--link submit to finished--><g class="link" data-entity-1="ent0011" data-entity-2="ent0012" data-link-type="dependency" data-source-line="99" id="lnk17"><path d="M606.6,1170.9583 C606.6,1190.4183 606.6,1206.7483 606.6,1224.6883" fill="none" id="submit-to-finished" style="stroke:#555555;stroke-width:1;"/><polygon fill="#555555" points="606.6,1230.6883,610.6,1221.6883,606.6,1225.6883,602.6,1221.6883,606.6,1230.6883" style="stroke:#555555;stroke-width:1;"/><text fill="#000000" font-family="sans-serif" font-size="11" lengthAdjust="spacing" textLength="34.3696" x="571.6" y="1198.453">FINISH</text></g><!--link finished to *end*--><g class="link" data-entity-1="ent0012" data-entity-2="ent0018" data-link-type="dependency" data-source-line="101" id="lnk19"><path d="M602.93,1298.1083 C602.93,1330.3383 602.93,1370.9783 602.93,1391.6783" fill="none" id="finished-to-*end*" style="stroke:#555555;stroke-width:1;"/><polygon fill="#555555" points="602.93,1397.6783,606.93,1388.6783,602.93,1392.6783,598.93,1388.6783,602.93,1397.6783" style="stroke:#555555;stroke-width:1;"/></g><!--link error to *end*--><g class="link" data-entity-1="ent0013" data-entity-2="ent0018" data-link-type="dependency" data-source-line="102" id="lnk20"><path d="M824.68,1289.7283 C824.68,1307.3183 824.68,1327.6083 824.68,1327.6083 C824.68,1327.6083 610.26,1327.6083 610.26,1327.6083 C610.26,1327.6083 610.26,1369.3683 610.26,1391.3883" fill="none" id="error-to-*end*" style="stroke:#555555;stroke-width:1;"/><polygon fill="#555555" points="610.26,1397.3883,614.26,1388.3883,610.26,1392.3883,606.26,1388.3883,610.26,1397.3883" style="stroke:#555555;stroke-width:1;"/></g><g class="footer" data-source-line="114"><text fill="#888888" font-family="sans-serif" font-size="10" lengthAdjust="spacing" textLength="336.519" x="395.5381" y="1474.2718">MeFit &#53076;&#46300; &#44592;&#48152; State Diagram - frontend reducer machine (Machine A)</text></g><?plantuml-src VLPjJnj74Fv-ls9BlzWGynOW4AL8nY-jLV5IsoHgQUGSlWLEiU_SkpMKLesCC1A2j0454jCQH5Cd48ceJZ2fez8_qu_UzN_exDwTxt1CGHoxEy_EpiuyCpj49HcCw9_rvluJn0xhpMAL_bL5R7sjkLv6zBJEjeyboNoeQZdPaBDeNau_N3JqlAQ4z8nke4-Z4VxhGIXuGSvdI5JNI4Bz0QE10OymesgOhEOmqWsof7i49f49HZzA24sqdn0PZGv5mroY6mesxDN1WR6Hw4rO3Hg6lc8l3eiVMFIU3X1237K-Jx2xtD--R6iO6XuEZWn9FxMRTkSEmKPMrUJC-7XdCqEZaP7Gs4TcHcw5RmvsqeSDGuokqnUDXiBXmNPzeP71qS7HJlhIIxgQ_XzjqR7GKBksw4IeVp0CsgIvxlie41X7gfB146yHZIu-wKAoQQto3xgDch-Ks66DdHGGFTbalzQQMtN4JjQQlnKT12lMsKQf3qX5z_ROinfGOXbCG_HneL6ljhGRM5PMXNenaiGNjhlxh1LsKAH_F6w94qGs2ABlYisjIzGyABFYsvPAayjKRL5eTIQICu3DOXZJ89RBAbv1mPaOKhN0GaPTN29U7DQ8iOhwBFnTLS5w44A_Qggcpzy9Ps0JatkoeS4oXpW64MAcSXbvrR49vXBySIUTRDApEaec4uWTdR7rGzI3s7wHLlUQw-3QQhbvi6T3hnoInDyJEE2gH5wMmQP43iiFVT_biKbKNMl7S3EIn1JxhyKO63Y5upWDB06RVIHlQ375lOy504dA41XnARueyGze4lTviG41Gy08H3S-m3qGgnJeXw8ToJOUP7K5fopo8fV5hHFJG6AYw2kQE2gjI6a5ZXb-TBEVrJOHFIhJdok8VQXPJAJR5HWW7v0b8pJxBNmhdk10DOlrFF4Dc7u4X0zDpqubmzFtfbB9MEZBrh7oYgpo6AT4iCNPOicQIvunQE-Y9plD_H9S2h7jCZlQxKBDjHfzzSQ-AlBb33bD-0qjcrfyvH5hyPLF9F7bD4ycWH6s_tg4tk9nN-Fyk54jE_TzlD62No5iWd2AT1Gb8Q0Xxb8UtMimruVVpCzdLU9cc9XArZ-UkTiNzBo0s76PlIzpwwjlsVCz-XGCVbUYhyvSv9AiGQqmn8bwphQtix3Tuiuer-RE4B7KIloWPgvWmzVRs-lURK7LL7C9MvHs9iXRzwNMAbprTOqTxpgroIDmF9dEO5dBvv2S0I9YHPLxJ49wUFvt06loihe8LlYw-bJ7nZv8TtX7pIxNH7WoT4FO9qR8-uX8rX9OTdxHk3X3zFrcergWMo-R--3-KeM-B4bMWUPbtYccav5mB9YAHuBXhrsXLHFYaSJiPCIcm0tabWox4dEafn8cai5uqYsDhfwlPYE9P6nwAXMCnsDt8s5HShZOhHYfyFHKnAeWNE2j2DoEq7Gy79lwt3PJyeevN2Jud6h68USdGNR_8yJLR9txn8lbzQ6bvMen-5QRqw1Qed7KVz-1EGdJ6NddCmwzKXsycsRYmH308odRMM9P01p69cOd9cD9Xy6k4uDJYNkHU2eO2aLcak133y13fsXiAfRuGd8PnkNmijlSS6QIfWERvdL2z2nq1F-MDg3pk-GLfh8BxxflHiwRk2yEzCjYFzs2ydrOirl1nlabwkuMpTkY3adHtOsQ-w_fzYOKNgw8gokyGD_auVAQmZFJmEW1g6kbNWAR9j0emIMzgYdEKXuWzdo75Q7XF2_I9qNKg1MWN23Vf9nUWeuHJVXjnKx1X9pnFAsj11VKeq_V8kWUwBEAtSPQkhdUd3ZDxXgGbH-sPglI-YPvgbh511lYylOUS0-w8kmL0fyVqT_Bu8JJnjybUETswVOftIb1dRu1YX5_iy6B7NPR0jZEofTSGwDwm0uBq8rmpm5lROVmLkjPJRX664XtJf4l6W_4ffA1WLkF1iOSpx0ZmDTvijEJ2dy9NxrXMnN-SXGhZNDuUmzBu87RLhSOQ5MPGDPoSMzMSHHjbnlLDJZgOwouSS2ol3UNpsOy4U8zOEDYn-Q9Ny8GViupOACE_mouVXGOo_uHxm4yYhHQuhqSC36ioekyaGsW1GCwSRxJm4e-3PjiwznpWlx_0000?></g></svg>